<svg width="973" height="531" viewBox="0 0 973 531" xmlns="http://www.w3.org/2000/svg"><g fill="none" fill-rule="evenodd"><path d="M8 76a5 5 0 0 0-5 5v441a5 5 0 0 0 5 5h296a5 5 0 0 0 5-5V81a5 5 0 0 0-5-5H8zm0-3h296a8 8 0 0 1 8 8v441a8 8 0 0 1-8 8H8a8 8 0 0 1-8-8V81a8 8 0 0 1 8-8zM338 76a5 5 0 0 0-5 5v441a5 5 0 0 0 5 5h296a5 5 0 0 0 5-5V81a5 5 0 0 0-5-5H338zm0-3h296a8 8 0 0 1 8 8v441a8 8 0 0 1-8 8H338a8 8 0 0 1-8-8V81a8 8 0 0 1 8-8zM668 77a5 5 0 0 0-5 5v123a5 5 0 0 0 5 5h296a5 5 0 0 0 5-5V82a5 5 0 0 0-5-5H668zm0-3h296a8 8 0 0 1 8 8v123a8 8 0 0 1-8 8H668a8 8 0 0 1-8-8V82a8 8 0 0 1 8-8zM669 236a5 5 0 0 0-5 5v123a5 5 0 0 0 5 5h296a5 5 0 0 0 5-5V241a5 5 0 0 0-5-5H669zm0-3h296a8 8 0 0 1 8 8v123a8 8 0 0 1-8 8H669a8 8 0 0 1-8-8V241a8 8 0 0 1 8-8zM669 395a5 5 0 0 0-5 5v123a5 5 0 0 0 5 5h296a5 5 0 0 0 5-5V400a5 5 0 0 0-5-5H669zm0-3h296a8 8 0 0 1 8 8v123a8 8 0 0 1-8 8H669a8 8 0 0 1-8-8V400a8 8 0 0 1 8-8z" fill="#5A2AB5" fill-rule="nonzero"/><path d="M89.475 249.76h3.78v8.46h9.93v-8.46h3.78V271h-3.78v-9.36h-9.93V271h-3.78v-21.24zm30.9 19.26h-.09c-.52.82-1.18 1.415-1.98 1.785-.8.37-1.68.555-2.64.555a7.01 7.01 0 0 1-1.935-.27 5.24 5.24 0 0 1-1.68-.81c-.49-.36-.885-.81-1.185-1.35-.3-.54-.45-1.17-.45-1.89 0-.78.14-1.445.42-1.995.28-.55.655-1.01 1.125-1.38a5.701 5.701 0 0 1 1.635-.885 11.2 11.2 0 0 1 1.935-.495c.67-.11 1.345-.18 2.025-.21.68-.03 1.32-.045 1.92-.045h.9v-.39c0-.9-.31-1.575-.93-2.025-.62-.45-1.41-.675-2.37-.675-.76 0-1.47.135-2.13.405-.66.27-1.23.635-1.71 1.095l-1.89-1.89c.8-.82 1.735-1.41 2.805-1.77 1.07-.36 2.175-.54 3.315-.54 1.02 0 1.88.115 2.58.345.7.23 1.28.525 1.74.885.46.36.815.775 1.065 1.245.25.47.43.945.54 1.425.11.48.175.945.195 1.395.02.45.03.845.03 1.185V271h-3.24v-1.98zm-.21-4.47h-.75c-.5 0-1.06.02-1.68.06-.62.04-1.205.135-1.755.285-.55.15-1.015.37-1.395.66-.38.29-.57.695-.57 1.215 0 .34.075.625.225.855.15.23.345.425.585.585.24.16.51.275.81.345.3.07.6.105.9.105 1.24 0 2.155-.295 2.745-.885.59-.59.885-1.395.885-2.415v-.81zm7.32-7.95h3.6v2.28h.06c.4-.84.97-1.49 1.71-1.95.74-.46 1.59-.69 2.55-.69.22 0 .435.02.645.06.21.04.425.09.645.15v3.48c-.3-.08-.595-.145-.885-.195a5.026 5.026 0 0 0-.855-.075c-.84 0-1.515.155-2.025.465-.51.31-.9.665-1.17 1.065-.27.4-.45.8-.54 1.2-.09.4-.135.7-.135.9V271h-3.6v-14.4zm23.07 12.24h-.06c-.52.88-1.22 1.52-2.1 1.92-.88.4-1.83.6-2.85.6-1.12 0-2.115-.195-2.985-.585a6.688 6.688 0 0 1-2.235-1.605 6.862 6.862 0 0 1-1.41-2.4 8.98 8.98 0 0 1-.48-2.97c0-1.06.17-2.05.51-2.97.34-.92.815-1.72 1.425-2.4a6.568 6.568 0 0 1 2.205-1.605c.86-.39 1.8-.585 2.82-.585.68 0 1.28.07 1.8.21.52.14.98.32 1.38.54.4.22.74.455 1.02.705.28.25.51.495.69.735h.09v-10.11h3.6V271h-3.42v-2.16zm-8.52-5.04c0 .56.095 1.1.285 1.62.19.52.47.98.84 1.38.37.4.815.72 1.335.96s1.11.36 1.77.36c.66 0 1.25-.12 1.77-.36s.965-.56 1.335-.96c.37-.4.65-.86.84-1.38.19-.52.285-1.06.285-1.62s-.095-1.1-.285-1.62c-.19-.52-.47-.98-.84-1.38-.37-.4-.815-.72-1.335-.96s-1.11-.36-1.77-.36c-.66 0-1.25.12-1.77.36s-.965.56-1.335.96c-.37.4-.65.86-.84 1.38-.19.52-.285 1.06-.285 1.62zm14.07-7.2h3.9l3.12 10.08h.06l2.91-10.08h3.9l3.12 10.08h.06l3-10.08h3.63l-4.89 14.4h-3.57l-3.42-9.84h-.06l-3.03 9.84h-3.72l-5.01-14.4zm34.83 12.42h-.09c-.52.82-1.18 1.415-1.98 1.785-.8.37-1.68.555-2.64.555a7.01 7.01 0 0 1-1.935-.27 5.24 5.24 0 0 1-1.68-.81c-.49-.36-.885-.81-1.185-1.35-.3-.54-.45-1.17-.45-1.89 0-.78.14-1.445.42-1.995.28-.55.655-1.01 1.125-1.38a5.701 5.701 0 0 1 1.635-.885 11.2 11.2 0 0 1 1.935-.495c.67-.11 1.345-.18 2.025-.21.68-.03 1.32-.045 1.92-.045h.9v-.39c0-.9-.31-1.575-.93-2.025-.62-.45-1.41-.675-2.37-.675-.76 0-1.47.135-2.13.405-.66.27-1.23.635-1.71 1.095l-1.89-1.89c.8-.82 1.735-1.41 2.805-1.77 1.07-.36 2.175-.54 3.315-.54 1.02 0 1.88.115 2.58.345.7.23 1.28.525 1.74.885.46.36.815.775 1.065 1.245.25.47.43.945.54 1.425.11.48.175.945.195 1.395.02.45.03.845.03 1.185V271h-3.24v-1.98zm-.21-4.47h-.75c-.5 0-1.06.02-1.68.06-.62.04-1.205.135-1.755.285-.55.15-1.015.37-1.395.66-.38.29-.57.695-.57 1.215 0 .34.075.625.225.855.15.23.345.425.585.585.24.16.51.275.81.345.3.07.6.105.9.105 1.24 0 2.155-.295 2.745-.885.59-.59.885-1.395.885-2.415v-.81zm7.32-7.95h3.6v2.28h.06c.4-.84.97-1.49 1.71-1.95.74-.46 1.59-.69 2.55-.69.22 0 .435.02.645.06.21.04.425.09.645.15v3.48c-.3-.08-.595-.145-.885-.195a5.026 5.026 0 0 0-.855-.075c-.84 0-1.515.155-2.025.465-.51.31-.9.665-1.17 1.065-.27.4-.45.8-.54 1.2-.09.4-.135.7-.135.9V271h-3.6v-14.4zm14.55 8.46c.12 1.08.54 1.92 1.26 2.52.72.6 1.59.9 2.61.9.9 0 1.655-.185 2.265-.555a6.279 6.279 0 0 0 1.605-1.395l2.58 1.95c-.84 1.04-1.78 1.78-2.82 2.22-1.04.44-2.13.66-3.27.66-1.08 0-2.1-.18-3.06-.54a7.34 7.34 0 0 1-2.49-1.53 7.26 7.26 0 0 1-1.665-2.385c-.41-.93-.615-1.965-.615-3.105s.205-2.175.615-3.105a7.26 7.26 0 0 1 1.665-2.385 7.34 7.34 0 0 1 2.49-1.53c.96-.36 1.98-.54 3.06-.54 1 0 1.915.175 2.745.525.83.35 1.54.855 2.13 1.515.59.66 1.05 1.475 1.38 2.445.33.97.495 2.085.495 3.345v.99h-10.98zm7.38-2.7c-.02-1.06-.35-1.895-.99-2.505-.64-.61-1.53-.915-2.67-.915-1.08 0-1.935.31-2.565.93-.63.62-1.015 1.45-1.155 2.49h7.38zm-142.17 28.4h8.37c1.4 0 2.75.215 4.05.645a9.84 9.84 0 0 1 3.45 1.965c1 .88 1.8 1.985 2.4 3.315.6 1.33.9 2.895.9 4.695 0 1.82-.345 3.395-1.035 4.725-.69 1.33-1.58 2.43-2.67 3.3-1.09.87-2.3 1.52-3.63 1.95-1.33.43-2.635.645-3.915.645h-7.92v-21.24zm6.6 17.82c1.18 0 2.295-.135 3.345-.405 1.05-.27 1.965-.69 2.745-1.26a5.983 5.983 0 0 0 1.845-2.22c.45-.91.675-2.015.675-3.315 0-1.28-.2-2.38-.6-3.3-.4-.92-.955-1.665-1.665-2.235-.71-.57-1.55-.99-2.52-1.26s-2.035-.405-3.195-.405h-3.45v14.4h2.82zm18.72-2.52c.12 1.08.54 1.92 1.26 2.52.72.6 1.59.9 2.61.9.9 0 1.655-.185 2.265-.555a6.279 6.279 0 0 0 1.605-1.395l2.58 1.95c-.84 1.04-1.78 1.78-2.82 2.22-1.04.44-2.13.66-3.27.66-1.08 0-2.1-.18-3.06-.54a7.34 7.34 0 0 1-2.49-1.53 7.26 7.26 0 0 1-1.665-2.385c-.41-.93-.615-1.965-.615-3.105s.205-2.175.615-3.105a7.26 7.26 0 0 1 1.665-2.385 7.34 7.34 0 0 1 2.49-1.53c.96-.36 1.98-.54 3.06-.54 1 0 1.915.175 2.745.525.83.35 1.54.855 2.13 1.515.59.66 1.05 1.475 1.38 2.445.33.97.495 2.085.495 3.345v.99h-10.98zm7.38-2.7c-.02-1.06-.35-1.895-.99-2.505-.64-.61-1.53-.915-2.67-.915-1.08 0-1.935.31-2.565.93-.63.62-1.015 1.45-1.155 2.49h7.38zm14.64-1.77c-.7-.98-1.64-1.47-2.82-1.47-.48 0-.95.12-1.41.36-.46.24-.69.63-.69 1.17 0 .44.19.76.57.96.38.2.86.37 1.44.51s1.205.285 1.875.435c.67.15 1.295.38 1.875.69.58.31 1.06.735 1.44 1.275.38.54.57 1.28.57 2.22 0 .86-.185 1.585-.555 2.175-.37.59-.85 1.065-1.44 1.425-.59.36-1.255.62-1.995.78-.74.16-1.48.24-2.22.24-1.12 0-2.15-.16-3.09-.48-.94-.32-1.78-.9-2.52-1.74l2.4-2.25c.46.52.955.945 1.485 1.275.53.33 1.175.495 1.935.495.26 0 .53-.03.81-.09s.54-.16.78-.3c.24-.14.435-.315.585-.525.15-.21.225-.455.225-.735 0-.5-.19-.87-.57-1.11-.38-.24-.86-.435-1.44-.585-.58-.15-1.205-.29-1.875-.42a7.265 7.265 0 0 1-1.875-.63 3.94 3.94 0 0 1-1.44-1.215c-.38-.52-.57-1.24-.57-2.16 0-.8.165-1.495.495-2.085a4.35 4.35 0 0 1 1.305-1.455c.54-.38 1.16-.66 1.86-.84.7-.18 1.41-.27 2.13-.27.96 0 1.91.165 2.85.495.94.33 1.7.895 2.28 1.695l-2.4 2.16zm15.48.33c-.42-.44-.86-.79-1.32-1.05-.46-.26-.93-.39-1.41-.39-.66 0-1.25.12-1.77.36s-.965.56-1.335.96c-.37.4-.65.86-.84 1.38-.19.52-.285 1.06-.285 1.62s.095 1.1.285 1.62c.19.52.47.98.84 1.38.37.4.815.72 1.335.96s1.11.36 1.77.36c.56 0 1.08-.115 1.56-.345.48-.23.89-.565 1.23-1.005l2.4 2.58c-.36.36-.775.67-1.245.93a8.696 8.696 0 0 1-2.805.975c-.44.07-.82.105-1.14.105-1.08 0-2.1-.18-3.06-.54a7.34 7.34 0 0 1-2.49-1.53 7.26 7.26 0 0 1-1.665-2.385c-.41-.93-.615-1.965-.615-3.105s.205-2.175.615-3.105a7.26 7.26 0 0 1 1.665-2.385 7.34 7.34 0 0 1 2.49-1.53c.96-.36 1.98-.54 3.06-.54.92 0 1.845.175 2.775.525.93.35 1.745.905 2.445 1.665l-2.49 2.49zm4.62-4.32h3.6v2.28h.06c.4-.84.97-1.49 1.71-1.95.74-.46 1.59-.69 2.55-.69.22 0 .435.02.645.06.21.04.425.09.645.15v3.48c-.3-.08-.595-.145-.885-.195a5.026 5.026 0 0 0-.855-.075c-.84 0-1.515.155-2.025.465-.51.31-.9.665-1.17 1.065-.27.4-.45.8-.54 1.2-.09.4-.135.7-.135.9V312h-3.6v-14.4zm11.73 0h3.6V312h-3.6v-14.4zm-.51-4.89c0-.58.215-1.085.645-1.515.43-.43.975-.645 1.635-.645s1.215.205 1.665.615c.45.41.675.925.675 1.545 0 .62-.225 1.135-.675 1.545-.45.41-1.005.615-1.665.615-.66 0-1.205-.215-1.635-.645-.43-.43-.645-.935-.645-1.515zm8.25 4.89h3.42v2.16h.06c.52-.88 1.22-1.52 2.1-1.92.88-.4 1.83-.6 2.85-.6 1.1 0 2.09.195 2.97.585.88.39 1.63.925 2.25 1.605.62.68 1.09 1.48 1.41 2.4.32.92.48 1.91.48 2.97a8.5 8.5 0 0 1-.51 2.97c-.34.92-.815 1.72-1.425 2.4a6.568 6.568 0 0 1-2.205 1.605c-.86.39-1.8.585-2.82.585-.68 0-1.28-.07-1.8-.21-.52-.14-.98-.32-1.38-.54a5.52 5.52 0 0 1-1.02-.705c-.28-.25-.51-.495-.69-.735h-.09v8.67h-3.6V297.6zm11.94 7.2c0-.56-.095-1.1-.285-1.62-.19-.52-.47-.98-.84-1.38-.37-.4-.815-.72-1.335-.96s-1.11-.36-1.77-.36c-.66 0-1.25.12-1.77.36s-.965.56-1.335.96c-.37.4-.65.86-.84 1.38-.19.52-.285 1.06-.285 1.62s.095 1.1.285 1.62c.19.52.47.98.84 1.38.37.4.815.72 1.335.96s1.11.36 1.77.36c.66 0 1.25-.12 1.77-.36s.965-.56 1.335-.96c.37-.4.65-.86.84-1.38.19-.52.285-1.06.285-1.62zm5.28-4.14v-3.06h2.97v-4.17h3.6v4.17h3.96v3.06h-3.96v6.3c0 .72.135 1.29.405 1.71.27.42.805.63 1.605.63.32 0 .67-.035 1.05-.105.38-.07.68-.185.9-.345v3.03c-.38.18-.845.305-1.395.375s-1.035.105-1.455.105c-.96 0-1.745-.105-2.355-.315-.61-.21-1.09-.53-1.44-.96-.35-.43-.59-.965-.72-1.605s-.195-1.38-.195-2.22v-6.6h-2.97zm13.41-3.06h3.6V312h-3.6v-14.4zm-.51-4.89c0-.58.215-1.085.645-1.515.43-.43.975-.645 1.635-.645s1.215.205 1.665.615c.45.41.675.925.675 1.545 0 .62-.225 1.135-.675 1.545-.45.41-1.005.615-1.665.615-.66 0-1.205-.215-1.635-.645-.43-.43-.645-.935-.645-1.515zm7.53 12.09c0-1.14.205-2.175.615-3.105a7.26 7.26 0 0 1 1.665-2.385 7.34 7.34 0 0 1 2.49-1.53c.96-.36 1.98-.54 3.06-.54s2.1.18 3.06.54c.96.36 1.79.87 2.49 1.53a7.26 7.26 0 0 1 1.665 2.385c.41.93.615 1.965.615 3.105s-.205 2.175-.615 3.105a7.26 7.26 0 0 1-1.665 2.385 7.34 7.34 0 0 1-2.49 1.53c-.96.36-1.98.54-3.06.54s-2.1-.18-3.06-.54a7.34 7.34 0 0 1-2.49-1.53 7.26 7.26 0 0 1-1.665-2.385c-.41-.93-.615-1.965-.615-3.105zm3.6 0c0 .56.095 1.1.285 1.62.19.52.47.98.84 1.38.37.4.815.72 1.335.96s1.11.36 1.77.36c.66 0 1.25-.12 1.77-.36s.965-.56 1.335-.96c.37-.4.65-.86.84-1.38.19-.52.285-1.06.285-1.62s-.095-1.1-.285-1.62c-.19-.52-.47-.98-.84-1.38-.37-.4-.815-.72-1.335-.96s-1.11-.36-1.77-.36c-.66 0-1.25.12-1.77.36s-.965.56-1.335.96c-.37.4-.65.86-.84 1.38-.19.52-.285 1.06-.285 1.62zm15.42-7.2h3.42v2.31h.06c.34-.72.86-1.345 1.56-1.875.7-.53 1.65-.795 2.85-.795.96 0 1.775.16 2.445.48.67.32 1.215.74 1.635 1.26.42.52.72 1.12.9 1.8.18.68.27 1.39.27 2.13V312h-3.6v-7.29c0-.4-.02-.845-.06-1.335-.04-.49-.145-.95-.315-1.38-.17-.43-.435-.79-.795-1.08-.36-.29-.85-.435-1.47-.435-.6 0-1.105.1-1.515.3-.41.2-.75.47-1.02.81-.27.34-.465.73-.585 1.17-.12.44-.18.9-.18 1.38V312h-3.6v-14.4zm-138.3 34.16h3.78v17.82h9.03V353h-12.81v-21.24zm24.24 19.26h-.09c-.52.82-1.18 1.415-1.98 1.785-.8.37-1.68.555-2.64.555a7.01 7.01 0 0 1-1.935-.27 5.24 5.24 0 0 1-1.68-.81c-.49-.36-.885-.81-1.185-1.35-.3-.54-.45-1.17-.45-1.89 0-.78.14-1.445.42-1.995.28-.55.655-1.01 1.125-1.38a5.701 5.701 0 0 1 1.635-.885 11.2 11.2 0 0 1 1.935-.495c.67-.11 1.345-.18 2.025-.21.68-.03 1.32-.045 1.92-.045h.9v-.39c0-.9-.31-1.575-.93-2.025-.62-.45-1.41-.675-2.37-.675-.76 0-1.47.135-2.13.405-.66.27-1.23.635-1.71 1.095l-1.89-1.89c.8-.82 1.735-1.41 2.805-1.77 1.07-.36 2.175-.54 3.315-.54 1.02 0 1.88.115 2.58.345.7.23 1.28.525 1.74.885.46.36.815.775 1.065 1.245.25.47.43.945.54 1.425.11.48.175.945.195 1.395.02.45.03.845.03 1.185V353h-3.24v-1.98zm-.21-4.47h-.75c-.5 0-1.06.02-1.68.06-.62.04-1.205.135-1.755.285-.55.15-1.015.37-1.395.66-.38.29-.57.695-.57 1.215 0 .34.075.625.225.855.15.23.345.425.585.585.24.16.51.275.81.345.3.07.6.105.9.105 1.24 0 2.155-.295 2.745-.885.59-.59.885-1.395.885-2.415v-.81zm7.32-7.95h3.42v2.31h.06c.34-.72.86-1.345 1.56-1.875.7-.53 1.65-.795 2.85-.795.96 0 1.775.16 2.445.48.67.32 1.215.74 1.635 1.26.42.52.72 1.12.9 1.8.18.68.27 1.39.27 2.13V353h-3.6v-7.29c0-.4-.02-.845-.06-1.335-.04-.49-.145-.95-.315-1.38-.17-.43-.435-.79-.795-1.08-.36-.29-.85-.435-1.47-.435-.6 0-1.105.1-1.515.3-.41.2-.75.47-1.02.81-.27.34-.465.73-.585 1.17-.12.44-.18.9-.18 1.38V353h-3.6v-14.4zm32.04 0v13.11c0 1.3-.16 2.475-.48 3.525-.32 1.05-.815 1.94-1.485 2.67-.67.73-1.515 1.295-2.535 1.695-1.02.4-2.23.6-3.63.6-1.34 0-2.61-.17-3.81-.51-1.2-.34-2.31-.96-3.33-1.86l2.16-2.94c.72.66 1.47 1.17 2.25 1.53.78.36 1.68.54 2.7.54.86 0 1.585-.12 2.175-.36.59-.24 1.06-.57 1.41-.99.35-.42.6-.925.75-1.515.15-.59.225-1.245.225-1.965v-1.05h-.06c-.52.7-1.21 1.225-2.07 1.575-.86.35-1.74.525-2.64.525-1.08 0-2.06-.195-2.94-.585a7.029 7.029 0 0 1-2.265-1.575 6.854 6.854 0 0 1-1.455-2.34c-.34-.9-.51-1.86-.51-2.88 0-1.06.16-2.05.48-2.97.32-.92.79-1.72 1.41-2.4a6.688 6.688 0 0 1 2.235-1.605c.87-.39 1.865-.585 2.985-.585 1.02 0 1.97.2 2.85.6.88.4 1.58 1.04 2.1 1.92h.06v-2.16h3.42zm-7.68 2.88c-.64 0-1.22.105-1.74.315-.52.21-.965.5-1.335.87s-.66.82-.87 1.35a4.725 4.725 0 0 0-.315 1.755 4.086 4.086 0 0 0 1.2 2.94 4.267 4.267 0 0 0 3.03 1.23c.66 0 1.255-.11 1.785-.33.53-.22.98-.515 1.35-.885.37-.37.655-.815.855-1.335.2-.52.3-1.08.3-1.68 0-1.26-.38-2.28-1.14-3.06-.76-.78-1.8-1.17-3.12-1.17zm24.9 11.52h-3.42v-2.31h-.06c-.34.72-.86 1.345-1.56 1.875-.7.53-1.65.795-2.85.795-.96 0-1.775-.155-2.445-.465a4.404 4.404 0 0 1-1.635-1.26 4.91 4.91 0 0 1-.9-1.815 8.29 8.29 0 0 1-.27-2.13v-9.09h3.6v7.29c0 .4.02.845.06 1.335.04.49.145.95.315 1.38.17.43.43.79.78 1.08.35.29.845.435 1.485.435.6 0 1.105-.1 1.515-.3.41-.2.75-.47 1.02-.81.27-.34.465-.73.585-1.17.12-.44.18-.9.18-1.38v-7.86h3.6V353zm13.08-1.98h-.09c-.52.82-1.18 1.415-1.98 1.785-.8.37-1.68.555-2.64.555a7.01 7.01 0 0 1-1.935-.27 5.24 5.24 0 0 1-1.68-.81c-.49-.36-.885-.81-1.185-1.35-.3-.54-.45-1.17-.45-1.89 0-.78.14-1.445.42-1.995.28-.55.655-1.01 1.125-1.38a5.701 5.701 0 0 1 1.635-.885 11.2 11.2 0 0 1 1.935-.495c.67-.11 1.345-.18 2.025-.21.68-.03 1.32-.045 1.92-.045h.9v-.39c0-.9-.31-1.575-.93-2.025-.62-.45-1.41-.675-2.37-.675-.76 0-1.47.135-2.13.405-.66.27-1.23.635-1.71 1.095l-1.89-1.89c.8-.82 1.735-1.41 2.805-1.77 1.07-.36 2.175-.54 3.315-.54 1.02 0 1.88.115 2.58.345.7.23 1.28.525 1.74.885.46.36.815.775 1.065 1.245.25.47.43.945.54 1.425.11.48.175.945.195 1.395.02.45.03.845.03 1.185V353h-3.24v-1.98zm-.21-4.47h-.75c-.5 0-1.06.02-1.68.06-.62.04-1.205.135-1.755.285-.55.15-1.015.37-1.395.66-.38.29-.57.695-.57 1.215 0 .34.075.625.225.855.15.23.345.425.585.585.24.16.51.275.81.345.3.07.6.105.9.105 1.24 0 2.155-.295 2.745-.885.59-.59.885-1.395.885-2.415v-.81zm22.14-7.95v13.11c0 1.3-.16 2.475-.48 3.525-.32 1.05-.815 1.94-1.485 2.67-.67.73-1.515 1.295-2.535 1.695-1.02.4-2.23.6-3.63.6-1.34 0-2.61-.17-3.81-.51-1.2-.34-2.31-.96-3.33-1.86l2.16-2.94c.72.66 1.47 1.17 2.25 1.53.78.36 1.68.54 2.7.54.86 0 1.585-.12 2.175-.36.59-.24 1.06-.57 1.41-.99.35-.42.6-.925.75-1.515.15-.59.225-1.245.225-1.965v-1.05h-.06c-.52.7-1.21 1.225-2.07 1.575-.86.35-1.74.525-2.64.525-1.08 0-2.06-.195-2.94-.585a7.029 7.029 0 0 1-2.265-1.575 6.854 6.854 0 0 1-1.455-2.34c-.34-.9-.51-1.86-.51-2.88 0-1.06.16-2.05.48-2.97.32-.92.79-1.72 1.41-2.4a6.688 6.688 0 0 1 2.235-1.605c.87-.39 1.865-.585 2.985-.585 1.02 0 1.97.2 2.85.6.88.4 1.58 1.04 2.1 1.92h.06v-2.16h3.42zm-7.68 2.88c-.64 0-1.22.105-1.74.315-.52.21-.965.5-1.335.87s-.66.82-.87 1.35a4.725 4.725 0 0 0-.315 1.755 4.086 4.086 0 0 0 1.2 2.94 4.267 4.267 0 0 0 3.03 1.23c.66 0 1.255-.11 1.785-.33.53-.22.98-.515 1.35-.885.37-.37.655-.815.855-1.335.2-.52.3-1.08.3-1.68 0-1.26-.38-2.28-1.14-3.06-.76-.78-1.8-1.17-3.12-1.17zm14.64 5.58c.12 1.08.54 1.92 1.26 2.52.72.6 1.59.9 2.61.9.9 0 1.655-.185 2.265-.555a6.279 6.279 0 0 0 1.605-1.395l2.58 1.95c-.84 1.04-1.78 1.78-2.82 2.22-1.04.44-2.13.66-3.27.66-1.08 0-2.1-.18-3.06-.54a7.34 7.34 0 0 1-2.49-1.53 7.26 7.26 0 0 1-1.665-2.385c-.41-.93-.615-1.965-.615-3.105s.205-2.175.615-3.105a7.26 7.26 0 0 1 1.665-2.385 7.34 7.34 0 0 1 2.49-1.53c.96-.36 1.98-.54 3.06-.54 1 0 1.915.175 2.745.525.83.35 1.54.855 2.13 1.515.59.66 1.05 1.475 1.38 2.445.33.97.495 2.085.495 3.345v.99h-10.98zm7.38-2.7c-.02-1.06-.35-1.895-.99-2.505-.64-.61-1.53-.915-2.67-.915-1.08 0-1.935.31-2.565.93-.63.62-1.015 1.45-1.155 2.49h7.38zm14.64-1.77c-.7-.98-1.64-1.47-2.82-1.47-.48 0-.95.12-1.41.36-.46.24-.69.63-.69 1.17 0 .44.19.76.57.96.38.2.86.37 1.44.51s1.205.285 1.875.435c.67.15 1.295.38 1.875.69.58.31 1.06.735 1.44 1.275.38.54.57 1.28.57 2.22 0 .86-.185 1.585-.555 2.175-.37.59-.85 1.065-1.44 1.425-.59.36-1.255.62-1.995.78-.74.16-1.48.24-2.22.24-1.12 0-2.15-.16-3.09-.48-.94-.32-1.78-.9-2.52-1.74l2.4-2.25c.46.52.955.945 1.485 1.275.53.33 1.175.495 1.935.495.26 0 .53-.03.81-.09s.54-.16.78-.3c.24-.14.435-.315.585-.525.15-.21.225-.455.225-.735 0-.5-.19-.87-.57-1.11-.38-.24-.86-.435-1.44-.585-.58-.15-1.205-.29-1.875-.42a7.265 7.265 0 0 1-1.875-.63 3.94 3.94 0 0 1-1.44-1.215c-.38-.52-.57-1.24-.57-2.16 0-.8.165-1.495.495-2.085a4.35 4.35 0 0 1 1.305-1.455c.54-.38 1.16-.66 1.86-.84.7-.18 1.41-.27 2.13-.27.96 0 1.91.165 2.85.495.94.33 1.7.895 2.28 1.695l-2.4 2.16zM433.5 276.32a3.487 3.487 0 0 0-1.605-1.275 5.605 5.605 0 0 0-2.115-.405c-.44 0-.865.05-1.275.15-.41.1-.78.26-1.11.48-.33.22-.595.505-.795.855-.2.35-.3.765-.3 1.245 0 .72.25 1.27.75 1.65.5.38 1.12.71 1.86.99s1.55.55 2.43.81c.88.26 1.69.62 2.43 1.08a6.01 6.01 0 0 1 1.86 1.83c.5.76.75 1.77.75 3.03 0 1.14-.21 2.135-.63 2.985a6.082 6.082 0 0 1-1.695 2.115c-.71.56-1.535.98-2.475 1.26-.94.28-1.93.42-2.97.42-1.32 0-2.59-.22-3.81-.66-1.22-.44-2.27-1.18-3.15-2.22l2.85-2.76c.46.7 1.065 1.245 1.815 1.635a5.098 5.098 0 0 0 3.705.405c.44-.12.84-.3 1.2-.54.36-.24.65-.545.87-.915.22-.37.33-.795.33-1.275 0-.78-.25-1.38-.75-1.8-.5-.42-1.12-.775-1.86-1.065-.74-.29-1.55-.565-2.43-.825-.88-.26-1.69-.615-2.43-1.065a5.91 5.91 0 0 1-1.86-1.8c-.5-.75-.75-1.755-.75-3.015 0-1.1.225-2.05.675-2.85.45-.8 1.04-1.465 1.77-1.995a7.726 7.726 0 0 1 2.505-1.185 10.754 10.754 0 0 1 6.135.12c1.05.34 1.995.9 2.835 1.68l-2.76 2.91zm4.53 2.28h3.96l4.02 9.99h.06l3.6-9.99h3.75l-6.81 17.49a11.01 11.01 0 0 1-.855 1.785c-.31.51-.675.94-1.095 1.29-.42.35-.915.61-1.485.78-.57.17-1.255.255-2.055.255-.94 0-1.86-.12-2.76-.36l.45-3.24c.28.1.575.185.885.255.31.07.625.105.945.105.44 0 .81-.04 1.11-.12.3-.08.555-.205.765-.375.21-.17.385-.39.525-.66s.29-.595.45-.975l.69-1.71-6.15-14.52zm17.52 0h3.42v2.31h.06c.34-.72.86-1.345 1.56-1.875.7-.53 1.65-.795 2.85-.795.96 0 1.775.16 2.445.48.67.32 1.215.74 1.635 1.26.42.52.72 1.12.9 1.8.18.68.27 1.39.27 2.13V293h-3.6v-7.29c0-.4-.02-.845-.06-1.335-.04-.49-.145-.95-.315-1.38-.17-.43-.435-.79-.795-1.08-.36-.29-.85-.435-1.47-.435-.6 0-1.105.1-1.515.3-.41.2-.75.47-1.02.81-.27.34-.465.73-.585 1.17-.12.44-.18.9-.18 1.38V293h-3.6v-14.4zm15.54 3.06v-3.06h2.97v-4.17h3.6v4.17h3.96v3.06h-3.96v6.3c0 .72.135 1.29.405 1.71.27.42.805.63 1.605.63.32 0 .67-.035 1.05-.105.38-.07.68-.185.9-.345v3.03c-.38.18-.845.305-1.395.375s-1.035.105-1.455.105c-.96 0-1.745-.105-2.355-.315-.61-.21-1.09-.53-1.44-.96-.35-.43-.59-.965-.72-1.605s-.195-1.38-.195-2.22v-6.6h-2.97zm16.95-1.05h.06c.28-.6.775-1.145 1.485-1.635.71-.49 1.625-.735 2.745-.735.96 0 1.775.16 2.445.48.67.32 1.215.74 1.635 1.26.42.52.72 1.12.9 1.8.18.68.27 1.39.27 2.13V293h-3.6v-7.29c0-.4-.02-.845-.06-1.335-.04-.49-.145-.95-.315-1.38-.17-.43-.435-.79-.795-1.08-.36-.29-.85-.435-1.47-.435-.6 0-1.105.1-1.515.3-.41.2-.75.47-1.02.81-.27.34-.465.73-.585 1.17-.12.44-.18.9-.18 1.38V293h-3.6v-22.68h3.6v10.29zm16.5 6.45c.12 1.08.54 1.92 1.26 2.52.72.6 1.59.9 2.61.9.9 0 1.655-.185 2.265-.555a6.279 6.279 0 0 0 1.605-1.395l2.58 1.95c-.84 1.04-1.78 1.78-2.82 2.22-1.04.44-2.13.66-3.27.66-1.08 0-2.1-.18-3.06-.54a7.34 7.34 0 0 1-2.49-1.53 7.26 7.26 0 0 1-1.665-2.385c-.41-.93-.615-1.965-.615-3.105s.205-2.175.615-3.105a7.26 7.26 0 0 1 1.665-2.385 7.34 7.34 0 0 1 2.49-1.53c.96-.36 1.98-.54 3.06-.54 1 0 1.915.175 2.745.525.83.35 1.54.855 2.13 1.515.59.66 1.05 1.475 1.38 2.445.33.97.495 2.085.495 3.345v.99h-10.98zm7.38-2.7c-.02-1.06-.35-1.895-.99-2.505-.64-.61-1.53-.915-2.67-.915-1.08 0-1.935.31-2.565.93-.63.62-1.015 1.45-1.155 2.49h7.38zm14.64-1.77c-.7-.98-1.64-1.47-2.82-1.47-.48 0-.95.12-1.41.36-.46.24-.69.63-.69 1.17 0 .44.19.76.57.96.38.2.86.37 1.44.51s1.205.285 1.875.435c.67.15 1.295.38 1.875.69.58.31 1.06.735 1.44 1.275.38.54.57 1.28.57 2.22 0 .86-.185 1.585-.555 2.175-.37.59-.85 1.065-1.44 1.425-.59.36-1.255.62-1.995.78-.74.16-1.48.24-2.22.24-1.12 0-2.15-.16-3.09-.48-.94-.32-1.78-.9-2.52-1.74l2.4-2.25c.46.52.955.945 1.485 1.275.53.33 1.175.495 1.935.495.26 0 .53-.03.81-.09s.54-.16.78-.3c.24-.14.435-.315.585-.525.15-.21.225-.455.225-.735 0-.5-.19-.87-.57-1.11-.38-.24-.86-.435-1.44-.585-.58-.15-1.205-.29-1.875-.42a7.265 7.265 0 0 1-1.875-.63 3.94 3.94 0 0 1-1.44-1.215c-.38-.52-.57-1.24-.57-2.16 0-.8.165-1.495.495-2.085a4.35 4.35 0 0 1 1.305-1.455c.54-.38 1.16-.66 1.86-.84.7-.18 1.41-.27 2.13-.27.96 0 1.91.165 2.85.495.94.33 1.7.895 2.28 1.695l-2.4 2.16zm5.7-3.99h3.6V293h-3.6v-14.4zm-.51-4.89c0-.58.215-1.085.645-1.515.43-.43.975-.645 1.635-.645s1.215.205 1.665.615c.45.41.675.925.675 1.545 0 .62-.225 1.135-.675 1.545-.45.41-1.005.615-1.665.615-.66 0-1.205-.215-1.635-.645-.43-.43-.645-.935-.645-1.515zm15.93 8.88c-.7-.98-1.64-1.47-2.82-1.47-.48 0-.95.12-1.41.36-.46.24-.69.63-.69 1.17 0 .44.19.76.57.96.38.2.86.37 1.44.51s1.205.285 1.875.435c.67.15 1.295.38 1.875.69.58.31 1.06.735 1.44 1.275.38.54.57 1.28.57 2.22 0 .86-.185 1.585-.555 2.175-.37.59-.85 1.065-1.44 1.425-.59.36-1.255.62-1.995.78-.74.16-1.48.24-2.22.24-1.12 0-2.15-.16-3.09-.48-.94-.32-1.78-.9-2.52-1.74l2.4-2.25c.46.52.955.945 1.485 1.275.53.33 1.175.495 1.935.495.26 0 .53-.03.81-.09s.54-.16.78-.3c.24-.14.435-.315.585-.525.15-.21.225-.455.225-.735 0-.5-.19-.87-.57-1.11-.38-.24-.86-.435-1.44-.585-.58-.15-1.205-.29-1.875-.42a7.265 7.265 0 0 1-1.875-.63 3.94 3.94 0 0 1-1.44-1.215c-.38-.52-.57-1.24-.57-2.16 0-.8.165-1.495.495-2.085a4.35 4.35 0 0 1 1.305-1.455c.54-.38 1.16-.66 1.86-.84.7-.18 1.41-.27 2.13-.27.96 0 1.91.165 2.85.495.94.33 1.7.895 2.28 1.695l-2.4 2.16zm-96.015 40.07v-3.06h2.97v-4.17h3.6v4.17h3.96v3.06h-3.96v6.3c0 .72.135 1.29.405 1.71.27.42.805.63 1.605.63.32 0 .67-.035 1.05-.105.38-.07.68-.185.9-.345v3.03c-.38.18-.845.305-1.395.375s-1.035.105-1.455.105c-.96 0-1.745-.105-2.355-.315-.61-.21-1.09-.53-1.44-.96-.35-.43-.59-.965-.72-1.605s-.195-1.38-.195-2.22v-6.6h-2.97zm12.63 4.14c0-1.14.205-2.175.615-3.105a7.26 7.26 0 0 1 1.665-2.385 7.34 7.34 0 0 1 2.49-1.53c.96-.36 1.98-.54 3.06-.54s2.1.18 3.06.54c.96.36 1.79.87 2.49 1.53a7.26 7.26 0 0 1 1.665 2.385c.41.93.615 1.965.615 3.105s-.205 2.175-.615 3.105a7.26 7.26 0 0 1-1.665 2.385 7.34 7.34 0 0 1-2.49 1.53c-.96.36-1.98.54-3.06.54s-2.1-.18-3.06-.54a7.34 7.34 0 0 1-2.49-1.53 7.26 7.26 0 0 1-1.665-2.385c-.41-.93-.615-1.965-.615-3.105zm3.6 0c0 .56.095 1.1.285 1.62.19.52.47.98.84 1.38.37.4.815.72 1.335.96s1.11.36 1.77.36c.66 0 1.25-.12 1.77-.36s.965-.56 1.335-.96c.37-.4.65-.86.84-1.38.19-.52.285-1.06.285-1.62s-.095-1.1-.285-1.62c-.19-.52-.47-.98-.84-1.38-.37-.4-.815-.72-1.335-.96s-1.11-.36-1.77-.36c-.66 0-1.25.12-1.77.36s-.965.56-1.335.96c-.37.4-.65.86-.84 1.38-.19.52-.285 1.06-.285 1.62zm14.7 0c0-1.14.205-2.175.615-3.105a7.26 7.26 0 0 1 1.665-2.385 7.34 7.34 0 0 1 2.49-1.53c.96-.36 1.98-.54 3.06-.54s2.1.18 3.06.54c.96.36 1.79.87 2.49 1.53a7.26 7.26 0 0 1 1.665 2.385c.41.93.615 1.965.615 3.105s-.205 2.175-.615 3.105a7.26 7.26 0 0 1-1.665 2.385 7.34 7.34 0 0 1-2.49 1.53c-.96.36-1.98.54-3.06.54s-2.1-.18-3.06-.54a7.34 7.34 0 0 1-2.49-1.53 7.26 7.26 0 0 1-1.665-2.385c-.41-.93-.615-1.965-.615-3.105zm3.6 0c0 .56.095 1.1.285 1.62.19.52.47.98.84 1.38.37.4.815.72 1.335.96s1.11.36 1.77.36c.66 0 1.25-.12 1.77-.36s.965-.56 1.335-.96c.37-.4.65-.86.84-1.38.19-.52.285-1.06.285-1.62s-.095-1.1-.285-1.62c-.19-.52-.47-.98-.84-1.38-.37-.4-.815-.72-1.335-.96s-1.11-.36-1.77-.36c-.66 0-1.25.12-1.77.36s-.965.56-1.335.96c-.37.4-.65.86-.84 1.38-.19.52-.285 1.06-.285 1.62zm15.48-15.48h3.6V334h-3.6v-22.68zm15.42 12.27c-.7-.98-1.64-1.47-2.82-1.47-.48 0-.95.12-1.41.36-.46.24-.69.63-.69 1.17 0 .44.19.76.57.96.38.2.86.37 1.44.51s1.205.285 1.875.435c.67.15 1.295.38 1.875.69.58.31 1.06.735 1.44 1.275.38.54.57 1.28.57 2.22 0 .86-.185 1.585-.555 2.175-.37.59-.85 1.065-1.44 1.425-.59.36-1.255.62-1.995.78-.74.16-1.48.24-2.22.24-1.12 0-2.15-.16-3.09-.48-.94-.32-1.78-.9-2.52-1.74l2.4-2.25c.46.52.955.945 1.485 1.275.53.33 1.175.495 1.935.495.26 0 .53-.03.81-.09s.54-.16.78-.3c.24-.14.435-.315.585-.525.15-.21.225-.455.225-.735 0-.5-.19-.87-.57-1.11-.38-.24-.86-.435-1.44-.585-.58-.15-1.205-.29-1.875-.42a7.265 7.265 0 0 1-1.875-.63 3.94 3.94 0 0 1-1.44-1.215c-.38-.52-.57-1.24-.57-2.16 0-.8.165-1.495.495-2.085a4.35 4.35 0 0 1 1.305-1.455c.54-.38 1.16-.66 1.86-.84.7-.18 1.41-.27 2.13-.27.96 0 1.91.165 2.85.495.94.33 1.7.895 2.28 1.695l-2.4 2.16zM747.445 132.76h3.27l9.15 21.24h-4.32l-1.98-4.86h-9.21l-1.92 4.86h-4.23l9.24-21.24zm4.8 13.14l-3.27-8.64-3.33 8.64h6.6zm20.4-8.58a3.487 3.487 0 0 0-1.605-1.275 5.605 5.605 0 0 0-2.115-.405c-.44 0-.865.05-1.275.15-.41.1-.78.26-1.11.48-.33.22-.595.505-.795.855-.2.35-.3.765-.3 1.245 0 .72.25 1.27.75 1.65.5.38 1.12.71 1.86.99s1.55.55 2.43.81c.88.26 1.69.62 2.43 1.08a6.01 6.01 0 0 1 1.86 1.83c.5.76.75 1.77.75 3.03 0 1.14-.21 2.135-.63 2.985a6.082 6.082 0 0 1-1.695 2.115c-.71.56-1.535.98-2.475 1.26-.94.28-1.93.42-2.97.42-1.32 0-2.59-.22-3.81-.66-1.22-.44-2.27-1.18-3.15-2.22l2.85-2.76c.46.7 1.065 1.245 1.815 1.635a5.098 5.098 0 0 0 3.705.405c.44-.12.84-.3 1.2-.54.36-.24.65-.545.87-.915.22-.37.33-.795.33-1.275 0-.78-.25-1.38-.75-1.8-.5-.42-1.12-.775-1.86-1.065-.74-.29-1.55-.565-2.43-.825-.88-.26-1.69-.615-2.43-1.065a5.91 5.91 0 0 1-1.86-1.8c-.5-.75-.75-1.755-.75-3.015 0-1.1.225-2.05.675-2.85.45-.8 1.04-1.465 1.77-1.995a7.726 7.726 0 0 1 2.505-1.185 10.754 10.754 0 0 1 6.135.12c1.05.34 1.995.9 2.835 1.68l-2.76 2.91zm6.72-4.56h3.78V154h-3.78v-21.24zm23.01 4.98c-.78-.84-1.535-1.4-2.265-1.68a6.115 6.115 0 0 0-2.205-.42c-1.1 0-2.095.195-2.985.585a6.83 6.83 0 0 0-2.295 1.62 7.358 7.358 0 0 0-1.485 2.415c-.35.92-.525 1.91-.525 2.97 0 1.14.175 2.19.525 3.15.35.96.845 1.79 1.485 2.49a6.91 6.91 0 0 0 2.295 1.65c.89.4 1.885.6 2.985.6.86 0 1.695-.205 2.505-.615.81-.41 1.565-1.065 2.265-1.965l3.12 2.22c-.96 1.32-2.13 2.28-3.51 2.88-1.38.6-2.85.9-4.41.9-1.64 0-3.145-.265-4.515-.795-1.37-.53-2.55-1.28-3.54-2.25-.99-.97-1.765-2.135-2.325-3.495-.56-1.36-.84-2.87-.84-4.53 0-1.7.28-3.245.84-4.635.56-1.39 1.335-2.575 2.325-3.555.99-.98 2.17-1.735 3.54-2.265s2.875-.795 4.515-.795c1.44 0 2.775.255 4.005.765s2.375 1.375 3.435 2.595l-2.94 2.16zm19.2-1.56h-6.51v-3.42h16.8v3.42h-6.51V154h-3.78v-17.82zm11.82 10.62c0-1.14.205-2.175.615-3.105a7.26 7.26 0 0 1 1.665-2.385 7.34 7.34 0 0 1 2.49-1.53c.96-.36 1.98-.54 3.06-.54s2.1.18 3.06.54c.96.36 1.79.87 2.49 1.53a7.26 7.26 0 0 1 1.665 2.385c.41.93.615 1.965.615 3.105s-.205 2.175-.615 3.105a7.26 7.26 0 0 1-1.665 2.385 7.34 7.34 0 0 1-2.49 1.53c-.96.36-1.98.54-3.06.54s-2.1-.18-3.06-.54a7.34 7.34 0 0 1-2.49-1.53 7.26 7.26 0 0 1-1.665-2.385c-.41-.93-.615-1.965-.615-3.105zm3.6 0c0 .56.095 1.1.285 1.62.19.52.47.98.84 1.38.37.4.815.72 1.335.96s1.11.36 1.77.36c.66 0 1.25-.12 1.77-.36s.965-.56 1.335-.96c.37-.4.65-.86.84-1.38.19-.52.285-1.06.285-1.62s-.095-1.1-.285-1.62c-.19-.52-.47-.98-.84-1.38-.37-.4-.815-.72-1.335-.96s-1.11-.36-1.77-.36c-.66 0-1.25.12-1.77.36s-.965.56-1.335.96c-.37.4-.65.86-.84 1.38-.19.52-.285 1.06-.285 1.62zm14.7 0c0-1.14.205-2.175.615-3.105a7.26 7.26 0 0 1 1.665-2.385 7.34 7.34 0 0 1 2.49-1.53c.96-.36 1.98-.54 3.06-.54s2.1.18 3.06.54c.96.36 1.79.87 2.49 1.53a7.26 7.26 0 0 1 1.665 2.385c.41.93.615 1.965.615 3.105s-.205 2.175-.615 3.105a7.26 7.26 0 0 1-1.665 2.385 7.34 7.34 0 0 1-2.49 1.53c-.96.36-1.98.54-3.06.54s-2.1-.18-3.06-.54a7.34 7.34 0 0 1-2.49-1.53 7.26 7.26 0 0 1-1.665-2.385c-.41-.93-.615-1.965-.615-3.105zm3.6 0c0 .56.095 1.1.285 1.62.19.52.47.98.84 1.38.37.4.815.72 1.335.96s1.11.36 1.77.36c.66 0 1.25-.12 1.77-.36s.965-.56 1.335-.96c.37-.4.65-.86.84-1.38.19-.52.285-1.06.285-1.62s-.095-1.1-.285-1.62c-.19-.52-.47-.98-.84-1.38-.37-.4-.815-.72-1.335-.96s-1.11-.36-1.77-.36c-.66 0-1.25.12-1.77.36s-.965.56-1.335.96c-.37.4-.65.86-.84 1.38-.19.52-.285 1.06-.285 1.62zm15.48-15.48h3.6V154h-3.6v-22.68zm15.42 12.27c-.7-.98-1.64-1.47-2.82-1.47-.48 0-.95.12-1.41.36-.46.24-.69.63-.69 1.17 0 .44.19.76.57.96.38.2.86.37 1.44.51s1.205.285 1.875.435c.67.15 1.295.38 1.875.69.58.31 1.06.735 1.44 1.275.38.54.57 1.28.57 2.22 0 .86-.185 1.585-.555 2.175-.37.59-.85 1.065-1.44 1.425-.59.36-1.255.62-1.995.78-.74.16-1.48.24-2.22.24-1.12 0-2.15-.16-3.09-.48-.94-.32-1.78-.9-2.52-1.74l2.4-2.25c.46.52.955.945 1.485 1.275.53.33 1.175.495 1.935.495.26 0 .53-.03.81-.09s.54-.16.78-.3c.24-.14.435-.315.585-.525.15-.21.225-.455.225-.735 0-.5-.19-.87-.57-1.11-.38-.24-.86-.435-1.44-.585-.58-.15-1.205-.29-1.875-.42a7.265 7.265 0 0 1-1.875-.63 3.94 3.94 0 0 1-1.44-1.215c-.38-.52-.57-1.24-.57-2.16 0-.8.165-1.495.495-2.085a4.35 4.35 0 0 1 1.305-1.455c.54-.38 1.16-.66 1.86-.84.7-.18 1.41-.27 2.13-.27.96 0 1.91.165 2.85.495.94.33 1.7.895 2.28 1.695l-2.4 2.16zM737.185 291.76h13.71v3.42h-9.93v5.58h9.36v3.42h-9.36V313h-3.78v-21.24zm17.22 0h7.14c1.02 0 2.005.1 2.955.3.95.2 1.785.535 2.505 1.005.72.47 1.295 1.1 1.725 1.89.43.79.645 1.775.645 2.955 0 1.34-.23 2.42-.69 3.24a4.938 4.938 0 0 1-1.86 1.905c-.78.45-1.685.755-2.715.915-1.03.16-2.105.24-3.225.24h-2.7V313h-3.78v-21.24zm6.06 9.21c.54 0 1.1-.02 1.68-.06a5.16 5.16 0 0 0 1.605-.36c.49-.2.89-.5 1.2-.9.31-.4.465-.96.465-1.68 0-.66-.14-1.185-.42-1.575-.28-.39-.64-.69-1.08-.9-.44-.21-.93-.345-1.47-.405-.54-.06-1.06-.09-1.56-.09h-2.7v5.97h2.28zm31.14 10.47c-2.62 1.4-5.55 2.1-8.79 2.1-1.64 0-3.145-.265-4.515-.795-1.37-.53-2.55-1.28-3.54-2.25-.99-.97-1.765-2.135-2.325-3.495-.56-1.36-.84-2.87-.84-4.53 0-1.7.28-3.245.84-4.635.56-1.39 1.335-2.575 2.325-3.555.99-.98 2.17-1.735 3.54-2.265s2.875-.795 4.515-.795c1.62 0 3.14.195 4.56.585a9.386 9.386 0 0 1 3.81 2.085l-2.79 2.82c-.68-.66-1.505-1.17-2.475-1.53a8.766 8.766 0 0 0-3.075-.54c-1.1 0-2.095.195-2.985.585a6.83 6.83 0 0 0-2.295 1.62 7.358 7.358 0 0 0-1.485 2.415c-.35.92-.525 1.91-.525 2.97 0 1.14.175 2.19.525 3.15.35.96.845 1.79 1.485 2.49a6.91 6.91 0 0 0 2.295 1.65c.89.4 1.885.6 2.985.6.96 0 1.865-.09 2.715-.27.85-.18 1.605-.46 2.265-.84V304h-4.35v-3.42h8.13v10.86zm11.34-19.68h3.27l9.15 21.24h-4.32l-1.98-4.86h-9.21l-1.92 4.86h-4.23l9.24-21.24zm4.8 13.14l-3.27-8.64-3.33 8.64h6.6zm23.22-9.72h-6.51v-3.42h16.8v3.42h-6.51V313h-3.78v-17.82zm11.82 10.62c0-1.14.205-2.175.615-3.105a7.26 7.26 0 0 1 1.665-2.385 7.34 7.34 0 0 1 2.49-1.53c.96-.36 1.98-.54 3.06-.54s2.1.18 3.06.54c.96.36 1.79.87 2.49 1.53a7.26 7.26 0 0 1 1.665 2.385c.41.93.615 1.965.615 3.105s-.205 2.175-.615 3.105a7.26 7.26 0 0 1-1.665 2.385 7.34 7.34 0 0 1-2.49 1.53c-.96.36-1.98.54-3.06.54s-2.1-.18-3.06-.54a7.34 7.34 0 0 1-2.49-1.53 7.26 7.26 0 0 1-1.665-2.385c-.41-.93-.615-1.965-.615-3.105zm3.6 0c0 .56.095 1.1.285 1.62.19.52.47.98.84 1.38.37.4.815.72 1.335.96s1.11.36 1.77.36c.66 0 1.25-.12 1.77-.36s.965-.56 1.335-.96c.37-.4.65-.86.84-1.38.19-.52.285-1.06.285-1.62s-.095-1.1-.285-1.62c-.19-.52-.47-.98-.84-1.38-.37-.4-.815-.72-1.335-.96s-1.11-.36-1.77-.36c-.66 0-1.25.12-1.77.36s-.965.56-1.335.96c-.37.4-.65.86-.84 1.38-.19.52-.285 1.06-.285 1.62zm14.7 0c0-1.14.205-2.175.615-3.105a7.26 7.26 0 0 1 1.665-2.385 7.34 7.34 0 0 1 2.49-1.53c.96-.36 1.98-.54 3.06-.54s2.1.18 3.06.54c.96.36 1.79.87 2.49 1.53a7.26 7.26 0 0 1 1.665 2.385c.41.93.615 1.965.615 3.105s-.205 2.175-.615 3.105a7.26 7.26 0 0 1-1.665 2.385 7.34 7.34 0 0 1-2.49 1.53c-.96.36-1.98.54-3.06.54s-2.1-.18-3.06-.54a7.34 7.34 0 0 1-2.49-1.53 7.26 7.26 0 0 1-1.665-2.385c-.41-.93-.615-1.965-.615-3.105zm3.6 0c0 .56.095 1.1.285 1.62.19.52.47.98.84 1.38.37.4.815.72 1.335.96s1.11.36 1.77.36c.66 0 1.25-.12 1.77-.36s.965-.56 1.335-.96c.37-.4.65-.86.84-1.38.19-.52.285-1.06.285-1.62s-.095-1.1-.285-1.62c-.19-.52-.47-.98-.84-1.38-.37-.4-.815-.72-1.335-.96s-1.11-.36-1.77-.36c-.66 0-1.25.12-1.77.36s-.965.56-1.335.96c-.37.4-.65.86-.84 1.38-.19.52-.285 1.06-.285 1.62zm15.48-15.48h3.6V313h-3.6v-22.68zm15.42 12.27c-.7-.98-1.64-1.47-2.82-1.47-.48 0-.95.12-1.41.36-.46.24-.69.63-.69 1.17 0 .44.19.76.57.96.38.2.86.37 1.44.51s1.205.285 1.875.435c.67.15 1.295.38 1.875.69.58.31 1.06.735 1.44 1.275.38.54.57 1.28.57 2.22 0 .86-.185 1.585-.555 2.175-.37.59-.85 1.065-1.44 1.425-.59.36-1.255.62-1.995.78-.74.16-1.48.24-2.22.24-1.12 0-2.15-.16-3.09-.48-.94-.32-1.78-.9-2.52-1.74l2.4-2.25c.46.52.955.945 1.485 1.275.53.33 1.175.495 1.935.495.26 0 .53-.03.81-.09s.54-.16.78-.3c.24-.14.435-.315.585-.525.15-.21.225-.455.225-.735 0-.5-.19-.87-.57-1.11-.38-.24-.86-.435-1.44-.585-.58-.15-1.205-.29-1.875-.42a7.265 7.265 0 0 1-1.875-.63 3.94 3.94 0 0 1-1.44-1.215c-.38-.52-.57-1.24-.57-2.16 0-.8.165-1.495.495-2.085a4.35 4.35 0 0 1 1.305-1.455c.54-.38 1.16-.66 1.86-.84.7-.18 1.41-.27 2.13-.27.96 0 1.91.165 2.85.495.94.33 1.7.895 2.28 1.695l-2.4 2.16zM685.708 432.176h4.06l5.404 14.98 5.572-14.98h3.808L696.544 452h-3.052l-7.784-19.824zm23.352 14.28c.112 1.008.504 1.792 1.176 2.352.672.56 1.484.84 2.436.84.84 0 1.545-.173 2.114-.518a5.86 5.86 0 0 0 1.498-1.302l2.408 1.82c-.784.97-1.661 1.661-2.632 2.072-.97.41-1.988.616-3.052.616a8.066 8.066 0 0 1-2.856-.504 6.85 6.85 0 0 1-2.324-1.428 6.776 6.776 0 0 1-1.554-2.226c-.383-.868-.574-1.834-.574-2.898s.191-2.03.574-2.898c.383-.868.9-1.61 1.554-2.226a6.85 6.85 0 0 1 2.324-1.428 8.066 8.066 0 0 1 2.856-.504c.933 0 1.787.163 2.562.49a5.495 5.495 0 0 1 1.988 1.414c.55.616.98 1.377 1.288 2.282.308.905.462 1.946.462 3.122v.924H709.06zm6.888-2.52c-.019-.99-.327-1.769-.924-2.338-.597-.57-1.428-.854-2.492-.854-1.008 0-1.806.29-2.394.868-.588.579-.947 1.353-1.078 2.324h6.888zm6.496-5.376h3.36v2.128h.056c.373-.784.905-1.39 1.596-1.82.69-.43 1.484-.644 2.38-.644.205 0 .406.019.602.056.196.037.397.084.602.14v3.248a9.415 9.415 0 0 0-.826-.182 4.691 4.691 0 0 0-.798-.07c-.784 0-1.414.145-1.89.434-.476.29-.84.62-1.092.994-.252.373-.42.747-.504 1.12-.084.373-.126.653-.126.84V452h-3.36v-13.44zm10.948 0h3.36V452h-3.36v-13.44zm-.476-4.564c0-.541.2-1.013.602-1.414.401-.401.91-.602 1.526-.602s1.134.191 1.554.574c.42.383.63.863.63 1.442s-.21 1.06-.63 1.442c-.42.383-.938.574-1.554.574-.616 0-1.125-.2-1.526-.602-.401-.401-.602-.873-.602-1.414zm8.904 7.42h-2.772v-2.856h2.772v-1.904c0-.933.065-1.778.196-2.534.13-.756.378-1.405.742-1.946.364-.541.873-.957 1.526-1.246.653-.29 1.503-.434 2.548-.434.765 0 1.475.065 2.128.196l-.224 2.856a11.597 11.597 0 0 0-.7-.14 4.253 4.253 0 0 0-.7-.056c-.467 0-.84.075-1.12.224-.28.15-.5.35-.658.602a2.203 2.203 0 0 0-.308.882c-.047.336-.07.69-.07 1.064v2.436h3.108v2.856h-3.108V452h-3.36v-10.584zm8.652-2.856h3.36V452h-3.36v-13.44zm-.448-4.564c0-.541.2-1.013.602-1.414.401-.401.91-.602 1.526-.602s1.134.191 1.554.574c.42.383.63.863.63 1.442s-.21 1.06-.63 1.442c-.42.383-.938.574-1.554.574-.616 0-1.125-.2-1.526-.602-.401-.401-.602-.873-.602-1.414zm16.38 8.596a5.361 5.361 0 0 0-1.232-.98 2.645 2.645 0 0 0-1.316-.364c-.616 0-1.167.112-1.652.336-.485.224-.9.523-1.246.896a3.794 3.794 0 0 0-.784 1.288c-.177.485-.266.99-.266 1.512 0 .523.089 1.027.266 1.512.177.485.439.915.784 1.288.345.373.76.672 1.246.896.485.224 1.036.336 1.652.336.523 0 1.008-.107 1.456-.322.448-.215.83-.527 1.148-.938l2.24 2.408a5.172 5.172 0 0 1-1.162.868 8.116 8.116 0 0 1-2.618.91 6.91 6.91 0 0 1-1.064.098 8.066 8.066 0 0 1-2.856-.504 6.85 6.85 0 0 1-2.324-1.428 6.776 6.776 0 0 1-1.554-2.226c-.383-.868-.574-1.834-.574-2.898s.191-2.03.574-2.898c.383-.868.9-1.61 1.554-2.226a6.85 6.85 0 0 1 2.324-1.428 8.066 8.066 0 0 1 2.856-.504c.859 0 1.722.163 2.59.49a5.894 5.894 0 0 1 2.282 1.554l-2.324 2.324zm12.712 7.56h-.084c-.485.765-1.101 1.32-1.848 1.666-.747.345-1.568.518-2.464.518a6.542 6.542 0 0 1-1.806-.252 4.891 4.891 0 0 1-1.568-.756 3.884 3.884 0 0 1-1.106-1.26c-.28-.504-.42-1.092-.42-1.764 0-.728.13-1.349.392-1.862a3.824 3.824 0 0 1 1.05-1.288c.439-.345.947-.62 1.526-.826.579-.205 1.18-.36 1.806-.462a16.011 16.011 0 0 1 1.89-.196 40.776 40.776 0 0 1 1.792-.042h.84v-.364c0-.84-.29-1.47-.868-1.89-.579-.42-1.316-.63-2.212-.63a5.2 5.2 0 0 0-1.988.378 5.033 5.033 0 0 0-1.596 1.022l-1.764-1.764a6.513 6.513 0 0 1 2.618-1.652 9.638 9.638 0 0 1 3.094-.504c.952 0 1.755.107 2.408.322.653.215 1.195.49 1.624.826.43.336.76.723.994 1.162.233.439.401.882.504 1.33.103.448.163.882.182 1.302.019.42.028.789.028 1.106V452h-3.024v-1.848zm-.196-4.172h-.7c-.467 0-.99.019-1.568.056a8.227 8.227 0 0 0-1.638.266c-.513.14-.947.345-1.302.616-.355.27-.532.649-.532 1.134 0 .317.07.583.21.798.14.215.322.397.546.546.224.15.476.257.756.322s.56.098.84.098c1.157 0 2.011-.275 2.562-.826.55-.55.826-1.302.826-2.254v-.756zm5.264-4.564v-2.856h2.772v-3.892h3.36v3.892h3.696v2.856h-3.696v5.88c0 .672.126 1.204.378 1.596.252.392.751.588 1.498.588.299 0 .625-.033.98-.098s.635-.173.84-.322v2.828c-.355.168-.789.285-1.302.35s-.966.098-1.358.098c-.896 0-1.629-.098-2.198-.294-.57-.196-1.017-.495-1.344-.896-.327-.401-.55-.9-.672-1.498-.121-.597-.182-1.288-.182-2.072v-6.16h-2.772zm12.516-2.856h3.36V452h-3.36v-13.44zm-.476-4.564c0-.541.2-1.013.602-1.414.401-.401.91-.602 1.526-.602s1.134.191 1.554.574c.42.383.63.863.63 1.442s-.21 1.06-.63 1.442c-.42.383-.938.574-1.554.574-.616 0-1.125-.2-1.526-.602-.401-.401-.602-.873-.602-1.414zm7.028 11.284c0-1.064.191-2.03.574-2.898.383-.868.9-1.61 1.554-2.226a6.85 6.85 0 0 1 2.324-1.428 8.066 8.066 0 0 1 2.856-.504c1.008 0 1.96.168 2.856.504a6.85 6.85 0 0 1 2.324 1.428 6.776 6.776 0 0 1 1.554 2.226c.383.868.574 1.834.574 2.898s-.191 2.03-.574 2.898c-.383.868-.9 1.61-1.554 2.226a6.85 6.85 0 0 1-2.324 1.428 8.066 8.066 0 0 1-2.856.504 8.066 8.066 0 0 1-2.856-.504 6.85 6.85 0 0 1-2.324-1.428 6.776 6.776 0 0 1-1.554-2.226c-.383-.868-.574-1.834-.574-2.898zm3.36 0c0 .523.089 1.027.266 1.512.177.485.439.915.784 1.288.345.373.76.672 1.246.896.485.224 1.036.336 1.652.336.616 0 1.167-.112 1.652-.336.485-.224.9-.523 1.246-.896.345-.373.607-.803.784-1.288.177-.485.266-.99.266-1.512 0-.523-.089-1.027-.266-1.512a3.794 3.794 0 0 0-.784-1.288 3.905 3.905 0 0 0-1.246-.896c-.485-.224-1.036-.336-1.652-.336-.616 0-1.167.112-1.652.336-.485.224-.9.523-1.246.896a3.794 3.794 0 0 0-.784 1.288c-.177.485-.266.99-.266 1.512zm14.392-6.72h3.192v2.156h.056c.317-.672.803-1.255 1.456-1.75.653-.495 1.54-.742 2.66-.742.896 0 1.657.15 2.282.448.625.299 1.134.69 1.526 1.176.392.485.672 1.045.84 1.68.168.635.252 1.297.252 1.988V452h-3.36v-6.804c0-.373-.019-.789-.056-1.246a4.473 4.473 0 0 0-.294-1.288 2.412 2.412 0 0 0-.742-1.008c-.336-.27-.793-.406-1.372-.406-.56 0-1.031.093-1.414.28-.383.187-.7.439-.952.756a3.007 3.007 0 0 0-.546 1.092c-.112.41-.168.84-.168 1.288V452h-3.36v-13.44zm17.192 9.576h3.416l-2.38 7.392h-2.996l1.96-7.392zm19.824-12.768h-6.076v-3.192h15.68v3.192h-6.076V452h-3.528v-16.632zm14.392 11.088c.112 1.008.504 1.792 1.176 2.352.672.56 1.484.84 2.436.84.84 0 1.545-.173 2.114-.518a5.86 5.86 0 0 0 1.498-1.302l2.408 1.82c-.784.97-1.661 1.661-2.632 2.072-.97.41-1.988.616-3.052.616a8.066 8.066 0 0 1-2.856-.504 6.85 6.85 0 0 1-2.324-1.428 6.776 6.776 0 0 1-1.554-2.226c-.383-.868-.574-1.834-.574-2.898s.191-2.03.574-2.898c.383-.868.9-1.61 1.554-2.226a6.85 6.85 0 0 1 2.324-1.428 8.066 8.066 0 0 1 2.856-.504c.933 0 1.787.163 2.562.49a5.495 5.495 0 0 1 1.988 1.414c.55.616.98 1.377 1.288 2.282.308.905.462 1.946.462 3.122v.924h-10.248zm6.888-2.52c-.019-.99-.327-1.769-.924-2.338-.597-.57-1.428-.854-2.492-.854-1.008 0-1.806.29-2.394.868-.588.579-.947 1.353-1.078 2.324h6.888zm13.664-1.652c-.653-.915-1.53-1.372-2.632-1.372-.448 0-.887.112-1.316.336-.43.224-.644.588-.644 1.092 0 .41.177.71.532.896.355.187.803.345 1.344.476.541.13 1.125.266 1.75.406s1.209.355 1.75.644c.541.29.99.686 1.344 1.19.355.504.532 1.195.532 2.072 0 .803-.173 1.48-.518 2.03-.345.55-.793.994-1.344 1.33a5.965 5.965 0 0 1-1.862.728c-.69.15-1.381.224-2.072.224-1.045 0-2.007-.15-2.884-.448-.877-.299-1.661-.84-2.352-1.624l2.24-2.1c.43.485.891.882 1.386 1.19.495.308 1.097.462 1.806.462.243 0 .495-.028.756-.084.261-.056.504-.15.728-.28.224-.13.406-.294.546-.49s.21-.425.21-.686c0-.467-.177-.812-.532-1.036-.355-.224-.803-.406-1.344-.546s-1.125-.27-1.75-.392a6.78 6.78 0 0 1-1.75-.588 3.677 3.677 0 0 1-1.344-1.134c-.355-.485-.532-1.157-.532-2.016 0-.747.154-1.395.462-1.946a4.06 4.06 0 0 1 1.218-1.358 5.263 5.263 0 0 1 1.736-.784 7.951 7.951 0 0 1 1.988-.252 7.98 7.98 0 0 1 2.66.462 4.346 4.346 0 0 1 2.128 1.582l-2.24 2.016zm3.696-.868v-2.856h2.772v-3.892h3.36v3.892h3.696v2.856h-3.696v5.88c0 .672.126 1.204.378 1.596.252.392.751.588 1.498.588.299 0 .625-.033.98-.098s.635-.173.84-.322v2.828c-.355.168-.789.285-1.302.35s-.966.098-1.358.098c-.896 0-1.629-.098-2.198-.294-.57-.196-1.017-.495-1.344-.896-.327-.401-.55-.9-.672-1.498-.121-.597-.182-1.288-.182-2.072v-6.16h-2.772zm12.516-2.856h3.36V452h-3.36v-13.44zm-.476-4.564c0-.541.2-1.013.602-1.414.401-.401.91-.602 1.526-.602s1.134.191 1.554.574c.42.383.63.863.63 1.442s-.21 1.06-.63 1.442c-.42.383-.938.574-1.554.574-.616 0-1.125-.2-1.526-.602-.401-.401-.602-.873-.602-1.414zm7.7 4.564h3.192v2.156h.056c.317-.672.803-1.255 1.456-1.75.653-.495 1.54-.742 2.66-.742.896 0 1.657.15 2.282.448.625.299 1.134.69 1.526 1.176.392.485.672 1.045.84 1.68.168.635.252 1.297.252 1.988V452h-3.36v-6.804c0-.373-.019-.789-.056-1.246a4.473 4.473 0 0 0-.294-1.288 2.412 2.412 0 0 0-.742-1.008c-.336-.27-.793-.406-1.372-.406-.56 0-1.031.093-1.414.28-.383.187-.7.439-.952.756a3.007 3.007 0 0 0-.546 1.092c-.112.41-.168.84-.168 1.288V452h-3.36v-13.44zm29.904 0v12.236c0 1.213-.15 2.31-.448 3.29-.299.98-.76 1.81-1.386 2.492-.625.681-1.414 1.209-2.366 1.582-.952.373-2.081.56-3.388.56-1.25 0-2.436-.159-3.556-.476-1.12-.317-2.156-.896-3.108-1.736l2.016-2.744c.672.616 1.372 1.092 2.1 1.428.728.336 1.568.504 2.52.504.803 0 1.48-.112 2.03-.336.55-.224.99-.532 1.316-.924.327-.392.56-.863.7-1.414.14-.55.21-1.162.21-1.834v-.98h-.056c-.485.653-1.13 1.143-1.932 1.47a6.481 6.481 0 0 1-2.464.49c-1.008 0-1.923-.182-2.744-.546a6.56 6.56 0 0 1-2.114-1.47 6.397 6.397 0 0 1-1.358-2.184 7.542 7.542 0 0 1-.476-2.688c0-.99.15-1.913.448-2.772a6.405 6.405 0 0 1 1.316-2.24 6.242 6.242 0 0 1 2.086-1.498c.812-.364 1.74-.546 2.786-.546.952 0 1.839.187 2.66.56.821.373 1.475.97 1.96 1.792h.056v-2.016h3.192zm-7.168 2.688c-.597 0-1.139.098-1.624.294-.485.196-.9.467-1.246.812a3.665 3.665 0 0 0-.812 1.26 4.41 4.41 0 0 0-.294 1.638 3.814 3.814 0 0 0 1.12 2.744 3.982 3.982 0 0 0 2.828 1.148c.616 0 1.171-.103 1.666-.308.495-.205.915-.48 1.26-.826.345-.345.611-.76.798-1.246a4.33 4.33 0 0 0 .28-1.568c0-1.176-.355-2.128-1.064-2.856-.71-.728-1.68-1.092-2.912-1.092zm-189.294 44.076l4.284 4.676h-4.34l-2.1-2.268c-.803.952-1.661 1.652-2.576 2.1-.915.448-2.007.672-3.276.672a8.5 8.5 0 0 1-2.534-.378 6.422 6.422 0 0 1-2.142-1.12 5.638 5.638 0 0 1-1.484-1.82c-.373-.719-.56-1.554-.56-2.506 0-.672.112-1.293.336-1.862.224-.57.527-1.092.91-1.568a6.483 6.483 0 0 1 1.358-1.26 7.594 7.594 0 0 1 1.68-.882c-.317-.355-.611-.7-.882-1.036a8.206 8.206 0 0 1-.714-1.036 5.251 5.251 0 0 1-.49-1.148 4.727 4.727 0 0 1-.182-1.344c0-.803.154-1.512.462-2.128a4.34 4.34 0 0 1 1.246-1.526 5.555 5.555 0 0 1 1.82-.91 7.525 7.525 0 0 1 2.156-.308c.747 0 1.456.093 2.128.28a5.329 5.329 0 0 1 1.778.854c.513.383.924.873 1.232 1.47.308.597.462 1.297.462 2.1a4.19 4.19 0 0 1-.336 1.694c-.224.513-.523.98-.896 1.4-.373.42-.798.803-1.274 1.148-.476.345-.957.64-1.442.882l3.192 3.444 2.212-3.36h3.948l-3.976 5.74zm-6.972-12.628c-.653 0-1.213.182-1.68.546a1.74 1.74 0 0 0-.7 1.442c0 .261.056.518.168.77.112.252.261.504.448.756s.387.49.602.714c.215.224.434.439.658.644.28-.15.579-.322.896-.518.317-.196.611-.42.882-.672.27-.252.49-.527.658-.826a2.02 2.02 0 0 0 .252-1.008c0-.541-.215-.985-.644-1.33-.43-.345-.943-.518-1.54-.518zm-1.344 8.4c-.336.205-.663.415-.98.63a5.893 5.893 0 0 0-.868.714c-.261.261-.471.56-.63.896a2.658 2.658 0 0 0-.238 1.148 2.9 2.9 0 0 0 .938 2.156c.29.261.62.467.994.616.373.15.775.224 1.204.224.765 0 1.437-.205 2.016-.616a14.11 14.11 0 0 0 1.624-1.344l-4.06-4.424zm33.208-6.664a3.255 3.255 0 0 0-1.498-1.19 5.232 5.232 0 0 0-1.974-.378c-.41 0-.807.047-1.19.14a3.23 3.23 0 0 0-1.036.448 2.34 2.34 0 0 0-.742.798c-.187.327-.28.714-.28 1.162 0 .672.233 1.185.7 1.54.467.355 1.045.663 1.736.924.69.261 1.447.513 2.268.756a9.221 9.221 0 0 1 2.268 1.008c.69.43 1.27.999 1.736 1.708.467.71.7 1.652.7 2.828 0 1.064-.196 1.993-.588 2.786a5.677 5.677 0 0 1-1.582 1.974 6.84 6.84 0 0 1-2.31 1.176 9.66 9.66 0 0 1-2.772.392c-1.232 0-2.417-.205-3.556-.616-1.139-.41-2.119-1.101-2.94-2.072l2.66-2.576c.43.653.994 1.162 1.694 1.526a4.758 4.758 0 0 0 3.458.378c.41-.112.784-.28 1.12-.504a2.63 2.63 0 0 0 .812-.854c.205-.345.308-.742.308-1.19 0-.728-.233-1.288-.7-1.68-.467-.392-1.045-.723-1.736-.994-.69-.27-1.447-.527-2.268-.77a9.55 9.55 0 0 1-2.268-.994c-.69-.42-1.27-.98-1.736-1.68-.467-.7-.7-1.638-.7-2.814 0-1.027.21-1.913.63-2.66.42-.747.97-1.367 1.652-1.862a7.211 7.211 0 0 1 2.338-1.106 10.037 10.037 0 0 1 5.726.112c.98.317 1.862.84 2.646 1.568l-2.576 2.716zm6.104 2.128h3.36V490h-3.36v-13.44zm-.476-4.564c0-.541.2-1.013.602-1.414.401-.401.91-.602 1.526-.602s1.134.191 1.554.574c.42.383.63.863.63 1.442s-.21 1.06-.63 1.442c-.42.383-.938.574-1.554.574-.616 0-1.125-.2-1.526-.602-.401-.401-.602-.873-.602-1.414zm7.56 4.564h3.192v2.1h.056c.299-.635.78-1.2 1.442-1.694.663-.495 1.554-.742 2.674-.742 2.11 0 3.51.83 4.2 2.492.485-.859 1.092-1.489 1.82-1.89.728-.401 1.596-.602 2.604-.602.896 0 1.652.15 2.268.448.616.299 1.115.71 1.498 1.232.383.523.658 1.134.826 1.834.168.7.252 1.451.252 2.254V490h-3.36v-7.616c0-.41-.037-.807-.112-1.19a2.844 2.844 0 0 0-.392-1.008 1.988 1.988 0 0 0-.756-.686c-.317-.168-.728-.252-1.232-.252-.523 0-.966.098-1.33.294a2.597 2.597 0 0 0-.896.784c-.233.327-.401.7-.504 1.12-.103.42-.154.845-.154 1.274V490h-3.36v-8.008c0-.84-.177-1.507-.532-2.002-.355-.495-.943-.742-1.764-.742-.56 0-1.031.093-1.414.28-.383.187-.7.439-.952.756a3.007 3.007 0 0 0-.546 1.092c-.112.41-.168.84-.168 1.288V490h-3.36v-13.44zM824.686 490h-3.192v-2.156h-.056c-.317.672-.803 1.255-1.456 1.75-.653.495-1.54.742-2.66.742-.896 0-1.657-.145-2.282-.434a4.11 4.11 0 0 1-1.526-1.176 4.582 4.582 0 0 1-.84-1.694 7.737 7.737 0 0 1-.252-1.988v-8.484h3.36v6.804c0 .373.019.789.056 1.246.037.457.135.887.294 1.288.159.401.401.737.728 1.008.327.27.789.406 1.386.406.56 0 1.031-.093 1.414-.28.383-.187.7-.439.952-.756s.434-.681.546-1.092c.112-.41.168-.84.168-1.288v-7.336h3.36V490zm3.864-21.168h3.36V490h-3.36v-21.168zm15.624 19.32h-.084c-.485.765-1.101 1.32-1.848 1.666-.747.345-1.568.518-2.464.518a6.542 6.542 0 0 1-1.806-.252 4.891 4.891 0 0 1-1.568-.756 3.884 3.884 0 0 1-1.106-1.26c-.28-.504-.42-1.092-.42-1.764 0-.728.13-1.349.392-1.862a3.824 3.824 0 0 1 1.05-1.288c.439-.345.947-.62 1.526-.826.579-.205 1.18-.36 1.806-.462a16.011 16.011 0 0 1 1.89-.196 40.776 40.776 0 0 1 1.792-.042h.84v-.364c0-.84-.29-1.47-.868-1.89-.579-.42-1.316-.63-2.212-.63a5.2 5.2 0 0 0-1.988.378 5.033 5.033 0 0 0-1.596 1.022l-1.764-1.764a6.513 6.513 0 0 1 2.618-1.652 9.638 9.638 0 0 1 3.094-.504c.952 0 1.755.107 2.408.322.653.215 1.195.49 1.624.826.43.336.76.723.994 1.162.233.439.401.882.504 1.33.103.448.163.882.182 1.302.019.42.028.789.028 1.106V490h-3.024v-1.848zm-.196-4.172h-.7c-.467 0-.99.019-1.568.056a8.227 8.227 0 0 0-1.638.266c-.513.14-.947.345-1.302.616-.355.27-.532.649-.532 1.134 0 .317.07.583.21.798.14.215.322.397.546.546.224.15.476.257.756.322s.56.098.84.098c1.157 0 2.011-.275 2.562-.826.55-.55.826-1.302.826-2.254v-.756zm5.264-4.564v-2.856h2.772v-3.892h3.36v3.892h3.696v2.856h-3.696v5.88c0 .672.126 1.204.378 1.596.252.392.751.588 1.498.588.299 0 .625-.033.98-.098s.635-.173.84-.322v2.828c-.355.168-.789.285-1.302.35s-.966.098-1.358.098c-.896 0-1.629-.098-2.198-.294-.57-.196-1.017-.495-1.344-.896-.327-.401-.55-.9-.672-1.498-.121-.597-.182-1.288-.182-2.072v-6.16h-2.772zm12.516-2.856h3.36V490h-3.36v-13.44zm-.476-4.564c0-.541.2-1.013.602-1.414.401-.401.91-.602 1.526-.602s1.134.191 1.554.574c.42.383.63.863.63 1.442s-.21 1.06-.63 1.442c-.42.383-.938.574-1.554.574-.616 0-1.125-.2-1.526-.602-.401-.401-.602-.873-.602-1.414zm7.028 11.284c0-1.064.191-2.03.574-2.898.383-.868.9-1.61 1.554-2.226a6.85 6.85 0 0 1 2.324-1.428 8.066 8.066 0 0 1 2.856-.504c1.008 0 1.96.168 2.856.504a6.85 6.85 0 0 1 2.324 1.428 6.776 6.776 0 0 1 1.554 2.226c.383.868.574 1.834.574 2.898s-.191 2.03-.574 2.898c-.383.868-.9 1.61-1.554 2.226a6.85 6.85 0 0 1-2.324 1.428 8.066 8.066 0 0 1-2.856.504 8.066 8.066 0 0 1-2.856-.504 6.85 6.85 0 0 1-2.324-1.428 6.776 6.776 0 0 1-1.554-2.226c-.383-.868-.574-1.834-.574-2.898zm3.36 0c0 .523.089 1.027.266 1.512.177.485.439.915.784 1.288.345.373.76.672 1.246.896.485.224 1.036.336 1.652.336.616 0 1.167-.112 1.652-.336.485-.224.9-.523 1.246-.896.345-.373.607-.803.784-1.288.177-.485.266-.99.266-1.512 0-.523-.089-1.027-.266-1.512a3.794 3.794 0 0 0-.784-1.288 3.905 3.905 0 0 0-1.246-.896c-.485-.224-1.036-.336-1.652-.336-.616 0-1.167.112-1.652.336-.485.224-.9.523-1.246.896a3.794 3.794 0 0 0-.784 1.288c-.177.485-.266.99-.266 1.512zm14.392-6.72h3.192v2.156h.056c.317-.672.803-1.255 1.456-1.75.653-.495 1.54-.742 2.66-.742.896 0 1.657.15 2.282.448.625.299 1.134.69 1.526 1.176.392.485.672 1.045.84 1.68.168.635.252 1.297.252 1.988V490h-3.36v-6.804c0-.373-.019-.789-.056-1.246a4.473 4.473 0 0 0-.294-1.288 2.412 2.412 0 0 0-.742-1.008c-.336-.27-.793-.406-1.372-.406-.56 0-1.031.093-1.414.28-.383.187-.7.439-.952.756a3.007 3.007 0 0 0-.546 1.092c-.112.41-.168.84-.168 1.288V490h-3.36v-13.44z" fill="#5A2AB5"/><path d="M61.83 19.84h1.92l-.82 5.88h7.34l.82-5.88h1.92L71.03 34h-1.92l.9-6.48h-7.34l-.9 6.48h-1.92l1.98-14.16zm13.58 5.84a6.014 6.014 0 0 1 1.91-1.05c.7-.233 1.383-.35 2.05-.35.693 0 1.28.087 1.76.26.48.173.86.407 1.14.7.28.293.467.63.56 1.01.093.38.113.777.06 1.19l-.68 4.84c-.053.333-.093.64-.12.92-.027.28-.04.547-.04.8h-1.6c.013-.24.03-.48.05-.72.02-.24.05-.48.09-.72h-.04c-.493.613-1.03 1.047-1.61 1.3-.58.253-1.23.38-1.95.38-.44 0-.85-.06-1.23-.18s-.703-.3-.97-.54a2.153 2.153 0 0 1-.59-.89c-.127-.353-.157-.763-.09-1.23.08-.613.287-1.127.62-1.54.333-.413.757-.75 1.27-1.01a6.198 6.198 0 0 1 1.74-.56c.647-.113 1.33-.17 2.05-.17h1.32l.06-.4c.04-.24.03-.48-.03-.72s-.17-.457-.33-.65a1.65 1.65 0 0 0-.64-.46c-.267-.113-.593-.17-.98-.17a3.937 3.937 0 0 0-2.29.7c-.193.133-.383.26-.57.38l-.92-1.12zm4.56 3.76c-.427 0-.867.023-1.32.07a5.622 5.622 0 0 0-1.26.27c-.387.133-.713.32-.98.56-.267.24-.427.547-.48.92-.08.547.047.94.38 1.18s.813.36 1.44.36c.493 0 .923-.083 1.29-.25a2.947 2.947 0 0 0 1.52-1.54c.14-.327.23-.65.27-.97l.1-.6h-.96zm5.94-4.92h1.8l-.2 1.46h.04c.307-.507.747-.917 1.32-1.23a3.63 3.63 0 0 1 1.76-.47c.293 0 .553.04.78.12l-.36 1.94a5.661 5.661 0 0 0-.43-.1 2.293 2.293 0 0 0-.43-.04c-.88 0-1.587.247-2.12.74-.533.493-.873 1.26-1.02 2.3L86.39 34h-1.8l1.32-9.48zM101.49 34h-1.8l.18-1.36h-.04c-.427.507-.96.9-1.6 1.18-.64.28-1.28.42-1.92.42-.733 0-1.38-.127-1.94-.38A3.566 3.566 0 0 1 93 32.8a4.13 4.13 0 0 1-.75-1.58c-.147-.6-.167-1.253-.06-1.96a5.894 5.894 0 0 1 1.82-3.55 5.364 5.364 0 0 1 1.66-1.05 5.392 5.392 0 0 1 2.04-.38c.68 0 1.297.143 1.85.43.553.287.963.677 1.23 1.17h.04l.98-7h1.8L101.49 34zm-4.72-1.44a3.474 3.474 0 0 0 2.4-.93c.307-.287.563-.633.77-1.04.207-.407.343-.85.41-1.33a3.83 3.83 0 0 0-.03-1.33 2.416 2.416 0 0 0-.48-1.04 2.46 2.46 0 0 0-.89-.68c-.36-.167-.78-.25-1.26-.25s-.923.083-1.33.25a3.465 3.465 0 0 0-1.85 1.72c-.2.407-.333.85-.4 1.33a3.83 3.83 0 0 0 .03 1.33c.087.407.243.753.47 1.04.227.287.523.513.89.68.367.167.79.25 1.27.25zm7.62-8.04h2.02l1.14 7.08h.04l3.26-7.08h1.9l1.4 7.08h.04l3.04-7.08h1.9L114.75 34h-1.82l-1.52-7.08h-.04L108.13 34h-1.94l-1.8-9.48zm16.2 1.16a6.014 6.014 0 0 1 1.91-1.05c.7-.233 1.383-.35 2.05-.35.693 0 1.28.087 1.76.26.48.173.86.407 1.14.7.28.293.467.63.56 1.01.093.38.113.777.06 1.19l-.68 4.84c-.053.333-.093.64-.12.92-.027.28-.04.547-.04.8h-1.6c.013-.24.03-.48.05-.72.02-.24.05-.48.09-.72h-.04c-.493.613-1.03 1.047-1.61 1.3-.58.253-1.23.38-1.95.38-.44 0-.85-.06-1.23-.18s-.703-.3-.97-.54a2.153 2.153 0 0 1-.59-.89c-.127-.353-.157-.763-.09-1.23.08-.613.287-1.127.62-1.54.333-.413.757-.75 1.27-1.01a6.198 6.198 0 0 1 1.74-.56c.647-.113 1.33-.17 2.05-.17h1.32l.06-.4c.04-.24.03-.48-.03-.72s-.17-.457-.33-.65a1.65 1.65 0 0 0-.64-.46c-.267-.113-.593-.17-.98-.17a3.937 3.937 0 0 0-2.29.7c-.193.133-.383.26-.57.38l-.92-1.12zm4.56 3.76c-.427 0-.867.023-1.32.07a5.622 5.622 0 0 0-1.26.27c-.387.133-.713.32-.98.56-.267.24-.427.547-.48.92-.08.547.047.94.38 1.18s.813.36 1.44.36c.493 0 .923-.083 1.29-.25a2.947 2.947 0 0 0 1.52-1.54c.14-.327.23-.65.27-.97l.1-.6h-.96zm5.94-4.92h1.8l-.2 1.46h.04c.307-.507.747-.917 1.32-1.23a3.63 3.63 0 0 1 1.76-.47c.293 0 .553.04.78.12l-.36 1.94a5.661 5.661 0 0 0-.43-.1 2.293 2.293 0 0 0-.43-.04c-.88 0-1.587.247-2.12.74-.533.493-.873 1.26-1.02 2.3l-.66 4.76h-1.8l1.32-9.48zm8 5.4a2.26 2.26 0 0 0 .71 2c.26.24.573.427.94.56.367.133.757.2 1.17.2.56 0 1.063-.13 1.51-.39.447-.26.877-.603 1.29-1.03l1.2 1.04c-1.173 1.293-2.66 1.94-4.46 1.94-.747 0-1.403-.127-1.97-.38a3.678 3.678 0 0 1-1.39-1.05 3.964 3.964 0 0 1-.76-1.58c-.147-.607-.167-1.263-.06-1.97a5.567 5.567 0 0 1 .64-1.97 5.926 5.926 0 0 1 1.25-1.58 5.718 5.718 0 0 1 1.7-1.05 5.361 5.361 0 0 1 2.01-.38c.84 0 1.53.147 2.07.44.54.293.963.677 1.27 1.15.307.473.5 1.007.58 1.6.08.593.08 1.197 0 1.81l-.1.64h-7.6zm5.88-1.44c.04-.4.027-.767-.04-1.1a2.103 2.103 0 0 0-.38-.87 1.868 1.868 0 0 0-.76-.58c-.32-.14-.707-.21-1.16-.21-.44 0-.853.083-1.24.25-.387.167-.73.383-1.03.65-.3.267-.543.563-.73.89-.187.327-.3.65-.34.97h5.68zM163.35 34h-1.8l.18-1.36h-.04c-.427.507-.96.9-1.6 1.18-.64.28-1.28.42-1.92.42-.733 0-1.38-.127-1.94-.38a3.566 3.566 0 0 1-1.37-1.06 4.13 4.13 0 0 1-.75-1.58c-.147-.6-.167-1.253-.06-1.96a5.894 5.894 0 0 1 1.82-3.55 5.364 5.364 0 0 1 1.66-1.05 5.392 5.392 0 0 1 2.04-.38c.68 0 1.297.143 1.85.43.553.287.963.677 1.23 1.17h.04l.98-7h1.8L163.35 34zm-4.72-1.44a3.474 3.474 0 0 0 2.4-.93c.307-.287.563-.633.77-1.04.207-.407.343-.85.41-1.33a3.83 3.83 0 0 0-.03-1.33 2.416 2.416 0 0 0-.48-1.04 2.46 2.46 0 0 0-.89-.68c-.36-.167-.78-.25-1.26-.25s-.923.083-1.33.25a3.465 3.465 0 0 0-1.85 1.72c-.2.407-.333.85-.4 1.33a3.83 3.83 0 0 0 .03 1.33c.087.407.243.753.47 1.04.227.287.523.513.89.68.367.167.79.25 1.27.25zm9.36-2.64a2.26 2.26 0 0 0 .71 2c.26.24.573.427.94.56.367.133.757.2 1.17.2.56 0 1.063-.13 1.51-.39.447-.26.877-.603 1.29-1.03l1.2 1.04c-1.173 1.293-2.66 1.94-4.46 1.94-.747 0-1.403-.127-1.97-.38a3.678 3.678 0 0 1-1.39-1.05 3.964 3.964 0 0 1-.76-1.58c-.147-.607-.167-1.263-.06-1.97a5.567 5.567 0 0 1 .64-1.97 5.926 5.926 0 0 1 1.25-1.58 5.718 5.718 0 0 1 1.7-1.05 5.361 5.361 0 0 1 2.01-.38c.84 0 1.53.147 2.07.44.54.293.963.677 1.27 1.15.307.473.5 1.007.58 1.6.08.593.08 1.197 0 1.81l-.1.64h-7.6zm5.88-1.44c.04-.4.027-.767-.04-1.1a2.103 2.103 0 0 0-.38-.87 1.868 1.868 0 0 0-.76-.58c-.32-.14-.707-.21-1.16-.21-.44 0-.853.083-1.24.25-.387.167-.73.383-1.03.65-.3.267-.543.563-.73.89-.187.327-.3.65-.34.97h5.68zm9.34-1.58a2.21 2.21 0 0 0-.69-.67c-.287-.18-.657-.27-1.11-.27-.427 0-.81.09-1.15.27-.34.18-.53.443-.57.79-.04.28.017.507.17.68.153.173.347.313.58.42.233.107.483.187.75.24l.7.14c.373.093.72.207 1.04.34.32.133.59.307.81.52.22.213.377.473.47.78.093.307.113.68.06 1.12-.08.533-.257.99-.53 1.37-.273.38-.61.69-1.01.93-.4.24-.837.413-1.31.52-.473.107-.943.16-1.41.16-.787 0-1.457-.12-2.01-.36-.553-.24-1.023-.68-1.41-1.32l1.5-1.12c.253.293.547.553.88.78.333.227.76.34 1.28.34a3.21 3.21 0 0 0 1.34-.29c.427-.193.673-.497.74-.91.04-.267-.01-.487-.15-.66-.14-.173-.32-.31-.54-.41-.22-.1-.46-.18-.72-.24-.26-.06-.483-.11-.67-.15a11.02 11.02 0 0 1-1.06-.32c-.333-.12-.62-.28-.86-.48-.24-.2-.417-.453-.53-.76-.113-.307-.137-.687-.07-1.14.067-.493.23-.923.49-1.29s.577-.67.95-.91a4.32 4.32 0 0 1 1.24-.54c.453-.12.9-.18 1.34-.18.64 0 1.237.12 1.79.36.553.24.963.64 1.23 1.2l-1.56 1.06zm10.6.14a3.02 3.02 0 0 0-.93-.79c-.34-.18-.763-.27-1.27-.27-.493 0-.937.09-1.33.27-.393.18-.737.427-1.03.74-.293.313-.53.673-.71 1.08a4.96 4.96 0 0 0-.37 1.27c-.067.44-.053.857.04 1.25s.253.737.48 1.03c.227.293.517.523.87.69.353.167.763.25 1.23.25.507 0 .953-.09 1.34-.27.387-.18.753-.443 1.1-.79l1.1 1.28a4.98 4.98 0 0 1-1.79 1.12 6.033 6.033 0 0 1-2.01.34c-.733 0-1.387-.12-1.96-.36a3.75 3.75 0 0 1-1.42-1.01 3.858 3.858 0 0 1-.8-1.56c-.16-.607-.187-1.277-.08-2.01a5.82 5.82 0 0 1 .63-2.02 5.57 5.57 0 0 1 1.24-1.58 5.63 5.63 0 0 1 3.79-1.4c.693 0 1.337.123 1.93.37s1.09.623 1.49 1.13l-1.54 1.24zm3.22-2.52h1.8l-.2 1.46h.04c.307-.507.747-.917 1.32-1.23a3.63 3.63 0 0 1 1.76-.47c.293 0 .553.04.78.12l-.36 1.94a5.661 5.661 0 0 0-.43-.1 2.293 2.293 0 0 0-.43-.04c-.88 0-1.587.247-2.12.74-.533.493-.873 1.26-1.02 2.3l-.66 4.76h-1.8l1.32-9.48zm7.54 0h1.8L205.05 34h-1.8l1.32-9.48zm.06-3.4c.053-.36.227-.67.52-.93.293-.26.62-.39.98-.39s.653.13.88.39c.227.26.313.57.26.93-.053.36-.227.67-.52.93-.293.26-.62.39-.98.39s-.653-.13-.88-.39a1.103 1.103 0 0 1-.26-.93zm4.6 3.4h1.8l-.18 1.36h.04c.427-.507.96-.9 1.6-1.18.64-.28 1.28-.42 1.92-.42.733 0 1.38.127 1.94.38s1.017.607 1.37 1.06c.353.453.6.983.74 1.59a5.41 5.41 0 0 1 .07 1.95 6.315 6.315 0 0 1-.63 1.97 5.728 5.728 0 0 1-1.19 1.58 5.364 5.364 0 0 1-1.66 1.05 5.392 5.392 0 0 1-2.04.38c-.68 0-1.3-.143-1.86-.43-.56-.287-.967-.677-1.22-1.17h-.04l-.98 7h-1.8l2.12-15.12zm4.72 1.44c-.48 0-.923.083-1.33.25a3.465 3.465 0 0 0-1.85 1.72c-.2.407-.333.85-.4 1.33a3.83 3.83 0 0 0 .03 1.33c.087.407.243.753.47 1.04.227.287.523.513.89.68.367.167.79.25 1.27.25a3.474 3.474 0 0 0 2.4-.93c.307-.287.563-.633.77-1.04.207-.407.343-.85.41-1.33a3.83 3.83 0 0 0-.03-1.33 2.416 2.416 0 0 0-.48-1.04 2.46 2.46 0 0 0-.89-.68c-.36-.167-.78-.25-1.26-.25zm12.36.12h-2.58l-.6 4.3c-.04.267-.07.53-.09.79-.02.26-.003.493.05.7a.889.889 0 0 0 .33.5c.167.127.423.19.77.19.213 0 .437-.02.67-.06.233-.04.45-.113.65-.22l-.24 1.64c-.12.067-.257.12-.41.16-.153.04-.307.07-.46.09-.153.02-.3.037-.44.05a3.81 3.81 0 0 1-.35.02c-.693 0-1.217-.097-1.57-.29-.353-.193-.6-.443-.74-.75a2.17 2.17 0 0 1-.18-1.03c.02-.38.057-.763.11-1.15l.7-4.94h-2.08l.22-1.56h2.08l.38-2.66h1.8l-.38 2.66h2.58l-.22 1.56zm2.68-1.56h1.8L229.47 34h-1.8l1.32-9.48zm.06-3.4c.053-.36.227-.67.52-.93.293-.26.62-.39.98-.39s.653.13.88.39c.227.26.313.57.26.93-.053.36-.227.67-.52.93-.293.26-.62.39-.98.39s-.653-.13-.88-.39a1.103 1.103 0 0 1-.26-.93zm5.4 8.14a3.83 3.83 0 0 0 .03 1.33c.087.407.243.753.47 1.04.227.287.523.513.89.68.367.167.79.25 1.27.25a3.474 3.474 0 0 0 2.4-.93c.307-.287.563-.633.77-1.04.207-.407.343-.85.41-1.33a3.83 3.83 0 0 0-.03-1.33 2.416 2.416 0 0 0-.48-1.04 2.46 2.46 0 0 0-.89-.68c-.36-.167-.78-.25-1.26-.25s-.923.083-1.33.25a3.465 3.465 0 0 0-1.85 1.72c-.2.407-.333.85-.4 1.33zm-1.92 0c.093-.693.313-1.34.66-1.94a6.189 6.189 0 0 1 3.05-2.65 5.391 5.391 0 0 1 2.03-.39c.707 0 1.347.13 1.92.39s1.057.617 1.45 1.07c.393.453.677.98.85 1.58.173.6.213 1.247.12 1.94a5.809 5.809 0 0 1-1.96 3.53c-.52.447-1.103.8-1.75 1.06s-1.323.39-2.03.39c-.707 0-1.35-.13-1.93-.39a4.11 4.11 0 0 1-1.45-1.06 4.209 4.209 0 0 1-.85-1.58 4.42 4.42 0 0 1-.11-1.95zm13-4.74h1.8l-.2 1.46h.04c.307-.507.76-.917 1.36-1.23.6-.313 1.267-.47 2-.47.453 0 .88.07 1.28.21.4.14.737.357 1.01.65.273.293.47.67.59 1.13.12.46.133 1.003.04 1.63l-.84 6.1h-1.8l.78-5.6c.053-.44.043-.817-.03-1.13a1.756 1.756 0 0 0-.36-.76 1.422 1.422 0 0 0-.63-.42 2.454 2.454 0 0 0-.8-.13c-.373 0-.73.06-1.07.18-.34.12-.647.31-.92.57-.273.26-.503.59-.69.99-.187.4-.32.873-.4 1.42l-.68 4.88h-1.8l1.32-9.48zM447.93 21.84h8.9l-.26 1.8h-6.98l-.62 4.44h6.5l-.24 1.8h-6.5l-.86 6.12h-1.92l1.98-14.16zm10.36 4.68h1.8l-.2 1.46h.04c.307-.507.747-.917 1.32-1.23a3.63 3.63 0 0 1 1.76-.47c.293 0 .553.04.78.12l-.36 1.94a5.661 5.661 0 0 0-.43-.1 2.293 2.293 0 0 0-.43-.04c-.88 0-1.587.247-2.12.74-.533.493-.873 1.26-1.02 2.3l-.66 4.76h-1.8l1.32-9.48zm8.2 4.74a3.83 3.83 0 0 0 .03 1.33c.087.407.243.753.47 1.04.227.287.523.513.89.68.367.167.79.25 1.27.25a3.474 3.474 0 0 0 2.4-.93c.307-.287.563-.633.77-1.04.207-.407.343-.85.41-1.33a3.83 3.83 0 0 0-.03-1.33 2.416 2.416 0 0 0-.48-1.04 2.46 2.46 0 0 0-.89-.68c-.36-.167-.78-.25-1.26-.25s-.923.083-1.33.25a3.465 3.465 0 0 0-1.85 1.72c-.2.407-.333.85-.4 1.33zm-1.92 0c.093-.693.313-1.34.66-1.94a6.189 6.189 0 0 1 3.05-2.65 5.391 5.391 0 0 1 2.03-.39c.707 0 1.347.13 1.92.39s1.057.617 1.45 1.07c.393.453.677.98.85 1.58.173.6.213 1.247.12 1.94a5.809 5.809 0 0 1-1.96 3.53c-.52.447-1.103.8-1.75 1.06s-1.323.39-2.03.39c-.707 0-1.35-.13-1.93-.39a4.11 4.11 0 0 1-1.45-1.06 4.209 4.209 0 0 1-.85-1.58 4.42 4.42 0 0 1-.11-1.95zm13-4.74h1.8l-.2 1.46h.04c.307-.507.76-.917 1.36-1.23.6-.313 1.267-.47 2-.47.453 0 .88.07 1.28.21.4.14.737.357 1.01.65.273.293.47.67.59 1.13.12.46.133 1.003.04 1.63l-.84 6.1h-1.8l.78-5.6c.053-.44.043-.817-.03-1.13a1.756 1.756 0 0 0-.36-.76 1.422 1.422 0 0 0-.63-.42 2.454 2.454 0 0 0-.8-.13c-.373 0-.73.06-1.07.18-.34.12-.647.31-.92.57-.273.26-.503.59-.69.99-.187.4-.32.873-.4 1.42l-.68 4.88h-1.8l1.32-9.48zm15.98 1.56h-2.58l-.6 4.3c-.04.267-.07.53-.09.79-.02.26-.003.493.05.7a.889.889 0 0 0 .33.5c.167.127.423.19.77.19.213 0 .437-.02.67-.06.233-.04.45-.113.65-.22l-.24 1.64c-.12.067-.257.12-.41.16-.153.04-.307.07-.46.09-.153.02-.3.037-.44.05a3.81 3.81 0 0 1-.35.02c-.693 0-1.217-.097-1.57-.29-.353-.193-.6-.443-.74-.75a2.17 2.17 0 0 1-.18-1.03c.02-.38.057-.763.11-1.15l.7-4.94h-2.08l.22-1.56h2.08l.38-2.66h1.8l-.38 2.66h2.58l-.22 1.56zm3.14 3.84a2.26 2.26 0 0 0 .71 2c.26.24.573.427.94.56.367.133.757.2 1.17.2.56 0 1.063-.13 1.51-.39.447-.26.877-.603 1.29-1.03l1.2 1.04c-1.173 1.293-2.66 1.94-4.46 1.94-.747 0-1.403-.127-1.97-.38a3.678 3.678 0 0 1-1.39-1.05 3.964 3.964 0 0 1-.76-1.58c-.147-.607-.167-1.263-.06-1.97a5.567 5.567 0 0 1 .64-1.97 5.926 5.926 0 0 1 1.25-1.58 5.718 5.718 0 0 1 1.7-1.05 5.361 5.361 0 0 1 2.01-.38c.84 0 1.53.147 2.07.44.54.293.963.677 1.27 1.15.307.473.5 1.007.58 1.6.08.593.08 1.197 0 1.81l-.1.64h-7.6zm5.88-1.44c.04-.4.027-.767-.04-1.1a2.103 2.103 0 0 0-.38-.87 1.868 1.868 0 0 0-.76-.58c-.32-.14-.707-.21-1.16-.21-.44 0-.853.083-1.24.25-.387.167-.73.383-1.03.65-.3.267-.543.563-.73.89-.187.327-.3.65-.34.97h5.68zm4.64-3.96h1.8l-.2 1.46h.04c.307-.507.76-.917 1.36-1.23.6-.313 1.267-.47 2-.47.453 0 .88.07 1.28.21.4.14.737.357 1.01.65.273.293.47.67.59 1.13.12.46.133 1.003.04 1.63l-.84 6.1h-1.8l.78-5.6c.053-.44.043-.817-.03-1.13a1.756 1.756 0 0 0-.36-.76 1.422 1.422 0 0 0-.63-.42 2.454 2.454 0 0 0-.8-.13c-.373 0-.73.06-1.07.18-.34.12-.647.31-.92.57-.273.26-.503.59-.69.99-.187.4-.32.873-.4 1.42l-.68 4.88h-1.8l1.32-9.48zm19.3 9.48h-1.8l.18-1.36h-.04c-.427.507-.96.9-1.6 1.18-.64.28-1.28.42-1.92.42-.733 0-1.38-.127-1.94-.38a3.566 3.566 0 0 1-1.37-1.06 4.13 4.13 0 0 1-.75-1.58c-.147-.6-.167-1.253-.06-1.96a5.894 5.894 0 0 1 1.82-3.55 5.364 5.364 0 0 1 1.66-1.05 5.392 5.392 0 0 1 2.04-.38c.68 0 1.297.143 1.85.43.553.287.963.677 1.23 1.17h.04l.98-7h1.8L526.51 36zm-4.72-1.44a3.474 3.474 0 0 0 2.4-.93c.307-.287.563-.633.77-1.04.207-.407.343-.85.41-1.33a3.83 3.83 0 0 0-.03-1.33 2.416 2.416 0 0 0-.48-1.04 2.46 2.46 0 0 0-.89-.68c-.36-.167-.78-.25-1.26-.25s-.923.083-1.33.25a3.465 3.465 0 0 0-1.85 1.72c-.2.407-.333.85-.4 1.33a3.83 3.83 0 0 0 .03 1.33c.087.407.243.753.47 1.04.227.287.523.513.89.68.367.167.79.25 1.27.25zM779.07 22.84h4.92a6.03 6.03 0 0 1 1.68.22c.507.147.93.363 1.27.65.34.287.587.653.74 1.1.153.447.19.97.11 1.57-.107.813-.423 1.477-.95 1.99-.527.513-1.17.89-1.93 1.13v.04c.413.027.793.137 1.14.33.347.193.637.447.87.76.233.313.4.677.5 1.09.1.413.117.86.05 1.34a4.032 4.032 0 0 1-.63 1.69 4.5 4.5 0 0 1-1.23 1.23 5.68 5.68 0 0 1-1.68.76 7.395 7.395 0 0 1-1.98.26h-4.86l1.98-14.16zm1.1 5.88h2.62c.36 0 .707-.037 1.04-.11.333-.073.63-.197.89-.37s.48-.393.66-.66c.18-.267.297-.593.35-.98.067-.56-.05-1.047-.35-1.46-.3-.413-.837-.62-1.61-.62h-3.02l-.58 4.2zm-.94 6.6h2.82c.293 0 .62-.03.98-.09s.71-.18 1.05-.36c.34-.18.637-.423.89-.73s.413-.713.48-1.22c.12-.84-.063-1.47-.55-1.89-.487-.42-1.197-.63-2.13-.63h-2.84l-.7 4.92zm11.2-6.64a6.014 6.014 0 0 1 1.91-1.05c.7-.233 1.383-.35 2.05-.35.693 0 1.28.087 1.76.26.48.173.86.407 1.14.7.28.293.467.63.56 1.01.093.38.113.777.06 1.19l-.68 4.84c-.053.333-.093.64-.12.92-.027.28-.04.547-.04.8h-1.6c.013-.24.03-.48.05-.72.02-.24.05-.48.09-.72h-.04c-.493.613-1.03 1.047-1.61 1.3-.58.253-1.23.38-1.95.38-.44 0-.85-.06-1.23-.18s-.703-.3-.97-.54a2.153 2.153 0 0 1-.59-.89c-.127-.353-.157-.763-.09-1.23.08-.613.287-1.127.62-1.54.333-.413.757-.75 1.27-1.01a6.198 6.198 0 0 1 1.74-.56c.647-.113 1.33-.17 2.05-.17h1.32l.06-.4c.04-.24.03-.48-.03-.72s-.17-.457-.33-.65a1.65 1.65 0 0 0-.64-.46c-.267-.113-.593-.17-.98-.17a3.937 3.937 0 0 0-2.29.7c-.193.133-.383.26-.57.38l-.92-1.12zm4.56 3.76c-.427 0-.867.023-1.32.07a5.622 5.622 0 0 0-1.26.27c-.387.133-.713.32-.98.56-.267.24-.427.547-.48.92-.08.547.047.94.38 1.18s.813.36 1.44.36c.493 0 .923-.083 1.29-.25a2.947 2.947 0 0 0 1.52-1.54c.14-.327.23-.65.27-.97l.1-.6h-.96zm12.36-2.4a3.02 3.02 0 0 0-.93-.79c-.34-.18-.763-.27-1.27-.27-.493 0-.937.09-1.33.27-.393.18-.737.427-1.03.74-.293.313-.53.673-.71 1.08a4.96 4.96 0 0 0-.37 1.27c-.067.44-.053.857.04 1.25s.253.737.48 1.03c.227.293.517.523.87.69.353.167.763.25 1.23.25.507 0 .953-.09 1.34-.27.387-.18.753-.443 1.1-.79l1.1 1.28a4.98 4.98 0 0 1-1.79 1.12 6.033 6.033 0 0 1-2.01.34c-.733 0-1.387-.12-1.96-.36a3.75 3.75 0 0 1-1.42-1.01 3.858 3.858 0 0 1-.8-1.56c-.16-.607-.187-1.277-.08-2.01a5.82 5.82 0 0 1 .63-2.02 5.57 5.57 0 0 1 1.24-1.58 5.63 5.63 0 0 1 3.79-1.4c.693 0 1.337.123 1.93.37s1.09.623 1.49 1.13l-1.54 1.24zm4.02-8.16h1.8l-1.38 9.76 4.66-4.1h2.5l-5.02 4.3 4.08 5.16h-2.56l-3.72-4.92-.68 4.92h-1.8l2.12-15.12zm10.18 11.04a2.26 2.26 0 0 0 .71 2c.26.24.573.427.94.56.367.133.757.2 1.17.2.56 0 1.063-.13 1.51-.39.447-.26.877-.603 1.29-1.03l1.2 1.04c-1.173 1.293-2.66 1.94-4.46 1.94-.747 0-1.403-.127-1.97-.38a3.678 3.678 0 0 1-1.39-1.05 3.964 3.964 0 0 1-.76-1.58c-.147-.607-.167-1.263-.06-1.97a5.567 5.567 0 0 1 .64-1.97 5.926 5.926 0 0 1 1.25-1.58 5.718 5.718 0 0 1 1.7-1.05 5.361 5.361 0 0 1 2.01-.38c.84 0 1.53.147 2.07.44.54.293.963.677 1.27 1.15.307.473.5 1.007.58 1.6.08.593.08 1.197 0 1.81l-.1.64h-7.6zm5.88-1.44c.04-.4.027-.767-.04-1.1a2.103 2.103 0 0 0-.38-.87 1.868 1.868 0 0 0-.76-.58c-.32-.14-.707-.21-1.16-.21-.44 0-.853.083-1.24.25-.387.167-.73.383-1.03.65-.3.267-.543.563-.73.89-.187.327-.3.65-.34.97h5.68zm4.64-3.96h1.8l-.2 1.46h.04c.307-.507.76-.917 1.36-1.23.6-.313 1.267-.47 2-.47.453 0 .88.07 1.28.21.4.14.737.357 1.01.65.273.293.47.67.59 1.13.12.46.133 1.003.04 1.63l-.84 6.1h-1.8l.78-5.6c.053-.44.043-.817-.03-1.13a1.756 1.756 0 0 0-.36-.76 1.422 1.422 0 0 0-.63-.42 2.454 2.454 0 0 0-.8-.13c-.373 0-.73.06-1.07.18-.34.12-.647.31-.92.57-.273.26-.503.59-.69.99-.187.4-.32.873-.4 1.42l-.68 4.88h-1.8l1.32-9.48zm19.3 9.48h-1.8l.18-1.36h-.04c-.427.507-.96.9-1.6 1.18-.64.28-1.28.42-1.92.42-.733 0-1.38-.127-1.94-.38a3.566 3.566 0 0 1-1.37-1.06 4.13 4.13 0 0 1-.75-1.58c-.147-.6-.167-1.253-.06-1.96a5.894 5.894 0 0 1 1.82-3.55 5.364 5.364 0 0 1 1.66-1.05 5.392 5.392 0 0 1 2.04-.38c.68 0 1.297.143 1.85.43.553.287.963.677 1.23 1.17h.04l.98-7h1.8L851.37 37zm-4.72-1.44a3.474 3.474 0 0 0 2.4-.93c.307-.287.563-.633.77-1.04.207-.407.343-.85.41-1.33a3.83 3.83 0 0 0-.03-1.33 2.416 2.416 0 0 0-.48-1.04 2.46 2.46 0 0 0-.89-.68c-.36-.167-.78-.25-1.26-.25s-.923.083-1.33.25a3.465 3.465 0 0 0-1.85 1.72c-.2.407-.333.85-.4 1.33a3.83 3.83 0 0 0 .03 1.33c.087.407.243.753.47 1.04.227.287.523.513.89.68.367.167.79.25 1.27.25z" fill="#959595"/><path fill="#959595" fill-rule="nonzero" d="M-.25 51.25v-1.5h311.5v1.5zM331.746 52.25v-1.5H642.25v1.5zM662.746 53.25v-1.5H971.25v1.5z"/></g></svg>