<svg width="975" height="616" viewBox="0 0 975 616" xmlns="http://www.w3.org/2000/svg" xmlns:xlink="http://www.w3.org/1999/xlink"><defs><rect id="a" x="669" y="189" width="247" height="60" rx="8"/><mask id="d" maskContentUnits="userSpaceOnUse" maskUnits="objectBoundingBox" x="0" y="0" width="247" height="60" fill="#fff"><use xlink:href="#a"/></mask><rect id="b" x="669" y="265" width="247" height="60" rx="8"/><mask id="e" maskContentUnits="userSpaceOnUse" maskUnits="objectBoundingBox" x="0" y="0" width="247" height="60" fill="#fff"><use xlink:href="#b"/></mask><rect id="c" x="669" y="342" width="247" height="60" rx="8"/><mask id="f" maskContentUnits="userSpaceOnUse" maskUnits="objectBoundingBox" x="0" y="0" width="247" height="60" fill="#fff"><use xlink:href="#c"/></mask></defs><g fill="none" fill-rule="evenodd"><rect stroke="#5A2AB5" stroke-width="3" x="6.5" y="76.5" width="387" height="538" rx="8"/><rect stroke="#5A2AB5" stroke-width="3" x="59.5" y="190.5" width="274" height="177" rx="8"/><rect stroke="#5A2AB5" stroke-width="3" x="478.5" y="190.5" width="163" height="57" rx="8"/><rect stroke="#5A2AB5" stroke-width="3" x="478.5" y="266.5" width="163" height="130" rx="8"/><use stroke="#5A2AB5" mask="url(#d)" stroke-width="6" stroke-dasharray="8" xlink:href="#a"/><use stroke="#5A2AB5" mask="url(#e)" stroke-width="6" stroke-dasharray="8,8" xlink:href="#b"/><use stroke="#5A2AB5" mask="url(#f)" stroke-width="6" stroke-dasharray="8,8" xlink:href="#c"/><rect stroke="#5A2AB5" stroke-width="3" x="420.5" y="76.5" width="553" height="366" rx="8"/><rect fill="#5A2AB5" x="58" y="420" width="607" height="66" rx="8"/><rect stroke="#5A2AB5" stroke-width="3" x="420.5" y="468.5" width="553" height="146" rx="8"/><path d="M126.7 146.36c-3.42 0-6.66-1.08-9.468-3.168a2.077 2.077 0 0 1-.864-1.692c0-1.152.936-2.052 2.088-2.052.612 0 1.008.18 1.296.396 2.088 1.656 4.32 2.592 7.056 2.592 2.736 0 4.464-1.296 4.464-3.168v-.072c0-1.8-1.008-2.772-5.688-3.852-5.364-1.296-8.388-2.88-8.388-7.524v-.072c0-4.32 3.6-7.308 8.604-7.308 3.168 0 5.724.828 7.992 2.34.504.288.972.9.972 1.764 0 1.152-.936 2.052-2.088 2.052-.432 0-.792-.108-1.152-.324-1.944-1.26-3.816-1.908-5.796-1.908-2.592 0-4.104 1.332-4.104 2.988v.072c0 1.944 1.152 2.808 6.012 3.96 5.328 1.296 8.064 3.204 8.064 7.38v.072c0 4.716-3.708 7.524-9 7.524zm17.172 5.508c-1.224 0-2.124-.18-3.024-.54-.648-.216-1.368-.756-1.368-1.8 0-1.08.828-1.8 1.764-1.8.36 0 .576.072.792.144.504.144.9.252 1.512.252 1.296 0 1.98-.54 2.7-2.016l.144-.396-7.056-15.768c-.144-.324-.252-.756-.252-1.044 0-1.224.936-2.124 2.16-2.124 1.116 0 1.728.648 2.124 1.656l5.112 12.636 4.752-12.636c.36-.9.972-1.656 2.088-1.656 1.152 0 2.088.9 2.088 2.052 0 .36-.108.828-.18 1.044l-6.948 16.668c-1.62 3.888-3.348 5.328-6.408 5.328zm17.676-7.848v-15.048c0-1.224.936-2.196 2.16-2.196 1.224 0 2.196.972 2.196 2.196v.936c1.224-1.764 2.988-3.312 5.94-3.312 4.284 0 6.768 2.88 6.768 7.272v10.152c0 1.224-.936 2.16-2.16 2.16-1.224 0-2.196-.936-2.196-2.16v-8.82c0-2.952-1.476-4.644-4.068-4.644-2.52 0-4.284 1.764-4.284 4.716v8.748c0 1.224-.972 2.16-2.196 2.16a2.143 2.143 0 0 1-2.16-2.16zm28.692 2.304c-3.204 0-5.472-1.404-5.472-5.58v-10.008h-.72a1.86 1.86 0 0 1-1.872-1.872 1.86 1.86 0 0 1 1.872-1.872h.72v-3.24c0-1.188.972-2.16 2.196-2.16 1.188 0 2.16.972 2.16 2.16v3.24h3.42c1.044 0 1.908.828 1.908 1.872s-.864 1.872-1.908 1.872h-3.42v9.324c0 1.692.864 2.376 2.34 2.376.504 0 .936-.108 1.08-.108.972 0 1.836.792 1.836 1.8 0 .792-.54 1.44-1.152 1.692a8.665 8.665 0 0 1-2.988.504zm8.424-2.304V121.7c0-1.188.936-2.16 2.16-2.16 1.224 0 2.196.972 2.196 2.16v8.208c1.224-1.764 2.988-3.312 5.94-3.312 4.284 0 6.768 2.88 6.768 7.272v10.152c0 1.224-.936 2.16-2.16 2.16-1.224 0-2.196-.936-2.196-2.16v-8.82c0-2.952-1.476-4.644-4.068-4.644-2.52 0-4.284 1.764-4.284 4.716v8.748c0 1.224-.972 2.16-2.196 2.16a2.143 2.143 0 0 1-2.16-2.16zm25.596-8.856h9.756c-.288-2.808-1.944-5.004-4.824-5.004-2.664 0-4.536 2.052-4.932 5.004zm12.276 8.748c-1.728 1.548-3.888 2.52-6.84 2.52-5.508 0-9.756-3.996-9.756-9.864v-.072c0-5.436 3.852-9.9 9.288-9.9 6.048 0 9.036 4.968 9.036 9.36 0 1.224-.936 2.088-2.052 2.088h-11.916c.468 3.096 2.664 4.824 5.472 4.824 1.836 0 3.276-.648 4.5-1.656.324-.252.612-.396 1.116-.396.972 0 1.728.756 1.728 1.764 0 .54-.252 1.008-.576 1.332zm12.708 2.448c-2.412 0-5.04-.756-7.236-2.268-.468-.252-.828-.792-.828-1.512 0-.972.756-1.764 1.764-1.764.36 0 .684.108.936.252 1.836 1.224 3.744 1.836 5.472 1.836 1.872 0 2.952-.792 2.952-2.052v-.072c0-1.476-2.016-1.98-4.248-2.664-2.808-.792-5.94-1.944-5.94-5.58v-.072c0-3.6 2.988-5.796 6.768-5.796 2.016 0 4.14.576 5.976 1.548.612.324 1.044.9 1.044 1.656 0 1.008-.792 1.764-1.8 1.764-.36 0-.576-.072-.864-.216-1.548-.792-3.132-1.296-4.464-1.296-1.692 0-2.664.792-2.664 1.872v.072c0 1.404 2.052 1.98 4.284 2.7 2.772.864 5.904 2.124 5.904 5.544v.072c0 3.996-3.096 5.976-7.056 5.976zm11.448-24.264v-.216c0-1.296 1.08-2.124 2.484-2.124s2.484.828 2.484 2.124v.216c0 1.296-1.08 2.16-2.484 2.16s-2.484-.864-2.484-2.16zm.324 21.924v-15.048c0-1.224.936-2.196 2.16-2.196 1.224 0 2.196.972 2.196 2.196v15.048c0 1.224-.972 2.16-2.196 2.16a2.143 2.143 0 0 1-2.16-2.16zm16.56 2.34c-2.412 0-5.04-.756-7.236-2.268-.468-.252-.828-.792-.828-1.512 0-.972.756-1.764 1.764-1.764.36 0 .684.108.936.252 1.836 1.224 3.744 1.836 5.472 1.836 1.872 0 2.952-.792 2.952-2.052v-.072c0-1.476-2.016-1.98-4.248-2.664-2.808-.792-5.94-1.944-5.94-5.58v-.072c0-3.6 2.988-5.796 6.768-5.796 2.016 0 4.14.576 5.976 1.548.612.324 1.044.9 1.044 1.656 0 1.008-.792 1.764-1.8 1.764-.36 0-.576-.072-.864-.216-1.548-.792-3.132-1.296-4.464-1.296-1.692 0-2.664.792-2.664 1.872v.072c0 1.404 2.052 1.98 4.284 2.7 2.772.864 5.904 2.124 5.904 5.544v.072c0 3.996-3.096 5.976-7.056 5.976zM163.855 279.91l-7.98-12.15h4.74l5.22 8.46 5.28-8.46h4.5l-7.98 12.15V289h-3.78v-9.09zm12.66 1.89c0-1.14.205-2.175.615-3.105a7.26 7.26 0 0 1 1.665-2.385 7.34 7.34 0 0 1 2.49-1.53c.96-.36 1.98-.54 3.06-.54s2.1.18 3.06.54c.96.36 1.79.87 2.49 1.53a7.26 7.26 0 0 1 1.665 2.385c.41.93.615 1.965.615 3.105s-.205 2.175-.615 3.105a7.26 7.26 0 0 1-1.665 2.385 7.34 7.34 0 0 1-2.49 1.53c-.96.36-1.98.54-3.06.54s-2.1-.18-3.06-.54a7.34 7.34 0 0 1-2.49-1.53 7.26 7.26 0 0 1-1.665-2.385c-.41-.93-.615-1.965-.615-3.105zm3.6 0c0 .56.095 1.1.285 1.62.19.52.47.98.84 1.38.37.4.815.72 1.335.96s1.11.36 1.77.36c.66 0 1.25-.12 1.77-.36s.965-.56 1.335-.96c.37-.4.65-.86.84-1.38.19-.52.285-1.06.285-1.62s-.095-1.1-.285-1.62c-.19-.52-.47-.98-.84-1.38-.37-.4-.815-.72-1.335-.96s-1.11-.36-1.77-.36c-.66 0-1.25.12-1.77.36s-.965.56-1.335.96c-.37.4-.65.86-.84 1.38-.19.52-.285 1.06-.285 1.62zm23.1-3.21c-.7-.98-1.64-1.47-2.82-1.47-.48 0-.95.12-1.41.36-.46.24-.69.63-.69 1.17 0 .44.19.76.57.96.38.2.86.37 1.44.51s1.205.285 1.875.435c.67.15 1.295.38 1.875.69.58.31 1.06.735 1.44 1.275.38.54.57 1.28.57 2.22 0 .86-.185 1.585-.555 2.175-.37.59-.85 1.065-1.44 1.425-.59.36-1.255.62-1.995.78-.74.16-1.48.24-2.22.24-1.12 0-2.15-.16-3.09-.48-.94-.32-1.78-.9-2.52-1.74l2.4-2.25c.46.52.955.945 1.485 1.275.53.33 1.175.495 1.935.495.26 0 .53-.03.81-.09s.54-.16.78-.3c.24-.14.435-.315.585-.525.15-.21.225-.455.225-.735 0-.5-.19-.87-.57-1.11-.38-.24-.86-.435-1.44-.585-.58-.15-1.205-.29-1.875-.42a7.265 7.265 0 0 1-1.875-.63 3.94 3.94 0 0 1-1.44-1.215c-.38-.52-.57-1.24-.57-2.16 0-.8.165-1.495.495-2.085a4.35 4.35 0 0 1 1.305-1.455c.54-.38 1.16-.66 1.86-.84.7-.18 1.41-.27 2.13-.27.96 0 1.91.165 2.85.495.94.33 1.7.895 2.28 1.695l-2.4 2.16zm3.69-3.99h3.96l4.02 9.99h.06l3.6-9.99h3.75l-6.81 17.49a11.01 11.01 0 0 1-.855 1.785c-.31.51-.675.94-1.095 1.29-.42.35-.915.61-1.485.78-.57.17-1.255.255-2.055.255-.94 0-1.86-.12-2.76-.36l.45-3.24c.28.1.575.185.885.255.31.07.625.105.945.105.44 0 .81-.04 1.11-.12.3-.08.555-.205.765-.375.21-.17.385-.39.525-.66s.29-.595.45-.975l.69-1.71-6.15-14.52zm25.2 3.99c-.7-.98-1.64-1.47-2.82-1.47-.48 0-.95.12-1.41.36-.46.24-.69.63-.69 1.17 0 .44.19.76.57.96.38.2.86.37 1.44.51s1.205.285 1.875.435c.67.15 1.295.38 1.875.69.58.31 1.06.735 1.44 1.275.38.54.57 1.28.57 2.22 0 .86-.185 1.585-.555 2.175-.37.59-.85 1.065-1.44 1.425-.59.36-1.255.62-1.995.78-.74.16-1.48.24-2.22.24-1.12 0-2.15-.16-3.09-.48-.94-.32-1.78-.9-2.52-1.74l2.4-2.25c.46.52.955.945 1.485 1.275.53.33 1.175.495 1.935.495.26 0 .53-.03.81-.09s.54-.16.78-.3c.24-.14.435-.315.585-.525.15-.21.225-.455.225-.735 0-.5-.19-.87-.57-1.11-.38-.24-.86-.435-1.44-.585-.58-.15-1.205-.29-1.875-.42a7.265 7.265 0 0 1-1.875-.63 3.94 3.94 0 0 1-1.44-1.215c-.38-.52-.57-1.24-.57-2.16 0-.8.165-1.495.495-2.085a4.35 4.35 0 0 1 1.305-1.455c.54-.38 1.16-.66 1.86-.84.7-.18 1.41-.27 2.13-.27.96 0 1.91.165 2.85.495.94.33 1.7.895 2.28 1.695l-2.4 2.16z" fill="#5A2AB5"/><path d="M157.93 23.84h8.9l-.26 1.8h-6.98l-.62 4.44h6.5l-.24 1.8h-6.5l-.86 6.12h-1.92l1.98-14.16zm10.36 4.68h1.8l-.2 1.46h.04c.307-.507.747-.917 1.32-1.23a3.63 3.63 0 0 1 1.76-.47c.293 0 .553.04.78.12l-.36 1.94a5.661 5.661 0 0 0-.43-.1 2.293 2.293 0 0 0-.43-.04c-.88 0-1.587.247-2.12.74-.533.493-.873 1.26-1.02 2.3l-.66 4.76h-1.8l1.32-9.48zm8.2 4.74a3.83 3.83 0 0 0 .03 1.33c.087.407.243.753.47 1.04.227.287.523.513.89.68.367.167.79.25 1.27.25a3.474 3.474 0 0 0 2.4-.93c.307-.287.563-.633.77-1.04.207-.407.343-.85.41-1.33a3.83 3.83 0 0 0-.03-1.33 2.416 2.416 0 0 0-.48-1.04 2.46 2.46 0 0 0-.89-.68c-.36-.167-.78-.25-1.26-.25s-.923.083-1.33.25a3.465 3.465 0 0 0-1.85 1.72c-.2.407-.333.85-.4 1.33zm-1.92 0c.093-.693.313-1.34.66-1.94a6.189 6.189 0 0 1 3.05-2.65 5.391 5.391 0 0 1 2.03-.39c.707 0 1.347.13 1.92.39s1.057.617 1.45 1.07c.393.453.677.98.85 1.58.173.6.213 1.247.12 1.94a5.809 5.809 0 0 1-1.96 3.53c-.52.447-1.103.8-1.75 1.06s-1.323.39-2.03.39c-.707 0-1.35-.13-1.93-.39a4.11 4.11 0 0 1-1.45-1.06 4.209 4.209 0 0 1-.85-1.58 4.42 4.42 0 0 1-.11-1.95zm13-4.74h1.8l-.2 1.46h.04c.307-.507.76-.917 1.36-1.23.6-.313 1.267-.47 2-.47.453 0 .88.07 1.28.21.4.14.737.357 1.01.65.273.293.47.67.59 1.13.12.46.133 1.003.04 1.63l-.84 6.1h-1.8l.78-5.6c.053-.44.043-.817-.03-1.13a1.756 1.756 0 0 0-.36-.76 1.422 1.422 0 0 0-.63-.42 2.454 2.454 0 0 0-.8-.13c-.373 0-.73.06-1.07.18-.34.12-.647.31-.92.57-.273.26-.503.59-.69.99-.187.4-.32.873-.4 1.42l-.68 4.88h-1.8l1.32-9.48zm15.98 1.56h-2.58l-.6 4.3c-.04.267-.07.53-.09.79-.02.26-.003.493.05.7a.889.889 0 0 0 .33.5c.167.127.423.19.77.19.213 0 .437-.02.67-.06.233-.04.45-.113.65-.22l-.24 1.64c-.12.067-.257.12-.41.16-.153.04-.307.07-.46.09-.153.02-.3.037-.44.05a3.81 3.81 0 0 1-.35.02c-.693 0-1.217-.097-1.57-.29-.353-.193-.6-.443-.74-.75a2.17 2.17 0 0 1-.18-1.03c.02-.38.057-.763.11-1.15l.7-4.94h-2.08l.22-1.56h2.08l.38-2.66h1.8l-.38 2.66h2.58l-.22 1.56zm3.14 3.84a2.26 2.26 0 0 0 .71 2c.26.24.573.427.94.56.367.133.757.2 1.17.2.56 0 1.063-.13 1.51-.39.447-.26.877-.603 1.29-1.03l1.2 1.04c-1.173 1.293-2.66 1.94-4.46 1.94-.747 0-1.403-.127-1.97-.38a3.678 3.678 0 0 1-1.39-1.05 3.964 3.964 0 0 1-.76-1.58c-.147-.607-.167-1.263-.06-1.97a5.567 5.567 0 0 1 .64-1.97 5.926 5.926 0 0 1 1.25-1.58 5.718 5.718 0 0 1 1.7-1.05 5.361 5.361 0 0 1 2.01-.38c.84 0 1.53.147 2.07.44.54.293.963.677 1.27 1.15.307.473.5 1.007.58 1.6.08.593.08 1.197 0 1.81l-.1.64h-7.6zm5.88-1.44c.04-.4.027-.767-.04-1.1a2.103 2.103 0 0 0-.38-.87 1.868 1.868 0 0 0-.76-.58c-.32-.14-.707-.21-1.16-.21-.44 0-.853.083-1.24.25-.387.167-.73.383-1.03.65-.3.267-.543.563-.73.89-.187.327-.3.65-.34.97h5.68zm4.64-3.96h1.8l-.2 1.46h.04c.307-.507.76-.917 1.36-1.23.6-.313 1.267-.47 2-.47.453 0 .88.07 1.28.21.4.14.737.357 1.01.65.273.293.47.67.59 1.13.12.46.133 1.003.04 1.63l-.84 6.1h-1.8l.78-5.6c.053-.44.043-.817-.03-1.13a1.756 1.756 0 0 0-.36-.76 1.422 1.422 0 0 0-.63-.42 2.454 2.454 0 0 0-.8-.13c-.373 0-.73.06-1.07.18-.34.12-.647.31-.92.57-.273.26-.503.59-.69.99-.187.4-.32.873-.4 1.42l-.68 4.88h-1.8l1.32-9.48zm19.3 9.48h-1.8l.18-1.36h-.04c-.427.507-.96.9-1.6 1.18-.64.28-1.28.42-1.92.42-.733 0-1.38-.127-1.94-.38a3.566 3.566 0 0 1-1.37-1.06 4.13 4.13 0 0 1-.75-1.58c-.147-.6-.167-1.253-.06-1.96a5.894 5.894 0 0 1 1.82-3.55 5.364 5.364 0 0 1 1.66-1.05 5.392 5.392 0 0 1 2.04-.38c.68 0 1.297.143 1.85.43.553.287.963.677 1.23 1.17h.04l.98-7h1.8L236.51 38zm-4.72-1.44a3.474 3.474 0 0 0 2.4-.93c.307-.287.563-.633.77-1.04.207-.407.343-.85.41-1.33a3.83 3.83 0 0 0-.03-1.33 2.416 2.416 0 0 0-.48-1.04 2.46 2.46 0 0 0-.89-.68c-.36-.167-.78-.25-1.26-.25s-.923.083-1.33.25a3.465 3.465 0 0 0-1.85 1.72c-.2.407-.333.85-.4 1.33a3.83 3.83 0 0 0 .03 1.33c.087.407.243.753.47 1.04.227.287.523.513.89.68.367.167.79.25 1.27.25zM680.07 21.84h4.92a6.03 6.03 0 0 1 1.68.22c.507.147.93.363 1.27.65.34.287.587.653.74 1.1.153.447.19.97.11 1.57-.107.813-.423 1.477-.95 1.99-.527.513-1.17.89-1.93 1.13v.04c.413.027.793.137 1.14.33.347.193.637.447.87.76.233.313.4.677.5 1.09.1.413.117.86.05 1.34a4.032 4.032 0 0 1-.63 1.69 4.5 4.5 0 0 1-1.23 1.23 5.68 5.68 0 0 1-1.68.76 7.395 7.395 0 0 1-1.98.26h-4.86l1.98-14.16zm1.1 5.88h2.62c.36 0 .707-.037 1.04-.11.333-.073.63-.197.89-.37s.48-.393.66-.66c.18-.267.297-.593.35-.98.067-.56-.05-1.047-.35-1.46-.3-.413-.837-.62-1.61-.62h-3.02l-.58 4.2zm-.94 6.6h2.82c.293 0 .62-.03.98-.09s.71-.18 1.05-.36c.34-.18.637-.423.89-.73s.413-.713.48-1.22c.12-.84-.063-1.47-.55-1.89-.487-.42-1.197-.63-2.13-.63h-2.84l-.7 4.92zm11.2-6.64a6.014 6.014 0 0 1 1.91-1.05c.7-.233 1.383-.35 2.05-.35.693 0 1.28.087 1.76.26.48.173.86.407 1.14.7.28.293.467.63.56 1.01.093.38.113.777.06 1.19l-.68 4.84c-.053.333-.093.64-.12.92-.027.28-.04.547-.04.8h-1.6c.013-.24.03-.48.05-.72.02-.24.05-.48.09-.72h-.04c-.493.613-1.03 1.047-1.61 1.3-.58.253-1.23.38-1.95.38-.44 0-.85-.06-1.23-.18s-.703-.3-.97-.54a2.153 2.153 0 0 1-.59-.89c-.127-.353-.157-.763-.09-1.23.08-.613.287-1.127.62-1.54.333-.413.757-.75 1.27-1.01a6.198 6.198 0 0 1 1.74-.56c.647-.113 1.33-.17 2.05-.17h1.32l.06-.4c.04-.24.03-.48-.03-.72s-.17-.457-.33-.65a1.65 1.65 0 0 0-.64-.46c-.267-.113-.593-.17-.98-.17a3.937 3.937 0 0 0-2.29.7c-.193.133-.383.26-.57.38l-.92-1.12zm4.56 3.76c-.427 0-.867.023-1.32.07a5.622 5.622 0 0 0-1.26.27c-.387.133-.713.32-.98.56-.267.24-.427.547-.48.92-.08.547.047.94.38 1.18s.813.36 1.44.36c.493 0 .923-.083 1.29-.25a2.947 2.947 0 0 0 1.52-1.54c.14-.327.23-.65.27-.97l.1-.6h-.96zm12.36-2.4a3.02 3.02 0 0 0-.93-.79c-.34-.18-.763-.27-1.27-.27-.493 0-.937.09-1.33.27-.393.18-.737.427-1.03.74-.293.313-.53.673-.71 1.08a4.96 4.96 0 0 0-.37 1.27c-.067.44-.053.857.04 1.25s.253.737.48 1.03c.227.293.517.523.87.69.353.167.763.25 1.23.25.507 0 .953-.09 1.34-.27.387-.18.753-.443 1.1-.79l1.1 1.28a4.98 4.98 0 0 1-1.79 1.12 6.033 6.033 0 0 1-2.01.34c-.733 0-1.387-.12-1.96-.36a3.75 3.75 0 0 1-1.42-1.01 3.858 3.858 0 0 1-.8-1.56c-.16-.607-.187-1.277-.08-2.01a5.82 5.82 0 0 1 .63-2.02 5.57 5.57 0 0 1 1.24-1.58 5.63 5.63 0 0 1 3.79-1.4c.693 0 1.337.123 1.93.37s1.09.623 1.49 1.13l-1.54 1.24zm4.02-8.16h1.8l-1.38 9.76 4.66-4.1h2.5l-5.02 4.3 4.08 5.16h-2.56l-3.72-4.92-.68 4.92h-1.8l2.12-15.12zm10.18 11.04a2.26 2.26 0 0 0 .71 2c.26.24.573.427.94.56.367.133.757.2 1.17.2.56 0 1.063-.13 1.51-.39.447-.26.877-.603 1.29-1.03l1.2 1.04c-1.173 1.293-2.66 1.94-4.46 1.94-.747 0-1.403-.127-1.97-.38a3.678 3.678 0 0 1-1.39-1.05 3.964 3.964 0 0 1-.76-1.58c-.147-.607-.167-1.263-.06-1.97a5.567 5.567 0 0 1 .64-1.97 5.926 5.926 0 0 1 1.25-1.58 5.718 5.718 0 0 1 1.7-1.05 5.361 5.361 0 0 1 2.01-.38c.84 0 1.53.147 2.07.44.54.293.963.677 1.27 1.15.307.473.5 1.007.58 1.6.08.593.08 1.197 0 1.81l-.1.64h-7.6zm5.88-1.44c.04-.4.027-.767-.04-1.1a2.103 2.103 0 0 0-.38-.87 1.868 1.868 0 0 0-.76-.58c-.32-.14-.707-.21-1.16-.21-.44 0-.853.083-1.24.25-.387.167-.73.383-1.03.65-.3.267-.543.563-.73.89-.187.327-.3.65-.34.97h5.68zm4.64-3.96h1.8l-.2 1.46h.04c.307-.507.76-.917 1.36-1.23.6-.313 1.267-.47 2-.47.453 0 .88.07 1.28.21.4.14.737.357 1.01.65.273.293.47.67.59 1.13.12.46.133 1.003.04 1.63l-.84 6.1h-1.8l.78-5.6c.053-.44.043-.817-.03-1.13a1.756 1.756 0 0 0-.36-.76 1.422 1.422 0 0 0-.63-.42 2.454 2.454 0 0 0-.8-.13c-.373 0-.73.06-1.07.18-.34.12-.647.31-.92.57-.273.26-.503.59-.69.99-.187.4-.32.873-.4 1.42l-.68 4.88h-1.8l1.32-9.48zm19.3 9.48h-1.8l.18-1.36h-.04c-.427.507-.96.9-1.6 1.18-.64.28-1.28.42-1.92.42-.733 0-1.38-.127-1.94-.38a3.566 3.566 0 0 1-1.37-1.06 4.13 4.13 0 0 1-.75-1.58c-.147-.6-.167-1.253-.06-1.96a5.894 5.894 0 0 1 1.82-3.55 5.364 5.364 0 0 1 1.66-1.05 5.392 5.392 0 0 1 2.04-.38c.68 0 1.297.143 1.85.43.553.287.963.677 1.23 1.17h.04l.98-7h1.8L752.37 36zm-4.72-1.44a3.474 3.474 0 0 0 2.4-.93c.307-.287.563-.633.77-1.04.207-.407.343-.85.41-1.33a3.83 3.83 0 0 0-.03-1.33 2.416 2.416 0 0 0-.48-1.04 2.46 2.46 0 0 0-.89-.68c-.36-.167-.78-.25-1.26-.25s-.923.083-1.33.25a3.465 3.465 0 0 0-1.85 1.72c-.2.407-.333.85-.4 1.33a3.83 3.83 0 0 0 .03 1.33c.087.407.243.753.47 1.04.227.287.523.513.89.68.367.167.79.25 1.27.25z" fill="#959595"/><path d="M517.628 215.48h2.736v1.848h.048c.272-.576.688-1.076 1.248-1.5.56-.424 1.32-.636 2.28-.636.768 0 1.42.128 1.956.384s.972.592 1.308 1.008c.336.416.576.896.72 1.44.144.544.216 1.112.216 1.704V227h-2.88v-5.832c0-.32-.016-.676-.048-1.068a3.834 3.834 0 0 0-.252-1.104 2.067 2.067 0 0 0-.636-.864c-.288-.232-.68-.348-1.176-.348-.48 0-.884.08-1.212.24-.328.16-.6.376-.816.648a2.577 2.577 0 0 0-.468.936c-.096.352-.144.72-.144 1.104V227h-2.88v-11.52zm16.08 6.768c.096.864.432 1.536 1.008 2.016.576.48 1.272.72 2.088.72.72 0 1.324-.148 1.812-.444a5.023 5.023 0 0 0 1.284-1.116l2.064 1.56c-.672.832-1.424 1.424-2.256 1.776a6.646 6.646 0 0 1-2.616.528c-.864 0-1.68-.144-2.448-.432a5.872 5.872 0 0 1-1.992-1.224 5.808 5.808 0 0 1-1.332-1.908c-.328-.744-.492-1.572-.492-2.484 0-.912.164-1.74.492-2.484a5.808 5.808 0 0 1 1.332-1.908 5.872 5.872 0 0 1 1.992-1.224 6.914 6.914 0 0 1 2.448-.432c.8 0 1.532.14 2.196.42a4.71 4.71 0 0 1 1.704 1.212c.472.528.84 1.18 1.104 1.956.264.776.396 1.668.396 2.676v.792h-8.784zm5.904-2.16c-.016-.848-.28-1.516-.792-2.004s-1.224-.732-2.136-.732c-.864 0-1.548.248-2.052.744s-.812 1.16-.924 1.992h5.904zm8.544.72l-3.984-5.328h3.504l2.304 3.456 2.496-3.456h3.288l-3.936 5.328L556.46 227h-3.504l-3-4.128-3.024 4.128h-3.408l4.632-6.192zm8.568-2.88v-2.448h2.376v-3.336h2.88v3.336h3.168v2.448h-3.168v5.04c0 .576.108 1.032.324 1.368.216.336.644.504 1.284.504.256 0 .536-.028.84-.084.304-.056.544-.148.72-.276v2.424a3.705 3.705 0 0 1-1.116.3 9.35 9.35 0 0 1-1.164.084c-.768 0-1.396-.084-1.884-.252-.488-.168-.872-.424-1.152-.768-.28-.344-.472-.772-.576-1.284a8.995 8.995 0 0 1-.156-1.776v-5.28h-2.376zm10.68-2.448h2.736v1.728h.048c.416-.704.976-1.216 1.68-1.536a5.444 5.444 0 0 1 2.28-.48c.88 0 1.672.156 2.376.468a5.32 5.32 0 0 1 1.8 1.284 5.49 5.49 0 0 1 1.128 1.92c.256.736.384 1.528.384 2.376a6.8 6.8 0 0 1-.408 2.376 5.908 5.908 0 0 1-1.14 1.92 5.255 5.255 0 0 1-1.764 1.284 5.398 5.398 0 0 1-2.256.468 5.561 5.561 0 0 1-1.44-.168 4.962 4.962 0 0 1-1.104-.432 4.416 4.416 0 0 1-.816-.564 4.1 4.1 0 0 1-.552-.588h-.072v6.936h-2.88V215.48zm9.552 5.76c0-.448-.076-.88-.228-1.296a3.252 3.252 0 0 0-.672-1.104 3.347 3.347 0 0 0-1.068-.768 3.342 3.342 0 0 0-1.416-.288c-.528 0-1 .096-1.416.288a3.347 3.347 0 0 0-1.068.768c-.296.32-.52.688-.672 1.104a3.747 3.747 0 0 0-.228 1.296c0 .448.076.88.228 1.296.152.416.376.784.672 1.104.296.32.652.576 1.068.768.416.192.888.288 1.416.288.528 0 1-.096 1.416-.288a3.347 3.347 0 0 0 1.068-.768c.296-.32.52-.688.672-1.104.152-.416.228-.848.228-1.296zm5.568-5.76h2.736v1.848h.048c.272-.576.688-1.076 1.248-1.5.56-.424 1.32-.636 2.28-.636.768 0 1.42.128 1.956.384s.972.592 1.308 1.008c.336.416.576.896.72 1.44.144.544.216 1.112.216 1.704V227h-2.88v-5.832c0-.32-.016-.676-.048-1.068a3.834 3.834 0 0 0-.252-1.104 2.067 2.067 0 0 0-.636-.864c-.288-.232-.68-.348-1.176-.348-.48 0-.884.08-1.212.24-.328.16-.6.376-.816.648a2.577 2.577 0 0 0-.468.936c-.096.352-.144.72-.144 1.104V227h-2.88v-11.52zm13.776 0h2.88v1.824h.048c.32-.672.776-1.192 1.368-1.56.592-.368 1.272-.552 2.04-.552.176 0 .348.016.516.048.168.032.34.072.516.12v2.784a8.07 8.07 0 0 0-.708-.156c-.232-.04-.46-.06-.684-.06-.672 0-1.212.124-1.62.372-.408.248-.72.532-.936.852-.216.32-.36.64-.432.96-.072.32-.108.56-.108.72V227h-2.88v-11.52zM700.896 210.008h5.712c.816 0 1.604.08 2.364.24.76.16 1.428.428 2.004.804.576.376 1.036.88 1.38 1.512.344.632.516 1.42.516 2.364 0 1.072-.184 1.936-.552 2.592a3.95 3.95 0 0 1-1.488 1.524c-.624.36-1.348.604-2.172.732-.824.128-1.684.192-2.58.192h-2.16V227h-3.024v-16.992zm4.848 7.368c.432 0 .88-.016 1.344-.048a4.128 4.128 0 0 0 1.284-.288c.392-.16.712-.4.96-.72.248-.32.372-.768.372-1.344 0-.528-.112-.948-.336-1.26a2.226 2.226 0 0 0-.864-.72 3.645 3.645 0 0 0-1.176-.324 11.309 11.309 0 0 0-1.248-.072h-2.16v4.776h1.824zm9.552-1.896h2.88v1.824h.048c.32-.672.776-1.192 1.368-1.56.592-.368 1.272-.552 2.04-.552.176 0 .348.016.516.048.168.032.34.072.516.12v2.784a8.07 8.07 0 0 0-.708-.156c-.232-.04-.46-.06-.684-.06-.672 0-1.212.124-1.62.372-.408.248-.72.532-.936.852-.216.32-.36.64-.432.96-.072.32-.108.56-.108.72V227h-2.88v-11.52zm8.76 5.76c0-.912.164-1.74.492-2.484a5.808 5.808 0 0 1 1.332-1.908 5.872 5.872 0 0 1 1.992-1.224 6.914 6.914 0 0 1 2.448-.432c.864 0 1.68.144 2.448.432a5.872 5.872 0 0 1 1.992 1.224 5.808 5.808 0 0 1 1.332 1.908c.328.744.492 1.572.492 2.484 0 .912-.164 1.74-.492 2.484a5.808 5.808 0 0 1-1.332 1.908 5.872 5.872 0 0 1-1.992 1.224 6.914 6.914 0 0 1-2.448.432c-.864 0-1.68-.144-2.448-.432a5.872 5.872 0 0 1-1.992-1.224 5.808 5.808 0 0 1-1.332-1.908c-.328-.744-.492-1.572-.492-2.484zm2.88 0c0 .448.076.88.228 1.296.152.416.376.784.672 1.104.296.32.652.576 1.068.768.416.192.888.288 1.416.288.528 0 1-.096 1.416-.288a3.347 3.347 0 0 0 1.068-.768c.296-.32.52-.688.672-1.104.152-.416.228-.848.228-1.296 0-.448-.076-.88-.228-1.296a3.252 3.252 0 0 0-.672-1.104 3.347 3.347 0 0 0-1.068-.768 3.342 3.342 0 0 0-1.416-.288c-.528 0-1 .096-1.416.288a3.347 3.347 0 0 0-1.068.768c-.296.32-.52.688-.672 1.104a3.747 3.747 0 0 0-.228 1.296zm15.264-5.76v12.216c0 .72-.048 1.388-.144 2.004-.096.616-.284 1.152-.564 1.608-.28.456-.676.812-1.188 1.068-.512.256-1.176.384-1.992.384-.272 0-.536-.016-.792-.048a4.402 4.402 0 0 1-.768-.168l.216-2.496c.16.032.312.06.456.084.144.024.296.036.456.036.352 0 .628-.076.828-.228.2-.152.344-.348.432-.588.088-.24.14-.504.156-.792.016-.288.024-.568.024-.84v-12.24h2.88zm-3.288-3.912c0-.464.172-.868.516-1.212.344-.344.78-.516 1.308-.516s.972.164 1.332.492c.36.328.54.74.54 1.236s-.18.908-.54 1.236c-.36.328-.804.492-1.332.492s-.964-.172-1.308-.516a1.659 1.659 0 0 1-.516-1.212zm8.904 10.68c.096.864.432 1.536 1.008 2.016.576.48 1.272.72 2.088.72.72 0 1.324-.148 1.812-.444a5.023 5.023 0 0 0 1.284-1.116l2.064 1.56c-.672.832-1.424 1.424-2.256 1.776a6.646 6.646 0 0 1-2.616.528c-.864 0-1.68-.144-2.448-.432a5.872 5.872 0 0 1-1.992-1.224 5.808 5.808 0 0 1-1.332-1.908c-.328-.744-.492-1.572-.492-2.484 0-.912.164-1.74.492-2.484a5.808 5.808 0 0 1 1.332-1.908 5.872 5.872 0 0 1 1.992-1.224 6.914 6.914 0 0 1 2.448-.432c.8 0 1.532.14 2.196.42a4.71 4.71 0 0 1 1.704 1.212c.472.528.84 1.18 1.104 1.956.264.776.396 1.668.396 2.676v.792h-8.784zm5.904-2.16c-.016-.848-.28-1.516-.792-2.004s-1.224-.732-2.136-.732c-.864 0-1.548.248-2.052.744s-.812 1.16-.924 1.992h5.904zm13.44-1.152a4.595 4.595 0 0 0-1.056-.84 2.267 2.267 0 0 0-1.128-.312c-.528 0-1 .096-1.416.288a3.347 3.347 0 0 0-1.068.768c-.296.32-.52.688-.672 1.104a3.747 3.747 0 0 0-.228 1.296c0 .448.076.88.228 1.296.152.416.376.784.672 1.104.296.32.652.576 1.068.768.416.192.888.288 1.416.288a2.85 2.85 0 0 0 1.248-.276c.384-.184.712-.452.984-.804l1.92 2.064c-.288.288-.62.536-.996.744a6.957 6.957 0 0 1-2.244.78 5.923 5.923 0 0 1-.912.084c-.864 0-1.68-.144-2.448-.432a5.872 5.872 0 0 1-1.992-1.224 5.808 5.808 0 0 1-1.332-1.908c-.328-.744-.492-1.572-.492-2.484 0-.912.164-1.74.492-2.484a5.808 5.808 0 0 1 1.332-1.908 5.872 5.872 0 0 1 1.992-1.224 6.914 6.914 0 0 1 2.448-.432c.736 0 1.476.14 2.22.42.744.28 1.396.724 1.956 1.332l-1.992 1.992zm2.352-1.008v-2.448h2.376v-3.336h2.88v3.336h3.168v2.448h-3.168v5.04c0 .576.108 1.032.324 1.368.216.336.644.504 1.284.504.256 0 .536-.028.84-.084.304-.056.544-.148.72-.276v2.424a3.705 3.705 0 0 1-1.116.3 9.35 9.35 0 0 1-1.164.084c-.768 0-1.396-.084-1.884-.252-.488-.168-.872-.424-1.152-.768-.28-.344-.472-.772-.576-1.284a8.995 8.995 0 0 1-.156-1.776v-5.28h-2.376zm17.976-7.92h3.024V227h-3.024v-16.992zm14.352 8.928a4.595 4.595 0 0 0-1.056-.84 2.267 2.267 0 0 0-1.128-.312c-.528 0-1 .096-1.416.288a3.347 3.347 0 0 0-1.068.768c-.296.32-.52.688-.672 1.104a3.747 3.747 0 0 0-.228 1.296c0 .448.076.88.228 1.296.152.416.376.784.672 1.104.296.32.652.576 1.068.768.416.192.888.288 1.416.288a2.85 2.85 0 0 0 1.248-.276c.384-.184.712-.452.984-.804l1.92 2.064c-.288.288-.62.536-.996.744a6.957 6.957 0 0 1-2.244.78 5.923 5.923 0 0 1-.912.084c-.864 0-1.68-.144-2.448-.432a5.872 5.872 0 0 1-1.992-1.224 5.808 5.808 0 0 1-1.332-1.908c-.328-.744-.492-1.572-.492-2.484 0-.912.164-1.74.492-2.484a5.808 5.808 0 0 1 1.332-1.908 5.872 5.872 0 0 1 1.992-1.224 6.914 6.914 0 0 1 2.448-.432c.736 0 1.476.14 2.22.42.744.28 1.396.724 1.956 1.332l-1.992 1.992zm6 3.312c.096.864.432 1.536 1.008 2.016.576.48 1.272.72 2.088.72.72 0 1.324-.148 1.812-.444a5.023 5.023 0 0 0 1.284-1.116l2.064 1.56c-.672.832-1.424 1.424-2.256 1.776a6.646 6.646 0 0 1-2.616.528c-.864 0-1.68-.144-2.448-.432a5.872 5.872 0 0 1-1.992-1.224 5.808 5.808 0 0 1-1.332-1.908c-.328-.744-.492-1.572-.492-2.484 0-.912.164-1.74.492-2.484a5.808 5.808 0 0 1 1.332-1.908 5.872 5.872 0 0 1 1.992-1.224 6.914 6.914 0 0 1 2.448-.432c.8 0 1.532.14 2.196.42a4.71 4.71 0 0 1 1.704 1.212c.472.528.84 1.18 1.104 1.956.264.776.396 1.668.396 2.676v.792h-8.784zm5.904-2.16c-.016-.848-.28-1.516-.792-2.004s-1.224-.732-2.136-.732c-.864 0-1.548.248-2.052.744s-.812 1.16-.924 1.992h5.904zm14.16-6.432a2.79 2.79 0 0 0-1.284-1.02 4.484 4.484 0 0 0-1.692-.324c-.352 0-.692.04-1.02.12a2.77 2.77 0 0 0-.888.384 2.006 2.006 0 0 0-.636.684c-.16.28-.24.612-.24.996 0 .576.2 1.016.6 1.32.4.304.896.568 1.488.792.592.224 1.24.44 1.944.648a7.904 7.904 0 0 1 1.944.864 4.807 4.807 0 0 1 1.488 1.464c.4.608.6 1.416.6 2.424 0 .912-.168 1.708-.504 2.388a4.866 4.866 0 0 1-1.356 1.692 5.863 5.863 0 0 1-1.98 1.008 8.28 8.28 0 0 1-2.376.336 8.916 8.916 0 0 1-3.048-.528c-.976-.352-1.816-.944-2.52-1.776l2.28-2.208c.368.56.852.996 1.452 1.308a4.078 4.078 0 0 0 2.964.324c.352-.096.672-.24.96-.432.288-.192.52-.436.696-.732.176-.296.264-.636.264-1.02 0-.624-.2-1.104-.6-1.44-.4-.336-.896-.62-1.488-.852a23.9 23.9 0 0 0-1.944-.66 8.186 8.186 0 0 1-1.944-.852 4.728 4.728 0 0 1-1.488-1.44c-.4-.6-.6-1.404-.6-2.412 0-.88.18-1.64.54-2.28.36-.64.832-1.172 1.416-1.596a6.181 6.181 0 0 1 2.004-.948 8.603 8.603 0 0 1 4.908.096c.84.272 1.596.72 2.268 1.344l-2.208 2.328zm3.84 4.272v-2.448h2.376v-3.336H837v3.336h3.168v2.448H837v5.04c0 .576.108 1.032.324 1.368.216.336.644.504 1.284.504.256 0 .536-.028.84-.084.304-.056.544-.148.72-.276v2.424a3.705 3.705 0 0 1-1.116.3 9.35 9.35 0 0 1-1.164.084c-.768 0-1.396-.084-1.884-.252-.488-.168-.872-.424-1.152-.768-.28-.344-.472-.772-.576-1.284a8.995 8.995 0 0 1-.156-1.776v-5.28h-2.376zm10.104 3.312c0-.912.164-1.74.492-2.484a5.808 5.808 0 0 1 1.332-1.908 5.872 5.872 0 0 1 1.992-1.224 6.914 6.914 0 0 1 2.448-.432c.864 0 1.68.144 2.448.432a5.872 5.872 0 0 1 1.992 1.224 5.808 5.808 0 0 1 1.332 1.908c.328.744.492 1.572.492 2.484 0 .912-.164 1.74-.492 2.484a5.808 5.808 0 0 1-1.332 1.908 5.872 5.872 0 0 1-1.992 1.224 6.914 6.914 0 0 1-2.448.432c-.864 0-1.68-.144-2.448-.432a5.872 5.872 0 0 1-1.992-1.224 5.808 5.808 0 0 1-1.332-1.908c-.328-.744-.492-1.572-.492-2.484zm2.88 0c0 .448.076.88.228 1.296.152.416.376.784.672 1.104.296.32.652.576 1.068.768.416.192.888.288 1.416.288.528 0 1-.096 1.416-.288a3.347 3.347 0 0 0 1.068-.768c.296-.32.52-.688.672-1.104.152-.416.228-.848.228-1.296 0-.448-.076-.88-.228-1.296a3.252 3.252 0 0 0-.672-1.104 3.347 3.347 0 0 0-1.068-.768 3.342 3.342 0 0 0-1.416-.288c-.528 0-1 .096-1.416.288a3.347 3.347 0 0 0-1.068.768c-.296.32-.52.688-.672 1.104a3.747 3.747 0 0 0-.228 1.296zm12.336-5.76h2.88v1.824h.048c.32-.672.776-1.192 1.368-1.56.592-.368 1.272-.552 2.04-.552.176 0 .348.016.516.048.168.032.34.072.516.12v2.784a8.07 8.07 0 0 0-.708-.156c-.232-.04-.46-.06-.684-.06-.672 0-1.212.124-1.62.372-.408.248-.72.532-.936.852-.216.32-.36.64-.432.96-.072.32-.108.56-.108.72V227h-2.88v-11.52zm9.216 0h2.736v1.8h.048c.256-.544.668-1.028 1.236-1.452.568-.424 1.332-.636 2.292-.636 1.808 0 3.008.712 3.6 2.136.416-.736.936-1.276 1.56-1.62.624-.344 1.368-.516 2.232-.516.768 0 1.416.128 1.944.384s.956.608 1.284 1.056c.328.448.564.972.708 1.572.144.6.216 1.244.216 1.932V227h-2.88v-6.528c0-.352-.032-.692-.096-1.02a2.438 2.438 0 0 0-.336-.864 1.704 1.704 0 0 0-.648-.588c-.272-.144-.624-.216-1.056-.216-.448 0-.828.084-1.14.252a2.226 2.226 0 0 0-.768.672c-.2.28-.344.6-.432.96-.088.36-.132.724-.132 1.092V227h-2.88v-6.864c0-.72-.152-1.292-.456-1.716-.304-.424-.808-.636-1.512-.636-.48 0-.884.08-1.212.24-.328.16-.6.376-.816.648a2.577 2.577 0 0 0-.468.936c-.096.352-.144.72-.144 1.104V227h-2.88v-11.52zM719.896 285.008h5.712c.816 0 1.604.08 2.364.24.76.16 1.428.428 2.004.804.576.376 1.036.88 1.38 1.512.344.632.516 1.42.516 2.364 0 1.072-.184 1.936-.552 2.592a3.95 3.95 0 0 1-1.488 1.524c-.624.36-1.348.604-2.172.732-.824.128-1.684.192-2.58.192h-2.16V302h-3.024v-16.992zm4.848 7.368c.432 0 .88-.016 1.344-.048a4.128 4.128 0 0 0 1.284-.288c.392-.16.712-.4.96-.72.248-.32.372-.768.372-1.344 0-.528-.112-.948-.336-1.26a2.226 2.226 0 0 0-.864-.72 3.645 3.645 0 0 0-1.176-.324 11.309 11.309 0 0 0-1.248-.072h-2.16v4.776h1.824zm9.552-1.896h2.88v1.824h.048c.32-.672.776-1.192 1.368-1.56.592-.368 1.272-.552 2.04-.552.176 0 .348.016.516.048.168.032.34.072.516.12v2.784a8.07 8.07 0 0 0-.708-.156c-.232-.04-.46-.06-.684-.06-.672 0-1.212.124-1.62.372-.408.248-.72.532-.936.852-.216.32-.36.64-.432.96-.072.32-.108.56-.108.72V302h-2.88v-11.52zm8.76 5.76c0-.912.164-1.74.492-2.484a5.808 5.808 0 0 1 1.332-1.908 5.872 5.872 0 0 1 1.992-1.224 6.914 6.914 0 0 1 2.448-.432c.864 0 1.68.144 2.448.432a5.872 5.872 0 0 1 1.992 1.224 5.808 5.808 0 0 1 1.332 1.908c.328.744.492 1.572.492 2.484 0 .912-.164 1.74-.492 2.484a5.808 5.808 0 0 1-1.332 1.908 5.872 5.872 0 0 1-1.992 1.224 6.914 6.914 0 0 1-2.448.432c-.864 0-1.68-.144-2.448-.432a5.872 5.872 0 0 1-1.992-1.224 5.808 5.808 0 0 1-1.332-1.908c-.328-.744-.492-1.572-.492-2.484zm2.88 0c0 .448.076.88.228 1.296.152.416.376.784.672 1.104.296.32.652.576 1.068.768.416.192.888.288 1.416.288.528 0 1-.096 1.416-.288a3.347 3.347 0 0 0 1.068-.768c.296-.32.52-.688.672-1.104.152-.416.228-.848.228-1.296 0-.448-.076-.88-.228-1.296a3.252 3.252 0 0 0-.672-1.104 3.347 3.347 0 0 0-1.068-.768 3.342 3.342 0 0 0-1.416-.288c-.528 0-1 .096-1.416.288a3.347 3.347 0 0 0-1.068.768c-.296.32-.52.688-.672 1.104a3.747 3.747 0 0 0-.228 1.296zm15.264-5.76v12.216c0 .72-.048 1.388-.144 2.004-.096.616-.284 1.152-.564 1.608-.28.456-.676.812-1.188 1.068-.512.256-1.176.384-1.992.384-.272 0-.536-.016-.792-.048a4.402 4.402 0 0 1-.768-.168l.216-2.496c.16.032.312.06.456.084.144.024.296.036.456.036.352 0 .628-.076.828-.228.2-.152.344-.348.432-.588.088-.24.14-.504.156-.792.016-.288.024-.568.024-.84v-12.24h2.88zm-3.288-3.912c0-.464.172-.868.516-1.212.344-.344.78-.516 1.308-.516s.972.164 1.332.492c.36.328.54.74.54 1.236s-.18.908-.54 1.236c-.36.328-.804.492-1.332.492s-.964-.172-1.308-.516a1.659 1.659 0 0 1-.516-1.212zm8.904 10.68c.096.864.432 1.536 1.008 2.016.576.48 1.272.72 2.088.72.72 0 1.324-.148 1.812-.444a5.023 5.023 0 0 0 1.284-1.116l2.064 1.56c-.672.832-1.424 1.424-2.256 1.776a6.646 6.646 0 0 1-2.616.528c-.864 0-1.68-.144-2.448-.432a5.872 5.872 0 0 1-1.992-1.224 5.808 5.808 0 0 1-1.332-1.908c-.328-.744-.492-1.572-.492-2.484 0-.912.164-1.74.492-2.484a5.808 5.808 0 0 1 1.332-1.908 5.872 5.872 0 0 1 1.992-1.224 6.914 6.914 0 0 1 2.448-.432c.8 0 1.532.14 2.196.42a4.71 4.71 0 0 1 1.704 1.212c.472.528.84 1.18 1.104 1.956.264.776.396 1.668.396 2.676v.792h-8.784zm5.904-2.16c-.016-.848-.28-1.516-.792-2.004s-1.224-.732-2.136-.732c-.864 0-1.548.248-2.052.744s-.812 1.16-.924 1.992h5.904zm13.44-1.152a4.595 4.595 0 0 0-1.056-.84 2.267 2.267 0 0 0-1.128-.312c-.528 0-1 .096-1.416.288a3.347 3.347 0 0 0-1.068.768c-.296.32-.52.688-.672 1.104a3.747 3.747 0 0 0-.228 1.296c0 .448.076.88.228 1.296.152.416.376.784.672 1.104.296.32.652.576 1.068.768.416.192.888.288 1.416.288a2.85 2.85 0 0 0 1.248-.276c.384-.184.712-.452.984-.804l1.92 2.064c-.288.288-.62.536-.996.744a6.957 6.957 0 0 1-2.244.78 5.923 5.923 0 0 1-.912.084c-.864 0-1.68-.144-2.448-.432a5.872 5.872 0 0 1-1.992-1.224 5.808 5.808 0 0 1-1.332-1.908c-.328-.744-.492-1.572-.492-2.484 0-.912.164-1.74.492-2.484a5.808 5.808 0 0 1 1.332-1.908 5.872 5.872 0 0 1 1.992-1.224 6.914 6.914 0 0 1 2.448-.432c.736 0 1.476.14 2.22.42.744.28 1.396.724 1.956 1.332l-1.992 1.992zm2.352-1.008v-2.448h2.376v-3.336h2.88v3.336h3.168v2.448h-3.168v5.04c0 .576.108 1.032.324 1.368.216.336.644.504 1.284.504.256 0 .536-.028.84-.084.304-.056.544-.148.72-.276v2.424a3.705 3.705 0 0 1-1.116.3 9.35 9.35 0 0 1-1.164.084c-.768 0-1.396-.084-1.884-.252-.488-.168-.872-.424-1.152-.768-.28-.344-.472-.772-.576-1.284a8.995 8.995 0 0 1-.156-1.776v-5.28h-2.376zm22.2.192l-5.664-8.112h3.816l4.008 6.288 3.96-6.288h3.672l-5.568 8.112 6.168 8.88h-3.84l-4.488-7.176-4.464 7.176h-3.648l6.048-8.88zm17.136 4.2h-5.928v-2.448h5.928v2.448zm2.712-12.312h5.904c.816 0 1.604.076 2.364.228.76.152 1.436.412 2.028.78a4.08 4.08 0 0 1 1.416 1.488c.352.624.528 1.416.528 2.376 0 1.232-.34 2.264-1.02 3.096-.68.832-1.652 1.336-2.916 1.512l4.512 7.512h-3.648l-3.936-7.2h-2.208v7.2h-3.024v-16.992zm5.376 7.2c.432 0 .864-.02 1.296-.06a3.98 3.98 0 0 0 1.188-.288c.36-.152.652-.384.876-.696.224-.312.336-.748.336-1.308 0-.496-.104-.896-.312-1.2a1.939 1.939 0 0 0-.816-.684 3.756 3.756 0 0 0-1.116-.3 10.169 10.169 0 0 0-1.188-.072h-2.616v4.608h2.352zm16.68 8.208h-.072c-.416.656-.944 1.132-1.584 1.428a4.97 4.97 0 0 1-2.112.444 5.607 5.607 0 0 1-1.548-.216 4.193 4.193 0 0 1-1.344-.648 3.33 3.33 0 0 1-.948-1.08c-.24-.432-.36-.936-.36-1.512 0-.624.112-1.156.336-1.596.224-.44.524-.808.9-1.104a4.561 4.561 0 0 1 1.308-.708 8.96 8.96 0 0 1 1.548-.396 13.724 13.724 0 0 1 1.62-.168 34.95 34.95 0 0 1 1.536-.036h.72v-.312c0-.72-.248-1.26-.744-1.62-.496-.36-1.128-.54-1.896-.54-.608 0-1.176.108-1.704.324a4.314 4.314 0 0 0-1.368.876l-1.512-1.512a5.583 5.583 0 0 1 2.244-1.416 8.261 8.261 0 0 1 2.652-.432c.816 0 1.504.092 2.064.276.56.184 1.024.42 1.392.708.368.288.652.62.852.996.2.376.344.756.432 1.14.088.384.14.756.156 1.116.016.36.024.676.024.948V302h-2.592v-1.584zm-.168-3.576h-.6c-.4 0-.848.016-1.344.048a7.051 7.051 0 0 0-1.404.228 3.21 3.21 0 0 0-1.116.528c-.304.232-.456.556-.456.972 0 .272.06.5.18.684.12.184.276.34.468.468s.408.22.648.276c.24.056.48.084.72.084.992 0 1.724-.236 2.196-.708.472-.472.708-1.116.708-1.932v-.648zm4.296-6.36h3.168l3.216 7.992h.048l2.88-7.992h3l-5.448 13.992a8.809 8.809 0 0 1-.684 1.428 4.1 4.1 0 0 1-.876 1.032c-.336.28-.732.488-1.188.624-.456.136-1.004.204-1.644.204a8.533 8.533 0 0 1-2.208-.288l.36-2.592c.224.08.46.148.708.204.248.056.5.084.756.084.352 0 .648-.032.888-.096s.444-.164.612-.3c.168-.136.308-.312.42-.528.112-.216.232-.476.36-.78l.552-1.368-4.92-11.616zM716.896 363.008h5.712c.816 0 1.604.08 2.364.24.76.16 1.428.428 2.004.804.576.376 1.036.88 1.38 1.512.344.632.516 1.42.516 2.364 0 1.072-.184 1.936-.552 2.592a3.95 3.95 0 0 1-1.488 1.524c-.624.36-1.348.604-2.172.732-.824.128-1.684.192-2.58.192h-2.16V380h-3.024v-16.992zm4.848 7.368c.432 0 .88-.016 1.344-.048a4.128 4.128 0 0 0 1.284-.288c.392-.16.712-.4.96-.72.248-.32.372-.768.372-1.344 0-.528-.112-.948-.336-1.26a2.226 2.226 0 0 0-.864-.72 3.645 3.645 0 0 0-1.176-.324 11.309 11.309 0 0 0-1.248-.072h-2.16v4.776h1.824zm9.552-1.896h2.88v1.824h.048c.32-.672.776-1.192 1.368-1.56.592-.368 1.272-.552 2.04-.552.176 0 .348.016.516.048.168.032.34.072.516.12v2.784a8.07 8.07 0 0 0-.708-.156c-.232-.04-.46-.06-.684-.06-.672 0-1.212.124-1.62.372-.408.248-.72.532-.936.852-.216.32-.36.64-.432.96-.072.32-.108.56-.108.72V380h-2.88v-11.52zm8.76 5.76c0-.912.164-1.74.492-2.484a5.808 5.808 0 0 1 1.332-1.908 5.872 5.872 0 0 1 1.992-1.224 6.914 6.914 0 0 1 2.448-.432c.864 0 1.68.144 2.448.432a5.872 5.872 0 0 1 1.992 1.224 5.808 5.808 0 0 1 1.332 1.908c.328.744.492 1.572.492 2.484 0 .912-.164 1.74-.492 2.484a5.808 5.808 0 0 1-1.332 1.908 5.872 5.872 0 0 1-1.992 1.224 6.914 6.914 0 0 1-2.448.432c-.864 0-1.68-.144-2.448-.432a5.872 5.872 0 0 1-1.992-1.224 5.808 5.808 0 0 1-1.332-1.908c-.328-.744-.492-1.572-.492-2.484zm2.88 0c0 .448.076.88.228 1.296.152.416.376.784.672 1.104.296.32.652.576 1.068.768.416.192.888.288 1.416.288.528 0 1-.096 1.416-.288a3.347 3.347 0 0 0 1.068-.768c.296-.32.52-.688.672-1.104.152-.416.228-.848.228-1.296 0-.448-.076-.88-.228-1.296a3.252 3.252 0 0 0-.672-1.104 3.347 3.347 0 0 0-1.068-.768 3.342 3.342 0 0 0-1.416-.288c-.528 0-1 .096-1.416.288a3.347 3.347 0 0 0-1.068.768c-.296.32-.52.688-.672 1.104a3.747 3.747 0 0 0-.228 1.296zm15.264-5.76v12.216c0 .72-.048 1.388-.144 2.004-.096.616-.284 1.152-.564 1.608-.28.456-.676.812-1.188 1.068-.512.256-1.176.384-1.992.384-.272 0-.536-.016-.792-.048a4.402 4.402 0 0 1-.768-.168l.216-2.496c.16.032.312.06.456.084.144.024.296.036.456.036.352 0 .628-.076.828-.228.2-.152.344-.348.432-.588.088-.24.14-.504.156-.792.016-.288.024-.568.024-.84v-12.24h2.88zm-3.288-3.912c0-.464.172-.868.516-1.212.344-.344.78-.516 1.308-.516s.972.164 1.332.492c.36.328.54.74.54 1.236s-.18.908-.54 1.236c-.36.328-.804.492-1.332.492s-.964-.172-1.308-.516a1.659 1.659 0 0 1-.516-1.212zm8.904 10.68c.096.864.432 1.536 1.008 2.016.576.48 1.272.72 2.088.72.72 0 1.324-.148 1.812-.444a5.023 5.023 0 0 0 1.284-1.116l2.064 1.56c-.672.832-1.424 1.424-2.256 1.776a6.646 6.646 0 0 1-2.616.528c-.864 0-1.68-.144-2.448-.432a5.872 5.872 0 0 1-1.992-1.224 5.808 5.808 0 0 1-1.332-1.908c-.328-.744-.492-1.572-.492-2.484 0-.912.164-1.74.492-2.484a5.808 5.808 0 0 1 1.332-1.908 5.872 5.872 0 0 1 1.992-1.224 6.914 6.914 0 0 1 2.448-.432c.8 0 1.532.14 2.196.42a4.71 4.71 0 0 1 1.704 1.212c.472.528.84 1.18 1.104 1.956.264.776.396 1.668.396 2.676v.792h-8.784zm5.904-2.16c-.016-.848-.28-1.516-.792-2.004s-1.224-.732-2.136-.732c-.864 0-1.548.248-2.052.744s-.812 1.16-.924 1.992h5.904zm13.44-1.152a4.595 4.595 0 0 0-1.056-.84 2.267 2.267 0 0 0-1.128-.312c-.528 0-1 .096-1.416.288a3.347 3.347 0 0 0-1.068.768c-.296.32-.52.688-.672 1.104a3.747 3.747 0 0 0-.228 1.296c0 .448.076.88.228 1.296.152.416.376.784.672 1.104.296.32.652.576 1.068.768.416.192.888.288 1.416.288a2.85 2.85 0 0 0 1.248-.276c.384-.184.712-.452.984-.804l1.92 2.064c-.288.288-.62.536-.996.744a6.957 6.957 0 0 1-2.244.78 5.923 5.923 0 0 1-.912.084c-.864 0-1.68-.144-2.448-.432a5.872 5.872 0 0 1-1.992-1.224 5.808 5.808 0 0 1-1.332-1.908c-.328-.744-.492-1.572-.492-2.484 0-.912.164-1.74.492-2.484a5.808 5.808 0 0 1 1.332-1.908 5.872 5.872 0 0 1 1.992-1.224 6.914 6.914 0 0 1 2.448-.432c.736 0 1.476.14 2.22.42.744.28 1.396.724 1.956 1.332l-1.992 1.992zm2.352-1.008v-2.448h2.376v-3.336h2.88v3.336h3.168v2.448h-3.168v5.04c0 .576.108 1.032.324 1.368.216.336.644.504 1.284.504.256 0 .536-.028.84-.084.304-.056.544-.148.72-.276v2.424a3.705 3.705 0 0 1-1.116.3 9.35 9.35 0 0 1-1.164.084c-.768 0-1.396-.084-1.884-.252-.488-.168-.872-.424-1.152-.768-.28-.344-.472-.772-.576-1.284a8.995 8.995 0 0 1-.156-1.776v-5.28h-2.376zm21.528-5.184h-5.208v-2.736h13.44v2.736h-5.208V380h-3.024v-14.256zm10.032 2.736h2.88v1.824H820c.32-.672.776-1.192 1.368-1.56.592-.368 1.272-.552 2.04-.552.176 0 .348.016.516.048.168.032.34.072.516.12v2.784a8.07 8.07 0 0 0-.708-.156c-.232-.04-.46-.06-.684-.06-.672 0-1.212.124-1.62.372-.408.248-.72.532-.936.852-.216.32-.36.64-.432.96-.072.32-.108.56-.108.72V380h-2.88v-11.52zm11.64 6.768c.096.864.432 1.536 1.008 2.016.576.48 1.272.72 2.088.72.72 0 1.324-.148 1.812-.444a5.023 5.023 0 0 0 1.284-1.116l2.064 1.56c-.672.832-1.424 1.424-2.256 1.776a6.646 6.646 0 0 1-2.616.528c-.864 0-1.68-.144-2.448-.432a5.872 5.872 0 0 1-1.992-1.224 5.808 5.808 0 0 1-1.332-1.908c-.328-.744-.492-1.572-.492-2.484 0-.912.164-1.74.492-2.484a5.808 5.808 0 0 1 1.332-1.908 5.872 5.872 0 0 1 1.992-1.224 6.914 6.914 0 0 1 2.448-.432c.8 0 1.532.14 2.196.42a4.71 4.71 0 0 1 1.704 1.212c.472.528.84 1.18 1.104 1.956.264.776.396 1.668.396 2.676v.792h-8.784zm5.904-2.16c-.016-.848-.28-1.516-.792-2.004s-1.224-.732-2.136-.732c-.864 0-1.548.248-2.052.744s-.812 1.16-.924 1.992h5.904zm5.616-11.232h2.88V380h-2.88v-18.144zm6.24 0h2.88V380h-2.88v-18.144zm6.24 6.624h2.88V380h-2.88v-11.52zm-.408-3.912c0-.464.172-.868.516-1.212.344-.344.78-.516 1.308-.516s.972.164 1.332.492c.36.328.54.74.54 1.236s-.18.908-.54 1.236c-.36.328-.804.492-1.332.492s-.964-.172-1.308-.516a1.659 1.659 0 0 1-.516-1.212zm12.744 7.104c-.56-.784-1.312-1.176-2.256-1.176-.384 0-.76.096-1.128.288-.368.192-.552.504-.552.936 0 .352.152.608.456.768.304.16.688.296 1.152.408.464.112.964.228 1.5.348a5.9 5.9 0 0 1 1.5.552c.464.248.848.588 1.152 1.02.304.432.456 1.024.456 1.776 0 .688-.148 1.268-.444 1.74-.296.472-.68.852-1.152 1.14a5.113 5.113 0 0 1-1.596.624 8.382 8.382 0 0 1-1.776.192c-.896 0-1.72-.128-2.472-.384s-1.424-.72-2.016-1.392l1.92-1.8c.368.416.764.756 1.188 1.02.424.264.94.396 1.548.396.208 0 .424-.024.648-.072.224-.048.432-.128.624-.24.192-.112.348-.252.468-.42a.985.985 0 0 0 .18-.588c0-.4-.152-.696-.456-.888-.304-.192-.688-.348-1.152-.468-.464-.12-.964-.232-1.5-.336a5.812 5.812 0 0 1-1.5-.504 3.152 3.152 0 0 1-1.152-.972c-.304-.416-.456-.992-.456-1.728 0-.64.132-1.196.396-1.668a3.48 3.48 0 0 1 1.044-1.164 4.511 4.511 0 0 1 1.488-.672 6.815 6.815 0 0 1 1.704-.216 6.84 6.84 0 0 1 2.28.396c.752.264 1.36.716 1.824 1.356l-1.92 1.728z" fill="#5A2AB5"/><path d="M236.868 445.008h2.616l7.32 16.992h-3.456l-1.584-3.888h-7.368L232.86 462h-3.384l7.392-16.992zm3.84 10.512l-2.616-6.912-2.664 6.912h5.28zm7.728-5.04h2.88v1.824h.048c.32-.672.776-1.192 1.368-1.56.592-.368 1.272-.552 2.04-.552.176 0 .348.016.516.048.168.032.34.072.516.12v2.784a8.07 8.07 0 0 0-.708-.156c-.232-.04-.46-.06-.684-.06-.672 0-1.212.124-1.62.372-.408.248-.72.532-.936.852-.216.32-.36.64-.432.96-.072.32-.108.56-.108.72V462h-2.88v-11.52zm17.208 3.456a4.595 4.595 0 0 0-1.056-.84 2.267 2.267 0 0 0-1.128-.312c-.528 0-1 .096-1.416.288a3.347 3.347 0 0 0-1.068.768c-.296.32-.52.688-.672 1.104a3.747 3.747 0 0 0-.228 1.296c0 .448.076.88.228 1.296.152.416.376.784.672 1.104.296.32.652.576 1.068.768.416.192.888.288 1.416.288a2.85 2.85 0 0 0 1.248-.276c.384-.184.712-.452.984-.804l1.92 2.064c-.288.288-.62.536-.996.744a6.957 6.957 0 0 1-2.244.78 5.923 5.923 0 0 1-.912.084c-.864 0-1.68-.144-2.448-.432a5.872 5.872 0 0 1-1.992-1.224 5.808 5.808 0 0 1-1.332-1.908c-.328-.744-.492-1.572-.492-2.484 0-.912.164-1.74.492-2.484a5.808 5.808 0 0 1 1.332-1.908 5.872 5.872 0 0 1 1.992-1.224 6.914 6.914 0 0 1 2.448-.432c.736 0 1.476.14 2.22.42.744.28 1.396.724 1.956 1.332l-1.992 1.992zm6.576-1.848h.048c.224-.48.62-.916 1.188-1.308s1.3-.588 2.196-.588c.768 0 1.42.128 1.956.384s.972.592 1.308 1.008c.336.416.576.896.72 1.44.144.544.216 1.112.216 1.704V462h-2.88v-5.832c0-.32-.016-.676-.048-1.068a3.834 3.834 0 0 0-.252-1.104 2.067 2.067 0 0 0-.636-.864c-.288-.232-.68-.348-1.176-.348-.48 0-.884.08-1.212.24-.328.16-.6.376-.816.648a2.577 2.577 0 0 0-.468.936c-.096.352-.144.72-.144 1.104V462h-2.88v-18.144h2.88v8.232zm10.944-1.608h2.88V462h-2.88v-11.52zm-.408-3.912c0-.464.172-.868.516-1.212.344-.344.78-.516 1.308-.516s.972.164 1.332.492c.36.328.54.74.54 1.236s-.18.908-.54 1.236c-.36.328-.804.492-1.332.492s-.964-.172-1.308-.516a1.659 1.659 0 0 1-.516-1.212zm5.256 6.36v-2.448h2.376v-3.336h2.88v3.336h3.168v2.448h-3.168v5.04c0 .576.108 1.032.324 1.368.216.336.644.504 1.284.504.256 0 .536-.028.84-.084.304-.056.544-.148.72-.276v2.424a3.705 3.705 0 0 1-1.116.3 9.35 9.35 0 0 1-1.164.084c-.768 0-1.396-.084-1.884-.252-.488-.168-.872-.424-1.152-.768-.28-.344-.472-.772-.576-1.284a8.995 8.995 0 0 1-.156-1.776v-5.28h-2.376zm12.984 4.32c.096.864.432 1.536 1.008 2.016.576.48 1.272.72 2.088.72.72 0 1.324-.148 1.812-.444a5.023 5.023 0 0 0 1.284-1.116l2.064 1.56c-.672.832-1.424 1.424-2.256 1.776a6.646 6.646 0 0 1-2.616.528c-.864 0-1.68-.144-2.448-.432a5.872 5.872 0 0 1-1.992-1.224 5.808 5.808 0 0 1-1.332-1.908c-.328-.744-.492-1.572-.492-2.484 0-.912.164-1.74.492-2.484a5.808 5.808 0 0 1 1.332-1.908 5.872 5.872 0 0 1 1.992-1.224 6.914 6.914 0 0 1 2.448-.432c.8 0 1.532.14 2.196.42a4.71 4.71 0 0 1 1.704 1.212c.472.528.84 1.18 1.104 1.956.264.776.396 1.668.396 2.676v.792h-8.784zm5.904-2.16c-.016-.848-.28-1.516-.792-2.004s-1.224-.732-2.136-.732c-.864 0-1.548.248-2.052.744s-.812 1.16-.924 1.992h5.904zm13.44-1.152a4.595 4.595 0 0 0-1.056-.84 2.267 2.267 0 0 0-1.128-.312c-.528 0-1 .096-1.416.288a3.347 3.347 0 0 0-1.068.768c-.296.32-.52.688-.672 1.104a3.747 3.747 0 0 0-.228 1.296c0 .448.076.88.228 1.296.152.416.376.784.672 1.104.296.32.652.576 1.068.768.416.192.888.288 1.416.288a2.85 2.85 0 0 0 1.248-.276c.384-.184.712-.452.984-.804l1.92 2.064c-.288.288-.62.536-.996.744a6.957 6.957 0 0 1-2.244.78 5.923 5.923 0 0 1-.912.084c-.864 0-1.68-.144-2.448-.432a5.872 5.872 0 0 1-1.992-1.224 5.808 5.808 0 0 1-1.332-1.908c-.328-.744-.492-1.572-.492-2.484 0-.912.164-1.74.492-2.484a5.808 5.808 0 0 1 1.332-1.908 5.872 5.872 0 0 1 1.992-1.224 6.914 6.914 0 0 1 2.448-.432c.736 0 1.476.14 2.22.42.744.28 1.396.724 1.956 1.332l-1.992 1.992zm2.352-1.008v-2.448h2.376v-3.336h2.88v3.336h3.168v2.448h-3.168v5.04c0 .576.108 1.032.324 1.368.216.336.644.504 1.284.504.256 0 .536-.028.84-.084.304-.056.544-.148.72-.276v2.424a3.705 3.705 0 0 1-1.116.3 9.35 9.35 0 0 1-1.164.084c-.768 0-1.396-.084-1.884-.252-.488-.168-.872-.424-1.152-.768-.28-.344-.472-.772-.576-1.284a8.995 8.995 0 0 1-.156-1.776v-5.28h-2.376zM343.884 462h-2.736v-1.848h-.048c-.272.576-.688 1.076-1.248 1.5-.56.424-1.32.636-2.28.636-.768 0-1.42-.124-1.956-.372a3.523 3.523 0 0 1-1.308-1.008 3.928 3.928 0 0 1-.72-1.452 6.632 6.632 0 0 1-.216-1.704v-7.272h2.88v5.832c0 .32.016.676.048 1.068s.116.76.252 1.104c.136.344.344.632.624.864.28.232.676.348 1.188.348.48 0 .884-.08 1.212-.24.328-.16.6-.376.816-.648.216-.272.372-.584.468-.936.096-.352.144-.72.144-1.104v-6.288h2.88V462zm3.264-11.52h2.88v1.824h.048c.32-.672.776-1.192 1.368-1.56.592-.368 1.272-.552 2.04-.552.176 0 .348.016.516.048.168.032.34.072.516.12v2.784a8.07 8.07 0 0 0-.708-.156c-.232-.04-.46-.06-.684-.06-.672 0-1.212.124-1.62.372-.408.248-.72.532-.936.852-.216.32-.36.64-.432.96-.072.32-.108.56-.108.72V462h-2.88v-11.52zm11.64 6.768c.096.864.432 1.536 1.008 2.016.576.48 1.272.72 2.088.72.72 0 1.324-.148 1.812-.444a5.023 5.023 0 0 0 1.284-1.116l2.064 1.56c-.672.832-1.424 1.424-2.256 1.776a6.646 6.646 0 0 1-2.616.528c-.864 0-1.68-.144-2.448-.432a5.872 5.872 0 0 1-1.992-1.224 5.808 5.808 0 0 1-1.332-1.908c-.328-.744-.492-1.572-.492-2.484 0-.912.164-1.74.492-2.484a5.808 5.808 0 0 1 1.332-1.908 5.872 5.872 0 0 1 1.992-1.224 6.914 6.914 0 0 1 2.448-.432c.8 0 1.532.14 2.196.42a4.71 4.71 0 0 1 1.704 1.212c.472.528.84 1.18 1.104 1.956.264.776.396 1.668.396 2.676v.792h-8.784zm5.904-2.16c-.016-.848-.28-1.516-.792-2.004s-1.224-.732-2.136-.732c-.864 0-1.548.248-2.052.744s-.812 1.16-.924 1.992h5.904zm21.792 5.184h-.048c-.416.704-.976 1.216-1.68 1.536-.704.32-1.464.48-2.28.48-.896 0-1.692-.156-2.388-.468a5.35 5.35 0 0 1-1.788-1.284 5.49 5.49 0 0 1-1.128-1.92 7.183 7.183 0 0 1-.384-2.376 6.8 6.8 0 0 1 .408-2.376 5.908 5.908 0 0 1 1.14-1.92 5.255 5.255 0 0 1 1.764-1.284 5.398 5.398 0 0 1 2.256-.468c.544 0 1.024.056 1.44.168.416.112.784.256 1.104.432.32.176.592.364.816.564.224.2.408.396.552.588h.072v-8.088h2.88V462h-2.736v-1.728zm-6.816-4.032c0 .448.076.88.228 1.296.152.416.376.784.672 1.104.296.32.652.576 1.068.768.416.192.888.288 1.416.288.528 0 1-.096 1.416-.288a3.347 3.347 0 0 0 1.068-.768c.296-.32.52-.688.672-1.104.152-.416.228-.848.228-1.296 0-.448-.076-.88-.228-1.296a3.252 3.252 0 0 0-.672-1.104 3.347 3.347 0 0 0-1.068-.768 3.342 3.342 0 0 0-1.416-.288c-.528 0-1 .096-1.416.288a3.347 3.347 0 0 0-1.068.768c-.296.32-.52.688-.672 1.104a3.747 3.747 0 0 0-.228 1.296zm15.12 1.008c.096.864.432 1.536 1.008 2.016.576.48 1.272.72 2.088.72.72 0 1.324-.148 1.812-.444a5.023 5.023 0 0 0 1.284-1.116l2.064 1.56c-.672.832-1.424 1.424-2.256 1.776a6.646 6.646 0 0 1-2.616.528c-.864 0-1.68-.144-2.448-.432a5.872 5.872 0 0 1-1.992-1.224 5.808 5.808 0 0 1-1.332-1.908c-.328-.744-.492-1.572-.492-2.484 0-.912.164-1.74.492-2.484a5.808 5.808 0 0 1 1.332-1.908 5.872 5.872 0 0 1 1.992-1.224 6.914 6.914 0 0 1 2.448-.432c.8 0 1.532.14 2.196.42a4.71 4.71 0 0 1 1.704 1.212c.472.528.84 1.18 1.104 1.956.264.776.396 1.668.396 2.676v.792h-8.784zm5.904-2.16c-.016-.848-.28-1.516-.792-2.004s-1.224-.732-2.136-.732c-.864 0-1.548.248-2.052.744s-.812 1.16-.924 1.992h5.904zm6.6-2.16h-2.376v-2.448h2.376v-1.632c0-.8.056-1.524.168-2.172.112-.648.324-1.204.636-1.668.312-.464.748-.82 1.308-1.068.56-.248 1.288-.372 2.184-.372.656 0 1.264.056 1.824.168l-.192 2.448a9.94 9.94 0 0 0-.6-.12 3.646 3.646 0 0 0-.6-.048c-.4 0-.72.064-.96.192s-.428.3-.564.516a1.888 1.888 0 0 0-.264.756c-.04.288-.06.592-.06.912v2.088h2.664v2.448h-2.664V462h-2.88v-9.072zm7.416-2.448h2.88V462h-2.88v-11.52zm-.384-3.912c0-.464.172-.868.516-1.212.344-.344.78-.516 1.308-.516s.972.164 1.332.492c.36.328.54.74.54 1.236s-.18.908-.54 1.236c-.36.328-.804.492-1.332.492s-.964-.172-1.308-.516a1.659 1.659 0 0 1-.516-1.212zm6.168 3.912h2.736v1.848h.048c.272-.576.688-1.076 1.248-1.5.56-.424 1.32-.636 2.28-.636.768 0 1.42.128 1.956.384s.972.592 1.308 1.008c.336.416.576.896.72 1.44.144.544.216 1.112.216 1.704V462h-2.88v-5.832c0-.32-.016-.676-.048-1.068a3.834 3.834 0 0 0-.252-1.104 2.067 2.067 0 0 0-.636-.864c-.288-.232-.68-.348-1.176-.348-.48 0-.884.08-1.212.24-.328.16-.6.376-.816.648a2.577 2.577 0 0 0-.468.936c-.096.352-.144.72-.144 1.104V462h-2.88v-11.52zm13.824 0h2.88V462h-2.88v-11.52zm-.408-3.912c0-.464.172-.868.516-1.212.344-.344.78-.516 1.308-.516s.972.164 1.332.492c.36.328.54.74.54 1.236s-.18.908-.54 1.236c-.36.328-.804.492-1.332.492s-.964-.172-1.308-.516a1.659 1.659 0 0 1-.516-1.212zm5.256 6.36v-2.448h2.376v-3.336h2.88v3.336h3.168v2.448h-3.168v5.04c0 .576.108 1.032.324 1.368.216.336.644.504 1.284.504.256 0 .536-.028.84-.084.304-.056.544-.148.72-.276v2.424a3.705 3.705 0 0 1-1.116.3 9.35 9.35 0 0 1-1.164.084c-.768 0-1.396-.084-1.884-.252-.488-.168-.872-.424-1.152-.768-.28-.344-.472-.772-.576-1.284a8.995 8.995 0 0 1-.156-1.776v-5.28h-2.376zm10.728-2.448h2.88V462h-2.88v-11.52zm-.408-3.912c0-.464.172-.868.516-1.212.344-.344.78-.516 1.308-.516s.972.164 1.332.492c.36.328.54.74.54 1.236s-.18.908-.54 1.236c-.36.328-.804.492-1.332.492s-.964-.172-1.308-.516a1.659 1.659 0 0 1-.516-1.212zm6.024 9.672c0-.912.164-1.74.492-2.484a5.808 5.808 0 0 1 1.332-1.908 5.872 5.872 0 0 1 1.992-1.224 6.914 6.914 0 0 1 2.448-.432c.864 0 1.68.144 2.448.432a5.872 5.872 0 0 1 1.992 1.224 5.808 5.808 0 0 1 1.332 1.908c.328.744.492 1.572.492 2.484 0 .912-.164 1.74-.492 2.484a5.808 5.808 0 0 1-1.332 1.908 5.872 5.872 0 0 1-1.992 1.224 6.914 6.914 0 0 1-2.448.432c-.864 0-1.68-.144-2.448-.432a5.872 5.872 0 0 1-1.992-1.224 5.808 5.808 0 0 1-1.332-1.908c-.328-.744-.492-1.572-.492-2.484zm2.88 0c0 .448.076.88.228 1.296.152.416.376.784.672 1.104.296.32.652.576 1.068.768.416.192.888.288 1.416.288.528 0 1-.096 1.416-.288a3.347 3.347 0 0 0 1.068-.768c.296-.32.52-.688.672-1.104.152-.416.228-.848.228-1.296 0-.448-.076-.88-.228-1.296a3.252 3.252 0 0 0-.672-1.104 3.347 3.347 0 0 0-1.068-.768 3.342 3.342 0 0 0-1.416-.288c-.528 0-1 .096-1.416.288a3.347 3.347 0 0 0-1.068.768c-.296.32-.52.688-.672 1.104a3.747 3.747 0 0 0-.228 1.296zm12.336-5.76h2.736v1.848h.048c.272-.576.688-1.076 1.248-1.5.56-.424 1.32-.636 2.28-.636.768 0 1.42.128 1.956.384s.972.592 1.308 1.008c.336.416.576.896.72 1.44.144.544.216 1.112.216 1.704V462h-2.88v-5.832c0-.32-.016-.676-.048-1.068a3.834 3.834 0 0 0-.252-1.104 2.067 2.067 0 0 0-.636-.864c-.288-.232-.68-.348-1.176-.348-.48 0-.884.08-1.212.24-.328.16-.6.376-.816.648a2.577 2.577 0 0 0-.468.936c-.096.352-.144.72-.144 1.104V462h-2.88v-11.52zm19.92 3.192c-.56-.784-1.312-1.176-2.256-1.176-.384 0-.76.096-1.128.288-.368.192-.552.504-.552.936 0 .352.152.608.456.768.304.16.688.296 1.152.408.464.112.964.228 1.5.348a5.9 5.9 0 0 1 1.5.552c.464.248.848.588 1.152 1.02.304.432.456 1.024.456 1.776 0 .688-.148 1.268-.444 1.74-.296.472-.68.852-1.152 1.14a5.113 5.113 0 0 1-1.596.624 8.382 8.382 0 0 1-1.776.192c-.896 0-1.72-.128-2.472-.384s-1.424-.72-2.016-1.392l1.92-1.8c.368.416.764.756 1.188 1.02.424.264.94.396 1.548.396.208 0 .424-.024.648-.072.224-.048.432-.128.624-.24.192-.112.348-.252.468-.42a.985.985 0 0 0 .18-.588c0-.4-.152-.696-.456-.888-.304-.192-.688-.348-1.152-.468-.464-.12-.964-.232-1.5-.336a5.812 5.812 0 0 1-1.5-.504 3.152 3.152 0 0 1-1.152-.972c-.304-.416-.456-.992-.456-1.728 0-.64.132-1.196.396-1.668a3.48 3.48 0 0 1 1.044-1.164 4.511 4.511 0 0 1 1.488-.672 6.815 6.815 0 0 1 1.704-.216 6.84 6.84 0 0 1 2.28.396c.752.264 1.36.716 1.824 1.356l-1.92 1.728z" fill="#FFF"/><path d="M504.208 307.008h3.48l4.632 12.84 4.776-12.84h3.264L513.496 324h-2.616l-6.672-16.992zm20.016 12.24c.096.864.432 1.536 1.008 2.016.576.48 1.272.72 2.088.72.72 0 1.324-.148 1.812-.444a5.023 5.023 0 0 0 1.284-1.116l2.064 1.56c-.672.832-1.424 1.424-2.256 1.776a6.646 6.646 0 0 1-2.616.528c-.864 0-1.68-.144-2.448-.432a5.872 5.872 0 0 1-1.992-1.224 5.808 5.808 0 0 1-1.332-1.908c-.328-.744-.492-1.572-.492-2.484 0-.912.164-1.74.492-2.484a5.808 5.808 0 0 1 1.332-1.908 5.872 5.872 0 0 1 1.992-1.224 6.914 6.914 0 0 1 2.448-.432c.8 0 1.532.14 2.196.42a4.71 4.71 0 0 1 1.704 1.212c.472.528.84 1.18 1.104 1.956.264.776.396 1.668.396 2.676v.792h-8.784zm5.904-2.16c-.016-.848-.28-1.516-.792-2.004s-1.224-.732-2.136-.732c-.864 0-1.548.248-2.052.744s-.812 1.16-.924 1.992h5.904zm5.568-4.608h2.88v1.824h.048c.32-.672.776-1.192 1.368-1.56.592-.368 1.272-.552 2.04-.552.176 0 .348.016.516.048.168.032.34.072.516.12v2.784a8.07 8.07 0 0 0-.708-.156c-.232-.04-.46-.06-.684-.06-.672 0-1.212.124-1.62.372-.408.248-.72.532-.936.852-.216.32-.36.64-.432.96-.072.32-.108.56-.108.72V324h-2.88v-11.52zm9.384 0h2.88V324h-2.88v-11.52zm-.408-3.912c0-.464.172-.868.516-1.212.344-.344.78-.516 1.308-.516s.972.164 1.332.492c.36.328.54.74.54 1.236s-.18.908-.54 1.236c-.36.328-.804.492-1.332.492s-.964-.172-1.308-.516a1.659 1.659 0 0 1-.516-1.212zm6.648-2.712h2.88V324h-2.88v-18.144zm5.616 12.384c0-.912.164-1.74.492-2.484a5.808 5.808 0 0 1 1.332-1.908 5.872 5.872 0 0 1 1.992-1.224 6.914 6.914 0 0 1 2.448-.432c.864 0 1.68.144 2.448.432a5.872 5.872 0 0 1 1.992 1.224 5.808 5.808 0 0 1 1.332 1.908c.328.744.492 1.572.492 2.484 0 .912-.164 1.74-.492 2.484a5.808 5.808 0 0 1-1.332 1.908 5.872 5.872 0 0 1-1.992 1.224 6.914 6.914 0 0 1-2.448.432c-.864 0-1.68-.144-2.448-.432a5.872 5.872 0 0 1-1.992-1.224 5.808 5.808 0 0 1-1.332-1.908c-.328-.744-.492-1.572-.492-2.484zm2.88 0c0 .448.076.88.228 1.296.152.416.376.784.672 1.104.296.32.652.576 1.068.768.416.192.888.288 1.416.288.528 0 1-.096 1.416-.288a3.347 3.347 0 0 0 1.068-.768c.296-.32.52-.688.672-1.104.152-.416.228-.848.228-1.296 0-.448-.076-.88-.228-1.296a3.252 3.252 0 0 0-.672-1.104 3.347 3.347 0 0 0-1.068-.768 3.342 3.342 0 0 0-1.416-.288c-.528 0-1 .096-1.416.288a3.347 3.347 0 0 0-1.068.768c-.296.32-.52.688-.672 1.104a3.747 3.747 0 0 0-.228 1.296zm24.192-5.76v10.488c0 1.04-.128 1.98-.384 2.82-.256.84-.652 1.552-1.188 2.136-.536.584-1.212 1.036-2.028 1.356-.816.32-1.784.48-2.904.48-1.072 0-2.088-.136-3.048-.408-.96-.272-1.848-.768-2.664-1.488l1.728-2.352a7.04 7.04 0 0 0 1.8 1.224c.624.288 1.344.432 2.16.432.688 0 1.268-.096 1.74-.288.472-.192.848-.456 1.128-.792.28-.336.48-.74.6-1.212s.18-.996.18-1.572v-.84h-.048c-.416.56-.968.98-1.656 1.26s-1.392.42-2.112.42c-.864 0-1.648-.156-2.352-.468a5.623 5.623 0 0 1-1.812-1.26 5.483 5.483 0 0 1-1.164-1.872 6.465 6.465 0 0 1-.408-2.304c0-.848.128-1.64.384-2.376a5.49 5.49 0 0 1 1.128-1.92 5.35 5.35 0 0 1 1.788-1.284c.696-.312 1.492-.468 2.388-.468.816 0 1.576.16 2.28.48.704.32 1.264.832 1.68 1.536h.048v-1.728h2.736zm-6.144 2.304c-.512 0-.976.084-1.392.252-.416.168-.772.4-1.068.696a3.142 3.142 0 0 0-.696 1.08 3.78 3.78 0 0 0-.252 1.404 3.269 3.269 0 0 0 .96 2.352 3.413 3.413 0 0 0 2.424.984c.528 0 1.004-.088 1.428-.264a3.29 3.29 0 0 0 1.08-.708c.296-.296.524-.652.684-1.068.16-.416.24-.864.24-1.344 0-1.008-.304-1.824-.912-2.448-.608-.624-1.44-.936-2.496-.936zm15.168.144v-2.448h2.376v-3.336h2.88v3.336h3.168v2.448h-3.168v5.04c0 .576.108 1.032.324 1.368.216.336.644.504 1.284.504.256 0 .536-.028.84-.084.304-.056.544-.148.72-.276v2.424a3.705 3.705 0 0 1-1.116.3 9.35 9.35 0 0 1-1.164.084c-.768 0-1.396-.084-1.884-.252-.488-.168-.872-.424-1.152-.768-.28-.344-.472-.772-.576-1.284a8.995 8.995 0 0 1-.156-1.776v-5.28h-2.376zm10.104 3.312c0-.912.164-1.74.492-2.484a5.808 5.808 0 0 1 1.332-1.908 5.872 5.872 0 0 1 1.992-1.224 6.914 6.914 0 0 1 2.448-.432c.864 0 1.68.144 2.448.432a5.872 5.872 0 0 1 1.992 1.224 5.808 5.808 0 0 1 1.332 1.908c.328.744.492 1.572.492 2.484 0 .912-.164 1.74-.492 2.484a5.808 5.808 0 0 1-1.332 1.908 5.872 5.872 0 0 1-1.992 1.224 6.914 6.914 0 0 1-2.448.432c-.864 0-1.68-.144-2.448-.432a5.872 5.872 0 0 1-1.992-1.224 5.808 5.808 0 0 1-1.332-1.908c-.328-.744-.492-1.572-.492-2.484zm2.88 0c0 .448.076.88.228 1.296.152.416.376.784.672 1.104.296.32.652.576 1.068.768.416.192.888.288 1.416.288.528 0 1-.096 1.416-.288a3.347 3.347 0 0 0 1.068-.768c.296-.32.52-.688.672-1.104.152-.416.228-.848.228-1.296 0-.448-.076-.88-.228-1.296a3.252 3.252 0 0 0-.672-1.104 3.347 3.347 0 0 0-1.068-.768 3.342 3.342 0 0 0-1.416-.288c-.528 0-1 .096-1.416.288a3.347 3.347 0 0 0-1.068.768c-.296.32-.52.688-.672 1.104a3.747 3.747 0 0 0-.228 1.296zm-87.624 21.768h5.904c.816 0 1.604.076 2.364.228.76.152 1.436.412 2.028.78a4.08 4.08 0 0 1 1.416 1.488c.352.624.528 1.416.528 2.376 0 1.232-.34 2.264-1.02 3.096-.68.832-1.652 1.336-2.916 1.512l4.512 7.512h-3.648l-3.936-7.2h-2.208v7.2h-3.024v-16.992zm5.376 7.2c.432 0 .864-.02 1.296-.06a3.98 3.98 0 0 0 1.188-.288c.36-.152.652-.384.876-.696.224-.312.336-.748.336-1.308 0-.496-.104-.896-.312-1.2a1.939 1.939 0 0 0-.816-.684 3.756 3.756 0 0 0-1.116-.3 10.169 10.169 0 0 0-1.188-.072h-2.616v4.608h2.352zm8.904 4.032c0-.912.164-1.74.492-2.484a5.808 5.808 0 0 1 1.332-1.908 5.872 5.872 0 0 1 1.992-1.224 6.914 6.914 0 0 1 2.448-.432c.864 0 1.68.144 2.448.432a5.872 5.872 0 0 1 1.992 1.224 5.808 5.808 0 0 1 1.332 1.908c.328.744.492 1.572.492 2.484 0 .912-.164 1.74-.492 2.484a5.808 5.808 0 0 1-1.332 1.908 5.872 5.872 0 0 1-1.992 1.224 6.914 6.914 0 0 1-2.448.432c-.864 0-1.68-.144-2.448-.432a5.872 5.872 0 0 1-1.992-1.224 5.808 5.808 0 0 1-1.332-1.908c-.328-.744-.492-1.572-.492-2.484zm2.88 0c0 .448.076.88.228 1.296.152.416.376.784.672 1.104.296.32.652.576 1.068.768.416.192.888.288 1.416.288.528 0 1-.096 1.416-.288a3.347 3.347 0 0 0 1.068-.768c.296-.32.52-.688.672-1.104.152-.416.228-.848.228-1.296 0-.448-.076-.88-.228-1.296a3.252 3.252 0 0 0-.672-1.104 3.347 3.347 0 0 0-1.068-.768 3.342 3.342 0 0 0-1.416-.288c-.528 0-1 .096-1.416.288a3.347 3.347 0 0 0-1.068.768c-.296.32-.52.688-.672 1.104a3.747 3.747 0 0 0-.228 1.296zM558.4 357h-2.736v-1.848h-.048c-.272.576-.688 1.076-1.248 1.5-.56.424-1.32.636-2.28.636-.768 0-1.42-.124-1.956-.372a3.523 3.523 0 0 1-1.308-1.008 3.928 3.928 0 0 1-.72-1.452 6.632 6.632 0 0 1-.216-1.704v-7.272h2.88v5.832c0 .32.016.676.048 1.068s.116.76.252 1.104c.136.344.344.632.624.864.28.232.676.348 1.188.348.48 0 .884-.08 1.212-.24.328-.16.6-.376.816-.648.216-.272.372-.584.468-.936.096-.352.144-.72.144-1.104v-6.288h2.88V357zm1.92-9.072v-2.448h2.376v-3.336h2.88v3.336h3.168v2.448h-3.168v5.04c0 .576.108 1.032.324 1.368.216.336.644.504 1.284.504.256 0 .536-.028.84-.084.304-.056.544-.148.72-.276v2.424a3.705 3.705 0 0 1-1.116.3 9.35 9.35 0 0 1-1.164.084c-.768 0-1.396-.084-1.884-.252-.488-.168-.872-.424-1.152-.768-.28-.344-.472-.772-.576-1.284a8.995 8.995 0 0 1-.156-1.776v-5.28h-2.376zm10.728-2.448h2.88V357h-2.88v-11.52zm-.408-3.912c0-.464.172-.868.516-1.212.344-.344.78-.516 1.308-.516s.972.164 1.332.492c.36.328.54.74.54 1.236s-.18.908-.54 1.236c-.36.328-.804.492-1.332.492s-.964-.172-1.308-.516a1.659 1.659 0 0 1-.516-1.212zm6.6 3.912h2.736v1.848h.048c.272-.576.688-1.076 1.248-1.5.56-.424 1.32-.636 2.28-.636.768 0 1.42.128 1.956.384s.972.592 1.308 1.008c.336.416.576.896.72 1.44.144.544.216 1.112.216 1.704V357h-2.88v-5.832c0-.32-.016-.676-.048-1.068a3.834 3.834 0 0 0-.252-1.104 2.067 2.067 0 0 0-.636-.864c-.288-.232-.68-.348-1.176-.348-.48 0-.884.08-1.212.24-.328.16-.6.376-.816.648a2.577 2.577 0 0 0-.468.936c-.096.352-.144.72-.144 1.104V357h-2.88v-11.52zm25.632 0v10.488c0 1.04-.128 1.98-.384 2.82-.256.84-.652 1.552-1.188 2.136-.536.584-1.212 1.036-2.028 1.356-.816.32-1.784.48-2.904.48-1.072 0-2.088-.136-3.048-.408-.96-.272-1.848-.768-2.664-1.488l1.728-2.352a7.04 7.04 0 0 0 1.8 1.224c.624.288 1.344.432 2.16.432.688 0 1.268-.096 1.74-.288.472-.192.848-.456 1.128-.792.28-.336.48-.74.6-1.212s.18-.996.18-1.572v-.84h-.048c-.416.56-.968.98-1.656 1.26s-1.392.42-2.112.42c-.864 0-1.648-.156-2.352-.468a5.623 5.623 0 0 1-1.812-1.26 5.483 5.483 0 0 1-1.164-1.872 6.465 6.465 0 0 1-.408-2.304c0-.848.128-1.64.384-2.376a5.49 5.49 0 0 1 1.128-1.92 5.35 5.35 0 0 1 1.788-1.284c.696-.312 1.492-.468 2.388-.468.816 0 1.576.16 2.28.48.704.32 1.264.832 1.68 1.536h.048v-1.728h2.736zm-6.144 2.304c-.512 0-.976.084-1.392.252-.416.168-.772.4-1.068.696a3.142 3.142 0 0 0-.696 1.08 3.78 3.78 0 0 0-.252 1.404 3.269 3.269 0 0 0 .96 2.352 3.413 3.413 0 0 0 2.424.984c.528 0 1.004-.088 1.428-.264a3.29 3.29 0 0 0 1.08-.708c.296-.296.524-.652.684-1.068.16-.416.24-.864.24-1.344 0-1.008-.304-1.824-.912-2.448-.608-.624-1.44-.936-2.496-.936zM583.964 519.008h3.48l4.632 12.84 4.776-12.84h3.264L593.252 536h-2.616l-6.672-16.992zm20.016 12.24c.096.864.432 1.536 1.008 2.016.576.48 1.272.72 2.088.72.72 0 1.324-.148 1.812-.444a5.023 5.023 0 0 0 1.284-1.116l2.064 1.56c-.672.832-1.424 1.424-2.256 1.776a6.646 6.646 0 0 1-2.616.528c-.864 0-1.68-.144-2.448-.432a5.872 5.872 0 0 1-1.992-1.224 5.808 5.808 0 0 1-1.332-1.908c-.328-.744-.492-1.572-.492-2.484 0-.912.164-1.74.492-2.484a5.808 5.808 0 0 1 1.332-1.908 5.872 5.872 0 0 1 1.992-1.224 6.914 6.914 0 0 1 2.448-.432c.8 0 1.532.14 2.196.42a4.71 4.71 0 0 1 1.704 1.212c.472.528.84 1.18 1.104 1.956.264.776.396 1.668.396 2.676v.792h-8.784zm5.904-2.16c-.016-.848-.28-1.516-.792-2.004s-1.224-.732-2.136-.732c-.864 0-1.548.248-2.052.744s-.812 1.16-.924 1.992h5.904zm5.568-4.608h2.88v1.824h.048c.32-.672.776-1.192 1.368-1.56.592-.368 1.272-.552 2.04-.552.176 0 .348.016.516.048.168.032.34.072.516.12v2.784a8.07 8.07 0 0 0-.708-.156c-.232-.04-.46-.06-.684-.06-.672 0-1.212.124-1.62.372-.408.248-.72.532-.936.852-.216.32-.36.64-.432.96-.072.32-.108.56-.108.72V536h-2.88v-11.52zm9.384 0h2.88V536h-2.88v-11.52zm-.408-3.912c0-.464.172-.868.516-1.212.344-.344.78-.516 1.308-.516s.972.164 1.332.492c.36.328.54.74.54 1.236s-.18.908-.54 1.236c-.36.328-.804.492-1.332.492s-.964-.172-1.308-.516a1.659 1.659 0 0 1-.516-1.212zm7.632 6.36h-2.376v-2.448h2.376v-1.632c0-.8.056-1.524.168-2.172.112-.648.324-1.204.636-1.668.312-.464.748-.82 1.308-1.068.56-.248 1.288-.372 2.184-.372.656 0 1.264.056 1.824.168l-.192 2.448a9.94 9.94 0 0 0-.6-.12 3.646 3.646 0 0 0-.6-.048c-.4 0-.72.064-.96.192s-.428.3-.564.516a1.888 1.888 0 0 0-.264.756c-.04.288-.06.592-.06.912v2.088h2.664v2.448h-2.664V536h-2.88v-9.072zm7.416-2.448h2.88V536h-2.88v-11.52zm-.384-3.912c0-.464.172-.868.516-1.212.344-.344.78-.516 1.308-.516s.972.164 1.332.492c.36.328.54.74.54 1.236s-.18.908-.54 1.236c-.36.328-.804.492-1.332.492s-.964-.172-1.308-.516a1.659 1.659 0 0 1-.516-1.212zm14.04 7.368a4.595 4.595 0 0 0-1.056-.84 2.267 2.267 0 0 0-1.128-.312c-.528 0-1 .096-1.416.288a3.347 3.347 0 0 0-1.068.768c-.296.32-.52.688-.672 1.104a3.747 3.747 0 0 0-.228 1.296c0 .448.076.88.228 1.296.152.416.376.784.672 1.104.296.32.652.576 1.068.768.416.192.888.288 1.416.288a2.85 2.85 0 0 0 1.248-.276c.384-.184.712-.452.984-.804l1.92 2.064c-.288.288-.62.536-.996.744a6.957 6.957 0 0 1-2.244.78 5.923 5.923 0 0 1-.912.084c-.864 0-1.68-.144-2.448-.432a5.872 5.872 0 0 1-1.992-1.224 5.808 5.808 0 0 1-1.332-1.908c-.328-.744-.492-1.572-.492-2.484 0-.912.164-1.74.492-2.484a5.808 5.808 0 0 1 1.332-1.908 5.872 5.872 0 0 1 1.992-1.224 6.914 6.914 0 0 1 2.448-.432c.736 0 1.476.14 2.22.42.744.28 1.396.724 1.956 1.332l-1.992 1.992zm10.896 6.48h-.072c-.416.656-.944 1.132-1.584 1.428a4.97 4.97 0 0 1-2.112.444 5.607 5.607 0 0 1-1.548-.216 4.193 4.193 0 0 1-1.344-.648 3.33 3.33 0 0 1-.948-1.08c-.24-.432-.36-.936-.36-1.512 0-.624.112-1.156.336-1.596.224-.44.524-.808.9-1.104a4.561 4.561 0 0 1 1.308-.708 8.96 8.96 0 0 1 1.548-.396 13.724 13.724 0 0 1 1.62-.168 34.95 34.95 0 0 1 1.536-.036h.72v-.312c0-.72-.248-1.26-.744-1.62-.496-.36-1.128-.54-1.896-.54-.608 0-1.176.108-1.704.324a4.314 4.314 0 0 0-1.368.876l-1.512-1.512a5.583 5.583 0 0 1 2.244-1.416 8.261 8.261 0 0 1 2.652-.432c.816 0 1.504.092 2.064.276.56.184 1.024.42 1.392.708.368.288.652.62.852.996.2.376.344.756.432 1.14.088.384.14.756.156 1.116.016.36.024.676.024.948V536h-2.592v-1.584zm-.168-3.576h-.6c-.4 0-.848.016-1.344.048a7.051 7.051 0 0 0-1.404.228 3.21 3.21 0 0 0-1.116.528c-.304.232-.456.556-.456.972 0 .272.06.5.18.684.12.184.276.34.468.468s.408.22.648.276c.24.056.48.084.72.084.992 0 1.724-.236 2.196-.708.472-.472.708-1.116.708-1.932v-.648zm4.512-3.912v-2.448h2.376v-3.336h2.88v3.336h3.168v2.448h-3.168v5.04c0 .576.108 1.032.324 1.368.216.336.644.504 1.284.504.256 0 .536-.028.84-.084.304-.056.544-.148.72-.276v2.424a3.705 3.705 0 0 1-1.116.3 9.35 9.35 0 0 1-1.164.084c-.768 0-1.396-.084-1.884-.252-.488-.168-.872-.424-1.152-.768-.28-.344-.472-.772-.576-1.284a8.995 8.995 0 0 1-.156-1.776v-5.28h-2.376zm10.728-2.448h2.88V536h-2.88v-11.52zm-.408-3.912c0-.464.172-.868.516-1.212.344-.344.78-.516 1.308-.516s.972.164 1.332.492c.36.328.54.74.54 1.236s-.18.908-.54 1.236c-.36.328-.804.492-1.332.492s-.964-.172-1.308-.516a1.659 1.659 0 0 1-.516-1.212zm6.024 9.672c0-.912.164-1.74.492-2.484a5.808 5.808 0 0 1 1.332-1.908 5.872 5.872 0 0 1 1.992-1.224 6.914 6.914 0 0 1 2.448-.432c.864 0 1.68.144 2.448.432a5.872 5.872 0 0 1 1.992 1.224 5.808 5.808 0 0 1 1.332 1.908c.328.744.492 1.572.492 2.484 0 .912-.164 1.74-.492 2.484a5.808 5.808 0 0 1-1.332 1.908 5.872 5.872 0 0 1-1.992 1.224 6.914 6.914 0 0 1-2.448.432c-.864 0-1.68-.144-2.448-.432a5.872 5.872 0 0 1-1.992-1.224 5.808 5.808 0 0 1-1.332-1.908c-.328-.744-.492-1.572-.492-2.484zm2.88 0c0 .448.076.88.228 1.296.152.416.376.784.672 1.104.296.32.652.576 1.068.768.416.192.888.288 1.416.288.528 0 1-.096 1.416-.288a3.347 3.347 0 0 0 1.068-.768c.296-.32.52-.688.672-1.104.152-.416.228-.848.228-1.296 0-.448-.076-.88-.228-1.296a3.252 3.252 0 0 0-.672-1.104 3.347 3.347 0 0 0-1.068-.768 3.342 3.342 0 0 0-1.416-.288c-.528 0-1 .096-1.416.288a3.347 3.347 0 0 0-1.068.768c-.296.32-.52.688-.672 1.104a3.747 3.747 0 0 0-.228 1.296zm12.336-5.76h2.736v1.848h.048c.272-.576.688-1.076 1.248-1.5.56-.424 1.32-.636 2.28-.636.768 0 1.42.128 1.956.384s.972.592 1.308 1.008c.336.416.576.896.72 1.44.144.544.216 1.112.216 1.704V536h-2.88v-5.832c0-.32-.016-.676-.048-1.068a3.834 3.834 0 0 0-.252-1.104 2.067 2.067 0 0 0-.636-.864c-.288-.232-.68-.348-1.176-.348-.48 0-.884.08-1.212.24-.328.16-.6.376-.816.648a2.577 2.577 0 0 0-.468.936c-.096.352-.144.72-.144 1.104V536h-2.88v-11.52zm14.736 8.208h2.928l-2.04 6.336h-2.568l1.68-6.336zm16.992-10.944h-5.208v-2.736h13.44v2.736h-5.208V536h-3.024v-14.256zm12.336 9.504c.096.864.432 1.536 1.008 2.016.576.48 1.272.72 2.088.72.72 0 1.324-.148 1.812-.444a5.023 5.023 0 0 0 1.284-1.116l2.064 1.56c-.672.832-1.424 1.424-2.256 1.776a6.646 6.646 0 0 1-2.616.528c-.864 0-1.68-.144-2.448-.432a5.872 5.872 0 0 1-1.992-1.224 5.808 5.808 0 0 1-1.332-1.908c-.328-.744-.492-1.572-.492-2.484 0-.912.164-1.74.492-2.484a5.808 5.808 0 0 1 1.332-1.908 5.872 5.872 0 0 1 1.992-1.224 6.914 6.914 0 0 1 2.448-.432c.8 0 1.532.14 2.196.42a4.71 4.71 0 0 1 1.704 1.212c.472.528.84 1.18 1.104 1.956.264.776.396 1.668.396 2.676v.792h-8.784zm5.904-2.16c-.016-.848-.28-1.516-.792-2.004s-1.224-.732-2.136-.732c-.864 0-1.548.248-2.052.744s-.812 1.16-.924 1.992h5.904zm11.712-1.416c-.56-.784-1.312-1.176-2.256-1.176-.384 0-.76.096-1.128.288-.368.192-.552.504-.552.936 0 .352.152.608.456.768.304.16.688.296 1.152.408.464.112.964.228 1.5.348a5.9 5.9 0 0 1 1.5.552c.464.248.848.588 1.152 1.02.304.432.456 1.024.456 1.776 0 .688-.148 1.268-.444 1.74-.296.472-.68.852-1.152 1.14a5.113 5.113 0 0 1-1.596.624 8.382 8.382 0 0 1-1.776.192c-.896 0-1.72-.128-2.472-.384s-1.424-.72-2.016-1.392l1.92-1.8c.368.416.764.756 1.188 1.02.424.264.94.396 1.548.396.208 0 .424-.024.648-.072.224-.048.432-.128.624-.24.192-.112.348-.252.468-.42a.985.985 0 0 0 .18-.588c0-.4-.152-.696-.456-.888-.304-.192-.688-.348-1.152-.468-.464-.12-.964-.232-1.5-.336a5.812 5.812 0 0 1-1.5-.504 3.152 3.152 0 0 1-1.152-.972c-.304-.416-.456-.992-.456-1.728 0-.64.132-1.196.396-1.668a3.48 3.48 0 0 1 1.044-1.164 4.511 4.511 0 0 1 1.488-.672 6.815 6.815 0 0 1 1.704-.216 6.84 6.84 0 0 1 2.28.396c.752.264 1.36.716 1.824 1.356l-1.92 1.728zm3.168-.744v-2.448h2.376v-3.336h2.88v3.336h3.168v2.448h-3.168v5.04c0 .576.108 1.032.324 1.368.216.336.644.504 1.284.504.256 0 .536-.028.84-.084.304-.056.544-.148.72-.276v2.424a3.705 3.705 0 0 1-1.116.3 9.35 9.35 0 0 1-1.164.084c-.768 0-1.396-.084-1.884-.252-.488-.168-.872-.424-1.152-.768-.28-.344-.472-.772-.576-1.284a8.995 8.995 0 0 1-.156-1.776v-5.28h-2.376zm10.728-2.448h2.88V536h-2.88v-11.52zm-.408-3.912c0-.464.172-.868.516-1.212.344-.344.78-.516 1.308-.516s.972.164 1.332.492c.36.328.54.74.54 1.236s-.18.908-.54 1.236c-.36.328-.804.492-1.332.492s-.964-.172-1.308-.516a1.659 1.659 0 0 1-.516-1.212zm6.6 3.912h2.736v1.848h.048c.272-.576.688-1.076 1.248-1.5.56-.424 1.32-.636 2.28-.636.768 0 1.42.128 1.956.384s.972.592 1.308 1.008c.336.416.576.896.72 1.44.144.544.216 1.112.216 1.704V536h-2.88v-5.832c0-.32-.016-.676-.048-1.068a3.834 3.834 0 0 0-.252-1.104 2.067 2.067 0 0 0-.636-.864c-.288-.232-.68-.348-1.176-.348-.48 0-.884.08-1.212.24-.328.16-.6.376-.816.648a2.577 2.577 0 0 0-.468.936c-.096.352-.144.72-.144 1.104V536h-2.88v-11.52zm25.632 0v10.488c0 1.04-.128 1.98-.384 2.82-.256.84-.652 1.552-1.188 2.136-.536.584-1.212 1.036-2.028 1.356-.816.32-1.784.48-2.904.48-1.072 0-2.088-.136-3.048-.408-.96-.272-1.848-.768-2.664-1.488l1.728-2.352a7.04 7.04 0 0 0 1.8 1.224c.624.288 1.344.432 2.16.432.688 0 1.268-.096 1.74-.288.472-.192.848-.456 1.128-.792.28-.336.48-.74.6-1.212s.18-.996.18-1.572v-.84h-.048c-.416.56-.968.98-1.656 1.26s-1.392.42-2.112.42c-.864 0-1.648-.156-2.352-.468a5.623 5.623 0 0 1-1.812-1.26 5.483 5.483 0 0 1-1.164-1.872 6.465 6.465 0 0 1-.408-2.304c0-.848.128-1.64.384-2.376a5.49 5.49 0 0 1 1.128-1.92 5.35 5.35 0 0 1 1.788-1.284c.696-.312 1.492-.468 2.388-.468.816 0 1.576.16 2.28.48.704.32 1.264.832 1.68 1.536h.048v-1.728h2.736zm-6.144 2.304c-.512 0-.976.084-1.392.252-.416.168-.772.4-1.068.696a3.142 3.142 0 0 0-.696 1.08 3.78 3.78 0 0 0-.252 1.404 3.269 3.269 0 0 0 .96 2.352 3.413 3.413 0 0 0 2.424.984c.528 0 1.004-.088 1.428-.264a3.29 3.29 0 0 0 1.08-.708c.296-.296.524-.652.684-1.068.16-.416.24-.864.24-1.344 0-1.008-.304-1.824-.912-2.448-.608-.624-1.44-.936-2.496-.936zm-162.252 38.208l3.672 4.008h-3.72l-1.8-1.944c-.688.816-1.424 1.416-2.208 1.8-.784.384-1.72.576-2.808.576a7.286 7.286 0 0 1-2.172-.324 5.505 5.505 0 0 1-1.836-.96 4.833 4.833 0 0 1-1.272-1.56c-.32-.616-.48-1.332-.48-2.148 0-.576.096-1.108.288-1.596.192-.488.452-.936.78-1.344a5.557 5.557 0 0 1 1.164-1.08 6.509 6.509 0 0 1 1.44-.756c-.272-.304-.524-.6-.756-.888a7.034 7.034 0 0 1-.612-.888 4.5 4.5 0 0 1-.42-.984 4.052 4.052 0 0 1-.156-1.152c0-.688.132-1.296.396-1.824a3.72 3.72 0 0 1 1.068-1.308 4.761 4.761 0 0 1 1.56-.78 6.45 6.45 0 0 1 1.848-.264c.64 0 1.248.08 1.824.24.576.16 1.084.404 1.524.732.44.328.792.748 1.056 1.26s.396 1.112.396 1.8c0 .528-.096 1.012-.288 1.452-.192.44-.448.84-.768 1.2s-.684.688-1.092.984c-.408.296-.82.548-1.236.756l2.736 2.952 1.896-2.88h3.384l-3.408 4.92zm-5.976-10.824c-.56 0-1.04.156-1.44.468-.4.312-.6.724-.6 1.236 0 .224.048.444.144.66.096.216.224.432.384.648.16.216.332.42.516.612s.372.376.564.552c.24-.128.496-.276.768-.444.272-.168.524-.36.756-.576a2.93 2.93 0 0 0 .564-.708c.144-.256.216-.544.216-.864 0-.464-.184-.844-.552-1.14-.368-.296-.808-.444-1.32-.444zm-1.152 7.2c-.288.176-.568.356-.84.54a5.05 5.05 0 0 0-.744.612 2.72 2.72 0 0 0-.54.768 2.278 2.278 0 0 0-.204.984 2.486 2.486 0 0 0 .804 1.848c.248.224.532.4.852.528.32.128.664.192 1.032.192.656 0 1.232-.176 1.728-.528.496-.352.96-.736 1.392-1.152l-3.48-3.792zm28.464-5.712a2.79 2.79 0 0 0-1.284-1.02 4.484 4.484 0 0 0-1.692-.324c-.352 0-.692.04-1.02.12a2.77 2.77 0 0 0-.888.384 2.006 2.006 0 0 0-.636.684c-.16.28-.24.612-.24.996 0 .576.2 1.016.6 1.32.4.304.896.568 1.488.792.592.224 1.24.44 1.944.648a7.904 7.904 0 0 1 1.944.864 4.807 4.807 0 0 1 1.488 1.464c.4.608.6 1.416.6 2.424 0 .912-.168 1.708-.504 2.388a4.866 4.866 0 0 1-1.356 1.692 5.863 5.863 0 0 1-1.98 1.008 8.28 8.28 0 0 1-2.376.336 8.916 8.916 0 0 1-3.048-.528c-.976-.352-1.816-.944-2.52-1.776l2.28-2.208c.368.56.852.996 1.452 1.308a4.078 4.078 0 0 0 2.964.324c.352-.096.672-.24.96-.432.288-.192.52-.436.696-.732.176-.296.264-.636.264-1.02 0-.624-.2-1.104-.6-1.44-.4-.336-.896-.62-1.488-.852a23.9 23.9 0 0 0-1.944-.66 8.186 8.186 0 0 1-1.944-.852 4.728 4.728 0 0 1-1.488-1.44c-.4-.6-.6-1.404-.6-2.412 0-.88.18-1.64.54-2.28.36-.64.832-1.172 1.416-1.596a6.181 6.181 0 0 1 2.004-.948 8.603 8.603 0 0 1 4.908.096c.84.272 1.596.72 2.268 1.344l-2.208 2.328zm5.232 1.824h2.88V569h-2.88v-11.52zm-.408-3.912c0-.464.172-.868.516-1.212.344-.344.78-.516 1.308-.516s.972.164 1.332.492c.36.328.54.74.54 1.236s-.18.908-.54 1.236c-.36.328-.804.492-1.332.492s-.964-.172-1.308-.516a1.659 1.659 0 0 1-.516-1.212zm6.48 3.912h2.736v1.8h.048c.256-.544.668-1.028 1.236-1.452.568-.424 1.332-.636 2.292-.636 1.808 0 3.008.712 3.6 2.136.416-.736.936-1.276 1.56-1.62.624-.344 1.368-.516 2.232-.516.768 0 1.416.128 1.944.384s.956.608 1.284 1.056c.328.448.564.972.708 1.572.144.6.216 1.244.216 1.932V569h-2.88v-6.528c0-.352-.032-.692-.096-1.02a2.438 2.438 0 0 0-.336-.864 1.704 1.704 0 0 0-.648-.588c-.272-.144-.624-.216-1.056-.216-.448 0-.828.084-1.14.252a2.226 2.226 0 0 0-.768.672c-.2.28-.344.6-.432.96-.088.36-.132.724-.132 1.092V569h-2.88v-6.864c0-.72-.152-1.292-.456-1.716-.304-.424-.808-.636-1.512-.636-.48 0-.884.08-1.212.24-.328.16-.6.376-.816.648a2.577 2.577 0 0 0-.468.936c-.096.352-.144.72-.144 1.104V569h-2.88v-11.52zM703.088 569h-2.736v-1.848h-.048c-.272.576-.688 1.076-1.248 1.5-.56.424-1.32.636-2.28.636-.768 0-1.42-.124-1.956-.372a3.523 3.523 0 0 1-1.308-1.008 3.928 3.928 0 0 1-.72-1.452 6.632 6.632 0 0 1-.216-1.704v-7.272h2.88v5.832c0 .32.016.676.048 1.068s.116.76.252 1.104c.136.344.344.632.624.864.28.232.676.348 1.188.348.48 0 .884-.08 1.212-.24.328-.16.6-.376.816-.648.216-.272.372-.584.468-.936.096-.352.144-.72.144-1.104v-6.288h2.88V569zm3.312-18.144h2.88V569h-2.88v-18.144zm13.392 16.56h-.072c-.416.656-.944 1.132-1.584 1.428a4.97 4.97 0 0 1-2.112.444 5.607 5.607 0 0 1-1.548-.216 4.193 4.193 0 0 1-1.344-.648 3.33 3.33 0 0 1-.948-1.08c-.24-.432-.36-.936-.36-1.512 0-.624.112-1.156.336-1.596.224-.44.524-.808.9-1.104a4.561 4.561 0 0 1 1.308-.708 8.96 8.96 0 0 1 1.548-.396 13.724 13.724 0 0 1 1.62-.168 34.95 34.95 0 0 1 1.536-.036h.72v-.312c0-.72-.248-1.26-.744-1.62-.496-.36-1.128-.54-1.896-.54-.608 0-1.176.108-1.704.324a4.314 4.314 0 0 0-1.368.876l-1.512-1.512a5.583 5.583 0 0 1 2.244-1.416 8.261 8.261 0 0 1 2.652-.432c.816 0 1.504.092 2.064.276.56.184 1.024.42 1.392.708.368.288.652.62.852.996.2.376.344.756.432 1.14.088.384.14.756.156 1.116.016.36.024.676.024.948V569h-2.592v-1.584zm-.168-3.576h-.6c-.4 0-.848.016-1.344.048a7.051 7.051 0 0 0-1.404.228 3.21 3.21 0 0 0-1.116.528c-.304.232-.456.556-.456.972 0 .272.06.5.18.684.12.184.276.34.468.468s.408.22.648.276c.24.056.48.084.72.084.992 0 1.724-.236 2.196-.708.472-.472.708-1.116.708-1.932v-.648zm4.512-3.912v-2.448h2.376v-3.336h2.88v3.336h3.168v2.448h-3.168v5.04c0 .576.108 1.032.324 1.368.216.336.644.504 1.284.504.256 0 .536-.028.84-.084.304-.056.544-.148.72-.276v2.424a3.705 3.705 0 0 1-1.116.3 9.35 9.35 0 0 1-1.164.084c-.768 0-1.396-.084-1.884-.252-.488-.168-.872-.424-1.152-.768-.28-.344-.472-.772-.576-1.284a8.995 8.995 0 0 1-.156-1.776v-5.28h-2.376zm10.728-2.448h2.88V569h-2.88v-11.52zm-.408-3.912c0-.464.172-.868.516-1.212.344-.344.78-.516 1.308-.516s.972.164 1.332.492c.36.328.54.74.54 1.236s-.18.908-.54 1.236c-.36.328-.804.492-1.332.492s-.964-.172-1.308-.516a1.659 1.659 0 0 1-.516-1.212zm6.024 9.672c0-.912.164-1.74.492-2.484a5.808 5.808 0 0 1 1.332-1.908 5.872 5.872 0 0 1 1.992-1.224 6.914 6.914 0 0 1 2.448-.432c.864 0 1.68.144 2.448.432a5.872 5.872 0 0 1 1.992 1.224 5.808 5.808 0 0 1 1.332 1.908c.328.744.492 1.572.492 2.484 0 .912-.164 1.74-.492 2.484a5.808 5.808 0 0 1-1.332 1.908 5.872 5.872 0 0 1-1.992 1.224 6.914 6.914 0 0 1-2.448.432c-.864 0-1.68-.144-2.448-.432a5.872 5.872 0 0 1-1.992-1.224 5.808 5.808 0 0 1-1.332-1.908c-.328-.744-.492-1.572-.492-2.484zm2.88 0c0 .448.076.88.228 1.296.152.416.376.784.672 1.104.296.32.652.576 1.068.768.416.192.888.288 1.416.288.528 0 1-.096 1.416-.288a3.347 3.347 0 0 0 1.068-.768c.296-.32.52-.688.672-1.104.152-.416.228-.848.228-1.296 0-.448-.076-.88-.228-1.296a3.252 3.252 0 0 0-.672-1.104 3.347 3.347 0 0 0-1.068-.768 3.342 3.342 0 0 0-1.416-.288c-.528 0-1 .096-1.416.288a3.347 3.347 0 0 0-1.068.768c-.296.32-.52.688-.672 1.104a3.747 3.747 0 0 0-.228 1.296zm12.336-5.76h2.736v1.848h.048c.272-.576.688-1.076 1.248-1.5.56-.424 1.32-.636 2.28-.636.768 0 1.42.128 1.956.384s.972.592 1.308 1.008c.336.416.576.896.72 1.44.144.544.216 1.112.216 1.704V569h-2.88v-5.832c0-.32-.016-.676-.048-1.068a3.834 3.834 0 0 0-.252-1.104 2.067 2.067 0 0 0-.636-.864c-.288-.232-.68-.348-1.176-.348-.48 0-.884.08-1.212.24-.328.16-.6.376-.816.648a2.577 2.577 0 0 0-.468.936c-.096.352-.144.72-.144 1.104V569h-2.88v-11.52zM600.266 143.984v-20.952c0-1.26.972-2.232 2.232-2.232h14.688c1.116 0 2.016.9 2.016 2.016s-.9 2.016-2.016 2.016h-12.492v6.876h10.872c1.116 0 2.016.9 2.016 2.016s-.9 2.016-2.016 2.016h-10.872v8.244a2.182 2.182 0 0 1-2.196 2.196c-1.26 0-2.232-.972-2.232-2.196zm23.616 0v-20.952c0-1.26.972-2.232 2.232-2.232h7.704c5.904 0 9.576 3.348 9.576 8.424v.072c0 5.652-4.536 8.604-10.08 8.604h-5.004v6.084a2.182 2.182 0 0 1-2.196 2.196c-1.26 0-2.232-.972-2.232-2.196zm4.428-10.08h5.148c3.348 0 5.436-1.872 5.436-4.5v-.072c0-2.952-2.124-4.5-5.436-4.5h-5.148v9.072zm31.572 12.528c-7.884 0-13.068-5.616-13.068-12.96v-.072c0-7.056 5.4-13.032 12.996-13.032 3.78 0 6.3.9 8.604 2.556.432.324.9.936.9 1.8a2.205 2.205 0 0 1-2.196 2.196c-.576 0-1.008-.252-1.368-.504-1.62-1.188-3.384-1.98-6.12-1.98-4.644 0-8.172 4.068-8.172 8.892v.072c0 5.184 3.42 9 8.568 9 2.376 0 4.536-.756 6.084-1.908v-4.716h-4.968c-1.08 0-1.98-.828-1.98-1.908s.9-1.944 1.98-1.944h7.02c1.26 0 2.232.972 2.232 2.232v6.732c0 1.26-.504 2.16-1.548 2.808-2.16 1.44-5.184 2.736-8.964 2.736zm14.544-2.304c0-.324.108-.648.288-1.008l9.36-20.88c.504-1.116 1.404-1.8 2.664-1.8h.216c1.26 0 2.124.684 2.628 1.8l9.36 20.88c.18.324.252.648.252.936 0 1.188-.9 2.124-2.088 2.124-1.044 0-1.764-.612-2.16-1.548l-2.052-4.716h-12.24l-2.124 4.86c-.36.9-1.116 1.404-2.052 1.404-1.152 0-2.052-.9-2.052-2.052zm7.92-8.136h8.856l-4.428-10.188-4.428 10.188zm38.304 10.332c-3.204 0-5.472-1.404-5.472-5.58v-10.008h-.72a1.86 1.86 0 0 1-1.872-1.872 1.86 1.86 0 0 1 1.872-1.872h.72v-3.24c0-1.188.972-2.16 2.196-2.16 1.188 0 2.16.972 2.16 2.16v3.24h3.42c1.044 0 1.908.828 1.908 1.872s-.864 1.872-1.908 1.872h-3.42v9.324c0 1.692.864 2.376 2.34 2.376.504 0 .936-.108 1.08-.108.972 0 1.836.792 1.836 1.8 0 .792-.54 1.44-1.152 1.692a8.665 8.665 0 0 1-2.988.504zm17.46.108c-5.796 0-10.08-4.428-10.08-9.828v-.072c0-5.436 4.32-9.936 10.152-9.936 5.832 0 10.116 4.428 10.116 9.864v.072c0 5.4-4.32 9.9-10.188 9.9zm.072-3.816c3.528 0 5.76-2.736 5.76-6.012v-.072c0-3.348-2.412-6.12-5.832-6.12-3.492 0-5.724 2.736-5.724 6.048v.072c0 3.312 2.412 6.084 5.796 6.084zm23.58 3.816c-5.796 0-10.08-4.428-10.08-9.828v-.072c0-5.436 4.32-9.936 10.152-9.936 5.832 0 10.116 4.428 10.116 9.864v.072c0 5.4-4.32 9.9-10.188 9.9zm.072-3.816c3.528 0 5.76-2.736 5.76-6.012v-.072c0-3.348-2.412-6.12-5.832-6.12-3.492 0-5.724 2.736-5.724 6.048v.072c0 3.312 2.412 6.084 5.796 6.084zm14.796 1.404V121.7c0-1.188.936-2.16 2.16-2.16 1.224 0 2.196.972 2.196 2.16v22.32c0 1.224-.972 2.16-2.196 2.16a2.143 2.143 0 0 1-2.16-2.16zm16.56 2.34c-2.412 0-5.04-.756-7.236-2.268-.468-.252-.828-.792-.828-1.512 0-.972.756-1.764 1.764-1.764.36 0 .684.108.936.252 1.836 1.224 3.744 1.836 5.472 1.836 1.872 0 2.952-.792 2.952-2.052v-.072c0-1.476-2.016-1.98-4.248-2.664-2.808-.792-5.94-1.944-5.94-5.58v-.072c0-3.6 2.988-5.796 6.768-5.796 2.016 0 4.14.576 5.976 1.548.612.324 1.044.9 1.044 1.656 0 1.008-.792 1.764-1.8 1.764-.36 0-.576-.072-.864-.216-1.548-.792-3.132-1.296-4.464-1.296-1.692 0-2.664.792-2.664 1.872v.072c0 1.404 2.052 1.98 4.284 2.7 2.772.864 5.904 2.124 5.904 5.544v.072c0 3.996-3.096 5.976-7.056 5.976z" fill="#5A2AB5"/><path d="M7.5 55.5h386.001M7.5 52.5v6M393.501 52.5v6M424.496 55.5h550.005M424.496 52.5v6M974.501 52.5v6" stroke="#959595" stroke-width="1.5" stroke-linecap="square"/></g></svg>