<svg width="1196" height="650" viewBox="0 0 1196 650" fill="none" xmlns="http://www.w3.org/2000/svg"><path fill="#fff" d="M0 0h1196v650H0z"/><path d="M192.568 323v-20.041h3.292V323h-3.292zm12.74 0v-20.041h3.292V323h-3.292zm-10.479-8.875v-3.006h11.195v3.006h-11.195zm22.873 9.161c-1.241 0-2.367-.315-3.378-.944a6.943 6.943 0 01-2.377-2.549c-.572-1.087-.858-2.299-.858-3.635 0-1.356.286-2.568.858-3.636.592-1.088 1.384-1.947 2.377-2.577 1.011-.649 2.137-.973 3.378-.973 1.05 0 1.975.229 2.777.687a4.99 4.99 0 011.947 1.832c.477.782.716 1.67.716 2.662v3.951c0 .993-.239 1.88-.716 2.663a5.003 5.003 0 01-1.918 1.861c-.821.439-1.756.658-2.806.658zm.515-2.977c1.165 0 2.1-.391 2.806-1.174.725-.783 1.088-1.785 1.088-3.006 0-.821-.162-1.546-.487-2.176a3.498 3.498 0 00-1.374-1.46c-.573-.363-1.25-.544-2.033-.544-.763 0-1.441.181-2.032.544a3.762 3.762 0 00-1.375 1.46c-.324.63-.486 1.355-.486 2.176 0 .821.162 1.546.486 2.176.344.63.802 1.126 1.375 1.488.591.344 1.269.516 2.032.516zm3.694 2.691v-3.693l.543-3.35-.543-3.321v-3.378h3.149V323h-3.149zm6.071 0v-13.742h3.149V323h-3.149zm3.149-7.644l-1.087-.544c0-1.737.381-3.14 1.145-4.209.782-1.088 1.956-1.631 3.521-1.631.687 0 1.308.124 1.861.372.554.248 1.069.649 1.546 1.202l-2.061 2.119a2.181 2.181 0 00-.83-.573 3.025 3.025 0 00-1.06-.172c-.878 0-1.603.277-2.176.831-.572.553-.859 1.422-.859 2.605zm13.273 7.93c-1.241 0-2.367-.315-3.379-.944a6.948 6.948 0 01-2.376-2.549c-.573-1.087-.859-2.299-.859-3.635 0-1.356.286-2.568.859-3.636.592-1.088 1.384-1.947 2.376-2.577 1.012-.649 2.138-.973 3.379-.973 1.049 0 1.975.229 2.777.687a4.994 4.994 0 011.946 1.832c.478.782.716 1.67.716 2.662v3.951c0 .993-.238 1.88-.716 2.663a4.996 4.996 0 01-1.918 1.861c-.82.439-1.756.658-2.805.658zm.515-2.977c.782 0 1.46-.172 2.033-.516a3.695 3.695 0 001.374-1.488c.324-.63.486-1.355.486-2.176 0-.821-.162-1.546-.486-2.176a3.51 3.51 0 00-1.374-1.46c-.573-.363-1.251-.544-2.033-.544-.764 0-1.441.181-2.033.544a3.76 3.76 0 00-1.374 1.46c-.325.63-.487 1.355-.487 2.176 0 .821.162 1.546.487 2.176a3.97 3.97 0 001.374 1.488c.592.344 1.269.516 2.033.516zm6.842 2.691h-3.149v-3.693l.544-3.35-.544-3.321v-10.249h3.149V323zm6.931 0l-5.526-13.742h3.264l3.722 9.992-.973.028 3.636-10.02h1.832l3.636 10.02-.974-.028 3.722-9.992h3.264L268.77 323h-1.833l-3.722-9.505h1.031L260.524 323h-1.832zm22.422.286c-1.24 0-2.366-.315-3.378-.944a6.932 6.932 0 01-2.376-2.549c-.573-1.087-.859-2.299-.859-3.635 0-1.356.286-2.568.859-3.636.591-1.088 1.383-1.947 2.376-2.577 1.012-.649 2.138-.973 3.378-.973 1.05 0 1.976.229 2.777.687a4.99 4.99 0 011.947 1.832c.477.782.716 1.67.716 2.662v3.951c0 .993-.239 1.88-.716 2.663a4.996 4.996 0 01-1.918 1.861c-.821.439-1.756.658-2.806.658zm.516-2.977c1.164 0 2.099-.391 2.805-1.174.726-.783 1.088-1.785 1.088-3.006 0-.821-.162-1.546-.487-2.176a3.498 3.498 0 00-1.374-1.46c-.572-.363-1.25-.544-2.032-.544-.764 0-1.441.181-2.033.544a3.753 3.753 0 00-1.374 1.46c-.325.63-.487 1.355-.487 2.176 0 .821.162 1.546.487 2.176.343.63.801 1.126 1.374 1.488.592.344 1.269.516 2.033.516zm3.693 2.691v-3.693l.544-3.35-.544-3.321v-3.378h3.149V323h-3.149zm6.071 0v-13.742h3.15V323h-3.15zm3.15-7.644l-1.088-.544c0-1.737.382-3.14 1.145-4.209.783-1.088 1.956-1.631 3.521-1.631.688 0 1.308.124 1.861.372.554.248 1.069.649 1.546 1.202l-2.061 2.119a2.181 2.181 0 00-.83-.573 3.025 3.025 0 00-1.06-.172c-.878 0-1.603.277-2.175.831-.573.553-.859 1.422-.859 2.605zm13.902 7.93c-1.375 0-2.615-.305-3.722-.916a7.177 7.177 0 01-2.606-2.577c-.629-1.087-.944-2.309-.944-3.664s.315-2.567.944-3.636a7.024 7.024 0 012.549-2.577c1.087-.63 2.29-.944 3.607-.944 1.279 0 2.405.295 3.378.887a6.18 6.18 0 012.319 2.434c.573 1.03.859 2.204.859 3.521 0 .229-.019.468-.057.716a6.988 6.988 0 01-.115.773h-11.28v-2.577h9.648l-1.173 1.031c-.039-.84-.201-1.546-.487-2.119a3.053 3.053 0 00-1.231-1.317c-.516-.305-1.155-.458-1.918-.458-.802 0-1.499.172-2.09.515a3.51 3.51 0 00-1.375 1.461c-.324.61-.486 1.345-.486 2.204 0 .859.171 1.613.515 2.262a3.73 3.73 0 001.46 1.517c.63.344 1.355.515 2.176.515a4.99 4.99 0 001.947-.372 4.053 4.053 0 001.546-1.088l2.004 2.033a6.421 6.421 0 01-2.434 1.775 7.752 7.752 0 01-3.034.601zM186.923 359v-3.006h5.268c1.374 0 2.577-.296 3.607-.888a6.16 6.16 0 002.434-2.462c.592-1.069.888-2.3.888-3.693 0-1.374-.296-2.586-.888-3.636a6.36 6.36 0 00-2.462-2.462c-1.031-.592-2.224-.888-3.579-.888h-5.268v-3.006h5.354c1.451 0 2.796.258 4.037.773a9.54 9.54 0 013.235 2.119 9.44 9.44 0 012.176 3.178c.515 1.202.773 2.519.773 3.951 0 1.412-.258 2.729-.773 3.951a9.978 9.978 0 01-2.147 3.206 10.142 10.142 0 01-3.236 2.119c-1.24.496-2.576.744-4.008.744h-5.411zm-2.261 0v-20.041h3.292V359h-3.292zm26.575.286c-1.375 0-2.615-.305-3.722-.916a7.177 7.177 0 01-2.606-2.577c-.629-1.087-.944-2.309-.944-3.664s.315-2.567.944-3.636a7.03 7.03 0 012.548-2.577c1.088-.63 2.291-.944 3.608-.944 1.279 0 2.405.295 3.378.887a6.18 6.18 0 012.319 2.434c.573 1.03.859 2.204.859 3.521 0 .229-.019.468-.057.716a6.988 6.988 0 01-.115.773h-11.28v-2.577h9.648l-1.174 1.031c-.038-.84-.2-1.546-.486-2.119a3.06 3.06 0 00-1.231-1.317c-.516-.305-1.155-.458-1.919-.458-.801 0-1.498.172-2.089.515a3.51 3.51 0 00-1.375 1.461c-.324.61-.486 1.345-.486 2.204 0 .859.171 1.613.515 2.262.343.649.83 1.154 1.46 1.517.63.344 1.355.515 2.176.515a4.99 4.99 0 001.947-.372 4.06 4.06 0 001.546-1.088l2.004 2.033a6.421 6.421 0 01-2.434 1.775 7.752 7.752 0 01-3.034.601zm12.831 0a8.406 8.406 0 01-2.205-.286 8.15 8.15 0 01-1.947-.859 6.685 6.685 0 01-1.546-1.374l2.004-2.004a4.918 4.918 0 001.632 1.26c.63.267 1.336.4 2.119.4.706 0 1.241-.105 1.603-.315.363-.21.544-.515.544-.916 0-.42-.172-.744-.515-.973-.344-.229-.792-.42-1.346-.573a48.454 48.454 0 00-1.718-.515 9.526 9.526 0 01-1.717-.687 3.87 3.87 0 01-1.317-1.231c-.344-.516-.516-1.184-.516-2.004 0-.878.201-1.632.602-2.262.42-.63 1.002-1.117 1.746-1.46.764-.344 1.67-.515 2.72-.515 1.107 0 2.08.2 2.92.601a5.278 5.278 0 012.147 1.746l-2.004 2.004a3.997 3.997 0 00-1.374-1.116c-.515-.248-1.107-.373-1.775-.373-.63 0-1.117.096-1.46.287-.344.191-.515.467-.515.83 0 .382.171.678.515.888.343.209.782.391 1.317.544.553.152 1.126.324 1.718.515a6.91 6.91 0 011.717.744 3.705 3.705 0 011.346 1.26c.344.515.515 1.193.515 2.033 0 1.336-.467 2.395-1.403 3.177-.935.783-2.204 1.174-3.807 1.174zm13.561 0c-1.355 0-2.586-.315-3.693-.944a6.957 6.957 0 01-2.577-2.577c-.63-1.088-.944-2.3-.944-3.636 0-1.355.314-2.567.944-3.636a6.957 6.957 0 012.577-2.577c1.107-.63 2.338-.944 3.693-.944 1.069 0 2.061.209 2.978.629a6.363 6.363 0 012.376 1.747l-2.061 2.09a3.656 3.656 0 00-1.461-1.06 4.428 4.428 0 00-1.832-.372c-.782 0-1.479.182-2.09.544a3.756 3.756 0 00-1.403 1.432c-.324.61-.486 1.326-.486 2.147 0 .802.162 1.517.486 2.147a3.963 3.963 0 001.403 1.46c.611.344 1.308.516 2.09.516.668 0 1.279-.115 1.832-.344a3.916 3.916 0 001.461-1.088l2.061 2.09a6.658 6.658 0 01-2.376 1.775 7.348 7.348 0 01-2.978.601zm7.052-.286v-13.742h3.149V359h-3.149zm3.149-7.644l-1.088-.544c0-1.737.382-3.14 1.145-4.209.783-1.088 1.957-1.631 3.522-1.631.687 0 1.307.124 1.861.372.553.248 1.068.649 1.546 1.202l-2.062 2.119a2.181 2.181 0 00-.83-.573 3.015 3.015 0 00-1.059-.172c-.878 0-1.604.277-2.176.831-.573.553-.859 1.422-.859 2.605zm7.966 7.644v-13.742h3.149V359h-3.149zm1.574-16.262c-.534 0-.983-.181-1.345-.544-.344-.362-.516-.811-.516-1.345 0-.535.172-.983.516-1.346a1.829 1.829 0 011.345-.544c.554 0 1.002.182 1.346.544.343.363.515.811.515 1.346 0 .534-.172.983-.515 1.345-.344.363-.792.544-1.346.544zm11.892 16.548c-1.05 0-1.985-.219-2.806-.658a5.217 5.217 0 01-1.946-1.861c-.458-.783-.687-1.67-.687-2.663v-3.951c0-.992.238-1.88.715-2.662a4.99 4.99 0 011.947-1.832c.821-.458 1.746-.687 2.777-.687 1.241 0 2.357.324 3.35.973a6.593 6.593 0 012.376 2.577c.592 1.068.888 2.28.888 3.636 0 1.336-.296 2.548-.888 3.635a6.647 6.647 0 01-2.376 2.549c-.993.629-2.109.944-3.35.944zm-.515-2.977c.763 0 1.431-.172 2.004-.516a3.681 3.681 0 001.374-1.488c.344-.63.515-1.355.515-2.176 0-.821-.171-1.546-.515-2.176a3.498 3.498 0 00-1.374-1.46c-.573-.363-1.241-.544-2.004-.544-.764 0-1.441.181-2.033.544-.592.344-1.05.83-1.374 1.46-.325.63-.487 1.355-.487 2.176 0 .821.162 1.546.487 2.176.324.63.782 1.126 1.374 1.488.592.344 1.269.516 2.033.516zm-6.843 8.417v-19.468h3.15v3.693l-.544 3.35.544 3.321v9.104h-3.15zM279.638 359v-19.468h3.149V359h-3.149zm-3.293-10.879v-2.863h9.734v2.863h-9.734zM287.824 359v-13.742h3.149V359h-3.149zm1.574-16.262c-.534 0-.983-.181-1.345-.544-.344-.362-.516-.811-.516-1.345 0-.535.172-.983.516-1.346a1.829 1.829 0 011.345-.544c.554 0 1.002.182 1.346.544.343.363.515.811.515 1.346 0 .534-.172.983-.515 1.345-.344.363-.792.544-1.346.544zm10.833 16.548c-1.336 0-2.548-.315-3.636-.944a7.406 7.406 0 01-2.605-2.606c-.63-1.088-.945-2.3-.945-3.636 0-1.336.315-2.538.945-3.607a7.246 7.246 0 012.605-2.548c1.088-.649 2.3-.973 3.636-.973 1.355 0 2.577.314 3.665.944a6.954 6.954 0 012.576 2.577c.649 1.069.974 2.271.974 3.607 0 1.336-.325 2.548-.974 3.636a7.175 7.175 0 01-2.576 2.606c-1.088.629-2.31.944-3.665.944zm0-3.034c.783 0 1.47-.172 2.061-.516a3.627 3.627 0 001.403-1.489c.344-.629.516-1.345.516-2.147 0-.801-.172-1.508-.516-2.118a3.741 3.741 0 00-1.403-1.432c-.591-.362-1.278-.544-2.061-.544-.763 0-1.451.182-2.061.544a3.741 3.741 0 00-1.403 1.432c-.325.61-.487 1.317-.487 2.118 0 .802.162 1.518.487 2.147a3.89 3.89 0 001.403 1.489c.61.344 1.298.516 2.061.516zm18.68 2.748v-7.93c0-.917-.296-1.67-.887-2.262-.573-.592-1.317-.888-2.233-.888-.611 0-1.155.134-1.632.401-.477.267-.85.64-1.117 1.117s-.401 1.021-.401 1.632l-1.231-.687c0-1.05.229-1.976.687-2.778a4.936 4.936 0 011.89-1.918c.821-.477 1.737-.715 2.748-.715 1.031 0 1.947.267 2.749.801a5.522 5.522 0 011.889 2.033c.458.821.687 1.679.687 2.577V359h-3.149zm-9.419 0v-13.742h3.149V359h-3.149zm-121.81 36v-20.041h3.292V395h-3.292zm2.261 0v-3.006h10.479V395h-10.479zm17.757.286c-1.241 0-2.367-.315-3.379-.944a6.948 6.948 0 01-2.376-2.549c-.573-1.087-.859-2.299-.859-3.635 0-1.356.286-2.568.859-3.636.592-1.088 1.384-1.947 2.376-2.577 1.012-.649 2.138-.973 3.379-.973 1.049 0 1.975.229 2.777.687a4.994 4.994 0 011.946 1.832c.478.782.716 1.67.716 2.662v3.951c0 .993-.238 1.88-.716 2.663a4.996 4.996 0 01-1.918 1.861c-.82.439-1.756.658-2.805.658zm.515-2.977c1.164 0 2.099-.391 2.806-1.174.725-.783 1.087-1.785 1.087-3.006 0-.821-.162-1.546-.486-2.176a3.51 3.51 0 00-1.374-1.46c-.573-.363-1.251-.544-2.033-.544-.764 0-1.441.181-2.033.544-.572.344-1.03.83-1.374 1.46-.325.63-.487 1.355-.487 2.176 0 .821.162 1.546.487 2.176.344.63.802 1.126 1.374 1.488.592.344 1.269.516 2.033.516zm3.693 2.691v-3.693l.544-3.35-.544-3.321v-3.378h3.149V395h-3.149zm15.491 0v-7.93c0-.917-.296-1.67-.888-2.262-.572-.592-1.317-.888-2.233-.888-.61 0-1.154.134-1.632.401-.477.267-.849.64-1.116 1.117-.267.477-.401 1.021-.401 1.632l-1.231-.687c0-1.05.229-1.976.687-2.778a4.936 4.936 0 011.89-1.918c.82-.477 1.736-.715 2.748-.715 1.031 0 1.947.267 2.749.801a5.522 5.522 0 011.889 2.033c.458.821.687 1.679.687 2.577V395h-3.149zm-9.419 0v-13.742h3.149V395h-3.149zm20.922 6.012c-1.451 0-2.72-.267-3.808-.801a6.61 6.61 0 01-2.634-2.205l2.061-2.061c.554.687 1.184 1.202 1.89 1.546.706.343 1.555.515 2.548.515 1.241 0 2.224-.324 2.949-.973.725-.63 1.088-1.499 1.088-2.606v-3.378l.544-3.035-.544-3.063v-3.693h3.149v13.169c0 1.317-.305 2.463-.916 3.436-.611.992-1.46 1.765-2.548 2.319-1.088.553-2.348.83-3.779.83zm-.143-6.298c-1.222 0-2.329-.296-3.321-.888a6.617 6.617 0 01-2.319-2.491c-.554-1.049-.831-2.223-.831-3.521s.277-2.462.831-3.493a6.452 6.452 0 012.319-2.433c.992-.611 2.099-.916 3.321-.916 1.088 0 2.042.219 2.863.658.82.439 1.46 1.05 1.918 1.832.458.764.687 1.661.687 2.691v3.379c0 1.011-.239 1.908-.716 2.691a4.795 4.795 0 01-1.918 1.832c-.821.439-1.766.659-2.834.659zm.629-2.978c.764 0 1.432-.162 2.004-.486a3.307 3.307 0 001.317-1.346c.325-.592.487-1.279.487-2.061 0-.783-.162-1.46-.487-2.033a3.258 3.258 0 00-1.317-1.374c-.572-.325-1.24-.487-2.004-.487-.763 0-1.441.162-2.032.487a3.45 3.45 0 00-1.346 1.374c-.324.573-.487 1.25-.487 2.033 0 .763.163 1.441.487 2.032.325.592.773 1.05 1.346 1.375.591.324 1.269.486 2.032.486zm15.323 3.55c-1.164 0-2.205-.257-3.121-.773a5.637 5.637 0 01-2.118-2.118c-.497-.916-.745-1.966-.745-3.15v-7.987h3.15v7.844c0 .668.104 1.241.314 1.718.229.458.554.811.974 1.059.439.249.954.373 1.546.373.916 0 1.613-.268 2.09-.802.496-.554.744-1.336.744-2.348v-7.844h3.149v7.987c0 1.203-.257 2.262-.773 3.178a5.43 5.43 0 01-2.09 2.119c-.897.496-1.937.744-3.12.744zm14.332 0c-1.241 0-2.367-.315-3.378-.944a6.943 6.943 0 01-2.377-2.549c-.572-1.087-.859-2.299-.859-3.635 0-1.356.287-2.568.859-3.636.592-1.088 1.384-1.947 2.377-2.577 1.011-.649 2.137-.973 3.378-.973 1.05 0 1.975.229 2.777.687a4.99 4.99 0 011.947 1.832c.477.782.715 1.67.715 2.662v3.951c0 .993-.238 1.88-.715 2.663a5.003 5.003 0 01-1.918 1.861c-.821.439-1.756.658-2.806.658zm.515-2.977c1.164 0 2.1-.391 2.806-1.174.725-.783 1.088-1.785 1.088-3.006 0-.821-.162-1.546-.487-2.176a3.498 3.498 0 00-1.374-1.46c-.573-.363-1.25-.544-2.033-.544-.763 0-1.441.181-2.033.544-.572.344-1.03.83-1.374 1.46-.324.63-.486 1.355-.486 2.176 0 .821.162 1.546.486 2.176.344.63.802 1.126 1.374 1.488.592.344 1.27.516 2.033.516zm3.693 2.691v-3.693l.544-3.35-.544-3.321v-3.378h3.15V395h-3.15zm11.798 6.012c-1.451 0-2.72-.267-3.808-.801a6.61 6.61 0 01-2.634-2.205l2.062-2.061c.553.687 1.183 1.202 1.889 1.546.706.343 1.556.515 2.548.515 1.241 0 2.224-.324 2.949-.973.725-.63 1.088-1.499 1.088-2.606v-3.378l.544-3.035-.544-3.063v-3.693h3.149v13.169c0 1.317-.305 2.463-.916 3.436-.611.992-1.46 1.765-2.548 2.319-1.088.553-2.348.83-3.779.83zm-.143-6.298c-1.222 0-2.329-.296-3.321-.888a6.617 6.617 0 01-2.319-2.491c-.554-1.049-.83-2.223-.83-3.521s.276-2.462.83-3.493a6.452 6.452 0 012.319-2.433c.992-.611 2.099-.916 3.321-.916 1.088 0 2.042.219 2.863.658a4.795 4.795 0 011.918 1.832c.458.764.687 1.661.687 2.691v3.379c0 1.011-.238 1.908-.716 2.691a4.795 4.795 0 01-1.918 1.832c-.821.439-1.765.659-2.834.659zm.63-2.978c.763 0 1.431-.162 2.004-.486a3.32 3.32 0 001.317-1.346c.324-.592.486-1.279.486-2.061 0-.783-.162-1.46-.486-2.033a3.27 3.27 0 00-1.317-1.374c-.573-.325-1.241-.487-2.004-.487-.764 0-1.441.162-2.033.487a3.45 3.45 0 00-1.346 1.374c-.324.573-.486 1.25-.486 2.033 0 .763.162 1.441.486 2.032.325.592.773 1.05 1.346 1.375.592.324 1.269.486 2.033.486zm16.066 3.55c-1.374 0-2.614-.305-3.721-.916a7.177 7.177 0 01-2.606-2.577c-.63-1.087-.944-2.309-.944-3.664s.314-2.567.944-3.636a7.03 7.03 0 012.548-2.577c1.088-.63 2.291-.944 3.608-.944 1.278 0 2.405.295 3.378.887a6.193 6.193 0 012.319 2.434c.573 1.03.859 2.204.859 3.521 0 .229-.019.468-.057.716a6.988 6.988 0 01-.115.773h-11.28v-2.577h9.648l-1.174 1.031c-.038-.84-.2-1.546-.486-2.119a3.06 3.06 0 00-1.231-1.317c-.516-.305-1.155-.458-1.919-.458-.801 0-1.498.172-2.09.515a3.513 3.513 0 00-1.374 1.461c-.324.61-.486 1.345-.486 2.204 0 .859.171 1.613.515 2.262.343.649.83 1.154 1.46 1.517.63.344 1.355.515 2.176.515a4.99 4.99 0 001.947-.372 4.06 4.06 0 001.546-1.088l2.004 2.033a6.421 6.421 0 01-2.434 1.775 7.753 7.753 0 01-3.035.601zm12.832 0a8.406 8.406 0 01-2.205-.286 8.15 8.15 0 01-1.947-.859 6.685 6.685 0 01-1.546-1.374l2.004-2.004a4.918 4.918 0 001.632 1.26c.63.267 1.336.4 2.119.4.706 0 1.241-.105 1.603-.315.363-.21.544-.515.544-.916 0-.42-.172-.744-.515-.973-.344-.229-.792-.42-1.346-.573a48.454 48.454 0 00-1.718-.515 9.526 9.526 0 01-1.717-.687 3.87 3.87 0 01-1.317-1.231c-.344-.516-.516-1.184-.516-2.004 0-.878.201-1.632.602-2.262.42-.63 1.002-1.117 1.746-1.46.763-.344 1.67-.515 2.72-.515 1.107 0 2.08.2 2.92.601a5.278 5.278 0 012.147 1.746l-2.004 2.004a3.997 3.997 0 00-1.374-1.116c-.515-.248-1.107-.373-1.775-.373-.63 0-1.117.096-1.46.287-.344.191-.516.467-.516.83 0 .382.172.678.516.888.343.209.782.391 1.317.544.553.152 1.126.324 1.718.515a6.91 6.91 0 011.717.744 3.705 3.705 0 011.346 1.26c.343.515.515 1.193.515 2.033 0 1.336-.467 2.395-1.403 3.177-.935.783-2.204 1.174-3.807 1.174zm205.745-54c-1.584 0-2.93-.286-4.037-.859-1.107-.572-2.099-1.412-2.977-2.519l2.233-2.233c.553.802 1.212 1.431 1.975 1.889.764.439 1.737.659 2.921.659 1.107 0 1.984-.229 2.633-.687.668-.458 1.002-1.088 1.002-1.89 0-.668-.171-1.212-.515-1.632-.343-.42-.802-.763-1.374-1.03a11.086 11.086 0 00-1.861-.745 53.58 53.58 0 01-2.033-.744 9.38 9.38 0 01-1.861-1.059 4.72 4.72 0 01-1.345-1.632c-.344-.668-.516-1.518-.516-2.548 0-1.184.287-2.186.859-3.006.592-.84 1.384-1.48 2.377-1.919.992-.438 2.099-.658 3.321-.658 1.317 0 2.49.258 3.521.773 1.05.515 1.899 1.174 2.548 1.975l-2.233 2.234c-.573-.649-1.174-1.127-1.804-1.432-.61-.324-1.317-.487-2.118-.487-.993 0-1.775.201-2.348.602-.553.4-.83.963-.83 1.689 0 .611.172 1.107.515 1.488.344.363.792.678 1.346.945.572.248 1.193.487 1.861.716.687.229 1.364.487 2.032.773a7.267 7.267 0 011.861 1.117 4.729 4.729 0 011.375 1.717c.343.707.515 1.594.515 2.663 0 1.794-.64 3.216-1.918 4.266-1.26 1.049-2.968 1.574-5.125 1.574zm13.314-.143l-5.869-13.885h3.464l4.008 10.192h-1.002l4.237-10.192h3.493l-6.384 13.885h-1.947zm-4.094 5.583l4.266-8.789 1.775 3.206-2.548 5.583h-3.493zM552.384 341v-7.93c0-.917-.296-1.67-.887-2.262-.573-.592-1.317-.888-2.233-.888-.611 0-1.155.134-1.632.401-.477.267-.85.64-1.117 1.117s-.401 1.021-.401 1.632l-1.231-.687c0-1.05.229-1.976.687-2.778a4.943 4.943 0 011.89-1.918c.821-.477 1.737-.715 2.748-.715 1.031 0 1.947.267 2.749.801a5.513 5.513 0 011.889 2.033c.459.821.688 1.679.688 2.577V341h-3.15zm-9.419 0v-13.742h3.149V341h-3.149zm17.118 0v-19.468h3.15V341h-3.15zm-3.292-10.879v-2.863h9.734v2.863h-9.734zM577.66 341v-7.93c0-.917-.296-1.67-.888-2.262-.572-.592-1.316-.888-2.233-.888-.61 0-1.154.134-1.632.401-.477.267-.849.64-1.116 1.117-.267.477-.401 1.021-.401 1.632l-1.231-.687c0-1.05.229-1.976.687-2.778a4.936 4.936 0 011.89-1.918c.82-.477 1.737-.715 2.748-.715 1.031 0 1.947.229 2.749.687a4.934 4.934 0 011.889 1.918c.458.801.687 1.737.687 2.806V341h-3.149zm-9.419 0v-20.613h3.149V341h-3.149zm21.58.286c-1.374 0-2.615-.305-3.722-.916a7.182 7.182 0 01-2.605-2.577c-.63-1.087-.945-2.309-.945-3.664s.315-2.567.945-3.636a7.022 7.022 0 012.548-2.577c1.088-.63 2.291-.944 3.608-.944 1.278 0 2.404.295 3.378.887a6.193 6.193 0 012.319 2.434c.572 1.03.859 2.204.859 3.521 0 .229-.019.468-.058.716a6.966 6.966 0 01-.114.773h-11.28v-2.577h9.648l-1.174 1.031c-.038-.84-.2-1.546-.486-2.119a3.056 3.056 0 00-1.232-1.317c-.515-.305-1.154-.458-1.918-.458-.801 0-1.498.172-2.09.515a3.513 3.513 0 00-1.374 1.461c-.324.61-.487 1.345-.487 2.204 0 .859.172 1.613.516 2.262.343.649.83 1.154 1.46 1.517.63.344 1.355.515 2.176.515a4.98 4.98 0 001.946-.372 4.045 4.045 0 001.546-1.088l2.005 2.033a6.429 6.429 0 01-2.434 1.775 7.753 7.753 0 01-3.035.601zm12.831 0a8.404 8.404 0 01-2.204-.286 8.15 8.15 0 01-1.947-.859 6.685 6.685 0 01-1.546-1.374l2.004-2.004a4.898 4.898 0 001.632 1.26c.63.267 1.336.4 2.119.4.706 0 1.24-.105 1.603-.315.363-.21.544-.515.544-.916 0-.42-.172-.744-.515-.973-.344-.229-.792-.42-1.346-.573a48.454 48.454 0 00-1.718-.515 9.565 9.565 0 01-1.718-.687 3.876 3.876 0 01-1.316-1.231c-.344-.516-.516-1.184-.516-2.004 0-.878.201-1.632.601-2.262.42-.63 1.002-1.117 1.747-1.46.763-.344 1.67-.515 2.72-.515 1.107 0 2.08.2 2.92.601a5.285 5.285 0 012.147 1.746l-2.004 2.004a3.997 3.997 0 00-1.374-1.116c-.516-.248-1.107-.373-1.775-.373-.63 0-1.117.096-1.46.287-.344.191-.516.467-.516.83 0 .382.172.678.516.888.343.209.782.391 1.317.544.553.152 1.126.324 1.717.515.611.172 1.184.42 1.718.744a3.705 3.705 0 011.346 1.26c.343.515.515 1.193.515 2.033 0 1.336-.468 2.395-1.403 3.177-.935.783-2.204 1.174-3.808 1.174zm7.263-.286v-13.742h3.15V341h-3.15zm1.575-16.262c-.534 0-.983-.181-1.346-.544-.343-.362-.515-.811-.515-1.345 0-.535.172-.983.515-1.346a1.832 1.832 0 011.346-.544c.554 0 1.002.182 1.346.544.343.363.515.811.515 1.346 0 .534-.172.983-.515 1.345-.344.363-.792.544-1.346.544zm9.029 16.548a8.404 8.404 0 01-2.204-.286 8.114 8.114 0 01-1.947-.859 6.665 6.665 0 01-1.546-1.374l2.004-2.004a4.898 4.898 0 001.632 1.26c.63.267 1.336.4 2.118.4.707 0 1.241-.105 1.604-.315.362-.21.544-.515.544-.916 0-.42-.172-.744-.516-.973-.343-.229-.792-.42-1.345-.573a49.093 49.093 0 00-1.718-.515 9.535 9.535 0 01-1.718-.687 3.889 3.889 0 01-1.317-1.231c-.343-.516-.515-1.184-.515-2.004 0-.878.2-1.632.601-2.262.42-.63 1.002-1.117 1.746-1.46.764-.344 1.671-.515 2.72-.515 1.107 0 2.081.2 2.92.601a5.288 5.288 0 012.148 1.746l-2.004 2.004a3.99 3.99 0 00-1.375-1.116c-.515-.248-1.107-.373-1.775-.373-.629 0-1.116.096-1.46.287-.343.191-.515.467-.515.83 0 .382.172.678.515.888.344.209.783.391 1.317.544.554.152 1.126.324 1.718.515.611.172 1.183.42 1.718.744a3.702 3.702 0 011.345 1.26c.344.515.516 1.193.516 2.033 0 1.336-.468 2.395-1.403 3.177-.935.783-2.205 1.174-3.808 1.174zM543.657 377v-19.468h3.149V377h-3.149zm-3.292-10.879v-2.863h9.734v2.863h-9.734zm17.357 11.165c-1.336 0-2.548-.315-3.636-.944a7.409 7.409 0 01-2.606-2.606c-.629-1.088-.944-2.3-.944-3.636 0-1.336.315-2.538.944-3.607a7.249 7.249 0 012.606-2.548c1.088-.649 2.3-.973 3.636-.973 1.355 0 2.576.314 3.664.944a6.957 6.957 0 012.577 2.577c.649 1.069.973 2.271.973 3.607 0 1.336-.324 2.548-.973 3.636a7.177 7.177 0 01-2.577 2.606c-1.088.629-2.309.944-3.664.944zm0-3.034c.782 0 1.469-.172 2.061-.516a3.633 3.633 0 001.403-1.489c.343-.629.515-1.345.515-2.147 0-.801-.172-1.508-.515-2.118a3.749 3.749 0 00-1.403-1.432c-.592-.362-1.279-.544-2.061-.544-.764 0-1.451.182-2.062.544a3.746 3.746 0 00-1.402 1.432c-.325.61-.487 1.317-.487 2.118 0 .802.162 1.518.487 2.147.343.63.811 1.127 1.402 1.489.611.344 1.298.516 2.062.516zm15.559 3.034c-1.336 0-2.548-.315-3.636-.944a7.406 7.406 0 01-2.605-2.606c-.63-1.088-.945-2.3-.945-3.636 0-1.336.315-2.538.945-3.607a7.246 7.246 0 012.605-2.548c1.088-.649 2.3-.973 3.636-.973 1.355 0 2.577.314 3.665.944a6.947 6.947 0 012.576 2.577c.649 1.069.974 2.271.974 3.607 0 1.336-.325 2.548-.974 3.636a7.167 7.167 0 01-2.576 2.606c-1.088.629-2.31.944-3.665.944zm0-3.034c.783 0 1.47-.172 2.062-.516a3.63 3.63 0 001.402-1.489c.344-.629.516-1.345.516-2.147 0-.801-.172-1.508-.516-2.118a3.746 3.746 0 00-1.402-1.432c-.592-.362-1.279-.544-2.062-.544-.763 0-1.45.182-2.061.544a3.749 3.749 0 00-1.403 1.432c-.324.61-.487 1.317-.487 2.118 0 .802.163 1.518.487 2.147.344.63.811 1.127 1.403 1.489.611.344 1.298.516 2.061.516zm9.261 2.748v-20.613h3.149V377h-3.149zm10.577.286a8.406 8.406 0 01-2.205-.286 8.15 8.15 0 01-1.947-.859 6.685 6.685 0 01-1.546-1.374l2.004-2.004a4.918 4.918 0 001.632 1.26c.63.267 1.336.4 2.119.4.706 0 1.24-.105 1.603-.315.363-.21.544-.515.544-.916 0-.42-.172-.744-.515-.973-.344-.229-.792-.42-1.346-.573a48.454 48.454 0 00-1.718-.515 9.526 9.526 0 01-1.717-.687 3.87 3.87 0 01-1.317-1.231c-.344-.516-.516-1.184-.516-2.004 0-.878.201-1.632.602-2.262.419-.63 1.002-1.117 1.746-1.46.763-.344 1.67-.515 2.72-.515 1.107 0 2.08.2 2.92.601a5.278 5.278 0 012.147 1.746l-2.004 2.004a3.997 3.997 0 00-1.374-1.116c-.515-.248-1.107-.373-1.775-.373-.63 0-1.117.096-1.46.287-.344.191-.516.467-.516.83 0 .382.172.678.516.888.343.209.782.391 1.317.544.553.152 1.126.324 1.717.515.611.172 1.184.42 1.718.744a3.705 3.705 0 011.346 1.26c.343.515.515 1.193.515 2.033 0 1.336-.467 2.395-1.403 3.177-.935.783-2.204 1.174-3.807 1.174zM851.18 208l8.246-20.041h2.29L869.904 208h-3.55l-6.413-16.233h1.203L854.673 208h-3.493zm4.066-3.865v-2.863h10.621v2.863h-10.621zm21.837 4.151c-1.585 0-2.93-.286-4.037-.859-1.107-.572-2.1-1.412-2.978-2.519l2.233-2.233c.554.802 1.212 1.431 1.976 1.889.763.439 1.737.659 2.92.659 1.107 0 1.985-.229 2.634-.687.668-.458 1.002-1.088 1.002-1.89 0-.668-.172-1.212-.515-1.632-.344-.42-.802-.763-1.374-1.03a11.086 11.086 0 00-1.861-.745 53.58 53.58 0 01-2.033-.744 9.38 9.38 0 01-1.861-1.059 4.723 4.723 0 01-1.346-1.632c-.343-.668-.515-1.518-.515-2.548 0-1.184.286-2.186.859-3.006.592-.84 1.384-1.48 2.376-1.919.993-.438 2.1-.658 3.321-.658 1.317 0 2.491.258 3.522.773 1.049.515 1.899 1.174 2.548 1.975l-2.233 2.234c-.573-.649-1.174-1.127-1.804-1.432-.611-.324-1.317-.487-2.119-.487-.992 0-1.775.201-2.347.602-.554.4-.831.963-.831 1.689 0 .611.172 1.107.516 1.488.343.363.792.678 1.345.945.573.248 1.193.487 1.861.716.687.229 1.365.487 2.033.773a7.284 7.284 0 011.861 1.117 4.716 4.716 0 011.374 1.717c.344.707.515 1.594.515 2.663 0 1.794-.639 3.216-1.918 4.266-1.259 1.049-2.968 1.574-5.124 1.574zm9.753-.286v-20.041h3.292V208h-3.292zm16.164.286c-1.451 0-2.796-.257-4.037-.773a10.12 10.12 0 01-3.206-2.204 10.147 10.147 0 01-2.119-3.293 10.913 10.913 0 01-.744-4.036c0-1.432.248-2.768.744-4.008a9.76 9.76 0 012.119-3.293 10.12 10.12 0 013.206-2.204c1.241-.535 2.586-.802 4.037-.802 1.622 0 3.025.267 4.209.802a10.563 10.563 0 013.149 2.175l-2.233 2.234a6.13 6.13 0 00-2.176-1.518c-.84-.362-1.823-.544-2.949-.544-.993 0-1.899.172-2.72.516a6.198 6.198 0 00-2.147 1.488 6.59 6.59 0 00-1.374 2.262c-.325.878-.487 1.842-.487 2.892 0 1.049.162 2.013.487 2.891a6.907 6.907 0 001.374 2.291 6.418 6.418 0 002.147 1.46c.821.343 1.727.515 2.72.515 1.222 0 2.252-.181 3.092-.544a6.447 6.447 0 002.176-1.546l2.233 2.233a10.055 10.055 0 01-3.235 2.205c-1.241.534-2.663.801-4.266.801zm19.617-.286v-19.468h3.292V208h-3.292zm-6.528-17.035v-3.006h16.348v3.006h-16.348zm20.96 17.321c-1.336 0-2.548-.315-3.636-.944a7.406 7.406 0 01-2.605-2.606c-.63-1.088-.945-2.3-.945-3.636 0-1.336.315-2.538.945-3.607a7.246 7.246 0 012.605-2.548c1.088-.649 2.3-.973 3.636-.973 1.355 0 2.577.314 3.665.944a6.947 6.947 0 012.576 2.577c.649 1.069.974 2.271.974 3.607 0 1.336-.325 2.548-.974 3.636a7.167 7.167 0 01-2.576 2.606c-1.088.629-2.31.944-3.665.944zm0-3.034c.783 0 1.47-.172 2.062-.516a3.63 3.63 0 001.402-1.489c.344-.629.516-1.345.516-2.147 0-.801-.172-1.508-.516-2.118a3.746 3.746 0 00-1.402-1.432c-.592-.362-1.279-.544-2.062-.544-.763 0-1.45.182-2.061.544a3.749 3.749 0 00-1.403 1.432c-.324.61-.487 1.317-.487 2.118 0 .802.163 1.518.487 2.147.344.63.811 1.127 1.403 1.489.611.344 1.298.516 2.061.516zm15.56 3.034c-1.336 0-2.548-.315-3.636-.944a7.409 7.409 0 01-2.606-2.606c-.629-1.088-.944-2.3-.944-3.636 0-1.336.315-2.538.944-3.607a7.249 7.249 0 012.606-2.548c1.088-.649 2.3-.973 3.636-.973 1.355 0 2.576.314 3.664.944a6.957 6.957 0 012.577 2.577c.649 1.069.973 2.271.973 3.607 0 1.336-.324 2.548-.973 3.636a7.177 7.177 0 01-2.577 2.606c-1.088.629-2.309.944-3.664.944zm0-3.034c.782 0 1.469-.172 2.061-.516a3.633 3.633 0 001.403-1.489c.343-.629.515-1.345.515-2.147 0-.801-.172-1.508-.515-2.118a3.749 3.749 0 00-1.403-1.432c-.592-.362-1.279-.544-2.061-.544-.764 0-1.451.182-2.062.544a3.746 3.746 0 00-1.402 1.432c-.325.61-.487 1.317-.487 2.118 0 .802.162 1.518.487 2.147.343.63.811 1.127 1.402 1.489.611.344 1.298.516 2.062.516zM961.87 208v-20.613h3.149V208h-3.149zm10.576.286a8.404 8.404 0 01-2.204-.286 8.132 8.132 0 01-1.947-.859 6.665 6.665 0 01-1.546-1.374l2.004-2.004a4.898 4.898 0 001.632 1.26c.63.267 1.336.4 2.118.4.707 0 1.241-.105 1.604-.315.362-.21.544-.515.544-.916 0-.42-.172-.744-.516-.973-.343-.229-.792-.42-1.345-.573a49.093 49.093 0 00-1.718-.515 9.535 9.535 0 01-1.718-.687 3.889 3.889 0 01-1.317-1.231c-.343-.516-.515-1.184-.515-2.004 0-.878.2-1.632.601-2.262.42-.63 1.002-1.117 1.746-1.46.764-.344 1.671-.515 2.72-.515 1.107 0 2.081.2 2.92.601a5.288 5.288 0 012.148 1.746l-2.004 2.004a3.99 3.99 0 00-1.375-1.116c-.515-.248-1.107-.373-1.775-.373-.629 0-1.116.096-1.46.287-.343.191-.515.467-.515.83 0 .382.172.678.515.888.344.209.783.391 1.317.544.554.152 1.126.324 1.718.515.611.172 1.183.42 1.718.744a3.702 3.702 0 011.345 1.26c.344.515.516 1.193.516 2.033 0 1.336-.468 2.395-1.403 3.177-.935.783-2.205 1.174-3.808 1.174zM846.424 365v-20.041h3.292V365h-3.292zm2.261-8.589v-3.006h10.193v3.006h-10.193zm0-8.446v-3.006h10.679v3.006h-10.679zm15.644 9.477v-2.863h5.01c.687 0 1.288-.134 1.804-.401a3.247 3.247 0 001.259-1.174c.306-.515.458-1.116.458-1.803 0-.688-.152-1.279-.458-1.775a2.983 2.983 0 00-1.259-1.174c-.516-.287-1.117-.43-1.804-.43h-5.01v-2.863h5.182c1.259 0 2.386.258 3.378.773a5.821 5.821 0 012.376 2.176c.592.935.888 2.033.888 3.293 0 1.259-.296 2.357-.888 3.292a5.821 5.821 0 01-2.376 2.176c-.992.515-2.119.773-3.378.773h-5.182zM862.067 365v-20.041h3.293V365h-3.293zm25.753.286a9.618 9.618 0 01-3.894-.801 10.14 10.14 0 01-3.206-2.205 10.985 10.985 0 01-2.176-3.292 10.564 10.564 0 01-.773-4.037c0-1.431.258-2.767.773-4.008a10.611 10.611 0 012.176-3.264 9.77 9.77 0 013.263-2.204c1.26-.535 2.615-.802 4.066-.802 1.584 0 3.054.305 4.409.916a9.2 9.2 0 013.407 2.605l-2.233 2.234c-.592-.84-1.384-1.48-2.377-1.919a7.556 7.556 0 00-3.206-.687c-1.374 0-2.586.306-3.636.916a6.171 6.171 0 00-2.405 2.491c-.573 1.069-.859 2.31-.859 3.722s.286 2.663.859 3.75c.592 1.069 1.384 1.909 2.376 2.52.993.611 2.119.916 3.379.916 1.336 0 2.481-.239 3.435-.716a5.114 5.114 0 002.233-2.176c.516-.973.773-2.166.773-3.578l2.062 1.489h-8.561v-3.007h9.906v.458c0 2.386-.429 4.371-1.288 5.955-.84 1.585-1.995 2.768-3.464 3.55-1.47.783-3.15 1.174-5.039 1.174zm10.084-.286l8.245-20.041h2.291L916.628 365h-3.55l-6.413-16.233h1.202L901.397 365h-3.493zm4.066-3.865v-2.863h10.621v2.863H901.97zM927.862 365v-19.468h3.292V365h-3.292zm-6.527-17.035v-3.006h16.347v3.006h-16.347zm20.96 17.321c-1.336 0-2.548-.315-3.636-.944a7.409 7.409 0 01-2.606-2.606c-.629-1.088-.944-2.3-.944-3.636 0-1.336.315-2.538.944-3.607a7.249 7.249 0 012.606-2.548c1.088-.649 2.3-.973 3.636-.973 1.355 0 2.576.314 3.664.944a6.957 6.957 0 012.577 2.577c.649 1.069.973 2.271.973 3.607 0 1.336-.324 2.548-.973 3.636a7.177 7.177 0 01-2.577 2.606c-1.088.629-2.309.944-3.664.944zm0-3.034c.782 0 1.469-.172 2.061-.516a3.633 3.633 0 001.403-1.489c.343-.629.515-1.345.515-2.147 0-.801-.172-1.508-.515-2.118a3.749 3.749 0 00-1.403-1.432c-.592-.362-1.279-.544-2.061-.544-.764 0-1.451.182-2.062.544a3.746 3.746 0 00-1.402 1.432c-.325.61-.487 1.317-.487 2.118 0 .802.162 1.518.487 2.147.343.63.811 1.127 1.402 1.489.611.344 1.298.516 2.062.516zm15.559 3.034c-1.336 0-2.548-.315-3.636-.944a7.406 7.406 0 01-2.605-2.606c-.63-1.088-.945-2.3-.945-3.636 0-1.336.315-2.538.945-3.607a7.246 7.246 0 012.605-2.548c1.088-.649 2.3-.973 3.636-.973 1.355 0 2.577.314 3.665.944a6.947 6.947 0 012.576 2.577c.649 1.069.974 2.271.974 3.607 0 1.336-.325 2.548-.974 3.636a7.167 7.167 0 01-2.576 2.606c-1.088.629-2.31.944-3.665.944zm0-3.034c.783 0 1.47-.172 2.062-.516a3.63 3.63 0 001.402-1.489c.344-.629.516-1.345.516-2.147 0-.801-.172-1.508-.516-2.118a3.746 3.746 0 00-1.402-1.432c-.592-.362-1.279-.544-2.062-.544-.763 0-1.45.182-2.061.544a3.749 3.749 0 00-1.403 1.432c-.324.61-.487 1.317-.487 2.118 0 .802.163 1.518.487 2.147.344.63.811 1.127 1.403 1.489.611.344 1.298.516 2.061.516zm9.261 2.748v-20.613h3.149V365h-3.149zm10.577.286a8.406 8.406 0 01-2.205-.286 8.15 8.15 0 01-1.947-.859 6.685 6.685 0 01-1.546-1.374l2.004-2.004a4.918 4.918 0 001.632 1.26c.63.267 1.336.4 2.119.4.706 0 1.24-.105 1.603-.315.363-.21.544-.515.544-.916 0-.42-.172-.744-.515-.973-.344-.229-.792-.42-1.346-.573a48.454 48.454 0 00-1.718-.515 9.526 9.526 0 01-1.717-.687 3.87 3.87 0 01-1.317-1.231c-.344-.516-.516-1.184-.516-2.004 0-.878.201-1.632.602-2.262.419-.63 1.002-1.117 1.746-1.46.763-.344 1.67-.515 2.72-.515 1.107 0 2.08.2 2.92.601a5.278 5.278 0 012.147 1.746l-2.004 2.004a3.997 3.997 0 00-1.374-1.116c-.515-.248-1.107-.373-1.775-.373-.63 0-1.117.096-1.46.287-.344.191-.516.467-.516.83 0 .382.172.678.516.888.343.209.782.391 1.317.544.553.152 1.126.324 1.717.515.611.172 1.184.42 1.718.744a3.705 3.705 0 011.346 1.26c.343.515.515 1.193.515 2.033 0 1.336-.467 2.395-1.403 3.177-.935.783-2.204 1.174-3.807 1.174zM802.136 504l-8.102-20.041h3.578l6.327 16.233h-1.259l6.384-16.233h3.522L804.426 504h-2.29zm15.935.286c-1.374 0-2.615-.305-3.722-.916a7.182 7.182 0 01-2.605-2.577c-.63-1.087-.945-2.309-.945-3.664s.315-2.567.945-3.636a7.022 7.022 0 012.548-2.577c1.088-.63 2.291-.944 3.608-.944 1.278 0 2.404.295 3.378.887a6.193 6.193 0 012.319 2.434c.572 1.03.859 2.204.859 3.521 0 .229-.019.468-.058.716a6.966 6.966 0 01-.114.773h-11.28v-2.577h9.648l-1.174 1.031c-.038-.84-.2-1.546-.486-2.119a3.056 3.056 0 00-1.232-1.317c-.515-.305-1.154-.458-1.918-.458-.801 0-1.498.172-2.09.515a3.513 3.513 0 00-1.374 1.461c-.324.61-.487 1.345-.487 2.204 0 .859.172 1.613.516 2.262.343.649.83 1.154 1.46 1.517.63.344 1.355.515 2.176.515a4.98 4.98 0 001.946-.372 4.045 4.045 0 001.546-1.088l2.005 2.033a6.429 6.429 0 01-2.434 1.775 7.753 7.753 0 01-3.035.601zm8.337-.286v-13.742h3.149V504h-3.149zm3.149-7.644l-1.088-.544c0-1.737.382-3.14 1.145-4.209.783-1.088 1.957-1.631 3.522-1.631.687 0 1.307.124 1.861.372.553.248 1.068.649 1.546 1.202l-2.062 2.119a2.181 2.181 0 00-.83-.573 3.019 3.019 0 00-1.059-.172c-.878 0-1.604.277-2.176.831-.573.553-.859 1.422-.859 2.605zm7.965 7.644v-13.742h3.15V504h-3.15zm1.575-16.262c-.534 0-.983-.181-1.346-.544-.343-.362-.515-.811-.515-1.345 0-.535.172-.983.515-1.346a1.832 1.832 0 011.346-.544c.554 0 1.002.182 1.346.544.343.363.515.811.515 1.346 0 .534-.172.983-.515 1.345-.344.363-.792.544-1.346.544zM845.521 504v-16.118c0-.917.2-1.728.601-2.434a4.635 4.635 0 011.718-1.718c.725-.42 1.574-.63 2.548-.63.725 0 1.355.124 1.889.373a5.226 5.226 0 011.546 1.002l-2.061 2.061a2.038 2.038 0 00-.63-.344 1.792 1.792 0 00-.744-.143c-.554 0-.983.163-1.289.487-.286.324-.429.763-.429 1.317V504h-3.149zm-3.293-10.879v-2.863h13.399v2.863h-13.399zM853.823 504v-13.742h3.15V504h-3.15zm1.575-14.945c-.534 0-.983-.181-1.346-.544-.343-.362-.515-.811-.515-1.345 0-.535.172-.983.515-1.346a1.832 1.832 0 011.346-.544c.553 0 1.002.182 1.346.544.343.363.515.811.515 1.346 0 .534-.172.983-.515 1.345-.344.363-.793.544-1.346.544zm10.274 15.231c-1.24 0-2.367-.315-3.378-.944a6.932 6.932 0 01-2.376-2.549c-.573-1.087-.859-2.299-.859-3.635 0-1.356.286-2.568.859-3.636.591-1.088 1.383-1.947 2.376-2.577 1.011-.649 2.138-.973 3.378-.973 1.05 0 1.976.229 2.777.687a4.99 4.99 0 011.947 1.832c.477.782.716 1.67.716 2.662v3.951c0 .993-.239 1.88-.716 2.663a4.996 4.996 0 01-1.918 1.861c-.821.439-1.756.658-2.806.658zm.516-2.977c1.164 0 2.099-.391 2.805-1.174.725-.783 1.088-1.785 1.088-3.006 0-.821-.162-1.546-.487-2.176a3.498 3.498 0 00-1.374-1.46c-.572-.363-1.25-.544-2.032-.544-.764 0-1.442.181-2.033.544a3.753 3.753 0 00-1.374 1.46c-.325.63-.487 1.355-.487 2.176 0 .821.162 1.546.487 2.176.343.63.801 1.126 1.374 1.488.591.344 1.269.516 2.033.516zm3.693 2.691v-3.693l.544-3.35-.544-3.321v-3.378h3.149V504h-3.149zm12.399.286c-1.356 0-2.587-.315-3.694-.944a6.954 6.954 0 01-2.576-2.577c-.63-1.088-.945-2.3-.945-3.636 0-1.355.315-2.567.945-3.636a6.954 6.954 0 012.576-2.577c1.107-.63 2.338-.944 3.694-.944 1.068 0 2.061.209 2.977.629a6.363 6.363 0 012.376 1.747l-2.061 2.09a3.66 3.66 0 00-1.46-1.06 4.43 4.43 0 00-1.832-.372c-.783 0-1.48.182-2.09.544a3.741 3.741 0 00-1.403 1.432c-.325.61-.487 1.326-.487 2.147 0 .802.162 1.517.487 2.147a3.948 3.948 0 001.403 1.46c.61.344 1.307.516 2.09.516.668 0 1.278-.115 1.832-.344a3.92 3.92 0 001.46-1.088l2.061 2.09a6.658 6.658 0 01-2.376 1.775 7.343 7.343 0 01-2.977.601zm8.917-.286v-19.468h3.15V504h-3.15zm-3.292-10.879v-2.863h9.734v2.863h-9.734zM899.383 504v-13.742h3.15V504h-3.15zm1.575-16.262c-.534 0-.983-.181-1.345-.544-.344-.362-.516-.811-.516-1.345 0-.535.172-.983.516-1.346a1.829 1.829 0 011.345-.544c.554 0 1.002.182 1.346.544.343.363.515.811.515 1.346 0 .534-.172.983-.515 1.345-.344.363-.792.544-1.346.544zm10.833 16.548c-1.336 0-2.548-.315-3.636-.944a7.406 7.406 0 01-2.605-2.606c-.63-1.088-.945-2.3-.945-3.636 0-1.336.315-2.538.945-3.607a7.246 7.246 0 012.605-2.548c1.088-.649 2.3-.973 3.636-.973 1.355 0 2.576.314 3.664.944a6.957 6.957 0 012.577 2.577c.649 1.069.973 2.271.973 3.607 0 1.336-.324 2.548-.973 3.636a7.177 7.177 0 01-2.577 2.606c-1.088.629-2.309.944-3.664.944zm0-3.034c.782 0 1.469-.172 2.061-.516a3.627 3.627 0 001.403-1.489c.344-.629.515-1.345.515-2.147 0-.801-.171-1.508-.515-2.118a3.749 3.749 0 00-1.403-1.432c-.592-.362-1.279-.544-2.061-.544-.764 0-1.451.182-2.062.544a3.746 3.746 0 00-1.402 1.432c-.325.61-.487 1.317-.487 2.118 0 .802.162 1.518.487 2.147.343.63.811 1.127 1.402 1.489.611.344 1.298.516 2.062.516zm18.68 2.748v-7.93c0-.917-.296-1.67-.888-2.262-.572-.592-1.317-.888-2.233-.888-.61 0-1.154.134-1.632.401-.477.267-.849.64-1.116 1.117-.267.477-.401 1.021-.401 1.632l-1.231-.687c0-1.05.229-1.976.687-2.778a4.936 4.936 0 011.89-1.918c.82-.477 1.737-.715 2.748-.715 1.031 0 1.947.267 2.749.801a5.522 5.522 0 011.889 2.033c.458.821.687 1.679.687 2.577V504h-3.149zm-9.419 0v-13.742h3.149V504h-3.149zm15.196 3.35l1.947-3.636 1.059-.287c-.115.229-.248.42-.401.573a.742.742 0 01-.544.229c-.439 0-.849-.181-1.231-.544-.363-.382-.544-.859-.544-1.431 0-.611.201-1.126.601-1.546.42-.439.936-.659 1.546-.659.573 0 1.069.22 1.489.659.439.42.659.935.659 1.546 0 .248-.058.544-.172.887-.096.325-.277.744-.544 1.26l-2.119 3.893-1.746-.944zm17.519-3.35v-19.468h3.293V504h-3.293zm-6.527-17.035v-3.006h16.347v3.006H947.24zm21.046 17.321c-1.374 0-2.615-.305-3.722-.916a7.175 7.175 0 01-2.605-2.577c-.63-1.087-.945-2.309-.945-3.664s.315-2.567.945-3.636a7.022 7.022 0 012.548-2.577c1.088-.63 2.29-.944 3.607-.944 1.279 0 2.405.295 3.378.887a6.18 6.18 0 012.319 2.434c.573 1.03.859 2.204.859 3.521 0 .229-.019.468-.057.716a6.966 6.966 0 01-.114.773h-11.281v-2.577h9.649l-1.174 1.031c-.038-.84-.201-1.546-.487-2.119a3.053 3.053 0 00-1.231-1.317c-.515-.305-1.155-.458-1.918-.458-.802 0-1.498.172-2.09.515a3.5 3.5 0 00-1.374 1.461c-.325.61-.487 1.345-.487 2.204 0 .859.172 1.613.515 2.262a3.736 3.736 0 001.46 1.517c.63.344 1.356.515 2.176.515a4.99 4.99 0 001.947-.372 4.053 4.053 0 001.546-1.088l2.004 2.033a6.426 6.426 0 01-2.433 1.775 7.757 7.757 0 01-3.035.601zm12.831 0a8.404 8.404 0 01-2.204-.286 8.114 8.114 0 01-1.947-.859 6.665 6.665 0 01-1.546-1.374l2.004-2.004a4.898 4.898 0 001.632 1.26c.63.267 1.336.4 2.118.4.707 0 1.241-.105 1.604-.315.362-.21.544-.515.544-.916 0-.42-.172-.744-.516-.973-.343-.229-.792-.42-1.345-.573a49.093 49.093 0 00-1.718-.515 9.535 9.535 0 01-1.718-.687 3.889 3.889 0 01-1.317-1.231c-.343-.516-.515-1.184-.515-2.004 0-.878.2-1.632.601-2.262.42-.63 1.002-1.117 1.746-1.46.764-.344 1.67-.515 2.72-.515 1.107 0 2.081.2 2.92.601a5.288 5.288 0 012.148 1.746l-2.004 2.004a3.99 3.99 0 00-1.375-1.116c-.515-.248-1.107-.373-1.775-.373-.63 0-1.116.096-1.46.287-.343.191-.515.467-.515.83 0 .382.172.678.515.888.344.209.783.391 1.317.544.554.152 1.126.324 1.718.515.611.172 1.183.42 1.718.744a3.702 3.702 0 011.345 1.26c.344.515.516 1.193.516 2.033 0 1.336-.468 2.395-1.403 3.177-.935.783-2.205 1.174-3.808 1.174zm9.324-.286v-19.468h3.15V504h-3.15zm-3.292-10.879v-2.863h9.734v2.863h-9.734zM998.627 504v-13.742h3.153V504h-3.153zm1.573-16.262c-.532 0-.981-.181-1.344-.544-.343-.362-.515-.811-.515-1.345 0-.535.172-.983.515-1.346a1.831 1.831 0 011.344-.544c.56 0 1 .182 1.35.544.34.363.51.811.51 1.346 0 .534-.17.983-.51 1.345-.35.363-.79.544-1.35.544zM1014.16 504v-7.93c0-.917-.3-1.67-.89-2.262-.57-.592-1.32-.888-2.24-.888-.61 0-1.15.134-1.63.401-.47.267-.85.64-1.11 1.117-.27.477-.4 1.021-.4 1.632l-1.24-.687c0-1.05.23-1.976.69-2.778.46-.82 1.09-1.46 1.89-1.918.82-.477 1.74-.715 2.75-.715 1.03 0 1.95.267 2.75.801a5.55 5.55 0 011.89 2.033c.46.821.68 1.679.68 2.577V504h-3.14zm-9.42 0v-13.742h3.15V504h-3.15zm20.92 6.012c-1.45 0-2.72-.267-3.81-.801-1.09-.516-1.97-1.251-2.63-2.205l2.06-2.061c.55.687 1.18 1.202 1.89 1.546.7.343 1.55.515 2.55.515 1.24 0 2.22-.324 2.94-.973.73-.63 1.09-1.499 1.09-2.606v-3.378l.55-3.035-.55-3.063v-3.693h3.15v13.169c0 1.317-.3 2.463-.91 3.436a6.304 6.304 0 01-2.55 2.319c-1.09.553-2.35.83-3.78.83zm-.14-6.298c-1.23 0-2.33-.296-3.33-.888a6.61 6.61 0 01-2.31-2.491c-.56-1.049-.84-2.223-.84-3.521s.28-2.462.84-3.493a6.444 6.444 0 012.31-2.433c1-.611 2.1-.916 3.33-.916 1.08 0 2.04.219 2.86.658a4.82 4.82 0 011.92 1.832c.45.764.68 1.661.68 2.691v3.379c0 1.011-.24 1.908-.71 2.691a4.82 4.82 0 01-1.92 1.832c-.82.439-1.77.659-2.83.659zm.62-2.978c.77 0 1.44-.162 2.01-.486a3.365 3.365 0 001.32-1.346c.32-.592.48-1.279.48-2.061 0-.783-.16-1.46-.48-2.033a3.313 3.313 0 00-1.32-1.374c-.57-.325-1.24-.487-2.01-.487-.76 0-1.44.162-2.03.487-.57.324-1.02.782-1.34 1.374-.33.573-.49 1.25-.49 2.033 0 .763.16 1.441.49 2.032.32.592.77 1.05 1.34 1.375.59.324 1.27.486 2.03.486zM852.961 540l-9.505-10.393c-.707-.782-1.241-1.526-1.604-2.233-.343-.706-.515-1.488-.515-2.347 0-1.012.248-1.918.744-2.72a5.388 5.388 0 012.033-1.947c.859-.477 1.842-.716 2.949-.716.84 0 1.603.144 2.29.43.687.267 1.289.63 1.804 1.088a6.31 6.31 0 011.317 1.46l-2.262 2.004a6.417 6.417 0 00-1.374-1.403c-.477-.363-1.069-.544-1.775-.544-.725 0-1.336.22-1.832.659a2.005 2.005 0 00-.745 1.603c0 .649.134 1.183.401 1.603.267.42.639.907 1.117 1.46L856.74 540h-3.779zm-6.843.286c-1.374 0-2.577-.257-3.607-.773-1.012-.534-1.804-1.259-2.376-2.176-.554-.935-.831-1.994-.831-3.177 0-1.203.325-2.281.974-3.236.668-.954 1.641-1.727 2.92-2.319l1.46 1.919c-.706.381-1.25.859-1.632 1.431-.382.554-.572 1.26-.572 2.119 0 .687.152 1.269.458 1.746.324.477.773.849 1.345 1.117.573.248 1.231.372 1.976.372.973 0 1.775-.201 2.404-.601.649-.401 1.136-.878 1.461-1.432l2.061 2.405c-.401.496-.916.945-1.546 1.346a9.044 9.044 0 01-2.09.916 8.323 8.323 0 01-2.405.343zm22.161 0c-1.584 0-2.93-.286-4.037-.859-1.107-.572-2.099-1.412-2.977-2.519l2.233-2.233c.553.802 1.212 1.431 1.975 1.889.764.439 1.737.659 2.92.659 1.107 0 1.985-.229 2.634-.687.668-.458 1.002-1.088 1.002-1.89 0-.668-.171-1.212-.515-1.632-.343-.42-.802-.763-1.374-1.03a11.086 11.086 0 00-1.861-.745 53.58 53.58 0 01-2.033-.744 9.38 9.38 0 01-1.861-1.059 4.72 4.72 0 01-1.345-1.632c-.344-.668-.516-1.518-.516-2.548 0-1.184.287-2.186.859-3.006.592-.84 1.384-1.48 2.377-1.919.992-.438 2.099-.658 3.321-.658 1.317 0 2.49.258 3.521.773 1.05.515 1.899 1.174 2.548 1.975l-2.233 2.234c-.573-.649-1.174-1.127-1.804-1.432-.611-.324-1.317-.487-2.118-.487-.993 0-1.775.201-2.348.602-.553.4-.83.963-.83 1.689 0 .611.172 1.107.515 1.488.344.363.792.678 1.346.945.572.248 1.193.487 1.861.716.687.229 1.364.487 2.032.773a7.267 7.267 0 011.861 1.117 4.716 4.716 0 011.374 1.717c.344.707.516 1.594.516 2.663 0 1.794-.64 3.216-1.918 4.266-1.26 1.049-2.968 1.574-5.125 1.574zm9.352-.286v-13.742h3.149V540h-3.149zm1.575-16.262c-.535 0-.983-.181-1.346-.544-.343-.362-.515-.811-.515-1.345 0-.535.172-.983.515-1.346a1.83 1.83 0 011.346-.544c.553 0 1.002.182 1.345.544.344.363.516.811.516 1.346 0 .534-.172.983-.516 1.345-.343.363-.792.544-1.345.544zM883.74 540v-13.742h3.149V540h-3.149zm9.133 0v-8.188c0-.916-.286-1.622-.859-2.119-.573-.515-1.279-.773-2.119-.773-.572 0-1.088.115-1.546.344a2.667 2.667 0 00-1.059 1.002c-.267.42-.401.935-.401 1.546l-1.231-.687c0-1.05.229-1.957.687-2.72a4.761 4.761 0 011.861-1.775c.783-.439 1.661-.658 2.634-.658.974 0 1.852.209 2.634.629a4.754 4.754 0 011.861 1.775c.458.764.687 1.68.687 2.749V540h-3.149zm9.133 0v-8.188c0-.916-.287-1.622-.859-2.119-.573-.515-1.279-.773-2.119-.773-.553 0-1.059.115-1.517.344a2.622 2.622 0 00-1.088 1.002c-.267.42-.401.935-.401 1.546l-1.775-.687c.095-1.05.401-1.957.916-2.72a5.353 5.353 0 011.976-1.775 5.611 5.611 0 012.691-.658c.992 0 1.889.209 2.691.629a4.907 4.907 0 011.918 1.775c.477.764.716 1.68.716 2.749V540h-3.149zm11.461.286c-1.164 0-2.205-.257-3.121-.773a5.637 5.637 0 01-2.118-2.118c-.497-.916-.745-1.966-.745-3.15v-7.987h3.15v7.844c0 .668.105 1.241.314 1.718a2.5 2.5 0 00.974 1.059c.439.249.954.373 1.546.373.916 0 1.613-.268 2.09-.802.496-.554.744-1.336.744-2.348v-7.844h3.149v7.987c0 1.203-.257 2.262-.773 3.178a5.434 5.434 0 01-2.089 2.119c-.898.496-1.938.744-3.121.744zm8.577-.286v-20.613h3.15V540h-3.15zm11.836.286c-1.24 0-2.366-.315-3.378-.944a6.948 6.948 0 01-2.376-2.549c-.573-1.087-.859-2.299-.859-3.635 0-1.356.286-2.568.859-3.636.592-1.088 1.384-1.947 2.376-2.577 1.012-.649 2.138-.973 3.378-.973 1.05 0 1.976.229 2.777.687a4.99 4.99 0 011.947 1.832c.477.782.716 1.67.716 2.662v3.951c0 .993-.239 1.88-.716 2.663a4.996 4.996 0 01-1.918 1.861c-.821.439-1.756.658-2.806.658zm.516-2.977c1.164 0 2.099-.391 2.805-1.174.726-.783 1.088-1.785 1.088-3.006 0-.821-.162-1.546-.486-2.176a3.507 3.507 0 00-1.375-1.46c-.572-.363-1.25-.544-2.032-.544-.764 0-1.441.181-2.033.544a3.753 3.753 0 00-1.374 1.46c-.325.63-.487 1.355-.487 2.176 0 .821.162 1.546.487 2.176.343.63.801 1.126 1.374 1.488.592.344 1.269.516 2.033.516zm3.693 2.691v-3.693l.544-3.35-.544-3.321v-3.378h3.149V540h-3.149zm8.162 0v-19.468h3.149V540h-3.149zm-3.293-10.879v-2.863h9.734v2.863h-9.734zM954.437 540v-13.742h3.149V540h-3.149zm1.574-16.262c-.534 0-.983-.181-1.345-.544-.344-.362-.516-.811-.516-1.345 0-.535.172-.983.516-1.346a1.829 1.829 0 011.345-.544c.554 0 1.002.182 1.346.544.343.363.515.811.515 1.346 0 .534-.172.983-.515 1.345-.344.363-.792.544-1.346.544zm10.833 16.548c-1.336 0-2.548-.315-3.636-.944a7.406 7.406 0 01-2.605-2.606c-.63-1.088-.945-2.3-.945-3.636 0-1.336.315-2.538.945-3.607a7.246 7.246 0 012.605-2.548c1.088-.649 2.3-.973 3.636-.973 1.355 0 2.577.314 3.665.944a6.954 6.954 0 012.576 2.577c.649 1.069.974 2.271.974 3.607 0 1.336-.325 2.548-.974 3.636a7.175 7.175 0 01-2.576 2.606c-1.088.629-2.31.944-3.665.944zm0-3.034c.783 0 1.47-.172 2.061-.516a3.627 3.627 0 001.403-1.489c.344-.629.516-1.345.516-2.147 0-.801-.172-1.508-.516-2.118a3.741 3.741 0 00-1.403-1.432c-.591-.362-1.278-.544-2.061-.544-.763 0-1.451.182-2.061.544a3.741 3.741 0 00-1.403 1.432c-.325.61-.487 1.317-.487 2.118 0 .802.162 1.518.487 2.147a3.89 3.89 0 001.403 1.489c.61.344 1.298.516 2.061.516zm18.68 2.748v-7.93c0-.917-.296-1.67-.887-2.262-.573-.592-1.317-.888-2.233-.888-.611 0-1.155.134-1.632.401a2.85 2.85 0 00-1.117 1.117c-.267.477-.401 1.021-.401 1.632l-1.231-.687c0-1.05.229-1.976.687-2.778a4.936 4.936 0 011.89-1.918c.821-.477 1.737-.715 2.748-.715 1.031 0 1.947.267 2.749.801a5.522 5.522 0 011.889 2.033c.458.821.687 1.679.687 2.577V540h-3.149zm-9.419 0v-13.742h3.149V540h-3.149z" fill="#1226AA"/><rect x="121.952" y="117.952" width="262.096" height="460.096" rx="11.061" stroke="#1226AA" stroke-width="3.904"/><rect x="437.952" y="117.952" width="262.096" height="460.096" rx="11.061" stroke="#1226AA" stroke-width="3.904"/><rect x="752.952" y="443.952" width="322.096" height="134.096" rx="11.061" stroke="#1226AA" stroke-width="3.904"/><rect x="752.952" y="286.952" width="322.096" height="134.096" rx="11.061" stroke="#1226AA" stroke-width="3.904"/><rect x="752.952" y="129.952" width="322.096" height="134.096" rx="11.061" stroke="#1226AA" stroke-width="3.904"/><path opacity=".75" d="M538.654 72.741v4.149h5.067v1.701h-5.067V84h-2.115V71.04h8.082v1.701h-5.967zm8.431 3.78c.288-.582.636-1.038 1.044-1.368.408-.336.897-.504 1.467-.504.198 0 .384.024.558.072.174.042.33.108.468.198l-.135 1.458c-.024.102-.063.174-.117.216a.323.323 0 01-.198.054c-.09 0-.219-.015-.387-.045a2.53 2.53 0 00-.531-.054c-.27 0-.51.039-.72.117-.204.078-.39.192-.558.342-.162.15-.306.333-.432.549a5.295 5.295 0 00-.351.738V84h-1.935v-9.18h1.125c.204 0 .345.039.423.117.078.072.132.201.162.387l.117 1.197zm8.111-1.845c.678 0 1.29.111 1.836.333.552.222 1.02.537 1.404.945.39.408.69.903.9 1.485.21.582.315 1.236.315 1.962s-.105 1.38-.315 1.962c-.21.582-.51 1.08-.9 1.494a3.894 3.894 0 01-1.404.945c-.546.222-1.158.333-1.836.333-.684 0-1.302-.111-1.854-.333a4 4 0 01-1.404-.945 4.253 4.253 0 01-.9-1.494c-.21-.582-.315-1.236-.315-1.962s.105-1.38.315-1.962a4.16 4.16 0 01.9-1.485 4 4 0 011.404-.945c.552-.222 1.17-.333 1.854-.333zm0 7.947c.828 0 1.443-.276 1.845-.828.408-.558.612-1.353.612-2.385 0-1.032-.204-1.827-.612-2.385-.402-.564-1.017-.846-1.845-.846-.84 0-1.464.282-1.872.846-.408.558-.612 1.353-.612 2.385 0 1.032.204 1.827.612 2.385.408.552 1.032.828 1.872.828zm7.763-6.588c.198-.204.402-.387.612-.549.216-.168.444-.312.684-.432.24-.12.495-.213.765-.279a3.71 3.71 0 01.882-.099c.504 0 .945.084 1.323.252.384.168.705.405.963.711.264.306.462.675.594 1.107.132.426.198.897.198 1.413V84h-1.926v-5.841c0-.618-.144-1.098-.432-1.44-.282-.342-.714-.513-1.296-.513-.432 0-.834.099-1.206.297a4.156 4.156 0 00-1.035.81V84h-1.935v-9.18h1.17c.264 0 .432.123.504.369l.135.846zm10.741 8.109c-.762 0-1.35-.213-1.764-.639-.408-.432-.612-1.038-.612-1.818v-5.346h-1.008a.418.418 0 01-.279-.099c-.078-.072-.117-.177-.117-.315v-.783l1.485-.216.423-2.655a.485.485 0 01.153-.243.41.41 0 01.288-.099h.99v3.015h2.547v1.395h-2.547v5.211c0 .33.081.582.243.756.162.174.378.261.648.261.15 0 .279-.018.387-.054a2.52 2.52 0 00.279-.126c.078-.048.144-.09.198-.126a.302.302 0 01.171-.063c.108 0 .195.06.261.18l.576.945a3.2 3.2 0 01-1.062.612 3.906 3.906 0 01-1.26.207zm9.221-5.769c0-.324-.048-.624-.144-.9a2.01 2.01 0 00-.405-.729 1.791 1.791 0 00-.675-.486c-.264-.12-.57-.18-.918-.18-.702 0-1.254.201-1.656.603-.402.402-.657.966-.765 1.692h4.563zm-4.617 1.188c.024.522.105.975.243 1.359.138.378.321.693.549.945.234.252.51.441.828.567.324.12.684.18 1.08.18.378 0 .705-.042.981-.126a5.28 5.28 0 00.72-.288c.204-.108.378-.204.522-.288a.762.762 0 01.396-.135c.156 0 .276.06.36.18l.549.711c-.228.27-.486.498-.774.684a4.688 4.688 0 01-.918.459 5.165 5.165 0 01-.999.243 6.402 6.402 0 01-.999.081 4.897 4.897 0 01-1.773-.315 4.037 4.037 0 01-1.413-.945c-.396-.414-.708-.927-.936-1.539-.222-.612-.333-1.317-.333-2.115 0-.636.099-1.23.297-1.782a4.349 4.349 0 01.864-1.44 4.063 4.063 0 011.368-.963c.54-.24 1.149-.36 1.827-.36.564 0 1.086.093 1.566.279.48.18.894.447 1.242.801.348.354.618.789.81 1.305.198.51.297 1.092.297 1.746 0 .3-.033.501-.099.603-.066.102-.186.153-.36.153h-5.895zm9.608-3.528c.198-.204.402-.387.612-.549.216-.168.444-.312.684-.432.24-.12.495-.213.765-.279a3.71 3.71 0 01.882-.099c.504 0 .945.084 1.323.252.384.168.705.405.963.711.264.306.462.675.594 1.107.132.426.198.897.198 1.413V84h-1.926v-5.841c0-.618-.144-1.098-.432-1.44-.282-.342-.714-.513-1.296-.513-.432 0-.834.099-1.206.297a4.156 4.156 0 00-1.035.81V84h-1.935v-9.18h1.17c.264 0 .432.123.504.369l.135.846zm13.78 1.044c-.27-.348-.567-.591-.891-.729a2.659 2.659 0 00-1.053-.207c-.756 0-1.347.279-1.773.837-.426.552-.639 1.371-.639 2.457 0 .564.048 1.047.144 1.449.096.396.234.72.414.972.18.252.399.435.657.549.258.114.549.171.873.171.492 0 .915-.105 1.269-.315.36-.216.693-.519.999-.909v-4.275zm1.935-6.399V84h-1.17c-.258 0-.423-.123-.495-.369l-.171-.999c-.384.45-.822.813-1.314 1.089-.486.276-1.053.414-1.701.414-.516 0-.984-.102-1.404-.306-.42-.21-.78-.513-1.08-.909-.3-.396-.534-.885-.702-1.467-.162-.588-.243-1.26-.243-2.016a6.4 6.4 0 01.27-1.899c.186-.582.45-1.086.792-1.512a3.601 3.601 0 011.242-1.008 3.631 3.631 0 011.647-.369c.54 0 .999.087 1.377.261.378.168.717.405 1.017.711V70.68h1.935z" fill="#1226AA"/><path d="M702 97H437" stroke="#10CFC9" stroke-width="2.603"/><path opacity=".75" d="M887.255 82.335c.474 0 .873-.054 1.197-.162.33-.114.597-.267.801-.459.21-.192.36-.417.45-.675.096-.264.144-.546.144-.846 0-.612-.21-1.092-.63-1.44-.414-.354-1.071-.531-1.971-.531h-2.601v4.113h2.61zm-2.61-9.648v4.05h2.106c.9 0 1.572-.174 2.016-.522.444-.348.666-.849.666-1.503 0-.714-.21-1.23-.63-1.548-.414-.318-1.065-.477-1.953-.477h-2.205zm2.205-1.647c.828 0 1.536.081 2.124.243.588.156 1.071.381 1.449.675.378.294.654.654.828 1.08.18.42.27.894.27 1.422a2.8 2.8 0 01-.144.891c-.09.282-.234.549-.432.801a3.134 3.134 0 01-.729.666 4.213 4.213 0 01-1.044.495c1.836.39 2.754 1.365 2.754 2.925 0 .552-.105 1.059-.315 1.521a3.325 3.325 0 01-.9 1.188c-.39.33-.873.588-1.449.774-.576.186-1.233.279-1.971.279h-4.752V71.04h4.311zm11.493 8.946a11.75 11.75 0 00-1.746.171c-.474.084-.858.195-1.152.333-.294.132-.507.291-.639.477-.126.186-.189.39-.189.612 0 .216.033.402.099.558.072.15.168.276.288.378.126.096.27.168.432.216.168.042.351.063.549.063.504 0 .936-.093 1.296-.279.366-.192.72-.468 1.062-.828v-1.701zm-5.13-3.888c1.038-.966 2.274-1.449 3.708-1.449.528 0 .996.087 1.404.261.414.168.759.408 1.035.72.282.312.495.684.639 1.116.15.426.225.9.225 1.422V84h-.864c-.186 0-.327-.027-.423-.081-.096-.06-.177-.177-.243-.351l-.189-.747c-.234.21-.465.399-.693.567-.228.162-.465.3-.711.414-.24.114-.501.198-.783.252a4.33 4.33 0 01-.918.09c-.372 0-.72-.051-1.044-.153a2.323 2.323 0 01-.828-.459 2.289 2.289 0 01-.558-.774 2.711 2.711 0 01-.198-1.08c0-.354.093-.699.279-1.035.192-.336.504-.636.936-.9.438-.27 1.011-.492 1.719-.666.714-.174 1.593-.273 2.637-.297v-.612c0-.66-.141-1.152-.423-1.476-.282-.324-.696-.486-1.242-.486-.372 0-.684.048-.936.144-.252.09-.471.189-.657.297-.186.108-.351.21-.495.306a.852.852 0 01-.459.135.589.589 0 01-.342-.099.943.943 0 01-.225-.261l-.351-.63zm15.407.522a1 1 0 01-.171.18.375.375 0 01-.234.063.612.612 0 01-.324-.108 4.979 4.979 0 00-.396-.234 2.779 2.779 0 00-.549-.243 2.595 2.595 0 00-.81-.108c-.42 0-.789.075-1.107.225-.312.15-.576.366-.792.648-.21.276-.369.615-.477 1.017a5.386 5.386 0 00-.153 1.341c0 .516.057.975.171 1.377.114.402.276.741.486 1.017.216.276.474.486.774.63a2.38 2.38 0 001.026.216c.372 0 .675-.045.909-.135a2.79 2.79 0 00.585-.297c.156-.108.288-.207.396-.297a.573.573 0 01.36-.135c.156 0 .276.06.36.18l.549.711c-.222.27-.468.498-.738.684-.27.186-.555.339-.855.459-.3.114-.612.195-.936.243a5.957 5.957 0 01-.981.081 4.08 4.08 0 01-1.602-.315 3.87 3.87 0 01-1.296-.927 4.584 4.584 0 01-.873-1.485c-.21-.588-.315-1.257-.315-2.007 0-.678.096-1.305.288-1.881a4.314 4.314 0 01.837-1.503 3.82 3.82 0 011.377-.981c.546-.24 1.176-.36 1.89-.36.666 0 1.251.108 1.755.324.51.216.963.522 1.359.918l-.513.702zm3.734-5.94v7.722h.414a.83.83 0 00.324-.054.718.718 0 00.261-.225l2.574-2.943c.09-.12.189-.21.297-.27a.846.846 0 01.414-.09h1.755l-3.096 3.492c-.18.234-.378.42-.594.558.12.084.225.18.315.288.09.102.177.219.261.351L918.582 84h-1.728a1.04 1.04 0 01-.405-.072.734.734 0 01-.288-.288l-2.655-3.6c-.09-.138-.18-.225-.27-.261-.09-.042-.225-.063-.405-.063h-.477V84h-1.935V70.68h1.935zm12.638 7.695c0-.324-.048-.624-.144-.9a2.01 2.01 0 00-.405-.729 1.791 1.791 0 00-.675-.486c-.264-.12-.57-.18-.918-.18-.702 0-1.254.201-1.656.603-.402.402-.657.966-.765 1.692h4.563zm-4.617 1.188c.024.522.105.975.243 1.359.138.378.321.693.549.945.234.252.51.441.828.567.324.12.684.18 1.08.18.378 0 .705-.042.981-.126a5.28 5.28 0 00.72-.288c.204-.108.378-.204.522-.288a.762.762 0 01.396-.135c.156 0 .276.06.36.18l.549.711c-.228.27-.486.498-.774.684a4.688 4.688 0 01-.918.459 5.165 5.165 0 01-.999.243 6.402 6.402 0 01-.999.081 4.897 4.897 0 01-1.773-.315 4.037 4.037 0 01-1.413-.945c-.396-.414-.708-.927-.936-1.539-.222-.612-.333-1.317-.333-2.115 0-.636.099-1.23.297-1.782a4.349 4.349 0 01.864-1.44 4.063 4.063 0 011.368-.963c.54-.24 1.149-.36 1.827-.36.564 0 1.086.093 1.566.279.48.18.894.447 1.242.801.348.354.618.789.81 1.305.198.51.297 1.092.297 1.746 0 .3-.033.501-.099.603-.066.102-.186.153-.36.153h-5.895zm9.608-3.528c.198-.204.402-.387.612-.549.216-.168.444-.312.684-.432.24-.12.495-.213.765-.279a3.71 3.71 0 01.882-.099c.504 0 .945.084 1.323.252.384.168.705.405.963.711.264.306.462.675.594 1.107.132.426.198.897.198 1.413V84h-1.926v-5.841c0-.618-.144-1.098-.432-1.44-.282-.342-.714-.513-1.296-.513-.432 0-.834.099-1.206.297a4.156 4.156 0 00-1.035.81V84h-1.935v-9.18h1.17c.264 0 .432.123.504.369l.135.846zm13.78 1.044c-.27-.348-.567-.591-.891-.729a2.659 2.659 0 00-1.053-.207c-.756 0-1.347.279-1.773.837-.426.552-.639 1.371-.639 2.457 0 .564.048 1.047.144 1.449.096.396.234.72.414.972.18.252.399.435.657.549.258.114.549.171.873.171.492 0 .915-.105 1.269-.315.36-.216.693-.519.999-.909v-4.275zm1.935-6.399V84h-1.17c-.258 0-.423-.123-.495-.369l-.171-.999c-.384.45-.822.813-1.314 1.089-.486.276-1.053.414-1.701.414-.516 0-.984-.102-1.404-.306-.42-.21-.78-.513-1.08-.909-.3-.396-.534-.885-.702-1.467-.162-.588-.243-1.26-.243-2.016a6.4 6.4 0 01.27-1.899c.186-.582.45-1.086.792-1.512a3.601 3.601 0 011.242-1.008 3.631 3.631 0 011.647-.369c.54 0 .999.087 1.377.261.378.168.717.405 1.017.711V70.68h1.935z" fill="#1226AA"/><path d="M1077 97H751" stroke="#10CFC9" stroke-width="2.603"/><path opacity=".75" d="M182.267 71.04V84h-2.106v-5.769h-6.507V84h-2.115V71.04h2.115v5.67h6.507v-5.67h2.106zm7.027 8.946a11.75 11.75 0 00-1.746.171c-.474.084-.858.195-1.152.333-.294.132-.507.291-.639.477-.126.186-.189.39-.189.612 0 .216.033.402.099.558.072.15.168.276.288.378.126.096.27.168.432.216.168.042.351.063.549.063.504 0 .936-.093 1.296-.279.366-.192.72-.468 1.062-.828v-1.701zm-5.13-3.888c1.038-.966 2.274-1.449 3.708-1.449.528 0 .996.087 1.404.261.414.168.759.408 1.035.72.282.312.495.684.639 1.116.15.426.225.9.225 1.422V84h-.864c-.186 0-.327-.027-.423-.081-.096-.06-.177-.177-.243-.351l-.189-.747c-.234.21-.465.399-.693.567-.228.162-.465.3-.711.414-.24.114-.501.198-.783.252a4.33 4.33 0 01-.918.09c-.372 0-.72-.051-1.044-.153a2.323 2.323 0 01-.828-.459 2.289 2.289 0 01-.558-.774 2.711 2.711 0 01-.198-1.08c0-.354.093-.699.279-1.035.192-.336.504-.636.936-.9.438-.27 1.011-.492 1.719-.666.714-.174 1.593-.273 2.637-.297v-.612c0-.66-.141-1.152-.423-1.476-.282-.324-.696-.486-1.242-.486-.372 0-.684.048-.936.144-.252.09-.471.189-.657.297-.186.108-.351.21-.495.306a.852.852 0 01-.459.135.589.589 0 01-.342-.099.943.943 0 01-.225-.261l-.351-.63zm10.745.423c.288-.582.636-1.038 1.044-1.368.408-.336.897-.504 1.467-.504.198 0 .384.024.558.072.174.042.33.108.468.198l-.135 1.458c-.024.102-.063.174-.117.216a.323.323 0 01-.198.054c-.09 0-.219-.015-.387-.045a2.53 2.53 0 00-.531-.054c-.27 0-.51.039-.72.117-.204.078-.39.192-.558.342-.162.15-.306.333-.432.549a5.295 5.295 0 00-.351.738V84h-1.935v-9.18h1.125c.204 0 .345.039.423.117.078.072.132.201.162.387l.117 1.197zm10.018.558c-.27-.348-.567-.591-.891-.729a2.659 2.659 0 00-1.053-.207c-.756 0-1.347.279-1.773.837-.426.552-.639 1.371-.639 2.457 0 .564.048 1.047.144 1.449.096.396.234.72.414.972.18.252.399.435.657.549.258.114.549.171.873.171.492 0 .915-.105 1.269-.315.36-.216.693-.519.999-.909v-4.275zm1.935-6.399V84h-1.17c-.258 0-.423-.123-.495-.369l-.171-.999c-.384.45-.822.813-1.314 1.089-.486.276-1.053.414-1.701.414-.516 0-.984-.102-1.404-.306-.42-.21-.78-.513-1.08-.909-.3-.396-.534-.885-.702-1.467-.162-.588-.243-1.26-.243-2.016a6.4 6.4 0 01.27-1.899c.186-.582.45-1.086.792-1.512a3.601 3.601 0 011.242-1.008 3.631 3.631 0 011.647-.369c.54 0 .999.087 1.377.261.378.168.717.405 1.017.711V70.68h1.935zm14.903 4.14L218.822 84h-1.539c-.18 0-.306-.117-.378-.351l-1.827-5.715a14.67 14.67 0 01-.135-.486 16.992 16.992 0 01-.099-.477c-.066.324-.147.648-.243.972l-1.854 5.706c-.066.234-.207.351-.423.351h-1.467l-2.943-9.18h1.53c.15 0 .273.039.369.117a.487.487 0 01.198.261l1.53 5.346c.06.246.111.486.153.72.048.228.09.456.126.684a76.325 76.325 0 01.396-1.404l1.719-5.373a.471.471 0 01.18-.261.554.554 0 01.342-.108h.846c.138 0 .255.036.351.108a.458.458 0 01.189.261l1.674 5.373c.072.246.138.486.198.72.066.234.126.468.18.702.042-.228.087-.459.135-.693.048-.234.105-.477.171-.729l1.557-5.346a.55.55 0 01.198-.27.568.568 0 01.351-.108h1.458zm5.833 5.166a11.75 11.75 0 00-1.746.171c-.474.084-.858.195-1.152.333-.294.132-.507.291-.639.477-.126.186-.189.39-.189.612 0 .216.033.402.099.558.072.15.168.276.288.378.126.096.27.168.432.216.168.042.351.063.549.063.504 0 .936-.093 1.296-.279.366-.192.72-.468 1.062-.828v-1.701zm-5.13-3.888c1.038-.966 2.274-1.449 3.708-1.449.528 0 .996.087 1.404.261.414.168.759.408 1.035.72.282.312.495.684.639 1.116.15.426.225.9.225 1.422V84h-.864c-.186 0-.327-.027-.423-.081-.096-.06-.177-.177-.243-.351l-.189-.747c-.234.21-.465.399-.693.567-.228.162-.465.3-.711.414-.24.114-.501.198-.783.252a4.33 4.33 0 01-.918.09c-.372 0-.72-.051-1.044-.153a2.323 2.323 0 01-.828-.459 2.289 2.289 0 01-.558-.774 2.711 2.711 0 01-.198-1.08c0-.354.093-.699.279-1.035.192-.336.504-.636.936-.9.438-.27 1.011-.492 1.719-.666.714-.174 1.593-.273 2.637-.297v-.612c0-.66-.141-1.152-.423-1.476-.282-.324-.696-.486-1.242-.486-.372 0-.684.048-.936.144-.252.09-.471.189-.657.297-.186.108-.351.21-.495.306a.852.852 0 01-.459.135.589.589 0 01-.342-.099.943.943 0 01-.225-.261l-.351-.63zm10.745.423c.288-.582.636-1.038 1.044-1.368.408-.336.897-.504 1.467-.504.198 0 .384.024.558.072.174.042.33.108.468.198l-.135 1.458c-.024.102-.063.174-.117.216a.323.323 0 01-.198.054c-.09 0-.219-.015-.387-.045a2.53 2.53 0 00-.531-.054c-.27 0-.51.039-.72.117-.204.078-.39.192-.558.342-.162.15-.306.333-.432.549a5.295 5.295 0 00-.351.738V84h-1.935v-9.18h1.125c.204 0 .345.039.423.117.078.072.132.201.162.387l.117 1.197zm10.162 1.854c0-.324-.048-.624-.144-.9a2.01 2.01 0 00-.405-.729 1.791 1.791 0 00-.675-.486c-.264-.12-.57-.18-.918-.18-.702 0-1.254.201-1.656.603-.402.402-.657.966-.765 1.692h4.563zm-4.617 1.188c.024.522.105.975.243 1.359.138.378.321.693.549.945.234.252.51.441.828.567.324.12.684.18 1.08.18.378 0 .705-.042.981-.126a5.28 5.28 0 00.72-.288c.204-.108.378-.204.522-.288a.762.762 0 01.396-.135c.156 0 .276.06.36.18l.549.711c-.228.27-.486.498-.774.684a4.688 4.688 0 01-.918.459 5.165 5.165 0 01-.999.243 6.402 6.402 0 01-.999.081 4.897 4.897 0 01-1.773-.315 4.037 4.037 0 01-1.413-.945c-.396-.414-.708-.927-.936-1.539-.222-.612-.333-1.317-.333-2.115 0-.636.099-1.23.297-1.782a4.349 4.349 0 01.864-1.44 4.063 4.063 0 011.368-.963c.54-.24 1.149-.36 1.827-.36.564 0 1.086.093 1.566.279.48.18.894.447 1.242.801.348.354.618.789.81 1.305.198.51.297 1.092.297 1.746 0 .3-.033.501-.099.603-.066.102-.186.153-.36.153h-5.895zm17.78-2.484c-.27-.348-.567-.591-.891-.729a2.659 2.659 0 00-1.053-.207c-.756 0-1.347.279-1.773.837-.426.552-.639 1.371-.639 2.457 0 .564.048 1.047.144 1.449.096.396.234.72.414.972.18.252.399.435.657.549.258.114.549.171.873.171.492 0 .915-.105 1.269-.315.36-.216.693-.519.999-.909v-4.275zm1.935-6.399V84h-1.17c-.258 0-.423-.123-.495-.369l-.171-.999c-.384.45-.822.813-1.314 1.089-.486.276-1.053.414-1.701.414-.516 0-.984-.102-1.404-.306-.42-.21-.78-.513-1.08-.909-.3-.396-.534-.885-.702-1.467-.162-.588-.243-1.26-.243-2.016a6.4 6.4 0 01.27-1.899c.186-.582.45-1.086.792-1.512a3.601 3.601 0 011.242-1.008 3.631 3.631 0 011.647-.369c.54 0 .999.087 1.377.261.378.168.717.405 1.017.711V70.68h1.935zm8.027 7.695c0-.324-.048-.624-.144-.9a2.01 2.01 0 00-.405-.729 1.791 1.791 0 00-.675-.486c-.264-.12-.57-.18-.918-.18-.702 0-1.254.201-1.656.603-.402.402-.657.966-.765 1.692h4.563zm-4.617 1.188c.024.522.105.975.243 1.359.138.378.321.693.549.945.234.252.51.441.828.567.324.12.684.18 1.08.18.378 0 .705-.042.981-.126a5.28 5.28 0 00.72-.288c.204-.108.378-.204.522-.288a.762.762 0 01.396-.135c.156 0 .276.06.36.18l.549.711c-.228.27-.486.498-.774.684a4.688 4.688 0 01-.918.459 5.165 5.165 0 01-.999.243 6.402 6.402 0 01-.999.081 4.897 4.897 0 01-1.773-.315 4.037 4.037 0 01-1.413-.945c-.396-.414-.708-.927-.936-1.539-.222-.612-.333-1.317-.333-2.115 0-.636.099-1.23.297-1.782a4.349 4.349 0 01.864-1.44 4.063 4.063 0 011.368-.963c.54-.24 1.149-.36 1.827-.36.564 0 1.086.093 1.566.279.48.18.894.447 1.242.801.348.354.618.789.81 1.305.198.51.297 1.092.297 1.746 0 .3-.033.501-.099.603-.066.102-.186.153-.36.153h-5.895zm13.28-3.078a.48.48 0 01-.162.18.43.43 0 01-.225.054.751.751 0 01-.333-.09 8.898 8.898 0 00-.423-.216 3.348 3.348 0 00-.576-.207 2.63 2.63 0 00-.765-.099c-.24 0-.459.03-.657.09a1.414 1.414 0 00-.495.243 1.063 1.063 0 00-.306.369.958.958 0 00-.108.45c0 .216.066.396.198.54.132.144.306.27.522.378.216.102.462.195.738.279.276.084.558.174.846.27.288.096.57.207.846.333.276.126.522.282.738.468.216.18.39.402.522.666.132.258.198.573.198.945 0 .432-.078.831-.234 1.197a2.688 2.688 0 01-.684.954c-.3.27-.675.48-1.125.63-.444.15-.954.225-1.53.225-.318 0-.627-.03-.927-.09a5.471 5.471 0 01-.846-.225 5.05 5.05 0 01-.747-.36 4.033 4.033 0 01-.612-.45l.45-.738a.554.554 0 01.504-.288c.126 0 .249.042.369.126.126.078.27.165.432.261.168.096.369.186.603.27.234.078.525.117.873.117.288 0 .537-.033.747-.099.21-.072.384-.168.522-.288.138-.12.24-.255.306-.405.066-.156.099-.321.099-.495a.84.84 0 00-.198-.576 1.667 1.667 0 00-.531-.387 4.628 4.628 0 00-.747-.288 33.77 33.77 0 01-.846-.27 9.32 9.32 0 01-.855-.333 3.108 3.108 0 01-.747-.477 2.299 2.299 0 01-.522-.711c-.132-.282-.198-.624-.198-1.026 0-.366.072-.714.216-1.044.15-.33.366-.621.648-.873a3.15 3.15 0 011.053-.594c.42-.15.903-.225 1.449-.225.618 0 1.179.099 1.683.297.504.198.927.468 1.269.81l-.432.702zm8.505.135a1 1 0 01-.171.18.375.375 0 01-.234.063.612.612 0 01-.324-.108 4.979 4.979 0 00-.396-.234 2.779 2.779 0 00-.549-.243 2.595 2.595 0 00-.81-.108c-.42 0-.789.075-1.107.225-.312.15-.576.366-.792.648-.21.276-.369.615-.477 1.017a5.386 5.386 0 00-.153 1.341c0 .516.057.975.171 1.377.114.402.276.741.486 1.017.216.276.474.486.774.63a2.38 2.38 0 001.026.216c.372 0 .675-.045.909-.135a2.79 2.79 0 00.585-.297c.156-.108.288-.207.396-.297a.573.573 0 01.36-.135c.156 0 .276.06.36.18l.549.711c-.222.27-.468.498-.738.684-.27.186-.555.339-.855.459-.3.114-.612.195-.936.243a5.957 5.957 0 01-.981.081 4.08 4.08 0 01-1.602-.315 3.87 3.87 0 01-1.296-.927 4.584 4.584 0 01-.873-1.485c-.21-.588-.315-1.257-.315-2.007 0-.678.096-1.305.288-1.881a4.314 4.314 0 01.837-1.503 3.82 3.82 0 011.377-.981c.546-.24 1.176-.36 1.89-.36.666 0 1.251.108 1.755.324.51.216.963.522 1.359.918l-.513.702zm3.627-.099c.288-.582.636-1.038 1.044-1.368.408-.336.897-.504 1.467-.504.198 0 .384.024.558.072.174.042.33.108.468.198l-.135 1.458c-.024.102-.063.174-.117.216a.323.323 0 01-.198.054c-.09 0-.219-.015-.387-.045a2.53 2.53 0 00-.531-.054c-.27 0-.51.039-.72.117-.204.078-.39.192-.558.342-.162.15-.306.333-.432.549a5.295 5.295 0 00-.351.738V84h-1.935v-9.18h1.125c.204 0 .345.039.423.117.078.072.132.201.162.387l.117 1.197zm6.473-1.701V84h-1.935v-9.18h1.935zm.324-2.772c0 .174-.036.339-.108.495a1.292 1.292 0 01-.279.414c-.12.114-.261.207-.423.279a1.28 1.28 0 01-.504.099c-.174 0-.339-.033-.495-.099a1.43 1.43 0 01-.396-.279 1.522 1.522 0 01-.279-.414 1.257 1.257 0 01-.099-.495c0-.18.033-.348.099-.504a1.39 1.39 0 01.279-.405c.114-.12.246-.213.396-.279.156-.072.321-.108.495-.108.18 0 .348.036.504.108.162.066.303.159.423.279.12.114.213.249.279.405.072.156.108.324.108.504zm3.683 9.648c.27.348.564.594.882.738.324.138.681.207 1.071.207.756 0 1.344-.276 1.764-.828.426-.552.639-1.374.639-2.466 0-.564-.048-1.044-.144-1.44-.096-.402-.234-.729-.414-.981a1.596 1.596 0 00-.657-.549 2.138 2.138 0 00-.873-.171c-.492 0-.918.108-1.278.324-.354.21-.684.513-.99.909v4.257zm-.099-5.544c.384-.45.819-.813 1.305-1.089.492-.276 1.062-.414 1.71-.414.516 0 .984.105 1.404.315.42.204.78.504 1.08.9.3.396.531.888.693 1.476.168.582.252 1.251.252 2.007 0 .678-.093 1.311-.279 1.899a4.623 4.623 0 01-.783 1.521 3.743 3.743 0 01-1.242 1.008c-.486.24-1.035.36-1.647.36-.54 0-.999-.087-1.377-.261a3.575 3.575 0 01-1.017-.72v3.897h-1.935V74.82h1.17c.264 0 .432.123.504.369l.162.963zM314.427 84h-1.935v-7.659h-4.473v5.211c0 .33.081.582.243.756.162.174.378.261.648.261.15 0 .279-.018.387-.054a2.52 2.52 0 00.279-.126c.078-.048.144-.09.198-.126a.302.302 0 01.171-.063c.108 0 .195.06.261.18l.576.945a3.2 3.2 0 01-1.062.612 3.906 3.906 0 01-1.26.207c-.762 0-1.35-.213-1.764-.639-.408-.432-.612-1.038-.612-1.818v-5.346h-1.008a.418.418 0 01-.279-.099c-.078-.072-.117-.177-.117-.315v-.783l1.485-.216.423-2.655a.485.485 0 01.153-.243.41.41 0 01.288-.099h.99v3.015h6.408V84zm.396-11.997c0 .174-.036.339-.108.495-.066.15-.159.285-.279.405-.12.114-.261.207-.423.279a1.257 1.257 0 01-.495.099c-.174 0-.339-.033-.495-.099a1.572 1.572 0 01-.405-.279 1.572 1.572 0 01-.279-.405 1.257 1.257 0 01-.099-.495 1.28 1.28 0 01.378-.918c.12-.12.255-.213.405-.279.156-.072.321-.108.495-.108s.339.036.495.108c.162.066.303.159.423.279.12.114.213.252.279.414.072.156.108.324.108.504zm5.658 2.673c.678 0 1.29.111 1.836.333.552.222 1.02.537 1.404.945.39.408.69.903.9 1.485.21.582.315 1.236.315 1.962s-.105 1.38-.315 1.962c-.21.582-.51 1.08-.9 1.494a3.894 3.894 0 01-1.404.945c-.546.222-1.158.333-1.836.333-.684 0-1.302-.111-1.854-.333a4 4 0 01-1.404-.945 4.253 4.253 0 01-.9-1.494c-.21-.582-.315-1.236-.315-1.962s.105-1.38.315-1.962a4.16 4.16 0 01.9-1.485 4 4 0 011.404-.945c.552-.222 1.17-.333 1.854-.333zm0 7.947c.828 0 1.443-.276 1.845-.828.408-.558.612-1.353.612-2.385 0-1.032-.204-1.827-.612-2.385-.402-.564-1.017-.846-1.845-.846-.84 0-1.464.282-1.872.846-.408.558-.612 1.353-.612 2.385 0 1.032.204 1.827.612 2.385.408.552 1.032.828 1.872.828zm7.763-6.588c.198-.204.402-.387.612-.549.216-.168.444-.312.684-.432.24-.12.495-.213.765-.279a3.71 3.71 0 01.882-.099c.504 0 .945.084 1.323.252.384.168.705.405.963.711.264.306.462.675.594 1.107.132.426.198.897.198 1.413V84h-1.926v-5.841c0-.618-.144-1.098-.432-1.44-.282-.342-.714-.513-1.296-.513-.432 0-.834.099-1.206.297a4.156 4.156 0 00-1.035.81V84h-1.935v-9.18h1.17c.264 0 .432.123.504.369l.135.846z" fill="#1226AA"/><path d="M385 97H120" stroke="#10CFC9" stroke-width="2.603"/></svg>