<svg width="533" height="135" viewBox="0 0 533 135" fill="none" xmlns="http://www.w3.org/2000/svg"><path fill-rule="evenodd" clip-rule="evenodd" d="M340.382 92.547c-3.225 0-6.271-.627-9.137-1.881a23.737 23.737 0 01-7.524-5.173 25.78 25.78 0 01-5.106-7.726c-1.21-2.956-1.814-6.113-1.814-9.472 0-3.36.604-6.495 1.814-9.406 1.254-2.911 2.956-5.464 5.106-7.659a22.92 22.92 0 017.658-5.173c2.956-1.254 6.136-1.88 9.54-1.88 3.717 0 7.166.716 10.346 2.15 3.18 1.432 5.845 3.47 7.995 6.113l-5.241 5.24c-1.388-1.97-3.247-3.471-5.576-4.501-2.329-1.075-4.837-1.613-7.524-1.613-3.225 0-6.069.717-8.532 2.15-2.419 1.389-4.3 3.337-5.643 5.845-1.344 2.508-2.016 5.42-2.016 8.733 0 3.315.672 6.248 2.016 8.801 1.388 2.508 3.247 4.48 5.576 5.912 2.329 1.433 4.971 2.15 7.927 2.15 3.135 0 5.823-.56 8.062-1.68 2.284-1.164 4.031-2.866 5.24-5.105.758-1.433 1.279-3.067 1.562-4.904h-14.998v-7.055h23.245v1.075c0 5.599-1.008 10.257-3.023 13.974-1.971 3.718-4.681 6.494-8.129 8.33-3.449 1.837-7.39 2.755-11.824 2.755zM245.09 44.848L231.526 75.08v4.703h22.304v12.092h7.591V79.783h6.584v-6.92h-6.584V61.106h-7.591v11.757h-12.95l12.944-28.015h-8.734zm39.423 29.291v17.736h-7.726V44.848h17.467c2.956 0 5.599.605 7.928 1.814 2.374 1.21 4.232 2.911 5.576 5.106 1.388 2.194 2.083 4.77 2.083 7.726 0 2.956-.695 5.531-2.083 7.726-1.344 2.194-3.202 3.896-5.576 5.105-2.329 1.21-4.972 1.814-7.928 1.814h-9.741zm0-6.718h9.338c1.613 0 3.024-.313 4.233-.94 1.254-.672 2.239-1.59 2.956-2.755.716-1.21 1.075-2.62 1.075-4.232 0-1.613-.359-3.001-1.075-4.166a7.019 7.019 0 00-2.956-2.754c-1.209-.672-2.62-1.008-4.233-1.008h-9.338v15.855zm100.99-22.573l-19.349 47.027h8.196l3.615-9.07h20.212l3.583 9.07h8.331l-19.214-47.027h-5.374zm10.02 31.24l-7.407-18.75-7.473 18.75h14.88zM207.877 45.479h25.382l-3.162 7.054h-22.22v12.765h16.498l-3.162 7.054h-13.336v20.154h-7.726V45.48h7.726z" fill="#1226AA"/><g clip-path="url(#clip0_311_258)" fill="#1226AA"><path d="M121.677 96.199L144.306 109V83.456l-22.629-12.801v25.544zm0-29.683V40.972l22.629 12.801v25.544l-22.629-12.801zm26.232 12.801l20.772-11.751-20.772-11.754v23.505zm-1.8-28.662l22.572-12.771-22.572-12.773-22.573 12.773 22.573 12.77z"/></g><defs><clipPath id="clip0_311_258"><path fill="#fff" transform="translate(121.678 25.11)" d="M0 0h47.003v83.889H0z"/></clipPath></defs></svg>