<svg width="248" height="72" viewBox="0 0 248 72" fill="none" xmlns="http://www.w3.org/2000/svg"><path fill-rule="evenodd" clip-rule="evenodd" d="M187.725 57.9c-2.763 0-5.373-.537-7.83-1.612a20.366 20.366 0 01-6.448-4.433 22.105 22.105 0 01-4.375-6.62c-1.036-2.534-1.555-5.24-1.555-8.118 0-2.879.519-5.565 1.555-8.06 1.075-2.495 2.533-4.683 4.375-6.563a19.658 19.658 0 016.563-4.433c2.534-1.075 5.259-1.612 8.176-1.612 3.185 0 6.141.614 8.866 1.842 2.725 1.228 5.008 2.975 6.851 5.239l-4.491 4.49c-1.19-1.688-2.783-2.974-4.778-3.857-1.996-.92-4.146-1.381-6.448-1.381-2.764 0-5.201.614-7.312 1.842-2.073 1.19-3.685 2.86-4.836 5.009-1.151 2.149-1.727 4.644-1.727 7.484s.576 5.354 1.727 7.542c1.19 2.15 2.783 3.838 4.778 5.066 1.996 1.228 4.261 1.842 6.794 1.842 2.687 0 4.989-.48 6.909-1.439 1.957-.998 3.454-2.456 4.49-4.375.65-1.228 1.096-2.629 1.338-4.203h-12.852v-6.045h19.92v.921c0 4.798-.864 8.79-2.591 11.975-1.689 3.186-4.011 5.565-6.966 7.139-2.956 1.573-6.333 2.36-10.133 2.36zm-81.66-40.876L94.441 42.932v4.03h19.113v10.362h6.506V46.962h5.642v-5.93h-5.642V30.957h-6.506v10.075h-11.097l11.092-24.008h-7.484zm33.783 25.102v15.199h-6.62v-40.3h14.968c2.533 0 4.798.518 6.794 1.554 2.034 1.036 3.627 2.495 4.778 4.375 1.19 1.881 1.785 4.088 1.785 6.621 0 2.533-.595 4.74-1.785 6.62-1.151 1.881-2.744 3.34-4.778 4.376-1.996 1.037-4.261 1.555-6.794 1.555h-8.348zm0-5.758h8.003c1.382 0 2.591-.268 3.627-.806 1.075-.575 1.919-1.362 2.533-2.36.614-1.036.921-2.245.921-3.627 0-1.382-.307-2.572-.921-3.57a6.01 6.01 0 00-2.533-2.36c-1.036-.575-2.245-.863-3.627-.863h-8.003v13.586zm86.544-19.344l-16.581 40.3h7.024l3.098-7.772h17.32l3.071 7.773h7.139l-16.466-40.3h-4.605zm8.587 26.771l-6.347-16.067-6.405 16.067h12.752zM74.175 17.565h21.75l-2.709 6.046h-19.04v10.938h14.137l-2.71 6.045H74.175v17.272h-6.62v-40.3h6.62z" fill="#1226AA"/><g clip-path="url(#clip0_310_5)" fill="#1226AA"><path d="M.306 61.03L19.698 72V50.11L.306 39.14v21.89zm0-25.437v-21.89l19.392 10.97v21.89L.306 35.593zm22.479 10.97l17.8-10.07-17.8-10.073v20.143zM21.242 22l19.344-10.943L21.243.11 1.898 11.057 21.242 22z"/></g><defs><clipPath id="clip0_310_5"><path fill="#fff" transform="translate(.306 .11)" d="M0 0h40.279v71.889H0z"/></clipPath></defs></svg>