<svg width="82" height="82" viewBox="0 0 82 82" fill="none" xmlns="http://www.w3.org/2000/svg"><path d="M22.25 35.761H22v3h39.25v-3h-39z" fill="#10CFC9" stroke="#10CFC9" stroke-width=".5"/><path d="M22.25 28.261H22v3h39.25v-3h-39z" fill="#fff" stroke="#fff" stroke-width=".5"/><path d="M22.25 43.261H22v3h24.25v-3h-24z" fill="#10CFC9" stroke="#10CFC9" stroke-width=".5"/><path d="M1 58.261H.75v3H3.5a2.25 2.25 0 012.25 2.25v2.502a5.25 5.25 0 001.605 3.748A5.251 5.251 0 005.75 73.51v2.501a2.25 2.25 0 01-2.25 2.25H.75v3H3.5a5.25 5.25 0 005.25-5.25v-2.5a2.25 2.25 0 012.25-2.25h1.5v-3H11a2.25 2.25 0 01-2.25-2.25v-2.5a5.25 5.25 0 00-5.25-5.25H1zm0-47.5H.75v3h1.5s0 0 0 0c.162 0 .323.019.48.056h0l.01.002c.106.02.21.053.31.096l.048.021h.091l.24.126.217.159.056.046a3.126 3.126 0 01.798 2.268h0v1.976a5.25 5.25 0 005.25 5.25h2.75v-3h-2.213A2.788 2.788 0 017.5 17.974V16.01h0a5.25 5.25 0 00-1.501-3.66A5.124 5.124 0 007.5 8.506V6.01a2.25 2.25 0 012.25-2.25h2.75v-3H9.759A4.938 4.938 0 004.5 6.02v2.49a2.25 2.25 0 01-2.25 2.25H1z" fill="#fff" stroke="#fff" stroke-width=".5"/><path d="M71 35.761h-.25v3h10.5v-3H71z" fill="#10CFC9" stroke="#10CFC9" stroke-width=".5"/><path d="M71 28.261h-.25v3h10.5v-3H71z" fill="#fff" stroke="#fff" stroke-width=".5"/><path d="M61 50.761h-.25v3h10.5v-3H61zm-15 7.5h-.25v3h10.5v-3H46zm10-15h-.25v3h10.5v-3H56zm-33.75 7.5H22v3h29.25v-3h-29zm0 7.5H22v3h14.25v-3h-14z" fill="#10CFC9" stroke="#10CFC9" stroke-width=".5"/><path d="M22.25 20.761H22v3h10.5v-3H22.25z" fill="#fff" stroke="#fff" stroke-width=".5"/></svg>