<svg width="82" height="82" viewBox="0 0 82 82" fill="none" xmlns="http://www.w3.org/2000/svg"><path d="M81.177 79.414l.176-.177-.176-.176-23.974-23.986A21.5 21.5 0 0028.9 23.25H.75v3h24.652a21.277 21.277 0 00-3.3 4.5H.75v3h20.03A21.5 21.5 0 0041 62.5h0a21.375 21.375 0 0014.077-5.294l23.984 23.97.176.177.177-.176 1.763-1.763zM22.5 41a18.5 18.5 0 1137 0 18.5 18.5 0 01-37 0zM1 15.75H.75v3h28v-3H1zm0-7.5H.75v3h40.5v-3H1z" fill="#fff" stroke="#fff" stroke-width=".5"/><path d="M28.5 35.75h-.25v3h10.5v-3H28.5zm0 7.5h-.25v3h10.5v-3H28.5zm7.5-15h-.25v3h10.5v-3H36z" fill="#10CFC9" stroke="#10CFC9" stroke-width=".5"/><path d="M1 38.25H.75v3H15v-3H1zM1 .75H.75v3h10.5v-3H1z" fill="#fff" stroke="#fff" stroke-width=".5"/></svg>