<svg width="82" height="82" viewBox="0 0 82 82" fill="none" xmlns="http://www.w3.org/2000/svg"><path d="M41 22.5a6.5 6.5 0 100-13 6.5 6.5 0 000 13zm0-10a3.5 3.5 0 110 7 3.5 3.5 0 010-7zm7.25 22.25V35h3v-4A5.25 5.25 0 0046 25.75H36A5.25 5.25 0 0030.75 31v4h3v-4A2.25 2.25 0 0136 28.75h10A2.25 2.25 0 0148.25 31v3.75z" fill="#fff" stroke="#fff" stroke-width=".5"/><path d="M26 50a6.5 6.5 0 100-13 6.5 6.5 0 000 13zm0-10a3.5 3.5 0 110 7 3.5 3.5 0 010-7zM15.75 62.25v.25h3v-4A2.25 2.25 0 0121 56.25h10a2.25 2.25 0 012.25 2.25v4h3v-4A5.25 5.25 0 0031 53.25H21a5.25 5.25 0 00-5.25 5.25v3.75z" fill="#10CFC9" stroke="#10CFC9" stroke-width=".5"/><path d="M56 50a6.5 6.5 0 100-13 6.5 6.5 0 000 13zm0-10a3.5 3.5 0 110 7 3.5 3.5 0 010-7zM45.75 62.25v.25h3v-4A2.25 2.25 0 0151 56.25h10a2.25 2.25 0 012.25 2.25v4h3v-4A5.25 5.25 0 0061 53.25H51a5.25 5.25 0 00-5.25 5.25v3.75z" fill="#fff" stroke="#fff" stroke-width=".5"/><path d="M69.461 12.539A40.25 40.25 0 0041 .75h-.25v0a40.25 40.25 0 1028.711 11.79zM41 78.25a37.25 37.25 0 110-74.5 37.25 37.25 0 010 74.5z" fill="#fff" stroke="#fff" stroke-width=".5"/></svg>