<svg width="82" height="82" viewBox="0 0 82 82" fill="none" xmlns="http://www.w3.org/2000/svg"><path d="M76 33.25h-3.5v-11A5.25 5.25 0 0067.25 17h-3.5V6A5.25 5.25 0 0058.5.75H6A5.25 5.25 0 00.75 6v37.5A5.25 5.25 0 006 48.75h3.5v11A5.25 5.25 0 0014.75 65h3.5v11a5.25 5.25 0 005.25 5.25H76A5.25 5.25 0 0081.25 76V38.5A5.25 5.25 0 0076 33.25zm2.25 5.25v2.25H72.5v-4.5H76a2.25 2.25 0 012.25 2.25zm-11-18.5a2.25 2.25 0 012.25 2.25v2.25h-5.75V20h3.5zM6 3.75h52.5A2.25 2.25 0 0160.75 6v2.25h-57V6A2.25 2.25 0 016 3.75zM3.75 43.5V11.25h57V43.5a2.25 2.25 0 01-2.25 2.25H6a2.25 2.25 0 01-2.25-2.25zm8.75 16.25v-11h46a5.25 5.25 0 005.25-5.25v-16h5.75v32.25A2.25 2.25 0 0167.25 62h-52.5a2.25 2.25 0 01-2.25-2.25zM78.25 76A2.25 2.25 0 0176 78.25H23.5A2.25 2.25 0 0121.25 76V65h46a5.25 5.25 0 005.25-5.25v-16h5.75V76z" fill="#fff" stroke="#fff" stroke-width=".5"/><path d="M11 49v10a5 5 0 005 5h50a5 5 0 005-5V23.288a5 5 0 00-5-5h-2" stroke="#10CFC9" stroke-width="4"/><path d="M71 26h-7" stroke="#10CFC9" stroke-width="3.5"/></svg>