<?xml version="1.0" encoding="UTF-8"?>
<svg width="21px" height="20px" viewBox="0 0 21 20" version="1.1" xmlns="http://www.w3.org/2000/svg" xmlns:xlink="http://www.w3.org/1999/xlink">
    <!-- Generator: Sketch 54.1 (76490) - https://sketchapp.com -->
    <title>Group 3</title>
    <desc>Created with Sketch.</desc>
    <defs>
        <polygon id="path-1" points="0 -3.55271368e-15 20.7320909 -3.55271368e-15 20.7320909 19.859125 0 19.859125"></polygon>
    </defs>
    <g id="Symbols" stroke="none" stroke-width="1" fill="none" fill-rule="evenodd">
        <g id="GitHub" transform="translate(-533.000000, -20.000000)">
            <g id="Group-3" transform="translate(533.000000, 20.000000)">
                <mask id="mask-2" fill="white">
                    <use xlink:href="#path-1"></use>
                </mask>
                <g id="Clip-2"></g>
                <path d="M10.3654727,-3.55271368e-15 C4.64138182,-3.55271368e-15 -0.000254545455,4.558125 -0.000254545455,10.181875 C-0.000254545455,14.679375 2.96965455,18.495 7.08947273,19.841875 C7.60810909,19.935 7.79710909,19.620625 7.79710909,19.350625 C7.79710909,19.109375 7.7882,18.46875 7.78310909,17.619375 C4.89974545,18.234375 4.29138182,16.254375 4.29138182,16.254375 C3.81983636,15.078125 3.1402,14.765625 3.1402,14.765625 C2.19901818,14.13375 3.21147273,14.14625 3.21147273,14.14625 C4.25192727,14.21875 4.7992,15.195625 4.7992,15.195625 C5.72383636,16.75125 7.22501818,16.301875 7.8162,16.041875 C7.91038182,15.38375 8.17765455,14.935 8.4742,14.680625 C6.17247273,14.42375 3.75238182,13.55 3.75238182,9.64875 C3.75238182,8.5375 4.15647273,7.62875 4.81956364,6.916875 C4.71265455,6.659375 4.35692727,5.624375 4.92074545,4.2225 C4.92074545,4.2225 5.79129091,3.94875 7.77165455,5.26625 C8.59829091,5.04 9.48538182,4.9275 10.3667455,4.923125 C11.2468364,4.9275 12.1339273,5.04 12.9618364,5.26625 C14.9409273,3.94875 15.8095636,4.2225 15.8095636,4.2225 C16.3752909,5.624375 16.0195636,6.659375 15.9126545,6.916875 C16.5770182,7.62875 16.9785636,8.5375 16.9785636,9.64875 C16.9785636,13.56 14.5546545,14.420625 12.2452909,14.6725 C12.6175636,14.986875 12.9491091,15.608125 12.9491091,16.558125 C12.9491091,17.91875 12.9363818,19.016875 12.9363818,19.350625 C12.9363818,19.623125 13.1228364,19.94 13.6491091,19.840625 C17.7644727,18.49125 20.7324727,14.678125 20.7324727,10.181875 C20.7324727,4.558125 16.0908364,-3.55271368e-15 10.3654727,-3.55271368e-15" id="Fill-1" fill="#181717" mask="url(#mask-2)"></path>
            </g>
        </g>
    </g>
</svg>