<?xml version="1.0" encoding="UTF-8"?>
<svg width="17px" height="14px" viewBox="0 0 17 14" version="1.1" xmlns="http://www.w3.org/2000/svg" xmlns:xlink="http://www.w3.org/1999/xlink">
    <!-- Generator: Sketch 54.1 (76490) - https://sketchapp.com -->
    <title>logo</title>
    <desc>Created with Sketch.</desc>
    <g id="Website-project" stroke="none" stroke-width="1" fill="none" fill-rule="evenodd">
        <g id="Desktop-HD_new_version" transform="translate(-667.000000, -7343.000000)" fill="#1DA1F2">
            <g id="Twitter-feed" transform="translate(135.000000, 7321.000000)">
                <g id="twitter-feed">
                    <g id="top" transform="translate(21.000000, 19.000000)">
                        <path d="M528,4.6625 C527.518187,5.37708691 526.935706,5.98593498 526.252538,6.4890625 C526.259729,6.59114634 526.263325,6.74426981 526.263325,6.9484375 C526.263325,7.89635891 526.126693,8.8424432 525.853426,9.78671875 C525.580159,10.7309943 525.164872,11.6369748 524.607551,12.5046875 C524.05023,13.3724002 523.386848,14.1398404 522.617386,14.8070313 C521.847923,15.4742221 520.920268,16.0065084 519.834391,16.4039062 C518.748514,16.8013041 517.587147,17 516.350254,17 C514.401428,17 512.618028,16.4713595 511,15.4140625 C511.251693,15.4432293 511.532147,15.4578125 511.841371,15.4578125 C513.459399,15.4578125 514.90122,14.9546925 516.166878,13.9484375 C515.411798,13.9338541 514.735832,13.6987002 514.138959,13.2429688 C513.542087,12.7872373 513.132192,12.2057327 512.909264,11.4984375 C513.146575,11.534896 513.365904,11.553125 513.567259,11.553125 C513.876482,11.553125 514.182105,11.5130212 514.484137,11.4328125 C513.678718,11.2651033 513.011741,10.858597 512.483185,10.2132813 C511.954629,9.56796552 511.690355,8.81875427 511.690355,7.965625 L511.690355,7.921875 C512.179359,8.19895972 512.704312,8.34843739 513.265228,8.3703125 C512.790607,8.04947756 512.413072,7.63021092 512.132614,7.1125 C511.852156,6.59478908 511.711929,6.03333636 511.711929,5.428125 C511.711929,4.78645512 511.870134,4.19219023 512.186548,3.6453125 C513.056688,4.73177627 514.115582,5.60129882 515.363261,6.25390625 C516.610941,6.90651368 517.946693,7.26927047 519.370558,7.3421875 C519.313028,7.06510278 519.284264,6.79531381 519.284264,6.5328125 C519.284264,5.55572428 519.624045,4.7226597 520.303617,4.03359375 C520.983189,3.3445278 521.804775,3 522.768401,3 C523.775174,3 524.623728,3.37187128 525.314086,4.115625 C526.097931,3.96249923 526.835022,3.67812708 527.525381,3.2625 C527.259305,4.10104586 526.748735,4.7499977 525.993655,5.209375 C526.66244,5.13645797 527.331215,4.95416813 528,4.6625 Z" id="logo"></path>
                    </g>
                </g>
            </g>
        </g>
    </g>
</svg>