<svg width="40" height="30" viewBox="0 0 40 30" fill="none" xmlns="http://www.w3.org/2000/svg"><g clip-path="url(#clip0_323_49)"><path opacity=".8" fill-rule="evenodd" clip-rule="evenodd" d="M.65 14.38c-.9.951-.85 2.852.05 3.778l10.974 11.131c.925.951 2.775.976 3.725.076l1.75-1.676 3.774-3.628 18.349-17.51c.95-.9.975-2.752.05-3.677L37.197.697c-.925-.925-2.775-.925-3.7-.025L15.55 18.608c-.925.926-2.775.9-3.675-.025L5.9 12.554c-.9-.95-2.7-.925-3.6.05L.65 14.381v-.001z" fill="#1226AA"/></g><defs><clipPath id="clip0_323_49"><path fill="#fff" d="M0 0h40v30H0z"/></clipPath></defs></svg>