<svg width="475" height="370" viewBox="0 0 475 370" fill="none" xmlns="http://www.w3.org/2000/svg"><path d="M383.898 319.472l-47.059 27.338-71.743-41.403 47.062-27.338 71.74 41.403z" fill="#fff" stroke="#333" stroke-width="1.189" stroke-miterlimit="10"/><path d="M336.839 346.81l-71.743-41.403-.003 1.714 71.743 41.403 47.058-27.338.004-1.714-47.059 27.338z" fill="#fff" stroke="#333" stroke-width="1.189" stroke-linejoin="round"/><mask id="a" maskUnits="userSpaceOnUse" x="212.537" y="222.81" width="143" height="84" fill="#000"><path fill="#fff" d="M212.537 222.81h143v84h-143z"/><path d="M354.827 224.234l-139.571 81.069-.719-.414 139.571-81.079"/></mask><path d="M354.827 224.234l-139.571 81.069-.719-.414 139.571-81.079" fill="#231F20"/><path d="M215.256 305.303l-.297.515.298.172.298-.173-.299-.514zm-.719-.414l-.299-.515-.888.516.89.514.297-.515zm139.991-81.169l-139.571 81.069.598 1.028 139.571-81.068-.598-1.029zm-138.975 81.068l-.719-.415-.594 1.031.719.414.594-1.03zm-.717.615l139.571-81.079-.597-1.028-139.572 81.078.598 1.029z" fill="#231F20" mask="url(#a)"/><path d="M224.914 312.354v10.723c-.038.433-.19.849-.442 1.203-.254.358-.601.64-1.002.816l-24.07 13.988a7.747 7.747 0 01-3.486.832 7.732 7.732 0 01-3.45-.832l-24.247-13.988a2.43 2.43 0 01-1.454-2.019v-10.693a2.468 2.468 0 001.458 2.018l24.243 13.975a7.588 7.588 0 003.483.842 7.62 7.62 0 003.487-.842l24.069-13.975c.403-.182.749-.47 1.003-.832.241-.362.381-.782.408-1.216v0z" fill="#fff" stroke="#333" stroke-width="1.189" stroke-linejoin="round"/><path d="M224.914 312.354a2.493 2.493 0 01-.448 1.2 2.475 2.475 0 01-1.003.818l-24.069 13.975a7.6 7.6 0 01-6.93.014l-24.247-13.975a2.485 2.485 0 01-1.457-2.019c.036-.432.187-.848.438-1.203.253-.359.6-.642 1.003-.818l24.069-13.975a7.657 7.657 0 013.486-.842 7.658 7.658 0 013.484.842l24.246 13.975c.401.177.747.457 1.003.812.245.354.391.767.425 1.196v0z" fill="#fff" stroke="#333" stroke-width="1.189" stroke-linejoin="round"/><path d="M198.474 322.783c0-.631-.429-1.091-.894-1.361-.476-.277-1.095-.428-1.745-.43-.653-.002-1.273.149-1.751.425-.463.267-.898.725-.901 1.353-.003.632.432 1.092.893 1.361.477.278 1.097.431 1.749.433.652.002 1.273-.149 1.75-.425.463-.267.899-.725.899-1.356z" fill="#10CFC9" stroke="#333" stroke-width="1.189" stroke-linejoin="round"/><path d="M89.284 203.383v1.718a1.34 1.34 0 00-.245-.629 1.388 1.388 0 00-.524-.424 4.083 4.083 0 00-1.849-.445 4.096 4.096 0 00-1.845.448 1.307 1.307 0 00-.77 1.053v-1.721a1.35 1.35 0 01.245-.625c.13-.19.312-.338.525-.424a4.015 4.015 0 011.848-.445 4.014 4.014 0 011.869.485c.208.094.39.24.525.424.119.175.194.375.22.585v0zm42.689 24.558v1.707a1.292 1.292 0 00-.241-.625 1.407 1.407 0 00-.525-.424 4.017 4.017 0 00-1.855-.451 4.005 4.005 0 00-1.852.451c-.207.094-.385.24-.518.424a1.208 1.208 0 00-.241.625v-1.717c.02-.227.103-.444.241-.625.13-.187.309-.334.518-.425a4.042 4.042 0 013.707 0c.209.095.389.241.525.425.138.185.221.405.241.635zM8.82 250.016v1.717a1.411 1.411 0 00-.245-.625 1.278 1.278 0 00-.535-.424 4.043 4.043 0 00-3.697 0c-.208.094-.39.24-.525.424-.13.185-.21.4-.23.625v-1.717c.02-.225.1-.441.23-.625.13-.19.312-.337.525-.425a4.043 4.043 0 013.697 0c.214.091.399.237.535.425.13.185.214.4.244.625v0zm181.334 11.441v1.741a1.3 1.3 0 00-.234-.638 1.407 1.407 0 00-.525-.424 4.058 4.058 0 00-3.707 0c-.203.098-.38.244-.515.424-.131.19-.215.409-.244.638v-1.727c.03-.225.114-.439.244-.625.131-.185.308-.331.515-.425a4.017 4.017 0 011.852-.451 4.02 4.02 0 011.855.451c.207.096.388.242.525.425.128.18.209.391.234.611zM109.689 308.1v1.718a1.238 1.238 0 00-.244-.625 1.17 1.17 0 00-.525-.425 4.038 4.038 0 00-1.848-.444 4.042 4.042 0 00-1.849.444 1.187 1.187 0 00-.525.425 1.277 1.277 0 00-.24.625V308.1c.02-.226.103-.443.24-.625.132-.186.309-.336.515-.434a4.217 4.217 0 011.849-.435 4.119 4.119 0 011.848.435c.21.097.393.242.535.424.136.187.221.406.244.635v0z" fill="#1226AA" stroke="#fff" stroke-width=".595" stroke-linejoin="round"/><path d="M106.921 311.011v1.714L1 251.743v-1.717l105.921 60.985z" fill="#1226AA" stroke="#fff" stroke-width=".595" stroke-linejoin="round"/><path d="M192.708 261.287v1.671l-85.797 49.724v-1.698l85.797-49.697z" fill="#1226AA" stroke="#fff" stroke-width=".595" stroke-linejoin="round"/><path d="M86.786 200.302l105.912 60.985-85.787 49.724L1.01 250.026l85.776-49.724zm40.704 28.701a4.03 4.03 0 001.849.445 4.042 4.042 0 001.848-.445 1.112 1.112 0 00.763-1.072 1.107 1.107 0 00-.763-1.073 4.042 4.042 0 00-3.697 0 1.107 1.107 0 00-.766 1.073 1.107 1.107 0 00.766 1.072v0zM4.333 251.075a4.16 4.16 0 001.855.434 4.146 4.146 0 001.852-.434c1.003-.595 1.003-1.544 0-2.109a4.033 4.033 0 00-3.707 0 1.113 1.113 0 00-.763 1.073c0 .234.074.462.211.652.14.182.332.316.552.384v0zm100.88 58.078a4.092 4.092 0 001.848.444 4.096 4.096 0 001.849-.444 1.11 1.11 0 00.765-1.056 1.113 1.113 0 00-.765-1.073 4.106 4.106 0 00-1.849-.434 4.215 4.215 0 00-1.848.434c-1.003.618-1.003 1.561 0 2.129zM84.821 204.402a4.006 4.006 0 001.852.451 4.02 4.02 0 001.855-.451 1.11 1.11 0 00.538-.411 1.12 1.12 0 00-.538-1.698 4.02 4.02 0 00-1.855-.451c-.645 0-1.28.154-1.852.451a1.106 1.106 0 00-.555.401 1.138 1.138 0 00-.208.652c-.003.239.07.473.208.668.144.187.344.323.571.388h-.016zm100.88 58.075a4.02 4.02 0 001.848.454 4.02 4.02 0 001.849-.454c.222-.075.416-.216.555-.405a1.126 1.126 0 00-.555-1.721 4.132 4.132 0 00-1.849-.434 4.13 4.13 0 00-1.848.434c-1.003.635-1.003 1.594 0 2.149v-.023z" fill="#1226AA" stroke="#fff" stroke-width=".595" stroke-linejoin="round"/><path d="M162.431 276.251c-.285-.145-.6-.22-.92-.221a2.054 2.054 0 00-.919.221.482.482 0 00-.271.204.55.55 0 00-.1.334.62.62 0 00.1.334c.07.09.164.16.271.2a1.999 1.999 0 001.839 0 .613.613 0 00.274-.2.62.62 0 00.1-.334.575.575 0 00-.1-.334.48.48 0 00-.274-.204v0zm10.326-7.058a.488.488 0 00-.264.211.5.5 0 00-.1.314c-.006.12.03.237.1.334a.534.534 0 00.264.211 2.094 2.094 0 001.839 0 .557.557 0 00.27-.211.51.51 0 00.104-.334.556.556 0 00-.374-.535 2.009 2.009 0 00-1.829 0m-14.224 5.909a.62.62 0 00-.274.2.64.64 0 00-.1.334.575.575 0 00.374.548c.285.145.6.22.919.221.32-.001.635-.076.92-.221a.578.578 0 00.374-.548.649.649 0 00-.1-.334.626.626 0 00-.274-.2 1.999 1.999 0 00-1.839 0m11.971-5.898a2.003 2.003 0 00-1.829 0c-.535.29-.535.768 0 1.059a2.079 2.079 0 001.829 0 .567.567 0 00.374-.545.578.578 0 00-.1-.334.62.62 0 00-.274-.2m-6.071 3.542a2.027 2.027 0 00-1.848 0 .552.552 0 00-.324.508.558.558 0 00.324.504c.285.145.6.22.919.221.32.003.636-.073.919-.221a.595.595 0 00.271-.204.554.554 0 00.104-.334.556.556 0 00-.375-.538m-2.022 1.24a2.081 2.081 0 00-.92-.211 2.008 2.008 0 00-.919.211.541.541 0 00-.371.534.493.493 0 00.1.335.514.514 0 00.271.21c.284.144.598.22.916.221.317-.001.63-.076.913-.221a.53.53 0 00.264-.21.539.539 0 00.11-.335.573.573 0 00-.374-.534m10.142-5.872a2.034 2.034 0 00-1.828 0c-.535.284-.535.759 0 1.003.283.144.597.22.916.22.317 0 .63-.075.912-.22a.585.585 0 00.274-.201.53.53 0 00.101-.334.502.502 0 00-.101-.334.593.593 0 00-.274-.204m-6.081 3.602a2.01 2.01 0 00-.919-.223c-.32.004-.634.08-.92.223a.561.561 0 00-.364.539.624.624 0 00.104.334.647.647 0 00.26.2c.284.149.6.226.92.224.32.004.636-.073.919-.224a.55.55 0 00.274-.2.58.58 0 00.1-.334.528.528 0 00-.1-.335.55.55 0 00-.274-.2" stroke="#1226AA" stroke-width=".595" stroke-linejoin="round"/><path d="M128.948 262.216l-21.993 12.741-22.803-13.126 21.994-12.745 22.802 13.13zm0 0v1.768l-21.993 12.741v-1.717l21.993-12.792zm-22.007 12.742v1.717l-22.789-13.126v-1.717l22.789 13.126z" fill="#10CFC9" stroke="#fff" stroke-width=".595" stroke-linejoin="round"/><path d="M78.666 250.41l-8.628 5.049-8.952-5.149 8.618-5.013 8.963 5.113z" fill="#1226AA" stroke="#fff" stroke-width=".595" stroke-linejoin="round"/><path d="M78.667 250.41v1.717l-8.628 5.056v-1.717l8.628-5.056zm-8.629 4.999v1.717l-8.952-5.152v-1.715l8.952 5.15zm24.437-4.554l-6.06 3.505-7.963-4.575 6.064-3.505 7.96 4.575z" fill="#1226AA" stroke="#fff" stroke-width=".595" stroke-linejoin="round"/><path d="M94.475 250.854v1.718l-6.06 3.512v-1.694l6.06-3.536z" fill="#1226AA" stroke="#fff" stroke-width=".595" stroke-linejoin="round"/><path d="M88.415 254.39v1.724l-7.963-4.611v-1.714l7.963 4.601zm10.272 22.79l-6.06 3.515-8.023-4.594 6.064-3.506 8.02 4.585z" fill="#1226AA" stroke="#fff" stroke-width=".595" stroke-linejoin="round"/><path d="M98.688 277.18v1.724l-6.061 3.505v-1.717l6.06-3.512zm-6.061 3.515v1.718l-8.023-4.605v-1.707l8.023 4.594zm45.842-5.604l-6.807 3.947-7.06-4.04 6.81-3.947 7.057 4.04z" fill="#1226AA" stroke="#fff" stroke-width=".595" stroke-linejoin="round"/><path d="M138.468 275.091v1.725l-6.806 3.939v-1.717l6.806-3.947z" fill="#1226AA" stroke="#fff" stroke-width=".595" stroke-linejoin="round"/><path d="M131.662 279.048v1.717l-7.06-4.04v-1.717l7.06 4.04zM67.17 233.919l-5.205 3.031-5.241-3.031 5.201-3.027 5.245 3.027z" fill="#1226AA" stroke="#fff" stroke-width=".595" stroke-linejoin="round"/><path d="M67.17 233.919v2.576l-5.215 3.028v-2.573l5.215-3.031z" fill="#1226AA" stroke="#fff" stroke-width=".595" stroke-linejoin="round"/><path d="M61.965 236.94v2.573l-5.241-3.028v-2.576l5.241 3.031zm39.49 8.882l-4.266 2.446-7.354-4.23 4.272-2.473 7.348 4.257zm0 0v1.717l-4.272 2.473v-1.727l4.272-2.463z" fill="#1226AA" stroke="#fff" stroke-width=".595" stroke-linejoin="round"/><path d="M97.19 248.278v1.728l-7.355-4.241v-1.718l7.354 4.231zM7.9 250.046l15.273-8.856 1.672 1.003-15.274 8.845-1.672-.992zm9.093 5.233l15.274-8.859 1.604.929-15.264 8.859-1.614-.929zm1.614.929l15.264-8.859v3.82l-15.274 8.855.01-3.816z" fill="#1226AA" stroke="#fff" stroke-width=".595" stroke-linejoin="round"/><path d="M32.791 244.392a3.753 3.753 0 01-.524 2.005l-15.275 8.859a3.59 3.59 0 00.525-2.005 9.303 9.303 0 00-4.222-7.302 3.086 3.086 0 00-1.477-.555 3.044 3.044 0 00-1.555.264l15.274-8.845a3.044 3.044 0 011.555-.264 3.064 3.064 0 011.477.555 9.326 9.326 0 014.222 7.288v0z" fill="#1226AA" stroke="#fff" stroke-width=".595" stroke-linejoin="round"/><path d="M13.282 245.946a9.324 9.324 0 012.982 3.148 9.29 9.29 0 011.24 4.153 3.586 3.586 0 01-.525 2.005l1.585.929v3.806l-10.698-6.118v-3.84l1.645.959a7.905 7.905 0 01-.525-2.633c.064-2.67 1.956-3.753 4.296-2.409z" fill="#1226AA" stroke="#fff" stroke-width=".595" stroke-linejoin="round"/><path d="M19.634 253.237l-3.698 2.162c-.432.2-.91.282-1.384.237a2.667 2.667 0 01-1.31-.501 8.238 8.238 0 01-2.675-2.804 8.247 8.247 0 01-1.103-3.719 2.627 2.627 0 01.22-1.357c.195-.424.5-.789.884-1.056l3.707-2.172a2.677 2.677 0 00-1.113 2.433 8.305 8.305 0 001.123 3.706 8.154 8.154 0 002.674 2.807c.385.279.837.451 1.31.498.468.043.938-.038 1.365-.234z" fill="#1226AA" stroke="#fff" stroke-width=".595" stroke-linejoin="round"/><path d="M12.77 250.086l3.698-2.159a.441.441 0 01.21 0c.073.01.142.037.201.08l-3.697 2.159a.498.498 0 00-.2-.074.574.574 0 00-.211-.006v0z" fill="#1226AA" stroke="#fff" stroke-width=".595" stroke-linejoin="round"/><path d="M17.354 249.341l-3.697 2.158a.383.383 0 00.133-.16.559.559 0 000-.211 1.305 1.305 0 00-.17-.578 1.301 1.301 0 00-.418-.434l3.7-2.149c.17.107.31.252.412.425.103.175.162.372.174.574.02.069.02.142 0 .211a.462.462 0 01-.134.164z" fill="#1226AA" stroke="#fff" stroke-width=".595" stroke-linejoin="round"/><path d="M7.89 241.575l10.697 6.158v12.281L7.89 253.855v-12.28zm5.325 13.56c2.11 1.203 3.798.234 3.798-2.159a8.282 8.282 0 00-3.778-6.516c-2.123-1.209-3.8-.24-3.8 2.152a8.269 8.269 0 003.78 6.523v0z" fill="#1226AA" stroke="#fff" stroke-width=".595" stroke-linejoin="round"/><path d="M13.215 255.135c2.11 1.203 3.798.234 3.798-2.159a8.282 8.282 0 00-3.778-6.516c-2.123-1.209-3.8-.24-3.8 2.152a8.28 8.28 0 003.778 6.523h.002zm-5.325-13.56l10.697 6.158v12.281L7.89 253.855v-12.28z" fill="#1226AA"/><path d="M13.225 250.116c.17.111.311.26.415.434.1.177.16.375.17.578 0 .371-.264.525-.585.335a1.266 1.266 0 01-.414-.435 1.241 1.241 0 01-.174-.575c0-.367.264-.518.588-.337zm5.372-2.383l3.728-2.149v12.268l-3.718 2.162-.01-12.281zM7.89 241.575l3.727-2.162 10.697 6.172-3.727 2.148-10.697-6.158zm146.835 36.327v2.573a.797.797 0 01-.123.314.647.647 0 01-.261.211l-.669.384a2.01 2.01 0 01-1.878 0l-.669-.384a.733.733 0 01-.264-.211.722.722 0 01-.131-.314v-2.573a.67.67 0 00.405.548l.669.384c.294.145.618.22.946.221a2.15 2.15 0 00.942-.221l.669-.384a.762.762 0 00.261-.214.685.685 0 00.103-.334v0z" fill="#1226AA" stroke="#fff" stroke-width=".595" stroke-linejoin="round"/><path d="M154.331 277.354a.563.563 0 01.28.21.543.543 0 01.104.334c0 .12-.036.236-.104.334a.629.629 0 01-.28.214l-.669.385a2.154 2.154 0 01-.943.22 2.17 2.17 0 01-.946-.22l-.668-.395c-.525-.304-.525-.788 0-1.079l.668-.394a2.088 2.088 0 011.879 0l.679.391z" fill="#1226AA" stroke="#fff" stroke-width=".595" stroke-linejoin="round"/><path d="M153.321 273.314v4.301a.66.66 0 01-.053.14.261.261 0 01-.121.094.944.944 0 01-.424.1.904.904 0 01-.415-.1.249.249 0 01-.12-.104.239.239 0 010-.14v-4.291a.33.33 0 000 .14.507.507 0 00.12.091.898.898 0 00.839 0 .22.22 0 00.11-.091.331.331 0 00.064-.14v0z" fill="#1226AA" stroke="#fff" stroke-width=".595" stroke-linejoin="round"/><path d="M153.188 273.07a.318.318 0 01.133.09c.032.045.05.098.051.154a.27.27 0 01-.051.15.298.298 0 01-.133.09.937.937 0 01-.415.104 1.035 1.035 0 01-.424-.1.309.309 0 01-.134-.091.303.303 0 010-.304.334.334 0 01.134-.09c.128-.062.268-.096.411-.1a.922.922 0 01.428.097v0zm-1.01 6.058v2.577a.763.763 0 01-.12.314.674.674 0 01-.265.22l-.668.385a2.112 2.112 0 01-.946.22 2.113 2.113 0 01-.943-.22l-.668-.385a.751.751 0 01-.261-.21.647.647 0 01-.124-.334v-2.577a.663.663 0 00.385.528l.668.381c.29.154.614.234.943.234.33.001.655-.079.946-.234l.668-.381a.609.609 0 00.255-.214.718.718 0 00.13-.304z" fill="#1226AA" stroke="#fff" stroke-width=".595" stroke-linejoin="round"/><path d="M151.804 278.604a.58.58 0 01.284.214.549.549 0 01.11.334.573.573 0 01-.11.334.604.604 0 01-.284.214l-.669.381a2.116 2.116 0 01-.946.224 2.117 2.117 0 01-.943-.224l-.668-.381a.612.612 0 01-.285-.211.61.61 0 01-.106-.334.594.594 0 01.106-.334.612.612 0 01.285-.211l.668-.384a2.034 2.034 0 011.879 0l.679.378z" fill="#1226AA" stroke="#fff" stroke-width=".595" stroke-linejoin="round"/><path d="M150.774 274.577v4.29a.26.26 0 010 .141.275.275 0 01-.121.1.92.92 0 01-.421.104.927.927 0 01-.418-.104.273.273 0 01-.12-.1.201.201 0 010-.141v-4.307a.199.199 0 000 .14.225.225 0 00.12.101.862.862 0 00.425.1.853.853 0 00.414-.1.273.273 0 00.121-.091.25.25 0 000-.133v0z" fill="#1226AA" stroke="#fff" stroke-width=".595" stroke-linejoin="round"/><path d="M150.603 274.333a.196.196 0 01.07.033.17.17 0 01.05.057.252.252 0 010 .144.273.273 0 010 .15.256.256 0 01-.12.09.848.848 0 01-.424.101.858.858 0 01-.415-.101.27.27 0 01-.13-.09.227.227 0 010-.15.21.21 0 010-.144.156.156 0 01.057-.057.187.187 0 01.073-.033.846.846 0 01.415-.1.847.847 0 01.424.1v0zm-.959 6.068v2.587a.592.592 0 01-.123.311.77.77 0 01-.261.213l-.669.385a2.123 2.123 0 01-1.879 0l-.668-.385a.75.75 0 01-.264-.213.703.703 0 01-.131-.311v-2.587a.64.64 0 00.131.335.612.612 0 00.264.21l.668.384c.29.153.613.232.94.231.327.001.65-.078.939-.231l.669-.384a.616.616 0 00.17-.12.433.433 0 00.121-.131.483.483 0 00.093-.294v0z" fill="#1226AA" stroke="#fff" stroke-width=".595" stroke-linejoin="round"/><path d="M149.644 280.401a.483.483 0 01-.093.294l-.121.131a.616.616 0 01-.17.12l-.669.384c-.29.154-.614.235-.943.234a2.005 2.005 0 01-.946-.234l-.668-.384a.741.741 0 01-.264-.21.643.643 0 01-.121-.335.583.583 0 01.121-.31.588.588 0 01.264-.214l.668-.384c.111-.064.231-.111.355-.141.383-.11.79-.11 1.173 0 .124.029.242.076.351.141l.669.384a.58.58 0 01.261.214c.074.088.12.196.133.31v0z" fill="#1226AA" stroke="#fff" stroke-width=".595" stroke-linejoin="round"/><path d="M148.23 275.827v4.314a.256.256 0 010 .14.365.365 0 01-.114.1.963.963 0 01-.425.101 1.005 1.005 0 01-.424-.101.32.32 0 01-.11-.1.381.381 0 01-.061-.14v-4.304a.394.394 0 000 .153c.032.04.073.071.121.091a.894.894 0 00.424.1.904.904 0 00.415-.1.277.277 0 00.12-.091.26.26 0 00.054-.163v0z" fill="#1226AA" stroke="#fff" stroke-width=".595" stroke-linejoin="round"/><path d="M148.056 275.596c.05.02.095.051.131.09a.31.31 0 01.043.151.315.315 0 01-.043.153.46.46 0 01-.131.091.922.922 0 01-.839 0 .252.252 0 01-.12-.101.267.267 0 010-.143.297.297 0 010-.151.268.268 0 01.12-.09.862.862 0 01.425-.1.99.99 0 01.414.1v0zM82.715 259.78v2.586a.58.58 0 01-.12.314.796.796 0 01-.261.211l-.669.384a2.112 2.112 0 01-.943.221 2.112 2.112 0 01-.946-.221l-.668-.384a.62.62 0 01-.271-.211.641.641 0 01-.134-.314v-2.586c0 .079.02.156.06.224a.65.65 0 00.09.14c.072.073.154.135.245.184l.668.391c.293.144.614.22.94.224.326-.002.647-.078.939-.224l.669-.381a.67.67 0 00.27-.224.638.638 0 00.13-.334z" fill="#1226AA" stroke="#fff" stroke-width=".595" stroke-linejoin="round"/><path d="M82.715 259.78a.624.624 0 01-.12.334.802.802 0 01-.261.214l-.669.381a2.172 2.172 0 01-.939.224c-.326 0-.648-.077-.94-.224l-.668-.391a.977.977 0 01-.244-.184.658.658 0 01-.1-.14.52.52 0 01-.05-.224.587.587 0 01.12-.311c.07-.09.16-.163.264-.214l.669-.384c.11-.063.23-.111.354-.14a2.15 2.15 0 011.18 0c.117.033.229.081.334.14l.669.384a.71.71 0 01.27.224.67.67 0 01.131.311v0z" fill="#1226AA" stroke="#fff" stroke-width=".595" stroke-linejoin="round"/><path d="M81.31 255.229v4.294a.242.242 0 01-.06.14.218.218 0 01-.12.1.935.935 0 01-.414.104 1.047 1.047 0 01-.415-.104.283.283 0 01-.12-.1.219.219 0 01-.05-.14v-4.304c.003.055.02.108.05.153a.27.27 0 00.12.091c.128.068.27.102.415.1a.859.859 0 00.424-.1.27.27 0 00.12-.091.348.348 0 00.05-.143v0z" fill="#1226AA" stroke="#fff" stroke-width=".595" stroke-linejoin="round"/><path d="M81.144 254.985c.05.018.096.049.13.09a.25.25 0 01.05.154.219.219 0 01-.05.14.155.155 0 01-.057.057.144.144 0 01-.073.033.822.822 0 01-.415.101.86.86 0 01-.424-.101.25.25 0 01-.18-.244.234.234 0 01.05-.15.224.224 0 01.13-.09.992.992 0 01.424-.1 1 1 0 01.415.11v0zm-1.358 5.54c.114.04.213.113.284.211a.56.56 0 01.11.334.6.6 0 01-.11.334.678.678 0 01-.284.211l-.668.384a2.113 2.113 0 01-1.892 0l-.669-.384a.678.678 0 01-.284-.211.601.601 0 01-.11-.334c0-.12.039-.237.11-.334a.593.593 0 01.284-.211l.669-.384c.292-.144.613-.219.939-.221.327.001.65.077.943.221l.678.384z" fill="#1226AA" stroke="#fff" stroke-width=".595" stroke-linejoin="round"/><path d="M80.181 261.063v2.576a.732.732 0 01-.13.311.778.778 0 01-.264.214l-.669.384c-.29.151-.612.23-.94.231a2.062 2.062 0 01-.942-.231l-.669-.384a.778.778 0 01-.264-.214.732.732 0 01-.13-.311v-2.576a.77.77 0 00.13.314.83.83 0 00.264.211l.669.384c.293.146.615.221.943.22.326.001.647-.075.939-.22l.669-.384a.813.813 0 00.264-.211.77.77 0 00.13-.314v0z" fill="#1226AA" stroke="#fff" stroke-width=".595" stroke-linejoin="round"/><path d="M78.767 256.478v4.304a.262.262 0 01-.05.14.397.397 0 01-.124.101.989.989 0 01-.411.09.986.986 0 01-.425-.09.397.397 0 01-.123-.101.262.262 0 01-.05-.14v-4.304a.28.28 0 00.05.144.247.247 0 00.123.1.879.879 0 00.411.1.883.883 0 00.425-.1.249.249 0 00.124-.1.28.28 0 00.05-.144z" fill="#1226AA" stroke="#fff" stroke-width=".595" stroke-linejoin="round"/><path d="M78.593 256.238a.279.279 0 01.124.09c.032.043.05.096.05.15a.25.25 0 01-.05.154.305.305 0 01-.124.09.884.884 0 01-.425.101.879.879 0 01-.41-.101.323.323 0 01-.134-.09.312.312 0 010-.304.314.314 0 01.133-.09.895.895 0 01.836 0v0zm-.959 6.078v2.587a.563.563 0 01-.12.311.752.752 0 01-.265.213l-.668.381c-.29.15-.613.227-.94.224a2.006 2.006 0 01-.939-.224l-.669-.381a.772.772 0 01-.26-.213.563.563 0 01-.12-.311v-2.587a.614.614 0 00.12.335.72.72 0 00.274.21l.668.384c.294.144.616.22.943.221.328-.001.652-.076.946-.221l.669-.384a.783.783 0 00.264-.21.614.614 0 00.097-.335v0z" fill="#1226AA" stroke="#fff" stroke-width=".595" stroke-linejoin="round"/><path d="M77.239 261.772a.53.53 0 01.284.21.55.55 0 01.11.334.55.55 0 01-.11.335.535.535 0 01-.284.21l-.669.384a2.03 2.03 0 01-.94.221 2.03 2.03 0 01-.938-.221l-.67-.384a.588.588 0 01-.39-.545.604.604 0 01.11-.334.587.587 0 01.28-.2l.67-.385a2.01 2.01 0 011.878 0l.669.375z" fill="#1226AA" stroke="#fff" stroke-width=".595" stroke-linejoin="round"/><path d="M76.22 257.732v4.301c.01.047.01.096 0 .143a.432.432 0 01-.12.101.919.919 0 01-.84 0 .432.432 0 01-.12-.101.373.373 0 01-.05-.143v-4.301c.01.054.03.105.06.15.029.039.067.07.11.091a.86.86 0 00.425.103.856.856 0 00.414-.103.231.231 0 00.12-.091.287.287 0 000-.15z" fill="#1226AA" stroke="#fff" stroke-width=".595" stroke-linejoin="round"/><path d="M76.059 257.487a.26.26 0 01.16.244.249.249 0 01-.043.144.254.254 0 01-.117.097.935.935 0 01-.421.104.921.921 0 01-.418-.104c-.23-.14-.23-.351 0-.485.128-.066.27-.1.414-.1.147.003.292.037.425.1v0zm8.133 36.121l24.243-14.035 4.901 2.83-24.246 14.035-4.898-2.83z" fill="#1226AA" stroke="#fff" stroke-width=".595" stroke-linejoin="round"/><path d="M89.09 296.428l24.246-14.035v2.907L89.09 299.335v-2.907z" fill="#1226AA" stroke="#fff" stroke-width=".595" stroke-linejoin="round"/><path d="M89.09 299.325l24.246-14.035 5.917 3.392-24.246 14.035-5.917-3.392zm-4.877-15.268l24.243-14.035v9.55l-24.243 14.035v-9.55z" fill="#1226AA" stroke="#fff" stroke-width=".595" stroke-linejoin="round"/><path d="M94.99 299.829l24.247-14.035 4.907 2.827-24.243 14.035-4.91-2.827z" fill="#1226AA" stroke="#fff" stroke-width=".595" stroke-linejoin="round"/><path d="M101.425 292.572l24.247-14.035v15.248l-24.247 14.034v-15.247zm-18.7-10.767l24.246-14.035 18.7 10.763-24.246 14.035-18.7-10.763zm0 0l18.69 10.767v15.248l-18.69-10.777v-15.238zM99.9 293.107l-15.712-9.09v9.564l4.907 2.817v2.927l5.9 3.396v-2.911l4.911 2.827-.006-9.53zm-44.985-15.653l10.427-6.058 1.888 3.582-10.436 6.061-1.879-3.585z" fill="#1226AA" stroke="#fff" stroke-width=".595" stroke-linejoin="round"/><path d="M54.915 275.596l10.427-6.058v1.868l-10.427 6.058v-1.868zm1.879 5.444l10.437-6.062 9.768 5.627-10.437 6.059-9.768-5.624z" fill="#1226AA" stroke="#fff" stroke-width=".595" stroke-linejoin="round"/><path d="M54.945 277.959l11.437-7.068 11.476 6.603-11.423 7.068-11.49-6.603zm14.265 8.056l10.436-6.058-2.303 1.717-10.437 6.059 2.303-1.718z" fill="#1226AA" stroke="#fff" stroke-width=".595" stroke-linejoin="round"/><path d="M54.187 274.303l10.436-6.058 15.043 8.665-10.436 6.058-15.044-8.665z" fill="#1226AA" stroke="#fff" stroke-width=".595" stroke-linejoin="round"/><path d="M54.186 274.303l15.044 8.688v3.028l-2.314 1.707-10.456-6.058-2.284-4.301.01-3.064zm14.305 9.089l-13.556-7.806v1.848l1.879 3.585 9.778 5.624 1.899-1.403v-1.848z" fill="#fff"/><path d="M69.22 282.968l10.436-6.058v3.027l-10.437 6.059v-3.028z" fill="#1226AA" stroke="#fff" stroke-width=".595" stroke-linejoin="round"/><path d="M58.542 239.937v10.313l-1.618-.929a1.6 1.6 0 00-1.494 0h-.07a3.678 3.678 0 00-1.535-1.528 9.265 9.265 0 00-8.377 0 3.521 3.521 0 00-1.515 1.528h-.08a1.663 1.663 0 00-1.484 0l-1.618.939v-10.313l1.588-.939c.233-.111.487-.169.745-.17.26-.001.516.057.75.17h.08a3.587 3.587 0 011.514-1.524 9.278 9.278 0 014.188-1.002 9.278 9.278 0 014.19 1.002c.654.337 1.187.87 1.524 1.524h.08c.23-.121.488-.183.749-.18.259.001.514.063.745.18l1.638.929z" fill="#1226AA"/><path d="M50.359 234.617l9.243 5.32-9.173 5.314a1.61 1.61 0 01-.745.18 1.574 1.574 0 01-.75-.18l-9.243-5.314 9.183-5.32a1.49 1.49 0 01.75-.173c.255 0 .506.059.735.173zm6.575 6.259l1.588-.939-1.628-.929a1.638 1.638 0 00-1.494 0h-.07a3.57 3.57 0 00-1.535-1.523 9.266 9.266 0 00-4.188-1.003 9.266 9.266 0 00-4.19 1.003 3.641 3.641 0 00-1.514 1.523h-.07a1.678 1.678 0 00-.748-.18 1.61 1.61 0 00-.746.18l-1.588.929 1.618.939c.232.113.487.171.746.171a1.7 1.7 0 00.748-.171h.08a3.48 3.48 0 001.528 1.527 9.265 9.265 0 004.182 1.003 9.28 9.28 0 004.182-1.003 3.46 3.46 0 001.515-1.527h.08c.233.113.49.172.749.171a1.69 1.69 0 00.745-.171" fill="#1226AA"/><path d="M56.934 240.876l1.588-.939-1.628-.929a1.638 1.638 0 00-1.494 0h-.07a3.57 3.57 0 00-1.535-1.523 9.266 9.266 0 00-4.188-1.003 9.266 9.266 0 00-4.19 1.003 3.641 3.641 0 00-1.514 1.523h-.07a1.678 1.678 0 00-.748-.18 1.61 1.61 0 00-.746.18l-1.588.929 1.618.939c.232.113.487.171.746.171a1.7 1.7 0 00.748-.171h.08a3.48 3.48 0 001.528 1.527 9.265 9.265 0 004.182 1.003 9.28 9.28 0 004.182-1.003 3.46 3.46 0 001.515-1.527h.08c.233.113.49.172.749.171a1.69 1.69 0 00.745-.171h.01zm-6.575-6.259l9.243 5.32-9.173 5.314a1.61 1.61 0 01-.745.18 1.574 1.574 0 01-.75-.18l-9.243-5.314 9.183-5.32a1.49 1.49 0 01.75-.173c.255 0 .506.059.735.173z" stroke="#1226AA" stroke-width=".595" stroke-linejoin="round"/><path d="M50.429 245.25c-.227.119-.48.181-.736.181a1.704 1.704 0 01-.738-.171l-9.264-5.323v10.312l9.244 5.32c.241.111.503.171.768.174.254 0 .503-.063.726-.184l9.173-5.31v-10.312l-9.173 5.313z" fill="#1226AA" stroke="#fff" stroke-width=".595" stroke-linejoin="round"/><path d="M39.691 250.361v-10.312l9.244-5.32a1.89 1.89 0 01.768-.174c.254 0 .503.063.726.184l9.173 5.31v10.312" stroke="#fff" stroke-width=".595" stroke-linejoin="round"/><path d="M49.57 267.012a.456.456 0 010 .213.407.407 0 01-.14.161l-8.93 5.179a.332.332 0 00.141-.2.508.508 0 000-.174v-1.139a1.2 1.2 0 00-.17-.555 1.265 1.265 0 00-.405-.435l-9.163-5.273a.438.438 0 00-.204-.07.215.215 0 00-.18 0l8.919-5.169a.354.354 0 01.203 0 .347.347 0 01.201.07l9.163 5.27a1.263 1.263 0 01.575.992v1.13h-.01z" fill="#1226AA" stroke="#fff" stroke-width=".595" stroke-linejoin="round"/><path d="M40.62 271.051v1.17a.747.747 0 010 .173.334.334 0 01-.14.201.396.396 0 01-.214.063.402.402 0 01-.21-.063L39.053 272l-.234-.13-1.14-.669-6.064-3.512-.645-.374a1.028 1.028 0 01-.335-.334.127.127 0 010-.05.372.372 0 01-.06-.141 1.21 1.21 0 01-.1-.414v-1.173a.39.39 0 01.18-.374.438.438 0 01.184 0 .45.45 0 01.2.073l9.027 5.14c.167.11.306.259.404.434.098.176.15.374.15.575z" fill="#1226AA" stroke="#fff" stroke-width=".595" stroke-linejoin="round"/><path d="M31.477 266.002a.383.383 0 00-.13.161.387.387 0 000 .214c.01.199.069.393.17.564.103.173.24.321.405.435l-1.484.859a1.295 1.295 0 01-.415-.425 1.289 1.289 0 01-.16-.564.387.387 0 010-.214.383.383 0 01.13-.161l1.484-.869z" fill="#1226AA" stroke="#fff" stroke-width=".595" stroke-linejoin="round"/><path d="M29.943 266.901l1.485-.868a.442.442 0 01.21 0 .4.4 0 01.204.08l-1.494.859a.419.419 0 00-.194-.081.455.455 0 00-.21.01zm7.676 5.534l-7.241-4.171 1.494-.868 7.244 4.18-1.497.859z" fill="#1226AA" stroke="#fff" stroke-width=".595" stroke-linejoin="round"/><path d="M38.02 272.475a.377.377 0 01-.21 0 .374.374 0 01-.205-.07l1.498-.859a.436.436 0 00.19.07.46.46 0 00.215 0l-1.488.859zm-7.632-5.534l1.484-.869 7.244 4.181-1.487.858-7.241-4.17z" fill="#1226AA" stroke="#fff" stroke-width=".595" stroke-linejoin="round"/><path d="M39.52 271.606l-1.487.869a.518.518 0 00.134-.161.46.46 0 000-.214 1.292 1.292 0 00-.174-.564 1.15 1.15 0 00-.405-.425l1.498-.859a1.283 1.283 0 01.575.99c.02.069.02.144 0 .213a.333.333 0 01-.14.151zm105.758-32.868l-13.85 8.086-10.547-6.058 13.86-8.02 10.537 5.992z" fill="#1226AA" stroke="#fff" stroke-width=".595" stroke-linejoin="round"/><path d="M145.278 238.738v.869l-13.86 8.02v-.859l13.86-8.03z" fill="#1226AA" stroke="#fff" stroke-width=".595" stroke-linejoin="round"/><path d="M131.429 246.734v.859l-10.537-6.058v-.859l10.537 6.058z" fill="#1226AA" stroke="#fff" stroke-width=".595" stroke-linejoin="round"/><path d="M40.45 270.457l8.94-5.193z" fill="#1226AA"/><path d="M40.45 270.457l8.94-5.193" stroke="#fff" stroke-width=".595" stroke-linejoin="round"/><path d="M180.769 329.811v3.966l-9.01-5.187v-3.981l9.01 5.202z" fill="#1226AA" stroke="#333" stroke-width="1.189" stroke-linejoin="round"/><path d="M180.77 329.81l5.177-3.015v3.97l-5.177 3.011v-3.966z" fill="#fff" stroke="#333" stroke-width="1.189" stroke-linejoin="round"/><path d="M171.759 324.612l5.177-3.003 9.01 5.19-5.177 3.015-9.01-5.202z" fill="#fff" stroke="#333" stroke-width="1.189" stroke-linejoin="round"/><path d="M176.417 329.029l-38.885 22.59c-2.109 1.219-7.809 1.714-11.031-.144L15.722 287.566c-2.982-1.728-2.778-4.929-.515-6.242l19.426-11.268.719.414-19.43 11.288c-1.734 1.003-2.209 3.836.519 5.414l110.745 63.912c2.674 1.544 7.799 1.18 9.597.14l38.882-22.599.752.404z" fill="#1226AA"/><path d="M180.282 331.258l-41.175 23.923c-2.674 1.554-8.882 1.898-12.035.06L9.204 287.208c-3.377-1.938-3.123-5.119-.67-6.553l22.228-12.895.716.424L9.27 281.07c-2.132 1.239-2.34 4.036.646 5.724l117.862 68.073c2.908 1.67 8.508 1.169 10.617-.061l41.178-23.912.709.364z" fill="#1226AA"/><path d="M174.412 327.883l-37.708 21.934c-2.006 1.16-7.479 1.504-10.507-.244l-107.185-61.86c-3.032-1.748-2.444-4.929-.455-6.059l18.052-10.472.719.414-18.032 10.483c-1.671 1.002-2.143 3.756.445 5.249l107.201 61.821c2.578 1.497 7.405 1.213 9.093.244l37.708-21.925.669.415z" fill="#1226AA"/><path d="M178.333 330.135l-40.025 23.228c-2.243 1.3-8.204 1.878-11.537 0L12.476 287.389c-3.222-1.868-2.952-5.05-.585-6.403l20.81-12.117.715.415L12.613 281.4c-2.006 1.183-2.173 4.04.575 5.574l114.309 65.964c2.818 1.624 8.08 1.19 10.099 0l40.018-23.241.719.438zm-128.64-84.704v10.322z" fill="#1226AA"/><path d="M49.693 245.431v10.322" stroke="#fff" stroke-width=".595" stroke-linejoin="round"/><path d="M103.799 220.191l8.614 5.013-8.939 5.149-8.624-5.062 8.949-5.1z" fill="#1226AA" stroke="#fff" stroke-width=".595" stroke-linejoin="round"/><path d="M103.474 230.34v1.718l-8.624-5.049v-1.718l8.624 5.049zm8.94-5.2v1.718l-8.939 5.149v-1.717l8.939-5.15zm-25.417-3.979l6.06 3.505-7.959 4.575-6.06-3.506 7.96-4.574z" fill="#1226AA" stroke="#fff" stroke-width=".595" stroke-linejoin="round"/><path d="M85.098 229.271v1.698l-6.06-3.526v-1.717l6.06 3.545zm7.96-4.605v1.718l-7.96 4.614v-1.727l7.96-4.605zm-13.646-8.22l4.272 2.476-7.354 4.23-4.263-2.466 7.345-4.24zm-3.082 6.706v1.728l-4.272-2.476v-1.718l4.272 2.466z" fill="#1226AA" stroke="#fff" stroke-width=".595" stroke-linejoin="round"/><path d="M83.674 218.932v1.714l-7.355 4.244v-1.728l7.355-4.23z" fill="#1226AA" stroke="#fff" stroke-width=".595" stroke-linejoin="round"/><path d="M341.449 298.165l6.114 33.43-54.828-31.642 6.285-26.275 42.429 24.487z" fill="#fff" stroke="#333" stroke-width="2.379" stroke-linejoin="round"/><path d="M341.449 298.165l5.9-3.425 6.111 33.43-5.897 3.425-6.114-33.43z" fill="#fff" stroke="#333" stroke-width="2.379" stroke-linejoin="round"/><path d="M299.02 273.678l5.897-3.426 42.432 24.488-5.9 3.425-42.429-24.487z" fill="#fff" stroke="#333" stroke-width="2.379" stroke-linejoin="round"/><path d="M203.131 214.029l5.89-3.422c0 2.206 1.548 4.903 3.47 6.015l-5.89 3.419c-1.922-1.11-3.477-3.806-3.47-6.012z" fill="#fff"/><path d="M203.716 7.198l5.891-3.422-.585 206.831-5.891 3.422.585-206.831z" fill="#fff"/><path d="M204.733 4.97l5.89-3.423c-.625.365-1.003 1.137-1.003 2.23l-5.89 3.421c-.01-1.093.377-1.865 1.003-2.229zm1.869 215.068l5.89-3.422 256.805 148.209-5.891 3.421-256.804-148.208zm265.172 145.027l-5.891 3.422c-.635.371-1.511.317-2.477-.237l5.891-3.422c.966.554 1.842.625 2.477.237z" fill="#fff"/><path d="M467.484 159.423l5.891-3.422-.585 206.832-5.891 3.422.585-206.832z" fill="#fff"/><path d="M464.015 153.418l5.89-3.421c1.919 1.106 3.477 3.802 3.47 6.015l-5.89 3.421c.006-2.212-1.552-4.908-3.47-6.015z" fill="#fff"/><path d="M207.21 5.206l5.89-3.422 256.805 148.212-5.887 3.422L207.21 5.206z" fill="#fff"/><path d="M210.603 1.547c.635-.38 1.521-.334 2.497.23h-.03l-5.86 3.446c-.966-.558-1.842-.608-2.474-.244l5.857-3.402-5.857 3.402h-.023l5.89-3.432zm261.836 362.827a1.805 1.805 0 01-.648.668l-5.874 3.435c.274-.166.498-.403.649-.685l5.873-3.418z" fill="#fff"/><path d="M472.439 364.374a.52.52 0 01-.097.056l-.053.027-.151.09-.103.061-.408.237-5.078 2.947c.027-.047.05-.093.073-.144l5.891-3.421c-.024.05-.047.1-.074.147z" fill="#fff"/><path d="M472.79 362.836c.009.478-.085.953-.278 1.391l-5.89 3.421c.192-.437.287-.912.278-1.39l5.89-3.422z" fill="#fff"/><path d="M469.908 149.726L213.1 1.517c-1.03-.598-1.969-.668-2.644-.257l-5.891 3.422c.669-.395 1.615-.335 2.645.257l256.808 148.209c2.049 1.183 3.711 4.06 3.704 6.416l-.588 206.828c0 1.173-1.251 2.005-1.919 2.386l6.719-3.422c.669-.388 1.083-1.213 1.087-2.383l.585-206.831c0-2.356-1.649-5.223-3.698-6.416z" fill="#fff" stroke="#333" stroke-width="1.784" stroke-miterlimit="10"/><path d="M464.015 153.419c1.918 1.106 3.476 3.802 3.47 6.015l-.585 206.848c0 2.205-1.575 3.097-3.494 2.005L206.601 220.075c-1.922-1.107-3.476-3.803-3.473-6.015l.588-206.832c0-2.205 1.575-3.098 3.494-2.005L464.015 153.42z" fill="#fff" stroke="#333" stroke-width="1.784" stroke-miterlimit="10"/><path d="M461.551 159.985l-.559 197.034-252.115-145.502.559-197.034 252.115 145.502z" fill="#231F20"/><path d="M241.224 69.774a.995.995 0 01.234.19 1.457 1.457 0 01.328.571c.028.097.042.197.043.298a.682.682 0 01-.043.24.34.34 0 01-.134.154.335.335 0 01-.197.037.616.616 0 01-.221-.08L219.792 58.82a1.197 1.197 0 01-.237-.184 1.846 1.846 0 01-.201-.267 1.694 1.694 0 01-.133-.304 1.048 1.048 0 01-.047-.294.448.448 0 01.184-.398.44.44 0 01.438.043l21.428 12.358z" fill="#fff"/><path d="M305.148 116.734c.204.338.319.722.334 1.116a.789.789 0 01-.334.732.817.817 0 01-.806-.084L261.486 93.77a2.291 2.291 0 01-.803-.849 2.217 2.217 0 01-.334-1.116.778.778 0 01.334-.732.81.81 0 01.806.084l42.856 24.728c.336.21.612.502.803.849zm-.806.598L261.486 92.32l42.856 25.012z" fill="#10CFC9"/><path d="M251.236 96.163c.087.049.166.11.234.183a1.425 1.425 0 01.328.565.915.915 0 01.04.294.566.566 0 01-.043.244.334.334 0 01-.131.157.334.334 0 01-.197.04.7.7 0 01-.234-.08l-21.428-12.364a1.26 1.26 0 01-.435-.461 1.243 1.243 0 01-.18-.605.584.584 0 01.046-.24.292.292 0 01.137-.15.336.336 0 01.201-.038c.077.014.15.041.217.08l21.445 12.375zm-5.011-13.237c.187.116.34.278.445.471.112.187.175.398.183.615a.44.44 0 01-.187.408.447.447 0 01-.444-.047L224.793 72.01a1.315 1.315 0 01-.448-.468 1.295 1.295 0 01-.18-.618.443.443 0 01.184-.404.46.46 0 01.448.043l21.428 12.364zm10.012 26.42c.087.048.166.11.234.183.077.08.144.169.201.264.056.097.101.2.133.308.03.095.045.194.047.294a.435.435 0 01-.18.398.44.44 0 01-.438-.047l-21.432-12.364a1.246 1.246 0 01-.425-.455 1.276 1.276 0 01-.177-.601.422.422 0 01.181-.388.43.43 0 01.428.043l21.428 12.365z" fill="#fff"/><path d="M294.296 244.599c.087.053.165.117.234.191a1.427 1.427 0 01.328.574.951.951 0 01.04.295.55.55 0 01-.044.243.33.33 0 01-.13.151.308.308 0 01-.197.037.592.592 0 01-.234-.087l-21.428-12.364a1.045 1.045 0 01-.234-.184 1.426 1.426 0 01-.335-.572.997.997 0 01-.047-.297.43.43 0 01.181-.398.456.456 0 01.438.044l21.428 12.367zm16.575-.518c.052.177.08.36.083.545a.985.985 0 01-.09.444.573.573 0 01-.618.338 1.003 1.003 0 01-.388-.134l-31.146-17.981a1.899 1.899 0 01-.422-.335 2.555 2.555 0 01-.608-1.052 1.827 1.827 0 01-.077-.545 1.013 1.013 0 01.08-.428.602.602 0 01.238-.287.57.57 0 01.364-.07c.153.016.3.066.431.147l31.123 17.961c.158.091.302.203.428.334.141.15.264.314.368.492.099.181.177.372.234.571zm-1.04 0l-31.119-18.192 31.126 18.202m4.472-8.314c.05.176.074.359.074.541.004.147-.022.292-.077.428a.61.61 0 01-.247.284.595.595 0 01-.372.067 1.056 1.056 0 01-.407-.144l-26.105-15.067a1.911 1.911 0 01-.425-.334 2.6 2.6 0 01-.351-.491 2.447 2.447 0 01-.241-.565 1.685 1.685 0 01-.077-.542 1.057 1.057 0 01.077-.427.618.618 0 01.244-.288.591.591 0 01.361-.073c.154.017.301.069.432.15l26.095 15.058c.157.09.302.203.428.334.141.151.263.318.364.498.098.18.175.372.227.571zm-1.039 0c.097-.083.097-.1.09-.117l-26.182-15.178 26.092 15.295z" fill="#10CFC9"/><path d="M313.274 235.54c.094.137.094.154.094.194l-26.199-15.021 26.105 14.827zm.027-10.323a.22.22 0 01.087.087c.022.038.035.08.037.124a.084.084 0 01-.037.077.083.083 0 01-.044.012.082.082 0 01-.043-.012l-21.729-12.541a.261.261 0 01-.121-.211.092.092 0 01.008-.043.078.078 0 01.026-.034.09.09 0 01.09 0l21.726 12.541z" fill="#10CFC9"/><path d="M314.107 224.897c.206.336.321.721.334 1.116a.814.814 0 01-.334.732.815.815 0 01-.806-.084l-21.729-12.541a2.269 2.269 0 01-.799-.846 2.26 2.26 0 01-.335-1.116.794.794 0 01.335-.732.803.803 0 01.805.081l21.73 12.541c.335.209.61.502.799.849zm-.719.608a.084.084 0 00.037-.077.271.271 0 00-.037-.124.22.22 0 00-.087-.087l-21.729-12.541a.092.092 0 00-.091 0 .097.097 0 00-.026.034.09.09 0 00-.007.043.28.28 0 00.033.12.261.261 0 00.087.091l21.73 12.541a.082.082 0 00.086 0m30.431 47.642c.206.337.321.722.334 1.116a.789.789 0 01-.334.732.795.795 0 01-.806-.084l-.267-.153-43.204-25.146a1.928 1.928 0 01-.428-.334 2.42 2.42 0 01-.364-.495 2.497 2.497 0 01-.238-.561 1.808 1.808 0 01-.077-.542c-.005-.15.024-.3.084-.437a.579.579 0 01.254-.281.594.594 0 01.391-.054c.134.023.262.071.378.141l43.481 25.266c.332.205.606.491.796.832zm-.722.608l-43.562-25.55 43.562 25.55m4.991-8.184c.05.171.076.347.077.525.005.152-.023.304-.08.445a.596.596 0 01-.245.28.59.59 0 01-.371.067 1.044 1.044 0 01-.397-.137l-31.147-17.978a1.84 1.84 0 01-.417-.334 2.56 2.56 0 01-.616-1.049 1.903 1.903 0 01-.086-.545 1.074 1.074 0 01.086-.448.582.582 0 01.609-.347c.152.019.299.071.431.15l31.123 17.961c.16.095.306.213.431.351.141.148.264.313.364.491.102.18.181.37.238.568zm-1.03 0l-31.129-18.198 31.129 18.198zm-23.43-44.651l-28.081-15.97a.22.22 0 01-.08-.083.213.213 0 01-.033-.107l28.194 16.16z" fill="#10CFC9"/><path d="M324.65 221.134c.053.173.079.353.077.534.006.151-.021.302-.077.442a.617.617 0 01-.241.284.594.594 0 01-.367.073 1.052 1.052 0 01-.432-.15l-28.08-16.201a2.27 2.27 0 01-.796-.835 2.246 2.246 0 01-.334-1.106 1.028 1.028 0 01.087-.441.588.588 0 01.25-.278.595.595 0 01.368-.063c.147.022.288.073.415.15l28.08 16.204c.159.09.303.202.428.334.142.147.264.311.365.488.107.178.194.367.257.565zm-1.036 0l-28.081-16.438c-.114.08-.1.121-.08.154a.2.2 0 00.08.083l28.081 16.201m36.832 41.259c.054.177.082.36.084.545a1 1 0 01-.091.444.558.558 0 01-.618.338 1.05 1.05 0 01-.408-.144l-39.741-22.933a1.98 1.98 0 01-.428-.335 2.718 2.718 0 01-.364-.488 2.705 2.705 0 01-.241-.561 1.847 1.847 0 01-.077-.548 1.06 1.06 0 01.077-.424.589.589 0 01.244-.284.56.56 0 01.361-.077c.154.018.303.069.435.15l39.728 22.927c.16.095.305.213.431.351.141.15.265.316.367.495.102.171.183.354.241.544zm-1.043 0l-39.727-23.167 39.727 23.167m-11.583-37.807c.097.2.087.224.064.237l-36.91-21.263 36.846 21.026zm38.577 63.785c.205.338.321.722.335 1.116a.805.805 0 01-.335.732.815.815 0 01-.414.067.817.817 0 01-.391-.15l-31.133-17.968a2.277 2.277 0 01-.802-.846 2.294 2.294 0 01-.335-1.116.789.789 0 01.335-.732.803.803 0 01.805.08l31.133 17.969c.335.21.611.502.802.848zm-.722.609a.08.08 0 00.029-.034.079.079 0 00.008-.043.235.235 0 00-.037-.121.243.243 0 00-.087-.093l-31.132-17.965a.083.083 0 00-.044-.012.082.082 0 00-.043.012.084.084 0 00-.028.034.078.078 0 00-.006.043.242.242 0 00.034.12c.021.037.05.068.087.09l31.132 17.969a.1.1 0 00.044.012c.015 0 .03-.005.043-.012" fill="#10CFC9"/><path d="M385.588 288.689a.243.243 0 01.087.093.226.226 0 01.037.121.079.079 0 01-.008.043.08.08 0 01-.029.034.082.082 0 01-.043.012.088.088 0 01-.044-.012l-31.132-17.969a.242.242 0 01-.087-.09.242.242 0 01-.034-.12.078.078 0 01.006-.043.084.084 0 01.028-.034.086.086 0 01.087 0l31.132 17.965zm-36.979-64.441c.202.33.317.706.334 1.093a.779.779 0 01-.334.715.776.776 0 01-.779-.06l-36.86-21.276a1.945 1.945 0 01-.427-.334 2.425 2.425 0 01-.365-.495 2.553 2.553 0 01-.241-.561 1.956 1.956 0 01-.073-.538 1.01 1.01 0 01.08-.431.577.577 0 01.244-.281.592.592 0 01.371-.067c.143.019.28.068.401.144l36.863 21.276c.327.201.597.482.786.815zm-.799.569c.097 0 .107-.031.107-.064l-36.94-21.43 36.833 21.494m56.261 62.331c.204.337.319.72.335 1.113 0 .153-.031.304-.091.445a.593.593 0 01-.247.277.608.608 0 01-.368.06 1.039 1.039 0 01-.414-.147l-39.691-22.904a1.972 1.972 0 01-.421-.334 2.614 2.614 0 01-.368-.488 2.4 2.4 0 01-.247-.561 1.89 1.89 0 01-.087-.548.794.794 0 01.334-.722.816.816 0 01.796.08l39.68 22.901c.33.204.601.49.789.828zm-.799.568l-39.684-23.137 39.678 23.137m9.608-15.672c.055.177.084.36.086.545a.795.795 0 01-.334.725.804.804 0 01-.799-.084l-83.463-48.169a2.37 2.37 0 01-.792-.846 2.286 2.286 0 01-.335-1.089.77.77 0 01.335-.715.775.775 0 01.785.08l83.484 48.17c.153.092.294.204.417.334a2.676 2.676 0 01.616 1.049zm-1.04.02l-83.467-48.407 83.467 48.407zm-13.833-29.644c.206.337.322.722.334 1.116a.804.804 0 01-.334.732.806.806 0 01-.806-.08l-73.524-42.439a2.377 2.377 0 01-.803-.849 2.35 2.35 0 01-.334-1.116.79.79 0 01.334-.728.81.81 0 01.806.08l73.525 42.439c.335.208.612.499.802.845zm-.806.602l-73.521-42.713 73.521 42.713z" fill="#10CFC9"/><path d="M267.801 229.892a.267.267 0 01.077.08c.018.033.028.07.03.107l-21.549-12.327c-.08-.12-.084-.137-.084-.17l21.526 12.31z" fill="#fff"/><path d="M268.599 229.565c.205.333.32.712.335 1.103.005.152-.025.304-.087.444a.596.596 0 01-.244.274.616.616 0 01-.375.063 1.043 1.043 0 01-.397-.14l-21.452-12.381a1.839 1.839 0 01-.421-.334 2.334 2.334 0 01-.368-.498 2.497 2.497 0 01-.244-.561 1.874 1.874 0 01-.077-.542 1.06 1.06 0 01.077-.427.612.612 0 01.244-.288.63.63 0 01.364-.073c.153.02.3.071.432.15l21.428 12.364c.329.211.6.502.785.846zm-.792.571c.1-.087.09-.127.07-.164a.245.245 0 00-.077-.08l-21.428-12.364c-.097.094-.093.11-.093.12l21.528 12.492m6.101-7.375c.051.175.077.358.077.541.002.148-.026.295-.084.431a.593.593 0 01-.24.281.6.6 0 01-.371.067 1.084 1.084 0 01-.398-.141l-31.147-17.975a1.883 1.883 0 01-.421-.334 2.54 2.54 0 01-.367-.484 2.684 2.684 0 01-.248-.562 1.893 1.893 0 01-.083-.544 1.002 1.002 0 01.087-.448.58.58 0 01.244-.278.597.597 0 01.364-.07c.152.021.299.072.431.151l31.123 17.961c.16.096.305.214.431.351a2.665 2.665 0 01.602 1.053zm-1.036 0l-31.123-18.196 31.123 18.196zm-13.947-29.718c.207.338.322.724.334 1.12a.797.797 0 01-.334.732.817.817 0 01-.806-.084l-29.508-17.042a2.316 2.316 0 01-.805-.846 2.26 2.26 0 01-.335-1.119.789.789 0 01.335-.732.804.804 0 01.805.084l29.508 17.042c.336.209.613.5.806.845zm-.719.612a.1.1 0 00.034-.08.272.272 0 00-.121-.211l-29.508-17.042a.092.092 0 00-.087 0 .085.085 0 00-.033.08.23.23 0 00.033.117c.021.038.051.07.087.093l29.508 17.043a.092.092 0 00.087 0" fill="#fff"/><path d="M258.119 193.358a.271.271 0 01.084.091.252.252 0 01.037.12.096.096 0 01-.008.044.093.093 0 01-.026.036.092.092 0 01-.087 0l-29.508-17.042a.27.27 0 01-.12-.211.085.085 0 01.033-.08.092.092 0 01.087 0l29.508 17.042zm-12.756-38.83c.187.115.342.278.448.471.112.187.175.4.183.618a.444.444 0 01-.04.227.462.462 0 01-.147.178.452.452 0 01-.23.035.45.45 0 01-.218-.082l-21.428-12.364a1.342 1.342 0 01-.445-.472 1.271 1.271 0 01-.18-.618.425.425 0 01.038-.225.43.43 0 01.146-.176.446.446 0 01.448.044l21.425 12.364zm36.187 61.917c.206.333.321.713.334 1.103a1.05 1.05 0 01-.087.445.593.593 0 01-.25.274.6.6 0 01-.365.063 1.039 1.039 0 01-.414-.147l-52.2-30.115a1.942 1.942 0 01-.421-.334 2.48 2.48 0 01-.368-.491 2.554 2.554 0 01-.248-.558 1.9 1.9 0 01-.083-.545.799.799 0 01.334-.725.807.807 0 01.796.08l52.17 30.108c.334.209.61.499.802.842zm-.789.572l-52.193-30.342 52.18 30.355" fill="#fff"/><path d="M286.531 208.98c.205.338.32.722.334 1.116a.799.799 0 01-.334.732.803.803 0 01-.799-.093l-21.729-12.538a2.336 2.336 0 01-.806-.849 2.262 2.262 0 01-.334-1.116.789.789 0 01.334-.732.807.807 0 01.806.08l21.729 12.542c.335.213.61.509.799.858zm-.722.608a.072.072 0 00.029-.033.079.079 0 00.008-.043.268.268 0 00-.037-.124.242.242 0 00-.087-.087l-21.729-12.541a.083.083 0 00-.044-.012.077.077 0 00-.072.045.096.096 0 00-.008.044.235.235 0 00.037.12c.02.038.05.069.087.09l21.729 12.541a.083.083 0 00.043.013.084.084 0 00.044-.013" fill="#10CFC9"/><path d="M285.732 209.301a.242.242 0 01.087.087c.022.038.035.08.037.124a.079.079 0 01-.008.043.08.08 0 01-.029.034.093.093 0 01-.043.012.093.093 0 01-.044-.012l-21.729-12.555a.228.228 0 01-.087-.09.245.245 0 01-.037-.121.09.09 0 01.008-.043.085.085 0 01.029-.033.083.083 0 01.043-.013c.016 0 .031.005.044.013l21.729 12.554z" fill="#10CFC9"/><path d="M269.863 179.012c.087.049.167.11.237.181.075.082.142.171.198.267.057.095.102.198.133.304.03.097.046.197.047.298a.43.43 0 01-.18.394.441.441 0 01-.438-.043l-42.857-24.729a1.095 1.095 0 01-.234-.19 1.473 1.473 0 01-.197-.267c-.056-.097-.1-.2-.13-.308a.912.912 0 01-.04-.294.553.553 0 01.043-.244.338.338 0 01.13-.15.298.298 0 01.198-.037.695.695 0 01.22.077l42.87 24.741z" fill="#fff"/><path d="M272.06 170.521a.268.268 0 01.12.208.11.11 0 01-.007.044.095.095 0 01-.027.036.09.09 0 01-.09 0l-15.969-9.217a.25.25 0 01-.12-.21.088.088 0 01.005-.043.084.084 0 01.028-.034.09.09 0 01.09 0l15.97 9.216z" fill="#10CFC9"/><path d="M272.865 170.2c.205.338.32.722.335 1.117a.785.785 0 01-.335.731.79.79 0 01-.805-.083l-15.97-9.216a2.349 2.349 0 01-.802-.846 2.258 2.258 0 01-.334-1.116.789.789 0 01.334-.732.815.815 0 01.806.08l15.969 9.217c.335.21.612.502.802.848zm-.719.609a.103.103 0 00.027-.036.097.097 0 00.007-.045.26.26 0 00-.12-.207l-15.97-9.216a.09.09 0 00-.09 0 .075.075 0 00-.027.034.078.078 0 00-.006.043.25.25 0 00.12.21l15.969 9.217a.092.092 0 00.09 0m20.178 31.662c.055.176.085.36.087.545a.8.8 0 01-.334.725.804.804 0 01-.799-.084l-62.376-36.006a2.304 2.304 0 01-.796-.839 2.276 2.276 0 01-.334-1.103 1.127 1.127 0 01.084-.444.587.587 0 01.247-.274.623.623 0 01.374-.067c.147.024.288.076.415.154l62.399 36.01c.157.089.299.202.422.334.14.147.264.309.367.484.105.178.187.367.244.565zm-1.039.02l-62.383-36.244 62.393 36.244m16.463-1.41c.055.176.083.36.084.544a.78.78 0 01-.334.722.804.804 0 01-.799-.08l-29.752-17.176a1.92 1.92 0 01-.432-.334 2.542 2.542 0 01-.361-.495 2.55 2.55 0 01-.24-.561 1.945 1.945 0 01-.077-.542 1.118 1.118 0 01.08-.431.611.611 0 01.247-.28.582.582 0 01.368-.067c.143.021.281.069.405.143l29.772 17.183c.156.091.299.204.424.334.142.148.265.312.368.488.104.174.187.359.247.552zm-.962.026a.076.076 0 00.024-.029.08.08 0 00.006-.037l-29.869-17.35 29.752 17.41c.012.006.026.01.04.01a.091.091 0 00.04-.01" fill="#10CFC9"/><path d="M306.732 200.873c.094.197.084.224.064.234a.082.082 0 01-.04.01.08.08 0 01-.04-.01l-29.753-17.176 29.769 16.942zm-11.476-28.063c.204.338.319.722.334 1.116a.794.794 0 01-.334.732.811.811 0 01-.806-.08l-49.712-28.692a2.316 2.316 0 01-.803-.848 2.342 2.342 0 01-.334-1.113.8.8 0 01.069-.412.801.801 0 01.265-.323.818.818 0 01.806.083l49.713 28.698c.333.208.609.497.802.839zm-.809.602l-49.713-28.972 49.713 28.972m-5.038-23.783a.278.278 0 01.121.211.09.09 0 01-.008.043.096.096 0 01-.029.034.082.082 0 01-.043.012.083.083 0 01-.044-.012l-30.16-17.407a.247.247 0 01-.087-.097.23.23 0 01-.037-.114.096.096 0 01.008-.044.094.094 0 01.029-.036.092.092 0 01.087 0l30.163 17.41z" fill="#10CFC9"/><path d="M316.076 195.34c.185.115.339.276.444.468.114.186.178.399.184.618a.438.438 0 01-.187.404.45.45 0 01-.445-.043l-37.952-21.905a1.273 1.273 0 01-.445-.468 1.296 1.296 0 01-.183-.618.442.442 0 01.183-.404.445.445 0 01.448.043l37.953 21.905z" fill="#fff"/><path d="M290.221 149.312c.206.337.321.721.334 1.116a.789.789 0 01-.334.732.817.817 0 01-.806-.084l-30.16-17.406a2.349 2.349 0 01-.805-.849 2.297 2.297 0 01-.335-1.116.8.8 0 01.335-.732.816.816 0 01.805.083l30.164 17.407c.335.21.611.502.802.849zm-.722.605a.096.096 0 00.029-.034.09.09 0 00.008-.043.28.28 0 00-.121-.211l-30.163-17.406a.092.092 0 00-.087 0 .1.1 0 00-.029.035.1.1 0 00-.008.045c.002.04.015.08.037.114.02.039.05.072.087.096l30.157 17.404a.082.082 0 00.043.012.083.083 0 00.044-.012m11.517 15.956c.204.333.319.713.334 1.103.003.154-.026.306-.087.448a.59.59 0 01-.251.274.607.607 0 01-.367.063 1.082 1.082 0 01-.408-.147l-44.127-25.47a2.23 2.23 0 01-.786-.825 2.253 2.253 0 01-.334-1.093.799.799 0 01.069-.406.797.797 0 01.265-.316.799.799 0 01.782.064l44.127 25.47c.327.208.596.496.783.835zm-.789.572l-44.127-25.704 44.127 25.704m-9.972-27.415c.205.337.32.721.334 1.116a.804.804 0 01-.334.731.81.81 0 01-.806-.083l-34.556-19.95a2.325 2.325 0 01-.802-.849 2.294 2.294 0 01-.335-1.116.79.79 0 01.335-.731.813.813 0 01.805.08l34.546 19.939a2.3 2.3 0 01.813.863zm-.723.608a.085.085 0 00.029-.036.084.084 0 00.008-.044.26.26 0 00-.123-.211l-34.546-19.936a.093.093 0 00-.091 0 .089.089 0 00-.033.077.25.25 0 00.12.21l34.55 19.94a.082.082 0 00.086 0" fill="#10CFC9"/><path d="M289.442 139.347a.261.261 0 01.091.093c.02.036.031.076.033.117a.09.09 0 01-.037.081.082.082 0 01-.043.012.088.088 0 01-.044-.012l-34.549-19.94a.25.25 0 01-.12-.211.087.087 0 01.033-.076.09.09 0 01.045-.013c.016 0 .032.005.045.013l34.546 19.936zm32.447 49.035c.187.116.34.279.445.472.113.187.177.399.184.618a.445.445 0 01-.184.401.444.444 0 01-.448-.044l-21.706-12.511a1.278 1.278 0 01-.444-.471 1.286 1.286 0 01-.184-.618.437.437 0 01.187-.404.45.45 0 01.448.046l21.702 12.511zm-15.053-29.283c.185.117.337.278.444.468.115.188.178.402.184.622a.429.429 0 01-.187.401.454.454 0 01-.448-.047l-12.325-7.114a1.288 1.288 0 01-.445-.468 1.275 1.275 0 01-.184-.615.452.452 0 01.187-.408.462.462 0 01.448.047l12.326 7.114zm20.816 22.159c.203.328.318.703.335 1.089a.79.79 0 01-.335.715.782.782 0 01-.802-.063l-21.425-12.364a1.99 1.99 0 01-.424-.334 2.654 2.654 0 01-.615-1.053 1.846 1.846 0 01-.084-.541.818.818 0 01.07-.408.815.815 0 01.264-.318.828.828 0 01.799.084l21.425 12.364c.329.206.601.491.792.829zm-.725.568a.07.07 0 00.023-.028.073.073 0 00.007-.036.243.243 0 00-.11-.187l-21.415-12.364a.093.093 0 00-.08 0 .082.082 0 00-.03.07l21.535 12.542a.094.094 0 00.07 0" fill="#10CFC9"/><path d="M326.85 181.575a.2.2 0 01.077.081c.02.032.031.069.033.107a.061.061 0 01-.007.035.07.07 0 01-.023.028.094.094 0 01-.07 0l-21.435-12.364c-.1-.201-.09-.227-.07-.241a.09.09 0 01.04-.009.09.09 0 01.04.009l21.415 12.354zm-13.846-49.57c.055.178.083.363.083.548a.78.78 0 01-.334.722.794.794 0 01-.795-.077l-53.585-30.927a1.86 1.86 0 01-.431-.334 2.796 2.796 0 01-.361-.491 2.738 2.738 0 01-.241-.565 1.798 1.798 0 01-.073-.541.994.994 0 01.077-.428.562.562 0 01.244-.28.577.577 0 01.371-.07c.146.023.287.073.414.15l53.591 30.93c.157.09.299.202.421.334.143.147.267.311.368.488.105.17.189.352.251.541zm-1.04.024l-53.584-31.158 53.584 31.158m12.088 16.655c.055.176.085.36.087.544a.769.769 0 01-.334.722.788.788 0 01-.796-.08l-63.703-36.758a2.296 2.296 0 01-.796-.836 2.313 2.313 0 01-.334-1.106 1.012 1.012 0 01.09-.444.57.57 0 01.248-.274.603.603 0 01.371-.06c.148.02.291.071.418.15l63.71 36.758c.155.091.297.204.421.334a2.573 2.573 0 01.618 1.05zm-1.039.02l-63.69-37.002 63.703 37.002m14.187 18.215a.25.25 0 01.087.09c.02.037.032.078.034.121a.092.092 0 01-.008.043.085.085 0 01-.029.033.083.083 0 01-.044.012.082.082 0 01-.043-.012l-34.549-19.939a.253.253 0 01-.087-.094.256.256 0 01-.034-.117.11.11 0 01.007-.044.095.095 0 01.027-.036.1.1 0 01.09 0l34.549 19.943z" fill="#10CFC9"/><path d="M338.022 166.598c.206.337.321.721.335 1.116a.794.794 0 01-.335.732.813.813 0 01-.805-.08l-34.55-19.94c-.334-.21-.61-.5-.802-.845a2.344 2.344 0 01-.334-1.12.796.796 0 01.334-.732.807.807 0 01.806.084l34.542 19.939c.338.208.617.499.809.846zm-.722.608a.084.084 0 00.037-.077.25.25 0 00-.12-.21l-34.55-19.94a.1.1 0 00-.09 0 .095.095 0 00-.033.08.27.27 0 00.12.211l34.549 19.929a.087.087 0 00.044.011c.015 0 .03-.003.043-.011m24.417 3.219c.054.177.083.362.084.548a.777.777 0 01-.334.721.793.793 0 01-.799-.08l-28.99-16.731a1.925 1.925 0 01-.432-.335 2.653 2.653 0 01-.361-.494 2.366 2.366 0 01-.24-.565 1.848 1.848 0 01-.077-.528c-.004-.15.024-.299.08-.438a.608.608 0 01.244-.284.585.585 0 01.374-.063c.142.018.279.066.401.14l29.007 16.742c.157.09.3.203.425.334.14.147.262.309.364.485.106.172.191.356.254.548zm-.963.03a.075.075 0 00.025-.031.078.078 0 00.006-.04l-29.084-16.905 28.987 16.966a.08.08 0 00.04.01.08.08 0 00.04-.01m-70.409-72.514c.202.335.317.715.334 1.106.002.153-.029.304-.09.444a.594.594 0 01-.247.278.63.63 0 01-.368.06 1.109 1.109 0 01-.411-.147l-42.87-24.728a1.94 1.94 0 01-.425-.334 2.746 2.746 0 01-.364-.488 2.55 2.55 0 01-.241-.562 1.896 1.896 0 01-.08-.544 1.063 1.063 0 01.08-.428.587.587 0 01.605-.361c.154.02.302.071.435.15l42.853 24.728c.329.204.6.489.789.826zm-.799.568l-42.853-24.969 42.853 24.969z" fill="#10CFC9"/><path d="M250.491 126.582c.187.115.341.276.448.467.113.189.176.403.184.622a.432.432 0 01-.188.401.443.443 0 01-.448-.047l-21.424-12.364a1.313 1.313 0 01-.448-.468 1.283 1.283 0 01-.181-.618.442.442 0 01.184-.404.454.454 0 01.448.047l21.425 12.364zm.03-10.282c.185.117.339.279.444.471.115.186.18.399.187.618a.44.44 0 01-.187.401.444.444 0 01-.448-.043l-21.428-12.364a1.342 1.342 0 01-.445-.472 1.278 1.278 0 01-.18-.614.435.435 0 01.184-.405.446.446 0 01.448.044l21.425 12.364zm-15.198 22.125c.186.115.339.276.445.467.114.187.176.4.181.619a.441.441 0 01-.184.404.458.458 0 01-.448-.047l-11.343-6.546a1.265 1.265 0 01-.445-.471 1.243 1.243 0 01-.183-.615.443.443 0 01.187-.408.456.456 0 01.228-.033.454.454 0 01.216.08l11.346 6.55zm15.141-1.517c.086.051.165.114.234.187a1.447 1.447 0 01.328.575.971.971 0 01.04.294.556.556 0 01-.044.244.31.31 0 01-.13.153.337.337 0 01-.197.034.542.542 0 01-.218-.077l-21.445-12.364a1.186 1.186 0 01-.434-.451 1.36 1.36 0 01-.134-.305.947.947 0 01-.047-.294.433.433 0 01.184-.397.429.429 0 01.435.043l21.428 12.358z" fill="#fff"/><path d="M360.687 170.211c.097.2.087.227.067.237a.08.08 0 01-.04.011.08.08 0 01-.04-.011l-28.99-16.728 29.003 16.491z" fill="#10CFC9"/><path d="M370.555 144.27c4.85 2.8 11.863 6.921 21.041 12.364.176.116.321.275.421.461.108.18.17.385.181.595a.623.623 0 01-.047.244.336.336 0 01-.134.15.334.334 0 01-.204.03.557.557 0 01-.22-.077 2918.8 2918.8 0 00-20.412-11.926c-4.497-2.593-7.796-4.461-8.241-4.612a.596.596 0 01-.237-.167 1.129 1.129 0 01-.318-.294 1.371 1.371 0 01-.21-.414.847.847 0 010-.558.332.332 0 01.334-.224c.247.003 2.945 1.484 8.046 4.428z" fill="#fff"/><path d="M406.412 175.962a.222.222 0 01.087.09c.036.157.023.184 0 .197l-41.984-24.19a.228.228 0 01-.087-.09l41.984 23.993z" fill="#10CFC9"/><path d="M407.221 175.647c.204.337.318.72.335 1.113a.789.789 0 01-.335.732.782.782 0 01-.755-.053l-41.948-24.207a2.357 2.357 0 01-.802-.849 2.218 2.218 0 01-.334-1.116.794.794 0 01.334-.732.812.812 0 01.802.084l41.894 24.176c.338.211.616.504.809.852zm-.809.595c.111 0 .124-.03.124-.067-.06-.16-.09-.193-.124-.21l-41.897-24.18c-.063.227-.033.26 0 .277l41.897 24.177m-34.278.581c.591.411 3.587 2.172 9.213 5.42a6527.028 6527.028 0 0023.909 13.701c.1.2.087.227.066.237a.07.07 0 01-.076 0l-5.881-3.365a4216.244 4216.244 0 01-17.263-9.901c-4.77-2.754-9.276-5.347-9.895-5.818-.123-.171-.127-.204-.12-.227a.056.056 0 01.015-.032.056.056 0 01.032-.015z" fill="#10CFC9"/><path d="M406.285 196.155c.055.176.085.36.087.544a.795.795 0 01-.334.726.798.798 0 01-.796-.081l-5.877-3.365a4595.4 4595.4 0 01-17.266-9.904c-8.224-4.745-9.775-5.681-10.219-6.065a2.435 2.435 0 01-.388-.448 2.795 2.795 0 01-.284-.545 1.707 1.707 0 01-.101-1.032.59.59 0 01.532-.468c.195-.004.386.05.551.153a1.7 1.7 0 01.251.178c.398.27 2.541 1.547 8.812 5.166 4.988 2.88 12.586 7.241 23.993 13.757.157.09.3.203.424.334a2.583 2.583 0 01.615 1.05zm-.963.03a.075.075 0 00.034-.07c-10.601-6.169-18.547-10.724-24.009-13.875-5.626-3.248-8.622-5.012-9.063-5.326-.174-.091-.19-.077-.197-.051a.142.142 0 000 .091c.729.601 5.235 3.201 10.005 5.954a5418.18 5418.18 0 0017.263 9.902l5.881 3.365a.07.07 0 00.076 0m-48.396-49.567c.206.337.321.722.335 1.116a.789.789 0 01-.335.732.804.804 0 01-.805-.08l-42.098-24.297a2.344 2.344 0 01-.806-.849 2.293 2.293 0 01-.334-1.116.804.804 0 01.334-.732.817.817 0 01.806.084l42.098 24.297c.337.207.614.499.805.845zm-.722.608c-.023-.237-.053-.27-.087-.287l-42.097-24.297a.083.083 0 00-.044-.012.082.082 0 00-.043.012c.023.234.053.267.087.287l42.097 24.294a.088.088 0 00.044.012c.015 0 .03-.004.043-.012" fill="#10CFC9"/><path d="M356.107 146.929a.228.228 0 01.087.09c-.024.211-.054.207-.087.187l-42.098-24.293a.27.27 0 01-.087-.094c.024-.207.054-.207.087-.187l42.098 24.297zm-53.327-40.762c.445.067 4.045 2.153 9.361 5.22 5.315 3.068 12.345 7.118 19.576 11.282 7.084 4.076 14.191 8.17 19.643 11.318-2.928-1.474-7.565-4.157-12.827-7.191a8793.598 8793.598 0 00-11.152-6.433l-10.721-6.182-13.88-8.014z" fill="#10CFC9"/><path d="M352.146 133.656c.202.333.317.713.334 1.103.002.153-.028.306-.087.447a.6.6 0 01-.251.274.626.626 0 01-.371.064 1.094 1.094 0 01-.408-.15 3304.258 3304.258 0 00-12.736-7.372c-3.574-2.065-7.442-4.294-11.256-6.493l-10.721-6.182-13.983-8.07a2.54 2.54 0 01-.766-.976 1.934 1.934 0 01-.194-1.066.632.632 0 01.438-.571.877.877 0 01.669.127l.134.087c.414.267 4.061 2.382 9.293 5.4 5.406 3.121 12.499 7.204 19.479 11.221 7.084 4.08 14.188 8.17 19.643 11.318a2.3 2.3 0 01.783.839zm-.796.565c-5.456-3.382-12.563-7.476-19.646-11.552-7.231-4.164-14.265-8.214-19.577-11.282-5.312-3.068-8.915-5.153-9.28-5.393l13.8 8.187 10.721 6.182c3.777 2.175 7.605 4.384 11.152 6.432 5.262 3.035 9.898 5.718 12.83 7.426" fill="#10CFC9"/><path d="M450.987 185.709a3.282 3.282 0 011.494 2.59l-.401 141.251c0 .949-.668 1.337-1.501.859a3.313 3.313 0 01-1.497-2.59l.401-141.251c.003-.953.678-1.337 1.504-.859z" fill="#fff"/><path d="M451.01 176.75a3.294 3.294 0 011.494 2.59l-.177 62.245c0 .949-.668 1.336-1.504.855a3.288 3.288 0 01-1.494-2.586l.177-62.245c.003-.959.675-1.337 1.504-.859zM219.017 26.045a4.765 4.765 0 012.162 3.742c0 1.374-.976 1.929-2.176 1.237a4.767 4.767 0 01-2.163-3.743c.004-1.373.98-1.928 2.177-1.236z" fill="#10CFC9"/><path d="M226.625 30.436a4.766 4.766 0 012.16 3.74c0 1.376-.976 1.93-2.176 1.239a4.772 4.772 0 01-2.163-3.743c.003-1.386.979-1.928 2.179-1.236zm7.602 4.391a4.768 4.768 0 012.166 3.742c0 1.37-.979 1.925-2.179 1.233a4.761 4.761 0 01-2.16-3.739c.004-1.373.976-1.928 2.173-1.236z" fill="#fff"/><path d="M209.426 14.483l252.125 145.505-.047 17.009L209.376 31.495l.05-17.012zm9.578 16.541c1.2.692 2.173.137 2.176-1.236a4.753 4.753 0 00-2.163-3.743c-1.197-.692-2.17-.137-2.176 1.236a4.763 4.763 0 002.163 3.743zm7.605 4.391c1.2.692 2.173.137 2.176-1.24a4.766 4.766 0 00-2.159-3.74c-1.201-.69-2.177-.136-2.18 1.237a4.763 4.763 0 002.163 3.743zm7.605 4.388c1.2.695 2.176.137 2.18-1.233a4.767 4.767 0 00-2.167-3.743c-1.196-.692-2.169-.137-2.173 1.236a4.756 4.756 0 002.16 3.74" fill="#1226AA"/><path d="M341.449 298.166l-46.016-7.873 3.587-16.615 42.429 24.488z" fill="#231F20"/><path d="M112.358 239.698l-6.81 3.943-7.07-4.04 6.81-3.947 7.07 4.044z" fill="#1226AA" stroke="#fff" stroke-width=".595" stroke-linejoin="round"/><path d="M112.358 239.698v1.724l-6.81 3.94v-1.721l6.81-3.943zm-6.81 3.943v1.717l-7.07-4.04v-1.687l7.07 4.01zm49.167 4.433l-8.444 4.896-8.769-5.012 8.445-4.896 8.768 5.012zm0 0v2.139l-8.444 4.885v-2.128l8.444-4.896zm-8.444 4.909v2.129l-8.769-5.013v-2.128l8.769 5.012z" fill="#1226AA" stroke="#fff" stroke-width=".595" stroke-linejoin="round"/><path d="M196.296 329.076v10.991" stroke="#333" stroke-width="1.189"/></svg>