<svg width="112" height="37" viewBox="0 0 112 37" fill="none" xmlns="http://www.w3.org/2000/svg"><path d="M51.946 15.025c0 1.004-.516 1.511-1.535 1.511h-5.23c-.997 0-1.49-.507-1.49-1.511V1.522C43.68.507 44.184 0 45.17 0h5.23c1.02 0 1.534.507 1.534 1.522v3.861h-2.497V2.118h-3.248v12.29h3.248v-3.476h2.497v4.093h.012zm10.404 1.511h-2.53V9.112h-3.394v7.424h-2.51V0h2.51v6.818h3.393V0h2.531v16.536zM64.39 0h2.509v16.536h-2.51V0zm12.678 9.002c0 1.026-.515 1.544-1.534 1.544h-4.066v5.99h-2.509V0h6.575c1.019 0 1.534.507 1.534 1.522v7.48zm-2.531-6.884h-3.069v6.3h3.069v-6.3zM86.89 15.025c0 1.004-.504 1.511-1.524 1.511h-5.05c-1.009 0-1.513-.507-1.513-1.511v-3.938h2.509v3.364h3.069v-3.243L79.352 6.52c-.37-.342-.549-.784-.549-1.324V1.522C78.803.507 79.307 0 80.315 0h5.051c1.02 0 1.524.496 1.524 1.5v3.696h-2.51V2.085h-3.068v2.99l5.029 4.666c.37.342.549.783.549 1.346v3.938zm-34.698 21.7h-2.486l-.504-3.134h-3.148l-.504 3.133h-2.475v-.044l3.248-16.514h2.643l3.226 16.558zm-3.349-5.263l-1.22-7.457-1.233 7.457h2.453zm11.346 5.262h-6.597V20.188h2.509v14.33h4.088v2.206zm8.086 0h-6.597V20.188h2.51v14.33h4.087v2.206zm1.535-16.536h2.508v16.536H69.81V20.188zm13.07 16.536h-2.486l-.504-3.133h-3.148l-.504 3.133h-2.475v-.044l3.248-16.514h2.643l3.226 16.558zm-3.349-5.262l-1.22-7.457-1.233 7.457h2.453zm13.261 5.262h-2.195l-4.021-10.403c.112.508.157.905.157 1.192v9.211H84.29V20.188h2.195l4.021 10.193c-.112-.507-.157-.905-.157-1.191v-9.002h2.442v16.536zm10.27-1.511c0 1.004-.515 1.511-1.534 1.511h-5.23c-.997 0-1.49-.507-1.49-1.511V21.71c0-1.015.493-1.522 1.49-1.522h5.23c1.019 0 1.534.507 1.534 1.522v3.861h-2.497v-3.265h-3.248v12.29h3.248V31.12h2.497v4.093zM112 36.724h-6.955V20.188h6.888v2.195h-4.379v4.82h3.774v2.152h-3.774v5.185H112v2.184zM37.14 20.508c-1.098 0-2.05.75-2.308 1.787H31.55v-2.626h-2.665v-1.577h2.665v-6.31h-2.665v-1.589h2.665V7.568h3.282c.1.43.325.805.627 1.103a2.38 2.38 0 003.338 0 2.31 2.31 0 00.694-1.644c0-1.29-1.064-2.328-2.363-2.328-1.098 0-2.05.75-2.307 1.788h-3.282V3.86h-2.665V.827H10.618v3.034H7.952v6.332h2.666v1.578H7.952v2.625H4.67a2.366 2.366 0 00-2.307-1.787A2.34 2.34 0 000 14.937c0 .64.269 1.224.694 1.644a2.38 2.38 0 003.338 0 2.33 2.33 0 00.627-1.104h3.293v2.626h2.666v1.577H7.952v6.31h2.666v1.578H7.952v2.625H4.67a2.366 2.366 0 00-2.307-1.787C1.064 28.417 0 29.466 0 30.746c0 1.29 1.064 2.327 2.363 2.327 1.098 0 2.05-.75 2.307-1.787h3.282v2.625h2.666V37h18.267v-3.089h2.632V27.58h-2.632v-1.578h2.665v-2.614h3.282c.1.43.325.805.627 1.103a2.38 2.38 0 003.338 0 2.31 2.31 0 00.694-1.643c.011-1.291-1.053-2.34-2.352-2.34zm-.897-14.363a1.29 1.29 0 01.896-.364c.347 0 .672.143.896.364.224.22.37.54.37.882 0 .342-.146.662-.37.883a1.29 1.29 0 01-.896.364 1.29 1.29 0 01-.896-.364 1.25 1.25 0 01-.37-.883c0-.342.146-.662.37-.882zM3.26 15.819a1.31 1.31 0 01-.896.364 1.29 1.29 0 01-.896-.364 1.25 1.25 0 01-.37-.882c0-.695.56-1.247 1.266-1.247s1.266.552 1.266 1.247c0 .342-.135.65-.37.882zm0 15.809a1.31 1.31 0 01-.896.364 1.29 1.29 0 01-.896-.364 1.25 1.25 0 01-.37-.883c0-.342.146-.662.37-.882a1.29 1.29 0 01.896-.364c.347 0 .672.143.896.364.224.22.37.54.37.882 0 .353-.135.662-.37.883zM30.453 9.1H26.23V4.953h4.223v4.148zM9.06 12.851h4.222v4.16H9.061v-4.16zm0 7.91h4.222v4.16H9.061v-4.16zm0 7.91h4.222v4.16H9.061v-4.16zm18.726 6.961H11.715v-1.997h2.666v-6.332h-2.666v-1.577h2.666v-6.332h-2.666v-1.578h2.666v-6.321h-2.666V9.906h2.666V3.574h-2.666V1.622h16.072v1.952h-2.654v6.332h2.665v1.578h-2.654v6.321h2.666v1.578h-2.655v6.332h2.666v1.577h-2.655v6.332h2.666v2.008h-.045zm2.666-10.712H26.23v-4.159h4.223v4.16zm7.582-1.191a1.29 1.29 0 01-.896.364 1.29 1.29 0 01-.896-.364 1.25 1.25 0 01-.37-.883c0-.341.146-.661.37-.882a1.29 1.29 0 01.896-.364 1.25 1.25 0 011.266 1.247c0 .341-.146.65-.37.882z" fill="#fff"/></svg>