<svg xmlns="http://www.w3.org/2000/svg" viewBox="0 0 400 400"><style>.st1{fill:#fff}</style><g id="Logo__x2014__FIXED"><path d="M200 5.6C89.9 5.6.7 94.8.7 204.9.7 293 57.8 367.7 137 394c10 1.8 13.6-4.3 13.6-9.6 0-4.8-.2-20.5-.3-37.1-55.4 12.1-67.1-23.5-67.1-23.5-9.1-23-22.1-29.2-22.1-29.2-18.1-12.4 1.4-12.1 1.4-12.1 20 1.4 30.6 20.5 30.6 20.5 17.8 30.5 46.6 21.7 58 16.6 1.8-12.9 7-21.7 12.7-26.7-44.3-5-90.8-22.1-90.8-98.5 0-21.8 7.8-39.5 20.5-53.5-2.1-5-8.9-25.3 1.9-52.7 0 0 16.7-5.4 54.8 20.4 15.9-4.4 32.9-6.6 49.9-6.7 16.9.1 34 2.3 49.9 6.7 38-25.8 54.8-20.4 54.8-20.4 10.8 27.5 4 47.7 2 52.7 12.8 14 20.5 31.7 20.5 53.5 0 76.5-46.6 93.4-91 98.3 7.1 6.2 13.5 18.3 13.5 36.9 0 26.7-.2 48.1-.2 54.7 0 5.3 3.6 11.5 13.7 9.6 79.1-26.4 136.2-101.1 136.2-189.1C399.3 94.8 310.1 5.6 200 5.6z" fill-rule="evenodd" clip-rule="evenodd" fill="#fff"/><path class="st1" d="M76.2 291.8c-.4 1-2 1.3-3.4.6-1.4-.7-2.3-2-1.8-3 .4-1 2-1.3 3.4-.6 1.5.6 2.3 2 1.8 3zm-2.5-1.8M84.3 300.8c-1 .9-2.8.5-4.1-.9-1.3-1.4-1.5-3.2-.6-4.1 1-.9 2.8-.5 4.1.9 1.3 1.3 1.6 3.2.6 4.1zm-1.9-2.1M92.1 312.3c-1.2.9-3.2.1-4.5-1.7-1.2-1.8-1.2-3.9 0-4.8 1.2-.9 3.2-.1 4.5 1.7 1.3 1.8 1.3 3.9 0 4.8zm0 0M102.9 323.3c-1.1 1.2-3.4.9-5.1-.8-1.7-1.6-2.2-3.9-1.1-5.1 1.1-1.2 3.4-.9 5.2.8 1.6 1.7 2.1 4 1 5.1zm0 0M117.7 329.8c-.5 1.6-2.7 2.3-5 1.6-2.3-.7-3.7-2.5-3.3-4.1.5-1.6 2.7-2.3 5-1.6 2.3.7 3.8 2.5 3.3 4.1zm0 0M134 331c.1 1.6-1.9 3-4.2 3-2.4.1-4.3-1.3-4.3-2.9 0-1.7 1.9-3 4.3-3 2.3-.1 4.2 1.2 4.2 2.9zm0 0M149.2 328.4c.3 1.6-1.4 3.2-3.7 3.7-2.3.4-4.5-.6-4.8-2.2-.3-1.6 1.4-3.3 3.7-3.7 2.4-.4 4.5.6 4.8 2.2zm0 0"/></g></svg>