<svg width="712" height="152" viewBox="0 0 712 152" fill="none" xmlns="http://www.w3.org/2000/svg"><path d="M86.08 52.01c4.285 2.585 4.301 6.79 0 9.376l-58.203 35.29a16.624 16.624 0 01-7.756 1.927c-2.694 0-5.35-.66-7.755-1.927L3.22 91.153c-4.285-2.57-4.301-6.791 0-9.36l58.22-35.307a16.547 16.547 0 017.747-1.933c2.692 0 5.346.662 7.747 1.933l9.146 5.523z" fill="#2B2F74"/><path d="M224.661 81.791c4.369 2.568 4.402 6.787 0 9.355l-9.311 5.52a17.208 17.208 0 01-7.928 1.937c-2.755 0-5.472-.664-7.927-1.938l-59.906-35.3c-4.369-2.568-4.402-6.787 0-9.355l9.327-5.519a17.211 17.211 0 017.928-1.938c2.756 0 5.472.664 7.928 1.938l59.889 35.3zm-40.016 25.852l-61.244-35.31a16.96 16.96 0 00-8.491-1.918 16.613 16.613 0 00-8.358 1.918l-60.942 35.31c-4.43 2.585-4.396 6.788 0 9.374l9.577 5.504a17.937 17.937 0 0016.197 0l43.609-25.286 43.877 25.286a18.027 18.027 0 0016.214 0l9.527-5.521c4.53-2.552 4.496-6.772.034-9.357z" fill="#59C6C2"/><path d="M135.073 25.916c4.76 2.488 4.778 6.575 0 9.079l-10.107 5.33a20.553 20.553 0 01-8.614 1.878 20.56 20.56 0 01-8.615-1.878l-10.16-5.33c-4.76-2.504-4.778-6.591 0-9.079l10.089-5.347a20.677 20.677 0 018.615-1.866c2.992 0 5.943.64 8.614 1.866l10.178 5.347z" fill="#2B2F74"/><path d="M293.805 9.993V0h10.154v9.993h-10.154zm.322 43.76V15.957h9.51v37.796h-9.51zm19.272 0V15.957h9.107l.242 4.27c.967-1.074 2.364-2.175 4.19-3.303 1.827-1.182 4.218-1.773 7.173-1.773 4.674 0 8.247 1.424 10.718 4.271 2.525 2.794 3.788 6.581 3.788 11.363v22.968h-9.51V30.866c0-2.364-.671-4.218-2.014-5.56-1.29-1.344-2.982-2.016-5.078-2.016-2.632 0-4.808.967-6.527 2.902-1.72 1.934-2.579 4.298-2.579 7.091v20.47h-9.51zm47.611-12.894V23.693h-6.447v-7.736h6.447V3.707h9.51v12.25h10.154v7.736H370.52v16.521c0 2.15.349 3.815 1.047 4.997.752 1.128 1.934 1.692 3.546 1.692 1.504 0 2.686-.215 3.546-.645.913-.43 1.773-.94 2.579-1.53l4.029 5.882c-1.88 1.504-3.734 2.606-5.56 3.304-1.827.699-3.869 1.048-6.125 1.048-4.621 0-7.871-1.29-9.751-3.868-1.881-2.58-2.821-5.99-2.821-10.235zm58.009 1.611l5.158 5.803-1.37 1.37c-.699.699-1.746 1.477-3.143 2.337-1.343.806-3.089 1.505-5.238 2.095-2.096.645-4.621.967-7.576.967-4.029 0-7.548-.86-10.557-2.578-2.955-1.773-5.265-4.218-6.931-7.334-1.665-3.116-2.498-6.689-2.498-10.718 0-3.707.806-7.038 2.418-9.993 1.665-3.01 3.922-5.373 6.769-7.092 2.901-1.773 6.232-2.66 9.993-2.66 3.493 0 6.421.618 8.785 1.854 2.363 1.235 4.271 2.901 5.721 4.996 1.451 2.042 2.499 4.352 3.143 6.931a32.43 32.43 0 01.967 7.898v1.37h-28.206c0 1.826.511 3.438 1.531 4.835 1.075 1.343 2.418 2.418 4.03 3.224 1.612.752 3.25 1.128 4.916 1.128 2.471 0 4.513-.269 6.125-.806 1.611-.59 2.901-1.236 3.868-1.934.967-.698 1.665-1.263 2.095-1.692zm-22.645-11.604h18.535c0-1.29-.349-2.552-1.048-3.788-.644-1.29-1.611-2.337-2.901-3.143-1.289-.86-2.928-1.29-4.916-1.29-2.095 0-3.868.43-5.319 1.29-1.396.806-2.471 1.854-3.223 3.143-.752 1.236-1.128 2.498-1.128 3.788zm35.627 22.887V15.957h9.107l.241 4.755c.591-.753 1.37-1.532 2.337-2.338 1.021-.86 2.257-1.585 3.708-2.175 1.504-.645 3.277-.968 5.318-.968.914 0 1.72.054 2.418.162.752.107 1.504.295 2.257.564l-1.935 8.945c-1.289-.483-2.74-.725-4.351-.725-2.633 0-4.889.833-6.77 2.498-1.88 1.666-2.82 3.895-2.82 6.689v20.39h-9.51zm57.627-11.121l5.641 6.125c-1.773 1.88-3.895 3.384-6.366 4.513-2.418 1.128-5.212 1.692-8.382 1.692-4.298 0-7.978-.833-11.04-2.498-3.009-1.72-5.319-4.084-6.931-7.092-1.558-3.063-2.337-6.582-2.337-10.557 0-3.654.86-7.012 2.579-10.074a19.756 19.756 0 017.092-7.334c3.062-1.826 6.608-2.74 10.637-2.74 3.063 0 5.857.564 8.382 1.693 2.525 1.074 4.674 2.552 6.447 4.432l-6.044 6.125a10.671 10.671 0 00-3.788-2.901c-1.451-.699-3.116-1.048-4.997-1.048-2.417 0-4.432.564-6.044 1.692-1.558 1.129-2.74 2.606-3.546 4.433-.752 1.773-1.128 3.68-1.128 5.722 0 1.88.376 3.734 1.128 5.56.806 1.827 1.988 3.331 3.546 4.513 1.612 1.182 3.627 1.773 6.044 1.773 1.881 0 3.6-.349 5.158-1.047 1.612-.753 2.928-1.746 3.949-2.982zm12.023 11.121V0h9.348v19.825c.967-1.075 2.391-2.122 4.272-3.143 1.88-1.02 4.244-1.531 7.091-1.531 4.675 0 8.247 1.45 10.719 4.352 2.525 2.9 3.787 6.662 3.787 11.282v22.968h-9.509V30.866c0-2.364-.672-4.218-2.015-5.56-1.289-1.344-2.982-2.016-5.077-2.016-2.633 0-4.808.967-6.528 2.902-1.719 1.934-2.579 4.298-2.579 7.091v20.47h-9.509zm66.952 0l-.242-3.546c-1.021 1.236-2.605 2.337-4.754 3.304-2.096.967-4.406 1.45-6.931 1.45-2.042 0-4.083-.429-6.125-1.288-1.988-.86-3.653-2.203-4.996-4.03-1.29-1.827-1.935-4.137-1.935-6.93 0-4.299 1.532-7.63 4.594-9.994 3.062-2.364 7.065-3.546 12.008-3.546.913 0 1.988.027 3.223.08 1.29.055 2.928.135 4.916.243v-.887c0-1.88-.752-3.358-2.256-4.432-1.505-1.075-3.466-1.612-5.883-1.612-2.687 0-4.836.35-6.447 1.048-1.612.698-3.036 1.45-4.272 2.256l-4.351-6.447c1.02-.752 2.229-1.477 3.626-2.176 1.397-.752 3.116-1.37 5.158-1.853 2.041-.484 4.567-.726 7.575-.726 4.836 0 8.704 1.29 11.605 3.868 2.901 2.526 4.352 5.803 4.352 9.832v25.386h-8.865zm-.242-13.378v-3.707a81.445 81.445 0 00-4.029-.242 96.878 96.878 0 00-3.304-.08c-3.063 0-5.212.618-6.447 1.853-1.236 1.182-1.854 2.552-1.854 4.11 0 1.612.564 2.875 1.692 3.788 1.182.913 2.902 1.37 5.158 1.37 1.504 0 2.901-.322 4.191-.967 1.343-.645 2.444-1.504 3.304-2.579.859-1.074 1.289-2.256 1.289-3.546zm18.287 13.378V15.957h9.106l.242 4.27c.967-1.074 2.364-2.175 4.191-3.303 1.826-1.182 4.217-1.773 7.172-1.773 4.674 0 8.247 1.424 10.718 4.271 2.525 2.794 3.788 6.581 3.788 11.363v22.968h-9.51V30.866c0-2.364-.671-4.218-2.014-5.56-1.29-1.344-2.982-2.016-5.077-2.016-2.633 0-4.809.967-6.528 2.902-1.719 1.934-2.579 4.298-2.579 7.091v20.47h-9.509zm46.24 13.137l4.271-7.012c2.848 1.934 6.528 2.901 11.041 2.901 2.472 0 4.54-.779 6.205-2.337 1.666-1.504 2.499-3.573 2.499-6.205v-4.11a20.093 20.093 0 01-4.271 2.578c-1.505.699-3.52 1.048-6.045 1.048-3.599 0-6.715-.779-9.348-2.337-2.579-1.612-4.567-3.788-5.964-6.528-1.343-2.794-2.014-5.963-2.014-9.51 0-3.76.859-7.172 2.578-10.234 1.773-3.063 4.245-5.48 7.415-7.253 3.223-1.827 7.011-2.74 11.363-2.74 3.277 0 6.313.268 9.106.806 2.794.537 5.024 1.101 6.689 1.692v36.749c0 3.492-.779 6.474-2.337 8.945-1.558 2.472-3.707 4.325-6.447 5.56-2.686 1.29-5.775 1.935-9.268 1.935-3.922 0-7.038-.35-9.348-1.048-2.31-.698-4.352-1.665-6.125-2.9zm24.016-29.174v-13.54a11.407 11.407 0 00-2.337-.563c-.806-.162-2.069-.242-3.788-.242-2.579 0-4.755.564-6.528 1.692-1.719 1.075-3.035 2.499-3.949 4.271-.913 1.774-1.37 3.708-1.37 5.803 0 2.901.726 5.346 2.176 7.334 1.451 1.988 3.788 2.981 7.012 2.981 5.856 0 8.784-2.578 8.784-7.736zm49.215 4.754l5.157 5.803-1.37 1.37c-.698.699-1.746 1.477-3.143 2.337-1.343.806-3.089 1.505-5.238 2.095-2.095.645-4.62.967-7.575.967-4.03 0-7.549-.86-10.558-2.578-2.954-1.773-5.265-4.218-6.93-7.334-1.666-3.116-2.498-6.689-2.498-10.718 0-3.707.805-7.038 2.417-9.993 1.666-3.01 3.922-5.373 6.77-7.092 2.901-1.773 6.232-2.66 9.993-2.66 3.492 0 6.42.618 8.784 1.854 2.364 1.235 4.271 2.901 5.722 4.996 1.45 2.042 2.498 4.352 3.143 6.931a32.43 32.43 0 01.967 7.898v1.37h-28.206c0 1.826.51 3.438 1.531 4.835 1.074 1.343 2.418 2.418 4.029 3.224 1.612.752 3.251 1.128 4.916 1.128 2.472 0 4.513-.269 6.125-.806 1.612-.59 2.901-1.236 3.868-1.934.967-.698 1.666-1.263 2.096-1.692zm-22.646-11.604h18.536c0-1.29-.35-2.552-1.048-3.788-.645-1.29-1.612-2.337-2.901-3.143-1.29-.86-2.928-1.29-4.916-1.29-2.096 0-3.869.43-5.319 1.29-1.397.806-2.472 1.854-3.224 3.143-.752 1.236-1.128 2.498-1.128 3.788zM296.545 149.753v-30.06h-6.447v-7.736h6.447v-2.337c0-3.654.725-6.582 2.176-8.785 1.45-2.202 3.25-3.787 5.399-4.754 2.149-1.021 4.298-1.532 6.447-1.532 1.72 0 3.627.242 5.722.726 2.096.483 4.11 1.558 6.044 3.223l-4.432 6.286c-.86-.591-1.8-1.074-2.821-1.45a8.16 8.16 0 00-2.981-.564c-1.881 0-3.385.617-4.513 1.853-1.075 1.182-1.612 2.901-1.612 5.158v2.176h9.751v7.736h-9.671v30.06h-9.509zm21.377-18.938c0-3.654.86-7.012 2.579-10.074a19.762 19.762 0 017.092-7.334c3.063-1.826 6.608-2.74 10.638-2.74 4.029 0 7.548.914 10.557 2.74 3.062 1.827 5.453 4.272 7.173 7.334 1.719 3.062 2.578 6.42 2.578 10.074 0 3.653-.859 7.011-2.578 10.073-1.72 3.063-4.111 5.534-7.173 7.414-3.009 1.827-6.528 2.741-10.557 2.741-4.03 0-7.575-.914-10.638-2.741-3.009-1.88-5.373-4.351-7.092-7.414-1.719-3.062-2.579-6.42-2.579-10.073zm20.309 12.007c2.418 0 4.405-.617 5.964-1.853 1.611-1.236 2.793-2.767 3.545-4.594.806-1.88 1.209-3.734 1.209-5.56 0-1.827-.403-3.654-1.209-5.48-.752-1.827-1.934-3.358-3.545-4.594-1.559-1.236-3.546-1.854-5.964-1.854-2.418 0-4.433.618-6.044 1.854a11.917 11.917 0 00-3.546 4.594c-.752 1.826-1.128 3.653-1.128 5.48 0 1.826.376 3.68 1.128 5.56a11.917 11.917 0 003.546 4.594c1.611 1.236 3.626 1.853 6.044 1.853zm27.898 6.931v-37.796h9.106l.242 4.754c.591-.752 1.37-1.531 2.337-2.337 1.021-.859 2.257-1.585 3.707-2.176 1.505-.644 3.278-.967 5.319-.967.913 0 1.719.054 2.418.162.752.107 1.504.295 2.256.564l-1.934 8.945c-1.289-.483-2.74-.725-4.352-.725-2.632 0-4.889.833-6.769 2.498-1.881 1.666-2.821 3.895-2.821 6.689v20.389h-9.509zm30.772 0v-37.796h9.106l.242 4.271c.913-1.128 2.23-2.257 3.949-3.385 1.719-1.128 4.056-1.692 7.011-1.692 4.997 0 8.784 1.826 11.363 5.48 1.934-1.988 3.922-3.385 5.964-4.191 2.041-.859 4.378-1.289 7.011-1.289 4.782 0 8.435 1.424 10.96 4.271 2.579 2.794 3.868 6.582 3.868 11.363v22.968h-9.509v-22.887c0-2.364-.618-4.218-1.854-5.561-1.182-1.343-2.82-2.015-4.916-2.015-2.632 0-4.754.967-6.366 2.902-1.558 1.934-2.337 4.298-2.337 7.091v20.47h-9.51v-22.887c0-2.364-.618-4.218-1.853-5.561-1.182-1.343-2.821-2.015-4.916-2.015-2.633 0-4.755.967-6.367 2.902-1.558 1.934-2.337 4.298-2.337 7.091v20.47h-9.509zm91.191 0l-.241-3.546c-1.021 1.236-2.606 2.337-4.755 3.304-2.095.967-4.406 1.451-6.931 1.451-2.041 0-4.083-.43-6.125-1.29-1.987-.859-3.653-2.202-4.996-4.029-1.29-1.827-1.934-4.137-1.934-6.931 0-4.298 1.531-7.629 4.593-9.993 3.063-2.364 7.065-3.546 12.008-3.546.913 0 1.988.027 3.224.081a408 408 0 014.916.242v-.887c0-1.88-.753-3.358-2.257-4.432-1.504-1.075-3.465-1.612-5.883-1.612-2.686 0-4.835.349-6.447 1.048-1.612.698-3.036 1.45-4.271 2.256l-4.352-6.447c1.021-.752 2.23-1.477 3.626-2.176 1.397-.752 3.117-1.37 5.158-1.853 2.042-.484 4.567-.726 7.576-.726 4.835 0 8.703 1.29 11.604 3.869 2.902 2.525 4.352 5.802 4.352 9.831v25.386h-8.865zm-.241-13.378v-3.707a82.466 82.466 0 00-4.03-.242 98.357 98.357 0 00-3.304-.08c-3.062 0-5.211.618-6.447 1.853-1.236 1.182-1.854 2.552-1.854 4.11 0 1.612.564 2.875 1.693 3.788 1.182.913 2.901 1.37 5.157 1.37 1.505 0 2.902-.322 4.191-.967 1.343-.645 2.445-1.504 3.304-2.579.86-1.074 1.29-2.256 1.29-3.546zm21.509.484v-17.166h-6.447v-7.736h6.447v-12.25h9.51v12.25h10.154v7.736H518.87v16.521c0 2.149.349 3.815 1.048 4.997.752 1.128 1.934 1.692 3.546 1.692 1.504 0 2.686-.215 3.546-.645.913-.43 1.772-.94 2.578-1.531l4.03 5.883c-1.881 1.504-3.734 2.606-5.561 3.304-1.827.699-3.868 1.048-6.125 1.048-4.62 0-7.871-1.29-9.751-3.868-1.88-2.579-2.821-5.991-2.821-10.235z" fill="#2B2C82"/></svg>