<svg width="82" height="82" viewBox="0 0 82 82" fill="none" xmlns="http://www.w3.org/2000/svg"><path d="M35 74.75v-.25h-3v6.75h6.75v-3H35v-3.5zm8.5-11.5h-.25v3H47V70h3v-6.75h-6.5zm-11.25 0H32V70h3v-3.75h3.75v-3h-6.5zM47 74.75v3.5h-3.75v3H50V74.5h-3v.25zm-8.5-56h.25v-3H35V12h-3v6.75h6.5zM35 7.25v-3.5h3.75v-3H32V7.5h3v-.25zm12 0v.25h3V.75h-6.75v3H47v3.5zm2.75 11.5H50V12h-3v3.75h-3.75v3h6.5z" fill="#10CFC9" stroke="#10CFC9" stroke-width=".5"/><path d="M63.5 32h-.25v7.5H50V32H32v7.5H18.75V32h-18v18h18v-7.5H32V50h18v-7.5h13.25V50h18V32H63.5zM15.75 47h-12V35h12v12zM47 41v6H35V35h12v6zm31.25 6h-12V35h12v12z" fill="#fff" stroke="#fff" stroke-width=".5"/></svg>